<svg width="100" height="101" viewBox="0 0 100 101" fill="none" xmlns="http://www.w3.org/2000/svg">
<path d="M6.80156 8.48594C7.4643 8.48594 8.00156 7.94869 8.00156 7.28594C8.00156 6.6232 7.4643 6.08594 6.80156 6.08594C6.13882 6.08594 5.60156 6.6232 5.60156 7.28594C5.60156 7.94869 6.13882 8.48594 6.80156 8.48594Z" fill="#A6B5BC"/>
<path d="M21.2 8.48594C21.8627 8.48594 22.4 7.94869 22.4 7.28594C22.4 6.6232 21.8627 6.08594 21.2 6.08594C20.5373 6.08594 20 6.6232 20 7.28594C20 7.94869 20.5373 8.48594 21.2 8.48594Z" fill="#A6B5BC"/>
<path d="M35.5984 8.48594C36.2612 8.48594 36.7984 7.94869 36.7984 7.28594C36.7984 6.6232 36.2612 6.08594 35.5984 6.08594C34.9357 6.08594 34.3984 6.6232 34.3984 7.28594C34.3984 7.94869 34.9357 8.48594 35.5984 8.48594Z" fill="#A6B5BC"/>
<path d="M50.0047 8.48594C50.6674 8.48594 51.2047 7.94869 51.2047 7.28594C51.2047 6.6232 50.6674 6.08594 50.0047 6.08594C49.3419 6.08594 48.8047 6.6232 48.8047 7.28594C48.8047 7.94869 49.3419 8.48594 50.0047 8.48594Z" fill="#A6B5BC"/>
<path d="M64.4031 8.48594C65.0659 8.48594 65.6031 7.94869 65.6031 7.28594C65.6031 6.6232 65.0659 6.08594 64.4031 6.08594C63.7404 6.08594 63.2031 6.6232 63.2031 7.28594C63.2031 7.94869 63.7404 8.48594 64.4031 8.48594Z" fill="#A6B5BC"/>
<path d="M78.8016 8.48594C79.4643 8.48594 80.0016 7.94869 80.0016 7.28594C80.0016 6.6232 79.4643 6.08594 78.8016 6.08594C78.1388 6.08594 77.6016 6.6232 77.6016 7.28594C77.6016 7.94869 78.1388 8.48594 78.8016 8.48594Z" fill="#A6B5BC"/>
<path d="M93.2 8.48594C93.8627 8.48594 94.4 7.94869 94.4 7.28594C94.4 6.6232 93.8627 6.08594 93.2 6.08594C92.5373 6.08594 92 6.6232 92 7.28594C92 7.94869 92.5373 8.48594 93.2 8.48594Z" fill="#A6B5BC"/>
<path d="M6.80156 22.8863C7.4643 22.8863 8.00156 22.3491 8.00156 21.6863C8.00156 21.0236 7.4643 20.4863 6.80156 20.4863C6.13882 20.4863 5.60156 21.0236 5.60156 21.6863C5.60156 22.3491 6.13882 22.8863 6.80156 22.8863Z" fill="#A6B5BC"/>
<path d="M21.2 22.8863C21.8627 22.8863 22.4 22.3491 22.4 21.6863C22.4 21.0236 21.8627 20.4863 21.2 20.4863C20.5373 20.4863 20 21.0236 20 21.6863C20 22.3491 20.5373 22.8863 21.2 22.8863Z" fill="#A6B5BC"/>
<path d="M35.5984 22.8863C36.2612 22.8863 36.7984 22.3491 36.7984 21.6863C36.7984 21.0236 36.2612 20.4863 35.5984 20.4863C34.9357 20.4863 34.3984 21.0236 34.3984 21.6863C34.3984 22.3491 34.9357 22.8863 35.5984 22.8863Z" fill="#A6B5BC"/>
<path d="M50.0047 22.8863C50.6674 22.8863 51.2047 22.3491 51.2047 21.6863C51.2047 21.0236 50.6674 20.4863 50.0047 20.4863C49.3419 20.4863 48.8047 21.0236 48.8047 21.6863C48.8047 22.3491 49.3419 22.8863 50.0047 22.8863Z" fill="#A6B5BC"/>
<path d="M64.4031 22.8863C65.0659 22.8863 65.6031 22.3491 65.6031 21.6863C65.6031 21.0236 65.0659 20.4863 64.4031 20.4863C63.7404 20.4863 63.2031 21.0236 63.2031 21.6863C63.2031 22.3491 63.7404 22.8863 64.4031 22.8863Z" fill="#A6B5BC"/>
<path d="M78.8016 22.8863C79.4643 22.8863 80.0016 22.3491 80.0016 21.6863C80.0016 21.0236 79.4643 20.4863 78.8016 20.4863C78.1388 20.4863 77.6016 21.0236 77.6016 21.6863C77.6016 22.3491 78.1388 22.8863 78.8016 22.8863Z" fill="#A6B5BC"/>
<path d="M93.2 22.8863C93.8627 22.8863 94.4 22.3491 94.4 21.6863C94.4 21.0236 93.8627 20.4863 93.2 20.4863C92.5373 20.4863 92 21.0236 92 21.6863C92 22.3491 92.5373 22.8863 93.2 22.8863Z" fill="#A6B5BC"/>
<path d="M6.80156 37.2848C7.4643 37.2848 8.00156 36.7476 8.00156 36.0848C8.00156 35.4221 7.4643 34.8848 6.80156 34.8848C6.13882 34.8848 5.60156 35.4221 5.60156 36.0848C5.60156 36.7476 6.13882 37.2848 6.80156 37.2848Z" fill="#A6B5BC"/>
<path d="M21.2 37.2848C21.8627 37.2848 22.4 36.7476 22.4 36.0848C22.4 35.4221 21.8627 34.8848 21.2 34.8848C20.5373 34.8848 20 35.4221 20 36.0848C20 36.7476 20.5373 37.2848 21.2 37.2848Z" fill="#A6B5BC"/>
<path d="M35.5984 37.2848C36.2612 37.2848 36.7984 36.7476 36.7984 36.0848C36.7984 35.4221 36.2612 34.8848 35.5984 34.8848C34.9357 34.8848 34.3984 35.4221 34.3984 36.0848C34.3984 36.7476 34.9357 37.2848 35.5984 37.2848Z" fill="#A6B5BC"/>
<path d="M50.0047 37.2848C50.6674 37.2848 51.2047 36.7476 51.2047 36.0848C51.2047 35.4221 50.6674 34.8848 50.0047 34.8848C49.3419 34.8848 48.8047 35.4221 48.8047 36.0848C48.8047 36.7476 49.3419 37.2848 50.0047 37.2848Z" fill="#A6B5BC"/>
<path d="M64.4031 37.2848C65.0659 37.2848 65.6031 36.7476 65.6031 36.0848C65.6031 35.4221 65.0659 34.8848 64.4031 34.8848C63.7404 34.8848 63.2031 35.4221 63.2031 36.0848C63.2031 36.7476 63.7404 37.2848 64.4031 37.2848Z" fill="#A6B5BC"/>
<path d="M78.8016 37.2848C79.4643 37.2848 80.0016 36.7476 80.0016 36.0848C80.0016 35.4221 79.4643 34.8848 78.8016 34.8848C78.1388 34.8848 77.6016 35.4221 77.6016 36.0848C77.6016 36.7476 78.1388 37.2848 78.8016 37.2848Z" fill="#A6B5BC"/>
<path d="M93.2 37.2848C93.8627 37.2848 94.4 36.7476 94.4 36.0848C94.4 35.4221 93.8627 34.8848 93.2 34.8848C92.5373 34.8848 92 35.4221 92 36.0848C92 36.7476 92.5373 37.2848 93.2 37.2848Z" fill="#A6B5BC"/>
<path d="M6.80156 51.6852C7.4643 51.6852 8.00156 51.148 8.00156 50.4852C8.00156 49.8225 7.4643 49.2852 6.80156 49.2852C6.13882 49.2852 5.60156 49.8225 5.60156 50.4852C5.60156 51.148 6.13882 51.6852 6.80156 51.6852Z" fill="#A6B5BC"/>
<path d="M21.2 51.6852C21.8627 51.6852 22.4 51.148 22.4 50.4852C22.4 49.8225 21.8627 49.2852 21.2 49.2852C20.5373 49.2852 20 49.8225 20 50.4852C20 51.148 20.5373 51.6852 21.2 51.6852Z" fill="#A6B5BC"/>
<path d="M35.5984 51.6852C36.2612 51.6852 36.7984 51.148 36.7984 50.4852C36.7984 49.8225 36.2612 49.2852 35.5984 49.2852C34.9357 49.2852 34.3984 49.8225 34.3984 50.4852C34.3984 51.148 34.9357 51.6852 35.5984 51.6852Z" fill="#A6B5BC"/>
<path d="M50.0047 51.6852C50.6674 51.6852 51.2047 51.148 51.2047 50.4852C51.2047 49.8225 50.6674 49.2852 50.0047 49.2852C49.3419 49.2852 48.8047 49.8225 48.8047 50.4852C48.8047 51.148 49.3419 51.6852 50.0047 51.6852Z" fill="#A6B5BC"/>
<path d="M64.4031 51.6852C65.0659 51.6852 65.6031 51.148 65.6031 50.4852C65.6031 49.8225 65.0659 49.2852 64.4031 49.2852C63.7404 49.2852 63.2031 49.8225 63.2031 50.4852C63.2031 51.148 63.7404 51.6852 64.4031 51.6852Z" fill="#A6B5BC"/>
<path d="M78.8016 51.6852C79.4643 51.6852 80.0016 51.148 80.0016 50.4852C80.0016 49.8225 79.4643 49.2852 78.8016 49.2852C78.1388 49.2852 77.6016 49.8225 77.6016 50.4852C77.6016 51.148 78.1388 51.6852 78.8016 51.6852Z" fill="#A6B5BC"/>
<path d="M93.2 51.6852C93.8627 51.6852 94.4 51.148 94.4 50.4852C94.4 49.8225 93.8627 49.2852 93.2 49.2852C92.5373 49.2852 92 49.8225 92 50.4852C92 51.148 92.5373 51.6852 93.2 51.6852Z" fill="#A6B5BC"/>
<path d="M6.80156 66.0855C7.4643 66.0855 8.00156 65.5483 8.00156 64.8856C8.00156 64.2228 7.4643 63.6855 6.80156 63.6855C6.13882 63.6855 5.60156 64.2228 5.60156 64.8856C5.60156 65.5483 6.13882 66.0855 6.80156 66.0855Z" fill="#A6B5BC"/>
<path d="M21.2 66.0855C21.8627 66.0855 22.4 65.5483 22.4 64.8856C22.4 64.2228 21.8627 63.6855 21.2 63.6855C20.5373 63.6855 20 64.2228 20 64.8856C20 65.5483 20.5373 66.0855 21.2 66.0855Z" fill="#A6B5BC"/>
<path d="M35.5984 66.0855C36.2612 66.0855 36.7984 65.5483 36.7984 64.8856C36.7984 64.2228 36.2612 63.6855 35.5984 63.6855C34.9357 63.6855 34.3984 64.2228 34.3984 64.8856C34.3984 65.5483 34.9357 66.0855 35.5984 66.0855Z" fill="#A6B5BC"/>
<path d="M50.0047 66.0855C50.6674 66.0855 51.2047 65.5483 51.2047 64.8856C51.2047 64.2228 50.6674 63.6855 50.0047 63.6855C49.3419 63.6855 48.8047 64.2228 48.8047 64.8856C48.8047 65.5483 49.3419 66.0855 50.0047 66.0855Z" fill="#A6B5BC"/>
<path d="M64.4031 66.0855C65.0659 66.0855 65.6031 65.5483 65.6031 64.8856C65.6031 64.2228 65.0659 63.6855 64.4031 63.6855C63.7404 63.6855 63.2031 64.2228 63.2031 64.8856C63.2031 65.5483 63.7404 66.0855 64.4031 66.0855Z" fill="#A6B5BC"/>
<path d="M78.8016 66.0855C79.4643 66.0855 80.0016 65.5483 80.0016 64.8856C80.0016 64.2228 79.4643 63.6855 78.8016 63.6855C78.1388 63.6855 77.6016 64.2228 77.6016 64.8856C77.6016 65.5483 78.1388 66.0855 78.8016 66.0855Z" fill="#A6B5BC"/>
<path d="M93.2 66.0855C93.8627 66.0855 94.4 65.5483 94.4 64.8856C94.4 64.2228 93.8627 63.6855 93.2 63.6855C92.5373 63.6855 92 64.2228 92 64.8856C92 65.5483 92.5373 66.0855 93.2 66.0855Z" fill="#A6B5BC"/>
<path d="M6.80156 80.4859C7.4643 80.4859 8.00156 79.9487 8.00156 79.2859C8.00156 78.6232 7.4643 78.0859 6.80156 78.0859C6.13882 78.0859 5.60156 78.6232 5.60156 79.2859C5.60156 79.9487 6.13882 80.4859 6.80156 80.4859Z" fill="#A6B5BC"/>
<path d="M21.2 80.4859C21.8627 80.4859 22.4 79.9487 22.4 79.2859C22.4 78.6232 21.8627 78.0859 21.2 78.0859C20.5373 78.0859 20 78.6232 20 79.2859C20 79.9487 20.5373 80.4859 21.2 80.4859Z" fill="#A6B5BC"/>
<path d="M35.5984 80.4859C36.2612 80.4859 36.7984 79.9487 36.7984 79.2859C36.7984 78.6232 36.2612 78.0859 35.5984 78.0859C34.9357 78.0859 34.3984 78.6232 34.3984 79.2859C34.3984 79.9487 34.9357 80.4859 35.5984 80.4859Z" fill="#A6B5BC"/>
<path d="M50.0047 80.4859C50.6674 80.4859 51.2047 79.9487 51.2047 79.2859C51.2047 78.6232 50.6674 78.0859 50.0047 78.0859C49.3419 78.0859 48.8047 78.6232 48.8047 79.2859C48.8047 79.9487 49.3419 80.4859 50.0047 80.4859Z" fill="#A6B5BC"/>
<path d="M64.4031 80.4859C65.0659 80.4859 65.6031 79.9487 65.6031 79.2859C65.6031 78.6232 65.0659 78.0859 64.4031 78.0859C63.7404 78.0859 63.2031 78.6232 63.2031 79.2859C63.2031 79.9487 63.7404 80.4859 64.4031 80.4859Z" fill="#A6B5BC"/>
<path d="M78.8016 80.4859C79.4643 80.4859 80.0016 79.9487 80.0016 79.2859C80.0016 78.6232 79.4643 78.0859 78.8016 78.0859C78.1388 78.0859 77.6016 78.6232 77.6016 79.2859C77.6016 79.9487 78.1388 80.4859 78.8016 80.4859Z" fill="#A6B5BC"/>
<path d="M93.2 80.4859C93.8627 80.4859 94.4 79.9487 94.4 79.2859C94.4 78.6232 93.8627 78.0859 93.2 78.0859C92.5373 78.0859 92 78.6232 92 79.2859C92 79.9487 92.5373 80.4859 93.2 80.4859Z" fill="#A6B5BC"/>
<path d="M6.80156 94.8863C7.4643 94.8863 8.00156 94.3491 8.00156 93.6863C8.00156 93.0236 7.4643 92.4863 6.80156 92.4863C6.13882 92.4863 5.60156 93.0236 5.60156 93.6863C5.60156 94.3491 6.13882 94.8863 6.80156 94.8863Z" fill="#A6B5BC"/>
<path d="M21.2 94.8863C21.8627 94.8863 22.4 94.3491 22.4 93.6863C22.4 93.0236 21.8627 92.4863 21.2 92.4863C20.5373 92.4863 20 93.0236 20 93.6863C20 94.3491 20.5373 94.8863 21.2 94.8863Z" fill="#A6B5BC"/>
<path d="M35.5984 94.8863C36.2612 94.8863 36.7984 94.3491 36.7984 93.6863C36.7984 93.0236 36.2612 92.4863 35.5984 92.4863C34.9357 92.4863 34.3984 93.0236 34.3984 93.6863C34.3984 94.3491 34.9357 94.8863 35.5984 94.8863Z" fill="#A6B5BC"/>
<path d="M50.0047 94.8863C50.6674 94.8863 51.2047 94.3491 51.2047 93.6863C51.2047 93.0236 50.6674 92.4863 50.0047 92.4863C49.3419 92.4863 48.8047 93.0236 48.8047 93.6863C48.8047 94.3491 49.3419 94.8863 50.0047 94.8863Z" fill="#A6B5BC"/>
<path d="M64.4031 94.8863C65.0659 94.8863 65.6031 94.3491 65.6031 93.6863C65.6031 93.0236 65.0659 92.4863 64.4031 92.4863C63.7404 92.4863 63.2031 93.0236 63.2031 93.6863C63.2031 94.3491 63.7404 94.8863 64.4031 94.8863Z" fill="#A6B5BC"/>
<path d="M78.8016 94.8863C79.4643 94.8863 80.0016 94.3491 80.0016 93.6863C80.0016 93.0236 79.4643 92.4863 78.8016 92.4863C78.1388 92.4863 77.6016 93.0236 77.6016 93.6863C77.6016 94.3491 78.1388 94.8863 78.8016 94.8863Z" fill="#A6B5BC"/>
<path d="M93.2 94.8863C93.8627 94.8863 94.4 94.3491 94.4 93.6863C94.4 93.0236 93.8627 92.4863 93.2 92.4863C92.5373 92.4863 92 93.0236 92 93.6863C92 94.3491 92.5373 94.8863 93.2 94.8863Z" fill="#A6B5BC"/>
</svg>
