<svg width="401" height="402" viewBox="0 0 401 402" fill="none" xmlns="http://www.w3.org/2000/svg">
<rect x="51.1914" y="76.0481" width="118.113" height="119.486" rx="13.6" fill="#92A6B0"/>
<path d="M72.0734 99.6103C74.2239 99.6103 75.9672 97.867 75.9672 95.7165C75.9672 93.566 74.2239 91.8228 72.0734 91.8228C69.923 91.8228 68.1797 93.566 68.1797 95.7165C68.1797 97.867 69.923 99.6103 72.0734 99.6103Z" stroke="#3B4144" stroke-width="1.12" stroke-linecap="round" stroke-linejoin="round"/>
<path d="M66.5469 102.608C67.1452 101.688 67.9639 100.932 68.9286 100.409C69.8932 99.8854 70.9733 99.6113 72.0708 99.6113C73.1682 99.6113 74.2483 99.8854 75.213 100.409C76.1776 100.932 76.9963 101.688 77.5947 102.608" stroke="#3B4144" stroke-width="1.12" stroke-linecap="round" stroke-linejoin="round"/>
<path d="M67.3166 155.996V146.727H76.0566V149.027H69.6166V153.213L71.5256 151.925H73.2966C75.5736 151.925 77.4366 153.765 77.4366 156.065V158.687C77.4366 160.987 75.5966 162.827 73.2966 162.827H71.4566C69.1796 162.827 67.3166 160.987 67.3166 158.687V158.457H69.6166V158.687C69.6166 159.699 70.4446 160.527 71.4566 160.527H73.2966C74.3316 160.527 75.1366 159.722 75.1366 158.687V156.065C75.1366 155.053 74.3086 154.225 73.2966 154.225H72.2386L69.6166 155.996H67.3166ZM84.7876 148.107H87.0876V153.857H89.3876V156.157H87.0876V162.827H84.7876V156.157H79.2676V146.727H81.5676V153.857H84.7876V148.107ZM93.5186 158.687C93.5186 159.699 94.3466 160.527 95.3586 160.527H97.1986C98.2336 160.527 99.0386 159.722 99.0386 158.687V156.755C99.0386 155.743 98.2106 154.915 97.1986 154.915H96.1406L93.5186 156.686V158.687ZM91.2186 158.687V150.867C91.2186 148.567 93.0586 146.727 95.3586 146.727H97.1986C99.4986 146.727 101.339 148.567 101.339 150.867V151.557H99.0386V150.867C99.0386 149.832 98.2336 149.027 97.1986 149.027H95.3586C94.3236 149.027 93.5186 149.832 93.5186 150.867V153.903L95.4276 152.615H97.1986C99.4756 152.615 101.339 154.455 101.339 156.755V158.687C101.339 160.987 99.4986 162.827 97.1986 162.827H95.3586C93.0816 162.827 91.2186 160.987 91.2186 158.687ZM106.39 162.827H104.09V158.342L110.99 151.212V149.027H105.47V151.557H103.17V146.727H113.29V152.132L106.39 159.262V162.827ZM121.101 160.527C122.113 160.527 122.941 159.699 122.941 158.664V157.537C122.941 156.502 122.136 155.697 121.101 155.697H119.261C118.226 155.697 117.421 156.525 117.421 157.537V158.664C117.421 159.699 118.249 160.55 119.261 160.527H121.101ZM115.121 158.664V157.537C115.121 156.295 115.673 155.191 116.524 154.432C115.811 153.673 115.351 152.661 115.351 151.534V150.867C115.351 148.567 117.214 146.727 119.491 146.727H120.871C123.171 146.727 125.011 148.567 125.011 150.867V151.534C125.011 152.661 124.574 153.673 123.838 154.432C124.712 155.191 125.241 156.295 125.241 157.537V158.664C125.241 160.941 123.401 162.827 121.101 162.827H119.261C116.984 162.827 115.121 160.941 115.121 158.664ZM117.651 151.534C117.651 152.546 118.433 153.374 119.422 153.397H120.871C121.883 153.397 122.711 152.569 122.711 151.534V150.867C122.711 149.832 121.906 149.027 120.871 149.027H119.491C118.456 149.027 117.651 149.855 117.651 150.867V151.534ZM134.892 150.867C134.892 149.855 134.064 149.027 133.052 149.027H131.212C130.177 149.027 129.372 149.832 129.372 150.867V152.799C129.372 153.811 130.2 154.639 131.212 154.639H132.27L134.892 152.868V150.867ZM127.072 158.687V157.997H129.372V158.687C129.372 159.722 130.177 160.527 131.212 160.527H133.052C134.087 160.527 134.892 159.722 134.892 158.687V155.651L132.983 156.939H131.212C128.935 156.939 127.072 155.099 127.072 152.799V150.867C127.072 148.567 128.912 146.727 131.212 146.727H133.052C135.329 146.727 137.192 148.567 137.192 150.867V158.687C137.192 160.987 135.352 162.827 133.052 162.827H131.212C128.912 162.827 127.072 160.987 127.072 158.687ZM144.543 148.107H146.843V153.857H149.143V156.157H146.843V162.827H144.543V156.157H139.023V146.727H141.323V153.857H144.543V148.107Z" fill="#313334"/>
<path d="M68.3014 171.267C68.976 171.267 69.4982 171.408 69.8678 171.689C70.2432 171.971 70.431 172.364 70.431 172.868C70.431 173.238 70.3312 173.543 70.1318 173.784C69.9382 174.018 69.6566 174.177 69.287 174.259C70.208 174.417 70.6686 174.901 70.6686 175.711C70.6686 176.245 70.4691 176.664 70.0702 176.969C69.6771 177.274 69.1139 177.427 68.3806 177.427H66.0398V171.267H68.3014ZM67.0518 173.88H68.3278C68.6739 173.88 68.9408 173.801 69.1286 173.643C69.3222 173.484 69.419 173.267 69.419 172.992C69.419 172.716 69.3222 172.502 69.1286 172.349C68.9408 172.191 68.6739 172.112 68.3278 172.112H67.0518V173.88ZM67.0518 176.573H68.3894C68.7883 176.573 69.0934 176.494 69.3046 176.336C69.5216 176.171 69.6302 175.945 69.6302 175.658C69.6302 175.359 69.5216 175.127 69.3046 174.963C69.0875 174.798 68.7824 174.716 68.3894 174.716H67.0518V176.573ZM71.8989 171.117C72.0632 171.117 72.201 171.173 72.3125 171.284C72.424 171.39 72.4797 171.525 72.4797 171.689C72.4797 171.853 72.424 171.991 72.3125 172.103C72.201 172.208 72.0632 172.261 71.8989 172.261C71.7346 172.261 71.5968 172.208 71.4853 172.103C71.3738 171.991 71.3181 171.853 71.3181 171.689C71.3181 171.525 71.3738 171.39 71.4853 171.284C71.5968 171.173 71.7346 171.117 71.8989 171.117ZM71.4237 172.921H72.3741V177.427H71.4237V172.921ZM73.2177 171.267H74.1681V177.427H73.2177V171.267ZM75.0118 171.267H75.9622V177.427H75.0118V171.267ZM77.281 171.117C77.4453 171.117 77.5831 171.173 77.6946 171.284C77.8061 171.39 77.8618 171.525 77.8618 171.689C77.8618 171.853 77.8061 171.991 77.6946 172.103C77.5831 172.208 77.4453 172.261 77.281 172.261C77.1167 172.261 76.9789 172.208 76.8674 172.103C76.7559 171.991 76.7002 171.853 76.7002 171.689C76.7002 171.525 76.7559 171.39 76.8674 171.284C76.9789 171.173 77.1167 171.117 77.281 171.117ZM76.8058 172.921H77.7562V177.427H76.8058V172.921ZM80.9758 172.868C81.5097 172.868 81.9438 173.033 82.2782 173.361C82.6185 173.69 82.7886 174.218 82.7886 174.945V177.427H81.8294V174.998C81.8294 174.57 81.7385 174.244 81.5566 174.021C81.3748 173.798 81.1078 173.687 80.7558 173.687C80.3804 173.687 80.0841 173.819 79.867 174.083C79.6558 174.341 79.5502 174.699 79.5502 175.156V177.427H78.5998V172.921H79.427L79.5326 173.511C79.8729 173.082 80.354 172.868 80.9758 172.868ZM87.9386 172.921V177.242C87.9386 177.876 87.7508 178.365 87.3754 178.712C86.9999 179.064 86.4191 179.24 85.633 179.24C85.0228 179.24 84.5271 179.102 84.1458 178.826C83.7644 178.556 83.5532 178.172 83.5122 177.673H84.4802C84.5388 177.925 84.6738 178.119 84.885 178.254C85.0962 178.395 85.369 178.465 85.7034 178.465C86.5658 178.465 86.997 178.046 86.997 177.207V176.705C86.6684 177.198 86.1786 177.444 85.5274 177.444C85.1167 177.444 84.75 177.353 84.4274 177.172C84.1047 176.984 83.8524 176.72 83.6706 176.38C83.4887 176.033 83.3978 175.626 83.3978 175.156C83.3978 174.705 83.4887 174.306 83.6706 173.96C83.8583 173.613 84.1135 173.346 84.4362 173.159C84.7588 172.965 85.1226 172.868 85.5274 172.868C85.8676 172.868 86.161 172.936 86.4074 173.071C86.6538 173.206 86.8532 173.39 87.0058 173.625L87.1114 172.921H87.9386ZM85.6858 176.644C86.0788 176.644 86.3956 176.509 86.6362 176.239C86.8767 175.963 86.997 175.608 86.997 175.174C86.997 174.728 86.8767 174.367 86.6362 174.092C86.3956 173.81 86.0788 173.669 85.6858 173.669C85.2927 173.669 84.9759 173.807 84.7354 174.083C84.4948 174.358 84.3746 174.716 84.3746 175.156C84.3746 175.596 84.4948 175.954 84.7354 176.23C84.9759 176.506 85.2927 176.644 85.6858 176.644ZM95.2549 176.6V177.427H94.7533C94.4599 177.427 94.2487 177.365 94.1197 177.242C93.9906 177.119 93.9261 176.94 93.9261 176.705C93.5858 177.221 93.0901 177.48 92.4389 177.48C91.9343 177.48 91.5295 177.362 91.2245 177.128C90.9194 176.893 90.7669 176.57 90.7669 176.16C90.7669 175.696 90.9311 175.341 91.2597 175.095C91.5882 174.842 92.0663 174.716 92.6941 174.716H93.8293V174.444C93.8293 174.191 93.7413 173.995 93.5653 173.854C93.3893 173.707 93.1458 173.634 92.8349 173.634C92.5591 173.634 92.3303 173.696 92.1485 173.819C91.9725 173.936 91.8669 174.094 91.8317 174.294H90.8989C90.9458 173.842 91.1453 173.493 91.4973 173.247C91.8493 172.994 92.3098 172.868 92.8789 172.868C93.4831 172.868 93.9495 173.009 94.2781 173.291C94.6066 173.572 94.7709 173.977 94.7709 174.505V176.283C94.7709 176.494 94.8706 176.6 95.0701 176.6H95.2549ZM93.8293 175.42H92.6501C92.3567 175.42 92.1309 175.479 91.9725 175.596C91.8141 175.708 91.7349 175.875 91.7349 176.098C91.7349 176.292 91.8082 176.447 91.9549 176.564C92.1074 176.682 92.3127 176.74 92.5709 176.74C92.9639 176.74 93.269 176.635 93.4861 176.424C93.709 176.212 93.8234 175.931 93.8293 175.579V175.42ZM99.8382 175.808C99.7502 176.33 99.5243 176.74 99.1606 177.04C98.7968 177.333 98.3304 177.48 97.7614 177.48C97.3155 177.48 96.9224 177.386 96.5822 177.198C96.2419 177.004 95.9779 176.732 95.7902 176.38C95.6083 176.028 95.5174 175.623 95.5174 175.165C95.5174 174.708 95.6112 174.306 95.799 173.96C95.9867 173.613 96.2507 173.346 96.591 173.159C96.9371 172.965 97.336 172.868 97.7878 172.868C98.351 172.868 98.8115 173.018 99.1694 173.317C99.5272 173.61 99.7502 174.012 99.8382 174.523H98.8614C98.7968 174.265 98.6678 174.059 98.4742 173.907C98.2806 173.754 98.043 173.678 97.7614 173.678C97.38 173.678 97.072 173.816 96.8374 174.092C96.6086 174.367 96.4942 174.725 96.4942 175.165C96.4942 175.611 96.6086 175.975 96.8374 176.256C97.072 176.532 97.38 176.67 97.7614 176.67C98.0547 176.67 98.2982 176.594 98.4918 176.441C98.6854 176.283 98.8115 176.072 98.8702 175.808H99.8382ZM104.588 175.808C104.5 176.33 104.275 176.74 103.911 177.04C103.547 177.333 103.081 177.48 102.512 177.48C102.066 177.48 101.673 177.386 101.332 177.198C100.992 177.004 100.728 176.732 100.54 176.38C100.359 176.028 100.268 175.623 100.268 175.165C100.268 174.708 100.362 174.306 100.549 173.96C100.737 173.613 101.001 173.346 101.341 173.159C101.687 172.965 102.086 172.868 102.538 172.868C103.101 172.868 103.562 173.018 103.92 173.317C104.278 173.61 104.5 174.012 104.588 174.523H103.612C103.547 174.265 103.418 174.059 103.224 173.907C103.031 173.754 102.793 173.678 102.512 173.678C102.13 173.678 101.822 173.816 101.588 174.092C101.359 174.367 101.244 174.725 101.244 175.165C101.244 175.611 101.359 175.975 101.588 176.256C101.822 176.532 102.13 176.67 102.512 176.67C102.805 176.67 103.048 176.594 103.242 176.441C103.436 176.283 103.562 176.072 103.62 175.808H104.588ZM107.315 177.48C106.863 177.48 106.461 177.386 106.109 177.198C105.763 177.004 105.493 176.734 105.3 176.388C105.112 176.036 105.018 175.632 105.018 175.174C105.018 174.722 105.112 174.323 105.3 173.977C105.493 173.625 105.763 173.352 106.109 173.159C106.461 172.965 106.863 172.868 107.315 172.868C107.766 172.868 108.165 172.965 108.512 173.159C108.864 173.352 109.133 173.625 109.321 173.977C109.515 174.323 109.612 174.722 109.612 175.174C109.612 175.632 109.515 176.036 109.321 176.388C109.133 176.734 108.864 177.004 108.512 177.198C108.165 177.386 107.766 177.48 107.315 177.48ZM107.315 176.67C107.714 176.67 108.033 176.532 108.274 176.256C108.52 175.975 108.644 175.614 108.644 175.174C108.644 174.734 108.52 174.376 108.274 174.1C108.033 173.819 107.714 173.678 107.315 173.678C106.916 173.678 106.596 173.819 106.356 174.1C106.115 174.376 105.995 174.734 105.995 175.174C105.995 175.614 106.115 175.975 106.356 176.256C106.596 176.532 106.916 176.67 107.315 176.67ZM114.327 172.921V177.427H113.491L113.385 176.855C113.045 177.271 112.582 177.48 111.995 177.48C111.467 177.48 111.039 177.315 110.71 176.987C110.382 176.658 110.217 176.13 110.217 175.403V172.921H111.168V175.306C111.168 175.746 111.256 176.08 111.432 176.309C111.608 176.538 111.869 176.652 112.215 176.652C112.579 176.652 112.863 176.52 113.069 176.256C113.274 175.986 113.377 175.62 113.377 175.156V172.921H114.327ZM117.552 172.868C118.085 172.868 118.52 173.033 118.854 173.361C119.194 173.69 119.364 174.218 119.364 174.945V177.427H118.405V174.998C118.405 174.57 118.314 174.244 118.132 174.021C117.95 173.798 117.684 173.687 117.332 173.687C116.956 173.687 116.66 173.819 116.443 174.083C116.232 174.341 116.126 174.699 116.126 175.156V177.427H115.176V172.921H116.003L116.108 173.511C116.449 173.082 116.93 172.868 117.552 172.868ZM120.431 173.757H119.648V172.921H120.431V171.663H121.39V172.921H122.473V173.757H121.39V176.107C121.39 176.283 121.425 176.409 121.496 176.485C121.566 176.556 121.687 176.591 121.857 176.591H122.578V177.427H121.663C121.235 177.427 120.921 177.327 120.721 177.128C120.528 176.928 120.431 176.62 120.431 176.204V173.757Z" fill="#5F6F77"/>
<rect x="97.543" y="87.7393" width="57.3361" height="17.0394" rx="8.51969" fill="#FBCDCD"/>
<path d="M107.31 96.2591C109.012 96.2591 110.39 95.5069 110.39 94.5791C110.39 93.6513 109.012 92.8992 107.31 92.8992C105.609 92.8992 104.23 93.6513 104.23 94.5791C104.23 95.5069 105.609 96.2591 107.31 96.2591Z" stroke="#313334" stroke-width="0.8" stroke-linecap="round" stroke-linejoin="round"/>
<path d="M104.23 94.5789V96.2588C104.23 97.1866 105.609 97.9388 107.31 97.9388C109.011 97.9388 110.39 97.1866 110.39 96.2588V94.5789" stroke="#313334" stroke-width="0.8" stroke-linecap="round" stroke-linejoin="round"/>
<path d="M104.23 96.2585V97.9385C104.23 98.8663 105.609 99.6185 107.31 99.6185C109.011 99.6185 110.39 98.8663 110.39 97.9385V96.2585" stroke="#313334" stroke-width="0.8" stroke-linecap="round" stroke-linejoin="round"/>
<path d="M118.155 98.3787C118.538 98.3787 118.852 98.0649 118.852 97.6814V94.7267C118.852 94.3345 118.547 94.0294 118.155 94.0294H117.458C117.065 94.0294 116.76 94.3432 116.76 94.7267V97.6814C116.76 98.0649 117.074 98.3787 117.458 98.3787H118.155ZM115.889 97.6814V94.7267C115.889 93.8551 116.595 93.1578 117.458 93.1578H118.155C119.026 93.1578 119.724 93.8551 119.724 94.7267V97.6814C119.724 98.5443 119.026 99.259 118.155 99.259H117.458C116.595 99.259 115.889 98.5443 115.889 97.6814ZM123.468 93.1578H124.34V95.1625L122.858 99.259H121.987L120.505 95.1625V93.1578H121.376V95.0056L122.414 97.8819H122.431L123.468 95.0056V93.1578ZM128.956 93.1578V94.0294H125.992V95.6244H128.607V96.4961H125.992V98.3874H128.956V99.259H125.121V93.1578H128.956ZM133.572 99.259H132.613L131.506 96.8185H130.609V99.259H129.737V93.1578H132.003C132.875 93.1578 133.572 93.8551 133.572 94.7267V95.2497C133.572 95.9731 133.093 96.5745 132.43 96.7575L133.572 99.259ZM130.609 95.9469H132.003C132.395 95.9469 132.7 95.6419 132.7 95.2497V94.7267C132.7 94.3345 132.395 94.0294 132.003 94.0294H130.609V95.9469ZM136.619 93.1578C137.482 93.1578 138.188 93.8551 138.188 94.7267V97.6814C138.188 98.5443 137.482 99.259 136.619 99.259H134.353V93.1578H136.619ZM135.225 98.3787H136.619C137.003 98.3787 137.317 98.0649 137.317 97.6814V94.7267C137.317 94.3432 137.011 94.0294 136.619 94.0294H135.225V98.3787ZM142.804 97.6814C142.804 98.5443 142.098 99.259 141.235 99.259H140.538C139.666 99.259 138.969 98.5443 138.969 97.6814V93.1578H139.841V97.6814C139.841 98.0649 140.155 98.3787 140.538 98.3787H141.235C141.619 98.3787 141.933 98.0649 141.933 97.6814V93.1578H142.804V97.6814ZM147.42 93.1578V94.0294H144.457V95.6244H147.072V96.4961H144.457V98.3874H147.42V99.259H143.585V93.1578H147.42Z" fill="#252829"/>
<rect x="171.305" y="76.0481" width="120.325" height="119.486" rx="13.6" fill="#FBCDCD"/>
<path d="M195.543 96.8887C198.945 96.8887 201.703 95.3844 201.703 93.5287C201.703 91.673 198.945 90.1687 195.543 90.1687C192.141 90.1687 189.383 91.673 189.383 93.5287C189.383 95.3844 192.141 96.8887 195.543 96.8887Z" stroke="#313334" stroke-width="1.12" stroke-linecap="round" stroke-linejoin="round"/>
<path d="M189.383 93.5286V96.8886C189.383 98.7443 192.141 100.249 195.543 100.249C198.945 100.249 201.703 98.7443 201.703 96.8886V93.5286" stroke="#313334" stroke-width="1.12" stroke-linecap="round" stroke-linejoin="round"/>
<path d="M189.383 96.8887V100.249C189.383 102.104 192.141 103.609 195.543 103.609C198.945 103.609 201.703 102.104 201.703 100.249V96.8887" stroke="#313334" stroke-width="1.12" stroke-linecap="round" stroke-linejoin="round"/>
<rect width="88.7547" height="27.2" transform="translate(185.59 148.427)" fill="#FBCDCD"/>
<path d="M195.25 152.467C195.25 151.432 194.445 150.627 193.41 150.627H192.95C191.915 150.627 191.11 151.455 191.11 152.467V154.399H194.215V156.699H191.11V157.619H194.215V159.919H191.11V160.264C191.11 161.276 191.938 162.104 192.95 162.104H193.41C194.422 162.104 195.25 161.276 195.25 160.264V160.034H197.55V160.264C197.55 162.541 195.71 164.427 193.41 164.427H192.95C190.673 164.427 188.81 162.541 188.81 160.264V159.919H187.43V157.619H188.81V156.699H187.43V154.399H188.81V152.467C188.81 150.167 190.673 148.327 192.95 148.327H193.41C195.71 148.327 197.55 150.167 197.55 152.467V152.697H195.25V152.467Z" fill="#313334" fill-opacity="0.5"/>
<path d="M199.151 157.596V148.327H207.891V150.627H201.451V154.813L203.36 153.525H205.131C207.408 153.525 209.271 155.365 209.271 157.665V160.287C209.271 162.587 207.431 164.427 205.131 164.427H203.291C201.014 164.427 199.151 162.587 199.151 160.287V160.057H201.451V160.287C201.451 161.299 202.279 162.127 203.291 162.127H205.131C206.166 162.127 206.971 161.322 206.971 160.287V157.665C206.971 156.653 206.143 155.825 205.131 155.825H204.073L201.451 157.596H199.151ZM216.852 162.104C217.243 162.104 217.588 161.989 217.887 161.782L213.172 154.1V160.264C213.172 161.276 214 162.104 215.012 162.104H216.852ZM210.872 160.264V152.467C210.872 150.167 212.735 148.327 215.012 148.327H216.852C219.152 148.327 220.992 150.167 220.992 152.467V160.264C220.992 162.541 219.152 164.427 216.852 164.427H215.012C212.735 164.427 210.872 162.541 210.872 160.264ZM213.954 150.949L218.692 158.654V152.467C218.692 151.432 217.887 150.627 216.852 150.627H215.012C214.621 150.627 214.253 150.742 213.954 150.949ZM226.388 162.127H228.918V164.427H226.388V162.127ZM240.294 162.104C240.685 162.104 241.03 161.989 241.329 161.782L236.614 154.1V160.264C236.614 161.276 237.442 162.104 238.454 162.104H240.294ZM234.314 160.264V152.467C234.314 150.167 236.177 148.327 238.454 148.327H240.294C242.594 148.327 244.434 150.167 244.434 152.467V160.264C244.434 162.541 242.594 164.427 240.294 164.427H238.454C236.177 164.427 234.314 162.541 234.314 160.264ZM237.396 150.949L242.134 158.654V152.467C242.134 151.432 241.329 150.627 240.294 150.627H238.454C238.063 150.627 237.695 150.742 237.396 150.949ZM252.015 162.104C252.406 162.104 252.751 161.989 253.05 161.782L248.335 154.1V160.264C248.335 161.276 249.163 162.104 250.175 162.104H252.015ZM246.035 160.264V152.467C246.035 150.167 247.898 148.327 250.175 148.327H252.015C254.315 148.327 256.155 150.167 256.155 152.467V160.264C256.155 162.541 254.315 164.427 252.015 164.427H250.175C247.898 164.427 246.035 162.541 246.035 160.264ZM249.117 150.949L253.855 158.654V152.467C253.855 151.432 253.05 150.627 252.015 150.627H250.175C249.784 150.627 249.416 150.742 249.117 150.949Z" fill="#313334"/>
<path opacity="0.56" d="M185.782 172.427H190.158V173.243H188.43V178.027H187.51V173.243H185.782V172.427ZM191.901 178.075C191.49 178.075 191.125 177.989 190.805 177.819C190.49 177.643 190.245 177.397 190.069 177.083C189.898 176.763 189.813 176.395 189.813 175.979C189.813 175.568 189.898 175.205 190.069 174.891C190.245 174.571 190.49 174.323 190.805 174.147C191.125 173.971 191.49 173.883 191.901 173.883C192.312 173.883 192.674 173.971 192.989 174.147C193.309 174.323 193.554 174.571 193.725 174.891C193.901 175.205 193.989 175.568 193.989 175.979C193.989 176.395 193.901 176.763 193.725 177.083C193.554 177.397 193.309 177.643 192.989 177.819C192.674 177.989 192.312 178.075 191.901 178.075ZM191.901 177.339C192.264 177.339 192.554 177.213 192.773 176.963C192.997 176.707 193.109 176.379 193.109 175.979C193.109 175.579 192.997 175.253 192.773 175.003C192.554 174.747 192.264 174.619 191.901 174.619C191.538 174.619 191.248 174.747 191.029 175.003C190.81 175.253 190.701 175.579 190.701 175.979C190.701 176.379 190.81 176.707 191.029 176.963C191.248 177.213 191.538 177.339 191.901 177.339ZM194.837 174.691H194.125V173.931H194.837V172.787H195.709V173.931H196.693V174.691H195.709V176.827C195.709 176.987 195.741 177.101 195.805 177.171C195.869 177.235 195.978 177.267 196.133 177.267H196.789V178.027H195.957C195.567 178.027 195.282 177.936 195.101 177.755C194.925 177.573 194.837 177.293 194.837 176.915V174.691ZM201.045 177.275V178.027H200.589C200.323 178.027 200.131 177.971 200.013 177.859C199.896 177.747 199.837 177.584 199.837 177.371C199.528 177.84 199.077 178.075 198.485 178.075C198.027 178.075 197.659 177.968 197.381 177.755C197.104 177.541 196.965 177.248 196.965 176.875C196.965 176.453 197.115 176.131 197.413 175.907C197.712 175.677 198.147 175.563 198.717 175.563H199.749V175.315C199.749 175.085 199.669 174.907 199.509 174.779C199.349 174.645 199.128 174.579 198.845 174.579C198.595 174.579 198.387 174.635 198.221 174.747C198.061 174.853 197.965 174.997 197.933 175.179H197.085C197.128 174.768 197.309 174.451 197.629 174.227C197.949 173.997 198.368 173.883 198.885 173.883C199.435 173.883 199.859 174.011 200.157 174.267C200.456 174.523 200.605 174.891 200.605 175.371V176.987C200.605 177.179 200.696 177.275 200.877 177.275H201.045ZM199.749 176.203H198.677C198.411 176.203 198.205 176.256 198.061 176.363C197.917 176.464 197.845 176.616 197.845 176.819C197.845 176.995 197.912 177.136 198.045 177.243C198.184 177.349 198.371 177.403 198.605 177.403C198.963 177.403 199.24 177.307 199.437 177.115C199.64 176.923 199.744 176.667 199.749 176.347V176.203ZM201.436 172.427H202.3V178.027H201.436V172.427ZM210.346 175.227C210.346 175.771 210.231 176.259 210.002 176.691C209.773 177.123 209.45 177.461 209.034 177.707C208.623 177.952 208.154 178.075 207.626 178.075C207.098 178.075 206.626 177.952 206.21 177.707C205.799 177.461 205.479 177.123 205.25 176.691C205.021 176.259 204.906 175.771 204.906 175.227C204.906 174.683 205.021 174.195 205.25 173.763C205.479 173.331 205.799 172.992 206.21 172.747C206.626 172.501 207.098 172.379 207.626 172.379C208.154 172.379 208.623 172.501 209.034 172.747C209.45 172.992 209.773 173.331 210.002 173.763C210.231 174.195 210.346 174.683 210.346 175.227ZM205.85 175.227C205.85 175.616 205.925 175.968 206.074 176.283C206.223 176.592 206.431 176.835 206.698 177.011C206.97 177.181 207.279 177.267 207.626 177.267C207.973 177.267 208.279 177.181 208.546 177.011C208.818 176.835 209.029 176.592 209.178 176.283C209.327 175.968 209.402 175.616 209.402 175.227C209.402 174.837 209.327 174.488 209.178 174.179C209.029 173.864 208.818 173.621 208.546 173.451C208.279 173.275 207.973 173.187 207.626 173.187C207.279 173.187 206.97 173.275 206.698 173.451C206.431 173.621 206.223 173.864 206.074 174.179C205.925 174.488 205.85 174.837 205.85 175.227ZM210.577 173.931H211.505L212.633 177.099L213.745 173.931H214.657L213.145 178.027H212.089L210.577 173.931ZM214.706 175.987C214.706 175.565 214.789 175.197 214.954 174.883C215.125 174.563 215.36 174.317 215.658 174.147C215.962 173.971 216.309 173.883 216.698 173.883C217.093 173.883 217.44 173.963 217.738 174.123C218.042 174.283 218.28 174.509 218.45 174.803C218.626 175.096 218.717 175.44 218.722 175.835C218.722 175.941 218.714 176.051 218.698 176.163H215.61V176.211C215.632 176.568 215.744 176.851 215.946 177.059C216.149 177.267 216.418 177.371 216.754 177.371C217.021 177.371 217.245 177.309 217.426 177.187C217.608 177.059 217.728 176.88 217.786 176.651H218.65C218.576 177.067 218.373 177.408 218.042 177.675C217.717 177.941 217.309 178.075 216.818 178.075C216.392 178.075 216.018 177.989 215.698 177.819C215.384 177.643 215.138 177.397 214.962 177.083C214.792 176.768 214.706 176.403 214.706 175.987ZM217.842 175.531C217.805 175.232 217.685 175 217.482 174.835C217.285 174.664 217.034 174.579 216.73 174.579C216.448 174.579 216.202 174.667 215.994 174.843C215.792 175.013 215.674 175.243 215.642 175.531H217.842ZM221.605 173.931V174.739H221.221C220.863 174.739 220.605 174.856 220.445 175.091C220.285 175.32 220.205 175.613 220.205 175.971V178.027H219.341V173.931H220.109L220.205 174.547C220.322 174.355 220.474 174.205 220.661 174.099C220.847 173.987 221.098 173.931 221.413 173.931H221.605ZM225.854 172.427V178.027H225.102L224.998 177.411C224.673 177.853 224.227 178.075 223.662 178.075C223.289 178.075 222.955 177.992 222.662 177.827C222.369 177.656 222.139 177.413 221.974 177.099C221.809 176.779 221.726 176.405 221.726 175.979C221.726 175.563 221.809 175.197 221.974 174.883C222.145 174.563 222.377 174.317 222.67 174.147C222.963 173.971 223.294 173.883 223.662 173.883C223.961 173.883 224.222 173.939 224.446 174.051C224.67 174.157 224.851 174.307 224.99 174.499V172.427H225.854ZM223.806 177.347C224.163 177.347 224.451 177.221 224.67 176.971C224.889 176.72 224.998 176.395 224.998 175.995C224.998 175.584 224.889 175.253 224.67 175.003C224.451 174.747 224.163 174.619 223.806 174.619C223.449 174.619 223.161 174.747 222.942 175.003C222.723 175.253 222.614 175.579 222.614 175.979C222.614 176.384 222.723 176.715 222.942 176.971C223.161 177.221 223.449 177.347 223.806 177.347ZM230.29 173.931V178.027H229.53L229.434 177.507C229.125 177.885 228.704 178.075 228.17 178.075C227.69 178.075 227.301 177.925 227.002 177.627C226.704 177.328 226.554 176.848 226.554 176.187V173.931H227.418V176.099C227.418 176.499 227.498 176.803 227.658 177.011C227.818 177.219 228.056 177.323 228.37 177.323C228.701 177.323 228.96 177.203 229.146 176.963C229.333 176.717 229.426 176.384 229.426 175.963V173.931H230.29ZM230.91 175.987C230.91 175.565 230.992 175.197 231.158 174.883C231.328 174.563 231.563 174.317 231.862 174.147C232.166 173.971 232.512 173.883 232.902 173.883C233.296 173.883 233.643 173.963 233.942 174.123C234.246 174.283 234.483 174.509 234.654 174.803C234.83 175.096 234.92 175.44 234.926 175.835C234.926 175.941 234.918 176.051 234.902 176.163H231.814V176.211C231.835 176.568 231.947 176.851 232.15 177.059C232.352 177.267 232.622 177.371 232.958 177.371C233.224 177.371 233.448 177.309 233.63 177.187C233.811 177.059 233.931 176.88 233.99 176.651H234.854C234.779 177.067 234.576 177.408 234.246 177.675C233.92 177.941 233.512 178.075 233.022 178.075C232.595 178.075 232.222 177.989 231.902 177.819C231.587 177.643 231.342 177.397 231.166 177.083C230.995 176.768 230.91 176.403 230.91 175.987ZM234.046 175.531C234.008 175.232 233.888 175 233.686 174.835C233.488 174.664 233.238 174.579 232.934 174.579C232.651 174.579 232.406 174.667 232.198 174.843C231.995 175.013 231.878 175.243 231.846 175.531H234.046ZM237.151 178.027L239.247 172.427H240.343L242.431 178.027H241.447L240.919 176.643H238.623L238.103 178.027H237.151ZM238.879 175.859H240.663L239.767 173.419L238.879 175.859ZM247.565 173.883C248.013 173.883 248.379 174.029 248.661 174.323C248.944 174.611 249.085 175.075 249.085 175.715V178.027H248.221V175.723C248.221 175.365 248.149 175.093 248.005 174.907C247.861 174.72 247.648 174.627 247.365 174.627C247.067 174.627 246.829 174.733 246.653 174.947C246.483 175.155 246.397 175.443 246.397 175.811V178.027H245.525V175.723C245.525 175.36 245.451 175.088 245.301 174.907C245.157 174.72 244.944 174.627 244.661 174.627C244.368 174.627 244.133 174.736 243.957 174.955C243.787 175.173 243.701 175.467 243.701 175.835V178.027H242.837V173.931H243.589L243.685 174.467C243.979 174.083 244.379 173.888 244.885 173.883C245.173 173.883 245.427 173.944 245.645 174.067C245.864 174.189 246.032 174.376 246.149 174.627C246.293 174.392 246.483 174.211 246.717 174.083C246.952 173.949 247.235 173.883 247.565 173.883ZM251.725 178.075C251.314 178.075 250.949 177.989 250.629 177.819C250.314 177.643 250.069 177.397 249.893 177.083C249.722 176.763 249.637 176.395 249.637 175.979C249.637 175.568 249.722 175.205 249.893 174.891C250.069 174.571 250.314 174.323 250.629 174.147C250.949 173.971 251.314 173.883 251.725 173.883C252.135 173.883 252.498 173.971 252.813 174.147C253.133 174.323 253.378 174.571 253.549 174.891C253.725 175.205 253.813 175.568 253.813 175.979C253.813 176.395 253.725 176.763 253.549 177.083C253.378 177.397 253.133 177.643 252.813 177.819C252.498 177.989 252.135 178.075 251.725 178.075ZM251.725 177.339C252.087 177.339 252.378 177.213 252.597 176.963C252.821 176.707 252.933 176.379 252.933 175.979C252.933 175.579 252.821 175.253 252.597 175.003C252.378 174.747 252.087 174.619 251.725 174.619C251.362 174.619 251.071 174.747 250.853 175.003C250.634 175.253 250.525 175.579 250.525 175.979C250.525 176.379 250.634 176.707 250.853 176.963C251.071 177.213 251.362 177.339 251.725 177.339ZM258.099 173.931V178.027H257.339L257.243 177.507C256.934 177.885 256.513 178.075 255.979 178.075C255.499 178.075 255.11 177.925 254.811 177.627C254.513 177.328 254.363 176.848 254.363 176.187V173.931H255.227V176.099C255.227 176.499 255.307 176.803 255.467 177.011C255.627 177.219 255.865 177.323 256.179 177.323C256.51 177.323 256.769 177.203 256.955 176.963C257.142 176.717 257.235 176.384 257.235 175.963V173.931H258.099ZM261.031 173.883C261.516 173.883 261.911 174.032 262.215 174.331C262.524 174.629 262.679 175.109 262.679 175.771V178.027H261.807V175.819C261.807 175.429 261.724 175.133 261.559 174.931C261.393 174.728 261.151 174.627 260.831 174.627C260.489 174.627 260.22 174.747 260.023 174.987C259.831 175.221 259.735 175.547 259.735 175.963V178.027H258.871V173.931H259.623L259.719 174.467C260.028 174.077 260.465 173.883 261.031 173.883ZM263.648 174.691H262.936V173.931H263.648V172.787H264.52V173.931H265.504V174.691H264.52V176.827C264.52 176.987 264.552 177.101 264.616 177.171C264.68 177.235 264.79 177.267 264.944 177.267H265.6V178.027H264.768C264.379 178.027 264.094 177.936 263.912 177.755C263.736 177.573 263.648 177.293 263.648 176.915V174.691Z" fill="#313334"/>
<g clip-path="url(#clip0_6543_24238)">
<rect x="93.5703" y="197.534" width="238.8" height="133.2" rx="11.52" fill="#92A6B0"/>
<path d="M119.057 288.176C119.057 287.657 118.654 287.254 118.136 287.254H117.214C116.696 287.254 116.292 287.669 116.292 288.176V292.081C116.292 292.588 116.707 293.003 117.214 293.003H118.136C118.642 293.003 119.057 292.588 119.057 292.081V291.448H120.209V292.081C120.209 293.222 119.288 294.166 118.136 294.166H117.214C116.073 294.166 115.14 293.222 115.14 292.081V288.176C115.14 287.024 116.073 286.102 117.214 286.102H118.136C119.288 286.102 120.209 287.024 120.209 288.176V288.809H119.057V288.176ZM122.278 286.102V289.328H125.043V286.102H126.195V294.166H125.043V290.48H122.278V294.166H121.126V286.102H122.278ZM128.264 294.166H127.112V291.517L129.071 286.102H130.223L132.181 291.517V294.166H131.029V292.3H128.264V294.166ZM128.472 291.148H130.822L129.658 287.922H129.635L128.472 291.148ZM137.015 286.102H138.167V294.166H136.496L134.25 288.038V294.166H133.098V286.102H134.768L137.015 292.231V286.102ZM141.273 289.823H144.153V292.081C144.153 293.222 143.231 294.166 142.079 294.166H141.158C140.017 294.166 139.084 293.222 139.084 292.081V288.176C139.084 287.024 140.017 286.102 141.158 286.102H142.079C143.231 286.102 144.153 287.024 144.153 288.176V288.809H143.001V288.176C143.001 287.657 142.598 287.254 142.079 287.254H141.158C140.639 287.254 140.236 287.669 140.236 288.176V292.081C140.236 292.588 140.651 293.003 141.158 293.003H142.079C142.586 293.003 143.001 292.588 143.001 292.081V290.975H141.273V289.823ZM150.139 286.102V287.254H146.222V289.362H149.678V290.514H146.222V293.014H150.139V294.166H145.07V286.102H150.139ZM157.042 291.563H158.194V292.024C158.194 292.565 158.643 293.014 159.184 293.014H159.956C160.544 293.014 160.958 292.646 160.958 292.139C160.958 290.549 157.157 290.203 157.157 288.015C157.157 286.886 158.044 286.102 159.3 286.102H159.841C161.028 286.102 161.995 287.058 161.995 288.245V288.591H160.843V288.245C160.843 287.692 160.394 287.254 159.841 287.254H159.3C158.677 287.254 158.309 287.542 158.309 288.015C158.309 289.236 162.11 289.708 162.11 292.139C162.11 293.291 161.177 294.166 159.956 294.166H159.184C157.998 294.166 157.042 293.21 157.042 292.024V291.563ZM163.028 286.102H168.096V287.254H166.138V294.166H164.986V287.254H163.028V286.102ZM170.165 294.166H169.013V291.517L170.972 286.102H172.124L174.082 291.517V294.166H172.93V292.3H170.165V294.166ZM170.373 291.148H172.723L171.559 287.922H171.536L170.373 291.148ZM174.999 286.102H180.068V287.254H178.11V294.166H176.958V287.254H174.999V286.102ZM186.054 292.081C186.054 293.222 185.121 294.166 183.98 294.166H183.059C181.907 294.166 180.985 293.222 180.985 292.081V286.102H182.137V292.081C182.137 292.588 182.552 293.003 183.059 293.003H183.98C184.487 293.003 184.902 292.588 184.902 292.081V286.102H186.054V292.081ZM186.971 291.563H188.123V292.024C188.123 292.565 188.572 293.014 189.114 293.014H189.886C190.473 293.014 190.888 292.646 190.888 292.139C190.888 290.549 187.086 290.203 187.086 288.015C187.086 286.886 187.973 286.102 189.229 286.102H189.771C190.957 286.102 191.925 287.058 191.925 288.245V288.591H190.773V288.245C190.773 287.692 190.323 287.254 189.771 287.254H189.229C188.607 287.254 188.238 287.542 188.238 288.015C188.238 289.236 192.04 289.708 192.04 292.139C192.04 293.291 191.107 294.166 189.886 294.166H189.114C187.927 294.166 186.971 293.21 186.971 292.024V291.563Z" fill="#252829"/>
<path d="M252.401 288.176L253.035 291.805L253.311 288.406V286.102H254.463V288.752L253.772 294.166H252.85L251.929 290.722L251.007 294.166H250.085L249.394 288.752V286.102H250.546V288.406L250.823 291.805L251.456 288.176H252.401ZM256.532 294.166H255.38V291.517L257.339 286.102H258.491L260.449 291.517V294.166H259.297V292.3H256.532V294.166ZM256.74 291.148H259.09L257.926 287.922H257.903L256.74 291.148ZM261.366 286.102H266.435V287.254H264.476V293.014H266.435V294.166H261.366V293.014H263.324V287.254H261.366V286.102ZM267.352 286.102H272.421V287.254H270.462V294.166H269.31V287.254H267.352V286.102ZM273.338 286.102H278.407V287.254H276.448V293.014H278.407V294.166H273.338V293.014H275.296V287.254H273.338V286.102ZM283.241 286.102H284.393V294.166H282.722L280.476 288.038V294.166H279.324V286.102H280.994L283.241 292.231V286.102ZM287.498 289.823H290.378V292.081C290.378 293.222 289.457 294.166 288.305 294.166H287.383C286.243 294.166 285.31 293.222 285.31 292.081V288.176C285.31 287.024 286.243 286.102 287.383 286.102H288.305C289.457 286.102 290.378 287.024 290.378 288.176V288.809H289.226V288.176C289.226 287.657 288.823 287.254 288.305 287.254H287.383C286.865 287.254 286.462 287.669 286.462 288.176V292.081C286.462 292.588 286.876 293.003 287.383 293.003H288.305C288.812 293.003 289.226 292.588 289.226 292.081V290.975H287.498V289.823ZM293.196 293.014H294.464V294.166H293.196V293.014ZM296.187 293.014H297.454V294.166H296.187V293.014ZM299.178 293.014H300.445V294.166H299.178V293.014Z" fill="#252829"/>
<path d="M131.121 306.336V307.296H126.897V305.078L130.161 303.244V302.304C130.161 301.872 129.825 301.536 129.393 301.536H128.625C128.203 301.536 127.857 301.881 127.857 302.304V302.64H126.897V302.304C126.897 301.344 127.675 300.576 128.625 300.576H129.393C130.353 300.576 131.121 301.344 131.121 302.304V303.811L127.857 305.644V306.336H131.121ZM131.885 304.444V300.576H135.533V301.536H132.845V303.283L133.642 302.745H134.381C135.332 302.745 136.109 303.513 136.109 304.473V305.568C136.109 306.528 135.341 307.296 134.381 307.296H133.613C132.663 307.296 131.885 306.528 131.885 305.568V305.472H132.845V305.568C132.845 305.99 133.191 306.336 133.613 306.336H134.381C134.813 306.336 135.149 306 135.149 305.568V304.473C135.149 304.051 134.804 303.705 134.381 303.705H133.94L132.845 304.444H131.885ZM138.457 306.336H139.513V307.296H138.457V306.336ZM144.358 306.326C144.521 306.326 144.665 306.278 144.79 306.192L142.822 302.985V305.558C142.822 305.98 143.167 306.326 143.59 306.326H144.358ZM141.862 305.558V302.304C141.862 301.344 142.639 300.576 143.59 300.576H144.358C145.318 300.576 146.086 301.344 146.086 302.304V305.558C146.086 306.508 145.318 307.296 144.358 307.296H143.59C142.639 307.296 141.862 306.508 141.862 305.558ZM143.148 301.67L145.126 304.886V302.304C145.126 301.872 144.79 301.536 144.358 301.536H143.59C143.426 301.536 143.273 301.584 143.148 301.67ZM150.114 302.304C150.114 301.881 149.768 301.536 149.346 301.536H148.578C148.146 301.536 147.81 301.872 147.81 302.304V303.11C147.81 303.532 148.156 303.878 148.578 303.878H149.02L150.114 303.139V302.304ZM146.85 305.568V305.28H147.81V305.568C147.81 306 148.146 306.336 148.578 306.336H149.346C149.778 306.336 150.114 306 150.114 305.568V304.3L149.317 304.838H148.578C147.628 304.838 146.85 304.07 146.85 303.11V302.304C146.85 301.344 147.618 300.576 148.578 300.576H149.346C150.296 300.576 151.074 301.344 151.074 302.304V305.568C151.074 306.528 150.306 307.296 149.346 307.296H148.578C147.618 307.296 146.85 306.528 146.85 305.568ZM153.422 306.336H154.478V307.296H153.422V306.336ZM161.05 306.336V307.296H156.826V305.078L160.09 303.244V302.304C160.09 301.872 159.754 301.536 159.322 301.536H158.554C158.132 301.536 157.786 301.881 157.786 302.304V302.64H156.826V302.304C156.826 301.344 157.604 300.576 158.554 300.576H159.322C160.282 300.576 161.05 301.344 161.05 302.304V303.811L157.786 305.644V306.336H161.05ZM164.311 306.326C164.474 306.326 164.618 306.278 164.743 306.192L162.775 302.985V305.558C162.775 305.98 163.12 306.326 163.543 306.326H164.311ZM161.815 305.558V302.304C161.815 301.344 162.592 300.576 163.543 300.576H164.311C165.271 300.576 166.039 301.344 166.039 302.304V305.558C166.039 306.508 165.271 307.296 164.311 307.296H163.543C162.592 307.296 161.815 306.508 161.815 305.558ZM163.101 301.67L165.079 304.886V302.304C165.079 301.872 164.743 301.536 164.311 301.536H163.543C163.379 301.536 163.226 301.584 163.101 301.67ZM171.027 306.336V307.296H166.803V305.078L170.067 303.244V302.304C170.067 301.872 169.731 301.536 169.299 301.536H168.531C168.109 301.536 167.763 301.881 167.763 302.304V302.64H166.803V302.304C166.803 301.344 167.581 300.576 168.531 300.576H169.299C170.259 300.576 171.027 301.344 171.027 302.304V303.811L167.763 305.644V306.336H171.027ZM176.015 302.688C176.015 303.177 175.814 303.619 175.487 303.936C175.814 304.252 176.015 304.694 176.015 305.184V305.568C176.015 306.528 175.247 307.296 174.287 307.296H173.519C172.569 307.296 171.791 306.528 171.791 305.568V305.232H172.751V305.568C172.751 305.99 173.097 306.336 173.519 306.336H174.287C174.719 306.336 175.055 306 175.055 305.568V305.184C175.055 304.752 174.719 304.416 174.287 304.416H173.615V303.456H174.287C174.719 303.456 175.055 303.12 175.055 302.688V302.304C175.055 301.872 174.719 301.536 174.287 301.536H173.519C173.097 301.536 172.751 301.881 172.751 302.304V302.64H171.791V302.304C171.791 301.344 172.569 300.576 173.519 300.576H174.287C175.247 300.576 176.015 301.344 176.015 302.304V302.688Z" fill="#5F6F77"/>
<path d="M172.969 262.112H249.58" stroke="#5F6F77" stroke-width="0.48" stroke-dasharray="2.88 2.88"/>
<path d="M57.6953 262.112H134.035" stroke="#5F6F77" stroke-width="0.48"/>
<rect x="140.227" y="248.829" width="27.2644" height="27.2644" rx="13.6322" fill="#5F6F77"/>
<path d="M149.957 266.366L157.763 258.561" stroke="#FBCDCD" stroke-width="2.88"/>
<path d="M157.762 266.366L149.957 258.56" stroke="#FBCDCD" stroke-width="2.88"/>
<path d="M283.701 262.463C283.701 265.342 282.79 268.147 281.098 270.476C279.406 272.805 277.02 274.539 274.282 275.428C271.544 276.318 268.595 276.318 265.857 275.428C263.119 274.539 260.733 272.805 259.041 270.476C257.349 268.147 256.437 265.342 256.438 262.463C256.438 259.585 257.349 256.78 259.041 254.451C260.733 252.122 263.119 250.388 265.857 249.498C268.595 248.609 271.544 248.609 274.282 249.498L274.071 250.147C271.47 249.302 268.669 249.302 266.068 250.147C263.467 250.992 261.2 252.639 259.592 254.851C257.985 257.064 257.119 259.728 257.119 262.463C257.119 265.198 257.985 267.863 259.592 270.075C261.2 272.288 263.467 273.935 266.068 274.78C268.669 275.625 271.47 275.625 274.071 274.78C276.672 273.935 278.939 272.288 280.547 270.075C282.154 267.863 283.02 265.198 283.02 262.463H283.701Z" fill="#5F6F77"/>
<rect x="93.5703" y="237.674" width="43.4782" height="77.9906" fill="url(#paint0_linear_6543_24238)"/>
<path d="M115.984 219.562H118.339C119.093 219.562 119.751 219.717 120.314 220.026C120.877 220.336 121.31 220.769 121.613 221.325C121.916 221.882 122.067 222.526 122.067 223.258C122.067 223.983 121.916 224.627 121.613 225.19C121.31 225.746 120.877 226.179 120.314 226.489C119.751 226.799 119.093 226.954 118.339 226.954H115.984V219.562ZM118.339 225.898C119.135 225.898 119.747 225.662 120.177 225.19C120.606 224.712 120.821 224.067 120.821 223.258C120.821 222.448 120.606 221.808 120.177 221.336C119.747 220.857 119.135 220.618 118.339 220.618H117.199V225.898H118.339ZM127.756 221.547V226.954H126.753L126.626 226.267C126.218 226.767 125.662 227.017 124.958 227.017C124.324 227.017 123.81 226.82 123.416 226.426C123.022 226.032 122.825 225.398 122.825 224.525V221.547H123.965V224.409C123.965 224.937 124.071 225.338 124.282 225.613C124.493 225.887 124.807 226.025 125.222 226.025C125.658 226.025 126 225.866 126.246 225.549C126.493 225.226 126.616 224.786 126.616 224.229V221.547H127.756ZM131.626 221.484C132.266 221.484 132.787 221.681 133.189 222.075C133.597 222.469 133.801 223.103 133.801 223.976V226.954H132.65V224.039C132.65 223.525 132.541 223.135 132.323 222.867C132.104 222.6 131.784 222.466 131.362 222.466C130.911 222.466 130.556 222.624 130.295 222.941C130.042 223.251 129.915 223.68 129.915 224.229V226.954H128.775V221.547H129.767L129.894 222.255C130.302 221.741 130.88 221.484 131.626 221.484ZM137.584 221.484C138.225 221.484 138.746 221.681 139.147 222.075C139.555 222.469 139.759 223.103 139.759 223.976V226.954H138.608V224.039C138.608 223.525 138.499 223.135 138.281 222.867C138.063 222.6 137.742 222.466 137.32 222.466C136.869 222.466 136.514 222.624 136.253 222.941C136 223.251 135.873 223.68 135.873 224.229V226.954H134.733V221.547H135.725L135.852 222.255C136.26 221.741 136.838 221.484 137.584 221.484ZM141.261 219.382C141.458 219.382 141.624 219.449 141.757 219.583C141.891 219.71 141.958 219.872 141.958 220.069C141.958 220.266 141.891 220.431 141.757 220.565C141.624 220.692 141.458 220.755 141.261 220.755C141.064 220.755 140.899 220.692 140.765 220.565C140.631 220.431 140.564 220.266 140.564 220.069C140.564 219.872 140.631 219.71 140.765 219.583C140.899 219.449 141.064 219.382 141.261 219.382ZM140.691 221.547H141.831V226.954H140.691V221.547ZM145.695 221.484C146.336 221.484 146.857 221.681 147.258 222.075C147.666 222.469 147.87 223.103 147.87 223.976V226.954H146.719V224.039C146.719 223.525 146.61 223.135 146.392 222.867C146.174 222.6 145.853 222.466 145.431 222.466C144.98 222.466 144.625 222.624 144.364 222.941C144.111 223.251 143.984 223.68 143.984 224.229V226.954H142.844V221.547H143.836L143.963 222.255C144.371 221.741 144.949 221.484 145.695 221.484ZM154.05 221.547V226.732C154.05 227.492 153.825 228.08 153.374 228.496C152.924 228.918 152.227 229.129 151.283 229.129C150.551 229.129 149.956 228.964 149.499 228.633C149.041 228.309 148.788 227.848 148.739 227.25H149.9C149.971 227.552 150.132 227.785 150.386 227.946C150.639 228.115 150.967 228.2 151.368 228.2C152.403 228.2 152.92 227.697 152.92 226.69V226.088C152.526 226.679 151.938 226.975 151.157 226.975C150.664 226.975 150.224 226.866 149.837 226.648C149.45 226.422 149.147 226.106 148.929 225.697C148.71 225.282 148.601 224.793 148.601 224.229C148.601 223.687 148.71 223.209 148.929 222.793C149.154 222.378 149.46 222.058 149.847 221.832C150.235 221.6 150.671 221.484 151.157 221.484C151.565 221.484 151.917 221.565 152.213 221.727C152.508 221.889 152.748 222.11 152.931 222.392L153.058 221.547H154.05ZM151.347 226.014C151.819 226.014 152.199 225.852 152.487 225.528C152.776 225.197 152.92 224.771 152.92 224.25C152.92 223.715 152.776 223.282 152.487 222.952C152.199 222.614 151.819 222.445 151.347 222.445C150.875 222.445 150.495 222.61 150.206 222.941C149.918 223.272 149.773 223.701 149.773 224.229C149.773 224.757 149.918 225.187 150.206 225.518C150.495 225.849 150.875 226.014 151.347 226.014ZM160.549 221.484C161.042 221.484 161.482 221.596 161.869 221.822C162.256 222.04 162.559 222.36 162.777 222.783C162.995 223.198 163.104 223.687 163.104 224.25C163.104 224.8 162.995 225.285 162.777 225.708C162.559 226.123 162.256 226.447 161.869 226.679C161.482 226.905 161.042 227.017 160.549 227.017C160.148 227.017 159.799 226.943 159.503 226.795C159.208 226.648 158.972 226.447 158.796 226.194V229.066H157.655V221.547H158.648L158.785 222.35C159.222 221.772 159.81 221.484 160.549 221.484ZM160.359 226.056C160.83 226.056 161.211 225.887 161.499 225.549C161.795 225.211 161.943 224.778 161.943 224.25C161.943 223.715 161.795 223.282 161.499 222.952C161.211 222.621 160.83 222.455 160.359 222.455C159.887 222.455 159.507 222.621 159.218 222.952C158.93 223.275 158.785 223.701 158.785 224.229C158.785 224.771 158.93 225.211 159.218 225.549C159.507 225.887 159.887 226.056 160.359 226.056ZM163.913 219.562H165.053V226.954H163.913V219.562ZM171.24 225.961V226.954H170.638C170.286 226.954 170.032 226.88 169.878 226.732C169.723 226.584 169.645 226.37 169.645 226.088C169.237 226.707 168.642 227.017 167.861 227.017C167.255 227.017 166.769 226.876 166.403 226.595C166.037 226.313 165.854 225.926 165.854 225.433C165.854 224.877 166.051 224.451 166.446 224.155C166.84 223.853 167.414 223.701 168.167 223.701H169.529V223.374C169.529 223.071 169.423 222.835 169.212 222.666C169.001 222.49 168.709 222.402 168.336 222.402C168.005 222.402 167.73 222.476 167.512 222.624C167.301 222.765 167.174 222.955 167.132 223.194H166.013C166.069 222.652 166.308 222.234 166.731 221.938C167.153 221.635 167.706 221.484 168.389 221.484C169.114 221.484 169.673 221.653 170.068 221.991C170.462 222.329 170.659 222.814 170.659 223.448V225.581C170.659 225.834 170.779 225.961 171.018 225.961H171.24ZM169.529 224.546H168.114C167.762 224.546 167.491 224.617 167.301 224.757C167.111 224.891 167.016 225.092 167.016 225.359C167.016 225.592 167.104 225.778 167.28 225.919C167.463 226.06 167.709 226.13 168.019 226.13C168.491 226.13 168.857 226.003 169.117 225.75C169.385 225.497 169.522 225.159 169.529 224.736V224.546ZM174.607 221.484C175.247 221.484 175.768 221.681 176.17 222.075C176.578 222.469 176.782 223.103 176.782 223.976V226.954H175.631V224.039C175.631 223.525 175.522 223.135 175.304 222.867C175.085 222.6 174.765 222.466 174.343 222.466C173.892 222.466 173.537 222.624 173.276 222.941C173.023 223.251 172.896 223.68 172.896 224.229V226.954H171.755V221.547H172.748L172.875 222.255C173.283 221.741 173.86 221.484 174.607 221.484Z" fill="#3B4144"/>
</g>
<defs>
<linearGradient id="paint0_linear_6543_24238" x1="140.961" y1="274.453" x2="93.5703" y2="273.931" gradientUnits="userSpaceOnUse">
<stop stop-color="#92A6B0" stop-opacity="0"/>
<stop offset="1" stop-color="#92A6B0"/>
</linearGradient>
<clipPath id="clip0_6543_24238">
<rect x="93.5703" y="197.534" width="238.8" height="133.2" rx="11.52" fill="white"/>
</clipPath>
</defs>
</svg>
