<svg width="351" height="350" viewBox="0 0 351 350" fill="none" xmlns="http://www.w3.org/2000/svg">
<path opacity="0.2" d="M34.0391 216.1H316.612" stroke="#E4EDF1" stroke-width="0.899728"/>
<path opacity="0.2" d="M34.0391 155.219H316.612" stroke="#E4EDF1" stroke-width="0.899728"/>
<path opacity="0.2" d="M34.0391 94.3381H316.612" stroke="#E4EDF1" stroke-width="0.899728"/>
<path opacity="0.2" d="M34.0391 286.442H316.612" stroke="#E4EDF1" stroke-width="0.899728"/>
<rect x="34.0391" y="64.1392" width="53.6697" height="213.653" rx="26.8349" fill="#FBCDCD"/>
<rect x="91.2656" y="138.594" width="53.6697" height="139.198" rx="26.8349" fill="#B1C5CE"/>
<rect x="148.492" y="112.823" width="53.6697" height="164.969" rx="26.8349" fill="#B1C5CE"/>
<rect x="205.715" y="184.966" width="53.6697" height="92.8249" rx="26.8349" fill="#B1C5CE"/>
<rect x="262.941" y="222.958" width="53.6697" height="54.8328" rx="26.8349" fill="#ABFDBE"/>
<g clip-path="url(#clip0_6536_30451)">
<path opacity="0.67" fill-rule="evenodd" clip-rule="evenodd" d="M289.982 253.141L284.772 247.93L286.648 246.054L291.859 251.264L291.859 246.121L294.512 246.121V253.671C294.512 254.844 293.562 255.794 292.39 255.794L284.772 255.794V253.141L289.982 253.141Z" fill="#252829"/>
</g>
<g opacity="0.6">
<path d="M57.5997 310.456L56.4913 311.074L55.471 309.424H55.3324H54.3247C53.0777 309.424 52.0574 308.391 52.0574 307.144V302.874C52.0574 301.614 53.0777 300.606 54.3247 300.606H55.3324C56.5921 300.606 57.5997 301.614 57.5997 302.874V307.144C57.5997 307.887 57.2471 308.554 56.6928 308.97L57.5997 310.456ZM53.317 307.144C53.317 307.698 53.7705 308.151 54.3247 308.151H55.3324C55.8867 308.151 56.3401 307.698 56.3401 307.144V302.874C56.3401 302.307 55.8993 301.866 55.3324 301.866H54.3247C53.7579 301.866 53.317 302.319 53.317 302.874V307.144ZM64.9006 308.164V309.424H59.3583V308.164H61.4996V302.067L59.3583 303.327V301.866L61.4996 300.606H62.7593V308.164H64.9006Z" fill="#E4EDF1"/>
<path d="M114.889 310.456L113.78 311.074L112.76 309.424H112.621H111.614C110.367 309.424 109.346 308.391 109.346 307.144V302.874C109.346 301.614 110.367 300.606 111.614 300.606H112.621C113.881 300.606 114.889 301.614 114.889 302.874V307.144C114.889 307.887 114.536 308.554 113.982 308.97L114.889 310.456ZM110.606 307.144C110.606 307.698 111.06 308.151 111.614 308.151H112.621C113.176 308.151 113.629 307.698 113.629 307.144V302.874C113.629 302.307 113.188 301.866 112.621 301.866H111.614C111.047 301.866 110.606 302.319 110.606 302.874V307.144ZM122.19 308.164V309.424H116.647V306.514L120.93 304.108V302.874C120.93 302.307 120.489 301.866 119.922 301.866H118.915C118.36 301.866 117.907 302.319 117.907 302.874V303.314H116.647V302.874C116.647 301.614 117.668 300.606 118.915 300.606H119.922C121.182 300.606 122.19 301.614 122.19 302.874V304.851L117.907 307.257V308.164H122.19Z" fill="#E4EDF1"/>
<path d="M172.174 310.456L171.066 311.074L170.045 309.424H169.907H168.899C167.652 309.424 166.632 308.391 166.632 307.144V302.874C166.632 301.614 167.652 300.606 168.899 300.606H169.907C171.166 300.606 172.174 301.614 172.174 302.874V307.144C172.174 307.887 171.821 308.554 171.267 308.97L172.174 310.456ZM167.891 307.144C167.891 307.698 168.345 308.151 168.899 308.151H169.907C170.461 308.151 170.914 307.698 170.914 307.144V302.874C170.914 302.307 170.473 301.866 169.907 301.866H168.899C168.332 301.866 167.891 302.319 167.891 302.874V307.144ZM179.475 303.377C179.475 304.02 179.21 304.599 178.782 305.015C179.21 305.431 179.475 306.01 179.475 306.652V307.156C179.475 308.416 178.467 309.424 177.208 309.424H176.2C174.953 309.424 173.933 308.416 173.933 307.156V306.715H175.192V307.156C175.192 307.711 175.646 308.164 176.2 308.164H177.208C177.774 308.164 178.215 307.723 178.215 307.156V306.652C178.215 306.086 177.774 305.645 177.208 305.645H176.326V304.385H177.208C177.774 304.385 178.215 303.944 178.215 303.377V302.874C178.215 302.307 177.774 301.866 177.208 301.866H176.2C175.646 301.866 175.192 302.319 175.192 302.874V303.314H173.933V302.874C173.933 301.614 174.953 300.606 176.2 300.606H177.208C178.467 300.606 179.475 301.614 179.475 302.874V303.377Z" fill="#E4EDF1"/>
<path d="M229.463 310.456L228.355 311.074L227.334 309.424H227.196H226.188C224.941 309.424 223.921 308.391 223.921 307.144V302.874C223.921 301.614 224.941 300.606 226.188 300.606H227.196C228.455 300.606 229.463 301.614 229.463 302.874V307.144C229.463 307.887 229.11 308.554 228.556 308.97L229.463 310.456ZM225.18 307.144C225.18 307.698 225.634 308.151 226.188 308.151H227.196C227.75 308.151 228.203 307.698 228.203 307.144V302.874C228.203 302.307 227.763 301.866 227.196 301.866H226.188C225.621 301.866 225.18 302.319 225.18 302.874V307.144ZM234.245 301.362H235.504V304.511H236.764V305.771H235.504V309.424H234.245V305.771H231.222V300.606H232.481V304.511H234.245V301.362Z" fill="#E4EDF1"/>
<path d="M286.748 310.456L285.64 311.074L284.619 309.424H284.481H283.473C282.226 309.424 281.206 308.391 281.206 307.144V302.874C281.206 301.614 282.226 300.606 283.473 300.606H284.481C285.74 300.606 286.748 301.614 286.748 302.874V307.144C286.748 307.887 286.395 308.554 285.841 308.97L286.748 310.456ZM282.465 307.144C282.465 307.698 282.919 308.151 283.473 308.151H284.481C285.035 308.151 285.489 307.698 285.489 307.144V302.874C285.489 302.307 285.048 301.866 284.481 301.866H283.473C282.906 301.866 282.465 302.319 282.465 302.874V307.144ZM294.049 308.164V309.424H288.507V308.164H290.648V302.067L288.507 303.327V301.866L290.648 300.606H291.908V308.164H294.049Z" fill="#E4EDF1"/>
</g>
<defs>
<clipPath id="clip0_6536_30451">
<rect width="16.945" height="16.945" fill="white" transform="translate(281.309 242.626)"/>
</clipPath>
</defs>
</svg>
