<svg width="350" height="350" viewBox="0 0 350 350" fill="none" xmlns="http://www.w3.org/2000/svg">
<g clip-path="url(#clip0_6536_31695)">
<path opacity="0.08" d="M482 286C482 167.811 377.682 72 249 72C120.318 72 16 167.811 16 286V360.843" stroke="#F5FCFF" stroke-width="0.704"/>
<path opacity="0.08" d="M409.616 348.288C409.616 254.145 337.706 177.827 248.999 177.827C160.293 177.827 88.3828 254.145 88.3828 348.288" stroke="#F5FCFF" stroke-width="0.704"/>
<rect x="13.7148" y="182.437" width="42.3809" height="42.3809" rx="10.1376" fill="#B1C5CE"/>
<g clip-path="url(#clip1_6536_31695)">
<path d="M34.7148 203.764L34.7148 211.091" stroke="#252829" stroke-width="1.27209" stroke-linecap="round" stroke-linejoin="round"/>
<path d="M27.9219 200.048L34.7095 203.763L41.4972 200.048" stroke="#252829" stroke-width="1.27209" stroke-linecap="round" stroke-linejoin="round"/>
<path d="M41.2576 207.591L34.9899 211.023C34.9061 211.069 34.812 211.093 34.7164 211.093C34.6208 211.093 34.5268 211.069 34.4429 211.023L28.1752 207.591C28.0857 207.542 28.011 207.47 27.9589 207.382C27.9068 207.295 27.8791 207.195 27.8789 207.093L27.8789 200.279C27.8791 200.177 27.9068 200.077 27.9589 199.99C28.011 199.902 28.0857 199.83 28.1752 199.781L34.4429 196.349C34.5268 196.303 34.6208 196.279 34.7164 196.279C34.812 196.279 34.9061 196.303 34.9899 196.349L41.2576 199.781C41.3471 199.83 41.4218 199.902 41.4739 199.99C41.5261 200.077 41.5537 200.177 41.5539 200.279L41.5539 207.091C41.5539 207.193 41.5264 207.294 41.4743 207.382C41.4222 207.47 41.3473 207.542 41.2576 207.591Z" stroke="#252829" stroke-width="1.27209" stroke-linecap="round" stroke-linejoin="round"/>
<path d="M31.4102 198.01L38.1366 201.692L38.1366 205.396" stroke="#252829" stroke-width="1.27209" stroke-linecap="round" stroke-linejoin="round"/>
</g>
<rect x="181.773" y="54.9487" width="42.3809" height="42.3809" rx="10.1376" fill="#B1C5CE"/>
<path opacity="0.2" d="M196.668 79.2458L202.471 82.4769C203.018 82.7814 203.683 82.7814 204.23 82.4769L210.033 79.2458" stroke="#252829" stroke-width="1.35625" stroke-linecap="round" stroke-linejoin="round"/>
<path opacity="0.5" d="M196.668 76.0596L202.471 79.2906C203.018 79.5951 203.683 79.5951 204.23 79.2906L210.033 76.0596" stroke="#252829" stroke-width="1.35625" stroke-linecap="round" stroke-linejoin="round"/>
<path d="M197.377 72.4731C197.068 72.6454 197.068 73.0907 197.377 73.263L202.031 75.8541C202.851 76.311 203.849 76.311 204.67 75.8541L209.323 73.263C209.633 73.0907 209.633 72.6454 209.323 72.4731L204.67 69.882C203.849 69.4252 202.851 69.4252 202.031 69.882L197.377 72.4731Z" stroke="#252829" stroke-width="1.35625" stroke-linecap="round" stroke-linejoin="round"/>
<rect x="293.27" y="59.584" width="42.3809" height="42.3809" rx="10.1376" fill="#B1C5CE"/>
<g clip-path="url(#clip2_6536_31695)">
<path d="M318.646 84.6854H311.749C311.482 84.6854 311.224 84.5916 311.019 84.4206C310.814 84.2496 310.676 84.0121 310.628 83.7495L308.726 73.2896H306.965" stroke="#252829" stroke-width="1.27209" stroke-linecap="round" stroke-linejoin="round"/>
<path d="M311.803 87.5343C312.59 87.5343 313.228 86.8965 313.228 86.1098C313.228 85.3231 312.59 84.6853 311.803 84.6853C311.017 84.6853 310.379 85.3231 310.379 86.1098C310.379 86.8965 311.017 87.5343 311.803 87.5343Z" stroke="#252829" stroke-width="1.27209" stroke-linecap="round" stroke-linejoin="round"/>
<path d="M318.647 87.5343C319.434 87.5343 320.072 86.8965 320.072 86.1098C320.072 85.3231 319.434 84.6853 318.647 84.6853C317.86 84.6853 317.223 85.3231 317.223 86.1098C317.223 86.8965 317.86 87.5343 318.647 87.5343Z" stroke="#252829" stroke-width="1.27209" stroke-linecap="round" stroke-linejoin="round"/>
<path d="M310.271 81.8371H319.213C319.48 81.837 319.738 81.7433 319.943 81.5723C320.148 81.4013 320.286 81.1638 320.334 80.9012L321.2 76.1392H309.234" stroke="#252829" stroke-width="1.27209" stroke-linecap="round" stroke-linejoin="round"/>
</g>
<rect x="83.2383" y="255.922" width="37.847" height="37.847" rx="8.11008" fill="#B1C5CE"/>
<g clip-path="url(#clip3_6536_31695)">
<path d="M103.078 280.043V269.24C103.078 269.155 103.055 269.072 103.011 268.999C102.967 268.926 102.904 268.866 102.829 268.826C102.755 268.786 102.67 268.767 102.585 268.771C102.5 268.775 102.418 268.803 102.347 268.85L97.6504 271.981C97.586 272.024 97.5332 272.082 97.4967 272.15C97.4603 272.219 97.4413 272.295 97.4414 272.372V280.043" stroke="black" stroke-width="0.939391" stroke-linecap="round" stroke-linejoin="round"/>
<path d="M103.078 272.528H107.305C107.43 272.528 107.549 272.578 107.638 272.666C107.726 272.754 107.775 272.873 107.775 272.998V280.043" stroke="black" stroke-width="0.939391" stroke-linecap="round" stroke-linejoin="round"/>
<path d="M96.0352 280.043H109.187" stroke="black" stroke-width="0.939391" stroke-linecap="round" stroke-linejoin="round"/>
<path d="M101.199 273.936V274.875" stroke="black" stroke-width="0.939391" stroke-linecap="round" stroke-linejoin="round"/>
<path d="M99.3242 273.936V274.875" stroke="black" stroke-width="0.939391" stroke-linecap="round" stroke-linejoin="round"/>
<path d="M99.3242 277.224V278.164" stroke="black" stroke-width="0.939391" stroke-linecap="round" stroke-linejoin="round"/>
<path d="M101.199 277.224V278.164" stroke="black" stroke-width="0.939391" stroke-linecap="round" stroke-linejoin="round"/>
</g>
<rect x="198.633" y="193.194" width="318.545" height="220.079" rx="8.448" fill="#D5E1E7"/>
<rect x="165.496" y="159.932" width="350.324" height="31.904" rx="8.448" fill="#D5E1E7"/>
<path d="M222.544 218.414C222.544 218.094 222.624 217.813 222.784 217.57C222.944 217.328 223.169 217.139 223.458 217.005C223.752 216.871 224.09 216.804 224.472 216.804C224.828 216.804 225.138 216.868 225.402 216.997C225.67 217.121 225.879 217.299 226.029 217.532C226.184 217.764 226.271 218.043 226.292 218.368H225.525C225.505 218.089 225.402 217.872 225.216 217.717C225.03 217.563 224.779 217.485 224.465 217.485C224.113 217.485 223.832 217.568 223.62 217.733C223.409 217.893 223.303 218.112 223.303 218.391C223.303 218.618 223.367 218.802 223.497 218.941C223.626 219.075 223.822 219.173 224.085 219.235L225.007 219.452C225.466 219.555 225.809 219.733 226.037 219.986C226.269 220.234 226.385 220.554 226.385 220.947C226.385 221.282 226.302 221.574 226.137 221.822C225.977 222.07 225.747 222.261 225.448 222.395C225.154 222.529 224.808 222.596 224.41 222.596C224.033 222.596 223.7 222.534 223.411 222.41C223.127 222.281 222.903 222.1 222.738 221.868C222.578 221.631 222.487 221.354 222.467 221.04H223.241C223.246 221.308 223.355 221.522 223.566 221.682C223.778 221.837 224.059 221.915 224.41 221.915C224.782 221.915 225.076 221.832 225.293 221.667C225.515 221.502 225.626 221.282 225.626 221.009C225.626 220.787 225.564 220.606 225.44 220.467C225.316 220.327 225.12 220.226 224.852 220.164L223.93 219.955C223.476 219.852 223.13 219.671 222.892 219.413C222.66 219.15 222.544 218.817 222.544 218.414ZM229.677 218.716H230.398V222.503H229.747L229.67 221.93C229.561 222.126 229.391 222.286 229.159 222.41C228.926 222.534 228.671 222.596 228.392 222.596C227.953 222.596 227.612 222.459 227.37 222.186C227.132 221.907 227.013 221.535 227.013 221.071V218.716H227.741V220.83C227.741 221.233 227.821 221.522 227.981 221.698C228.147 221.868 228.369 221.953 228.647 221.953C228.983 221.953 229.239 221.85 229.414 221.644C229.59 221.432 229.677 221.122 229.677 220.714V218.716ZM231.957 222.503H231.299V216.804H232.027V219.367C232.151 219.119 232.334 218.931 232.577 218.802C232.819 218.672 233.095 218.608 233.405 218.608C233.767 218.608 234.076 218.696 234.334 218.871C234.593 219.042 234.791 219.279 234.931 219.584C235.07 219.888 235.14 220.237 235.14 220.629C235.14 221.006 235.068 221.344 234.923 221.644C234.778 221.943 234.572 222.178 234.304 222.348C234.04 222.513 233.725 222.596 233.359 222.596C233.064 222.596 232.796 222.529 232.553 222.395C232.316 222.261 232.135 222.067 232.011 221.814L231.957 222.503ZM232.035 220.598C232.035 220.861 232.081 221.094 232.174 221.295C232.272 221.496 232.409 221.654 232.584 221.767C232.765 221.881 232.979 221.938 233.227 221.938C233.475 221.938 233.687 221.881 233.862 221.767C234.038 221.654 234.172 221.496 234.265 221.295C234.363 221.094 234.412 220.861 234.412 220.598C234.412 220.34 234.363 220.113 234.265 219.917C234.172 219.715 234.038 219.558 233.862 219.444C233.687 219.326 233.475 219.266 233.227 219.266C232.979 219.266 232.765 219.323 232.584 219.437C232.409 219.55 232.272 219.708 232.174 219.909C232.081 220.105 232.035 220.335 232.035 220.598ZM235.478 221.404H236.175C236.175 221.595 236.244 221.747 236.384 221.86C236.523 221.969 236.711 222.023 236.949 222.023C237.207 222.023 237.406 221.974 237.545 221.876C237.685 221.773 237.754 221.636 237.754 221.465C237.754 221.342 237.716 221.238 237.638 221.156C237.566 221.073 237.432 221.006 237.235 220.954L236.569 220.799C236.234 220.717 235.984 220.59 235.818 220.42C235.658 220.25 235.578 220.025 235.578 219.746C235.578 219.514 235.638 219.313 235.756 219.142C235.88 218.972 236.048 218.84 236.26 218.747C236.477 218.654 236.724 218.608 237.003 218.608C237.282 218.608 237.522 218.657 237.723 218.755C237.93 218.853 238.09 218.99 238.203 219.166C238.322 219.341 238.384 219.55 238.389 219.793H237.692C237.687 219.597 237.623 219.444 237.499 219.336C237.375 219.227 237.202 219.173 236.98 219.173C236.753 219.173 236.577 219.222 236.453 219.32C236.329 219.418 236.267 219.553 236.267 219.723C236.267 219.976 236.453 220.149 236.825 220.242L237.491 220.405C237.811 220.477 238.051 220.596 238.211 220.761C238.371 220.921 238.451 221.14 238.451 221.419C238.451 221.656 238.387 221.866 238.258 222.046C238.129 222.222 237.95 222.359 237.723 222.457C237.501 222.55 237.238 222.596 236.933 222.596C236.489 222.596 236.136 222.488 235.873 222.271C235.609 222.054 235.478 221.765 235.478 221.404ZM238.856 220.614C238.856 220.216 238.933 219.868 239.088 219.568C239.248 219.269 239.468 219.034 239.746 218.863C240.025 218.693 240.348 218.608 240.714 218.608C241.189 218.608 241.584 218.734 241.899 218.987C242.214 219.24 242.403 219.576 242.465 219.994H241.737C241.675 219.751 241.553 219.568 241.373 219.444C241.192 219.32 240.98 219.258 240.738 219.258C240.51 219.258 240.309 219.315 240.134 219.429C239.958 219.537 239.821 219.692 239.723 219.893C239.625 220.095 239.576 220.332 239.576 220.606C239.576 220.88 239.622 221.117 239.715 221.318C239.808 221.515 239.94 221.669 240.11 221.783C240.281 221.891 240.479 221.946 240.707 221.946C240.965 221.946 241.187 221.881 241.373 221.752C241.558 221.623 241.682 221.447 241.744 221.225H242.472C242.426 221.499 242.32 221.739 242.155 221.946C241.995 222.147 241.788 222.307 241.535 222.426C241.287 222.539 241.011 222.596 240.707 222.596C240.335 222.596 240.01 222.513 239.731 222.348C239.457 222.183 239.243 221.953 239.088 221.659C238.933 221.36 238.856 221.011 238.856 220.614ZM245.254 218.685V219.351H244.929C244.583 219.351 244.309 219.452 244.108 219.653C243.911 219.85 243.813 220.131 243.813 220.497V222.503H243.085V218.724H243.767L243.829 219.483H243.759C243.811 219.235 243.935 219.034 244.131 218.879C244.327 218.719 244.572 218.639 244.867 218.639C244.934 218.639 244.996 218.644 245.052 218.654C245.114 218.66 245.181 218.67 245.254 218.685ZM245.782 222.503V218.716H246.51V222.503H245.782ZM246.138 217.818C246.009 217.818 245.895 217.772 245.797 217.679C245.704 217.581 245.658 217.467 245.658 217.338C245.658 217.204 245.704 217.09 245.797 216.997C245.895 216.904 246.009 216.858 246.138 216.858C246.272 216.858 246.386 216.904 246.479 216.997C246.572 217.09 246.618 217.204 246.618 217.338C246.618 217.467 246.572 217.581 246.479 217.679C246.386 217.772 246.272 217.818 246.138 217.818ZM247.411 224.199V218.716H248.07L248.124 219.398C248.248 219.135 248.431 218.938 248.674 218.809C248.922 218.675 249.195 218.608 249.495 218.608C249.856 218.608 250.168 218.693 250.432 218.863C250.695 219.029 250.896 219.261 251.036 219.56C251.18 219.855 251.253 220.195 251.253 220.583C251.253 220.97 251.183 221.316 251.043 221.62C250.909 221.925 250.71 222.165 250.447 222.341C250.189 222.516 249.872 222.604 249.495 222.604C249.19 222.604 248.919 222.542 248.682 222.418C248.444 222.294 248.263 222.116 248.139 221.884V224.199H247.411ZM248.147 220.614C248.147 220.867 248.194 221.096 248.287 221.303C248.385 221.504 248.521 221.662 248.697 221.775C248.878 221.889 249.092 221.946 249.34 221.946C249.588 221.946 249.799 221.889 249.975 221.775C250.15 221.656 250.285 221.496 250.377 221.295C250.476 221.094 250.525 220.867 250.525 220.614C250.525 220.35 250.476 220.118 250.377 219.917C250.285 219.715 250.15 219.558 249.975 219.444C249.799 219.331 249.588 219.274 249.34 219.274C249.092 219.274 248.878 219.331 248.697 219.444C248.521 219.558 248.385 219.715 248.287 219.917C248.194 220.118 248.147 220.35 248.147 220.614ZM251.459 218.716H253.674V219.328H251.459V218.716ZM252.931 222.503H252.203V217.532H252.931V222.503ZM254.173 222.503V218.716H254.901V222.503H254.173ZM254.529 217.818C254.4 217.818 254.286 217.772 254.188 217.679C254.095 217.581 254.049 217.467 254.049 217.338C254.049 217.204 254.095 217.09 254.188 216.997C254.286 216.904 254.4 216.858 254.529 216.858C254.663 216.858 254.777 216.904 254.87 216.997C254.963 217.09 255.009 217.204 255.009 217.338C255.009 217.467 254.963 217.581 254.87 217.679C254.777 217.772 254.663 217.818 254.529 217.818ZM255.555 220.606C255.555 220.219 255.64 219.875 255.81 219.576C255.981 219.277 256.213 219.042 256.507 218.871C256.807 218.701 257.147 218.616 257.529 218.616C257.911 218.616 258.25 218.701 258.544 218.871C258.838 219.042 259.071 219.277 259.241 219.576C259.411 219.875 259.496 220.219 259.496 220.606C259.496 220.993 259.411 221.336 259.241 221.636C259.071 221.935 258.838 222.17 258.544 222.341C258.25 222.511 257.911 222.596 257.529 222.596C257.147 222.596 256.807 222.511 256.507 222.341C256.213 222.17 255.981 221.935 255.81 221.636C255.64 221.336 255.555 220.993 255.555 220.606ZM256.29 220.606C256.29 220.869 256.342 221.102 256.445 221.303C256.554 221.504 256.701 221.662 256.887 221.775C257.073 221.889 257.287 221.946 257.529 221.946C257.772 221.946 257.986 221.889 258.172 221.775C258.358 221.662 258.503 221.504 258.606 221.303C258.714 221.102 258.768 220.869 258.768 220.606C258.768 220.337 258.714 220.105 258.606 219.909C258.503 219.708 258.358 219.55 258.172 219.437C257.986 219.323 257.772 219.266 257.529 219.266C257.287 219.266 257.073 219.323 256.887 219.437C256.701 219.55 256.554 219.708 256.445 219.909C256.342 220.105 256.29 220.337 256.29 220.606ZM260.875 222.503H260.147V218.716H260.806L260.883 219.297C261.002 219.08 261.172 218.913 261.394 218.794C261.621 218.67 261.869 218.608 262.138 218.608C262.633 218.608 263 218.75 263.237 219.034C263.475 219.318 263.593 219.702 263.593 220.188V222.503H262.865V220.35C262.865 219.968 262.783 219.695 262.618 219.529C262.452 219.359 262.23 219.274 261.952 219.274C261.611 219.274 261.345 219.385 261.154 219.607C260.968 219.829 260.875 220.126 260.875 220.497V222.503Z" fill="#92A6B0"/>
<path d="M206.547 180.085H201.83V172.489H206.547V173.715H202.692L203.16 173.289V175.669H206.194V176.843H203.16V179.285L202.692 178.859H206.547V180.085ZM208.956 180.085H207.668V172.489H208.956L211.408 178.537L213.861 172.489H215.17V180.085H213.881V177.747C213.881 177.366 213.881 177.048 213.881 176.791C213.881 176.528 213.885 176.306 213.892 176.126C213.899 175.946 213.906 175.787 213.913 175.648C213.92 175.51 213.933 175.371 213.954 175.233L212.021 180.085H210.795L208.873 175.243C208.908 175.472 208.928 175.763 208.935 176.116C208.949 176.469 208.956 176.885 208.956 177.363V180.085ZM216.022 174.609C216.022 174.166 216.136 173.774 216.365 173.435C216.593 173.095 216.908 172.832 217.31 172.645C217.719 172.451 218.19 172.354 218.723 172.354C219.236 172.354 219.679 172.444 220.053 172.624C220.434 172.805 220.729 173.061 220.937 173.393C221.151 173.726 221.266 174.121 221.28 174.578H219.95C219.936 174.252 219.818 174 219.596 173.819C219.375 173.632 219.077 173.539 218.703 173.539C218.294 173.539 217.965 173.632 217.716 173.819C217.473 174 217.352 174.249 217.352 174.568C217.352 174.838 217.425 175.052 217.57 175.212C217.722 175.364 217.958 175.479 218.277 175.555L219.472 175.825C220.123 175.963 220.608 176.202 220.926 176.542C221.245 176.874 221.404 177.325 221.404 177.893C221.404 178.357 221.29 178.766 221.061 179.119C220.833 179.472 220.507 179.746 220.085 179.94C219.669 180.127 219.181 180.22 218.62 180.22C218.086 180.22 217.619 180.13 217.217 179.95C216.815 179.763 216.5 179.503 216.271 179.171C216.049 178.838 215.932 178.447 215.918 177.997H217.248C217.255 178.315 217.38 178.568 217.622 178.755C217.871 178.935 218.207 179.025 218.63 179.025C219.073 179.025 219.423 178.935 219.679 178.755C219.943 178.568 220.074 178.322 220.074 178.017C220.074 177.754 220.005 177.546 219.866 177.394C219.728 177.235 219.503 177.124 219.191 177.061L217.986 176.791C217.341 176.653 216.853 176.403 216.521 176.043C216.188 175.676 216.022 175.198 216.022 174.609Z" fill="#252829"/>
<rect x="165.496" y="193.194" width="31.7793" height="220.079" rx="8.448" fill="#D5E1E7"/>
<rect x="168.91" y="163.484" width="24.8002" height="24.8002" rx="5.632" fill="#252829"/>
<path d="M181.902 168.856C180.977 168.856 180.227 169.606 180.227 170.53V175.226C180.227 176.261 179.378 177.101 178.33 177.101L176.191 177.101C175.574 177.101 175.074 177.601 175.074 178.217V181.137C175.074 181.754 175.574 182.254 176.191 182.254H179.111C179.728 182.254 180.227 181.754 180.227 181.137V178.881C180.28 177.891 181.11 177.101 182.125 177.101H186.798C187.723 177.101 188.473 176.351 188.473 175.426V170.53C188.473 169.606 187.723 168.856 186.798 168.856H181.902Z" fill="#66E8FA"/>
<rect opacity="0.3" x="221.539" y="238.691" width="71.6989" height="62.1235" rx="8.55712" fill="#B1C5CE"/>
<rect opacity="0.2" x="232.105" y="287.944" width="40.7973" height="2.03761" rx="1.01881" fill="#92A6B0"/>
<rect opacity="0.3" x="221.539" y="303.192" width="71.6989" height="62.1235" rx="8.55712" fill="#B1C5CE"/>
<g opacity="0.1">
<path d="M233.879 320.713H232.887C232.559 320.713 232.234 320.646 231.935 320.516C231.636 320.386 231.369 320.197 231.152 319.961C230.935 319.725 230.773 319.447 230.676 319.146C230.58 318.846 230.551 318.529 230.592 318.216C230.634 317.904 230.744 317.604 230.915 317.336C231.086 317.067 231.315 316.837 231.587 316.66C231.858 316.483 232.166 316.363 232.489 316.309C232.813 316.254 233.144 316.266 233.462 316.344" stroke="#252829" stroke-width="0.776292" stroke-linecap="round" stroke-linejoin="round"/>
<path d="M233.219 317.542C233.219 317.039 233.343 316.544 233.582 316.097C233.821 315.65 234.167 315.263 234.592 314.97C235.018 314.676 235.51 314.483 236.028 314.408C236.546 314.332 237.075 314.375 237.573 314.534C238.07 314.693 238.521 314.963 238.888 315.321C239.255 315.68 239.528 316.117 239.684 316.596C239.84 317.076 239.875 317.584 239.787 318.079C239.698 318.574 239.487 319.042 239.173 319.444" stroke="#252829" stroke-width="0.776292" stroke-linecap="round" stroke-linejoin="round"/>
<path d="M234.871 319.443L236.194 320.711L237.517 319.443" stroke="#252829" stroke-width="0.776292" stroke-linecap="round" stroke-linejoin="round"/>
<path d="M236.195 317.541V320.711" stroke="#252829" stroke-width="0.776292" stroke-linecap="round" stroke-linejoin="round"/>
</g>
<path d="M232.473 253.766L236.482 255.997L240.491 253.766" stroke="#92A6B0" stroke-width="0.75504" stroke-linecap="round" stroke-linejoin="round"/>
<path d="M232.473 251.853L236.482 254.084L240.491 251.853" stroke="#5F6F77" stroke-width="0.75504" stroke-linecap="round" stroke-linejoin="round"/>
<path d="M232.473 249.942L236.482 252.172L240.491 249.942L236.482 247.711L232.473 249.942Z" stroke="#3B4144" stroke-width="0.75504" stroke-linecap="round" stroke-linejoin="round"/>
<path d="M237.723 280.637V281.845H232.408V279.055L236.515 276.747V275.563C236.515 275.02 236.092 274.597 235.549 274.597H234.582C234.051 274.597 233.616 275.032 233.616 275.563V275.986H232.408V275.563C232.408 274.355 233.386 273.389 234.582 273.389H235.549C236.757 273.389 237.723 274.355 237.723 275.563V277.46L233.616 279.767V280.637H237.723ZM244.001 280.637V281.845H238.685V280.637H240.739V274.79L238.685 275.998V274.597L240.739 273.389H241.947V280.637H244.001ZM246.17 279.671C246.17 280.202 246.605 280.637 247.137 280.637H248.103C248.647 280.637 249.07 280.214 249.07 279.671V278.656C249.07 278.124 248.635 277.689 248.103 277.689H247.548L246.17 278.62V279.671ZM244.962 279.671V275.563C244.962 274.355 245.929 273.389 247.137 273.389H248.103C249.311 273.389 250.278 274.355 250.278 275.563V275.926H249.07V275.563C249.07 275.02 248.647 274.597 248.103 274.597H247.137C246.593 274.597 246.17 275.02 246.17 275.563V277.158L247.173 276.481H248.103C249.299 276.481 250.278 277.448 250.278 278.656V279.671C250.278 280.879 249.311 281.845 248.103 281.845H247.137C245.941 281.845 244.962 280.879 244.962 279.671Z" fill="#313334"/>
<rect opacity="0.3" x="296.27" y="238.692" width="71.6989" height="62.1235" rx="8.55712" fill="#B1C5CE"/>
<rect opacity="0.2" x="306.539" y="287.945" width="30.4713" height="2.03761" rx="1.01881" fill="#92A6B0"/>
<rect opacity="0.2" x="306.539" y="291.646" width="42.7129" height="2.03761" rx="1.01881" fill="#92A6B0"/>
<rect opacity="0.3" x="296.27" y="303.192" width="71.6989" height="62.1235" rx="8.55712" fill="#B1C5CE"/>
<g clip-path="url(#clip4_6536_31695)">
<path d="M307.721 255.225H306.254C306.156 255.225 306.063 255.186 305.994 255.117C305.925 255.048 305.887 254.955 305.887 254.858V253.024C305.887 252.927 305.925 252.833 305.994 252.765C306.063 252.696 306.156 252.657 306.254 252.657H307.721" stroke="black" stroke-width="0.76032" stroke-linecap="round" stroke-linejoin="round"/>
<path d="M310.663 253.025H312.131L315.205 252.319C315.318 252.288 315.437 252.283 315.552 252.305C315.667 252.328 315.775 252.376 315.868 252.447C315.961 252.518 316.037 252.61 316.089 252.715C316.141 252.819 316.168 252.935 316.168 253.052C316.168 253.193 316.129 253.332 316.055 253.452C315.98 253.573 315.874 253.67 315.747 253.733L313.966 254.492L311.03 255.226H307.727V252.658L308.874 251.512C308.976 251.41 309.098 251.329 309.232 251.274C309.365 251.219 309.509 251.191 309.654 251.191H311.947C312.191 251.191 312.424 251.288 312.596 251.46C312.768 251.632 312.865 251.865 312.865 252.108C312.865 252.351 312.768 252.584 312.596 252.756C312.424 252.928 312.191 253.025 311.947 253.025H310.663Z" stroke="black" stroke-width="0.76032" stroke-linecap="round" stroke-linejoin="round"/>
<g opacity="0.2">
<path d="M314.882 250.824C315.591 250.824 316.167 250.249 316.167 249.54C316.167 248.831 315.591 248.256 314.882 248.256C314.173 248.256 313.598 248.831 313.598 249.54C313.598 250.249 314.173 250.824 314.882 250.824Z" stroke="black" stroke-width="0.76032" stroke-linecap="round" stroke-linejoin="round"/>
<path d="M313.595 249.6C313.346 249.718 313.065 249.752 312.795 249.698C312.525 249.644 312.279 249.505 312.094 249.301C311.909 249.096 311.794 248.838 311.768 248.563C311.741 248.289 311.803 248.014 311.946 247.777C312.088 247.541 312.302 247.357 312.557 247.252C312.812 247.147 313.094 247.127 313.362 247.195C313.629 247.263 313.868 247.415 314.042 247.628C314.216 247.842 314.317 248.106 314.329 248.381" stroke="black" stroke-width="0.76032" stroke-linecap="round" stroke-linejoin="round"/>
</g>
</g>
<path d="M312.438 280.638V281.846H307.123V280.638H309.176V274.791L307.123 275.999V274.598L309.176 273.389H310.384V280.638H312.438ZM316.541 280.626C316.746 280.626 316.927 280.565 317.085 280.457L314.608 276.422V279.659C314.608 280.191 315.043 280.626 315.574 280.626H316.541ZM313.4 279.659V275.564C313.4 274.356 314.378 273.389 315.574 273.389H316.541C317.749 273.389 318.715 274.356 318.715 275.564V279.659C318.715 280.855 317.749 281.846 316.541 281.846H315.574C314.378 281.846 313.4 280.855 313.4 279.659ZM315.019 274.767L317.507 278.814V275.564C317.507 275.02 317.085 274.598 316.541 274.598H315.574C315.369 274.598 315.176 274.658 315.019 274.767ZM329.095 280.638C329.627 280.638 330.062 280.203 330.062 279.659V279.067C330.062 278.524 329.639 278.101 329.095 278.101H328.129C327.585 278.101 327.162 278.536 327.162 279.067V279.659C327.162 280.203 327.597 280.65 328.129 280.638H329.095ZM325.954 279.659V279.067C325.954 278.415 326.244 277.835 326.691 277.437C326.317 277.038 326.075 276.506 326.075 275.914V275.564C326.075 274.356 327.054 273.389 328.25 273.389H328.975C330.183 273.389 331.149 274.356 331.149 275.564V275.914C331.149 276.506 330.919 277.038 330.533 277.437C330.992 277.835 331.27 278.415 331.27 279.067V279.659C331.27 280.855 330.303 281.846 329.095 281.846H328.129C326.933 281.846 325.954 280.855 325.954 279.659ZM327.283 275.914C327.283 276.446 327.694 276.881 328.213 276.893H328.975C329.506 276.893 329.941 276.458 329.941 275.914V275.564C329.941 275.02 329.518 274.598 328.975 274.598H328.25C327.706 274.598 327.283 275.032 327.283 275.564V275.914ZM335.373 280.626C335.578 280.626 335.759 280.565 335.916 280.457L333.44 276.422V279.659C333.44 280.191 333.875 280.626 334.406 280.626H335.373ZM332.232 279.659V275.564C332.232 274.356 333.21 273.389 334.406 273.389H335.373C336.581 273.389 337.547 274.356 337.547 275.564V279.659C337.547 280.855 336.581 281.846 335.373 281.846H334.406C333.21 281.846 332.232 280.855 332.232 279.659ZM333.85 274.767L336.339 278.814V275.564C336.339 275.02 335.916 274.598 335.373 274.598H334.406C334.201 274.598 334.007 274.658 333.85 274.767ZM341.65 280.626C341.855 280.626 342.036 280.565 342.193 280.457L339.717 276.422V279.659C339.717 280.191 340.152 280.626 340.683 280.626H341.65ZM338.509 279.659V275.564C338.509 274.356 339.487 273.389 340.683 273.389H341.65C342.858 273.389 343.824 274.356 343.824 275.564V279.659C343.824 280.855 342.858 281.846 341.65 281.846H340.683C339.487 281.846 338.509 280.855 338.509 279.659ZM340.128 274.767L342.616 278.814V275.564C342.616 275.02 342.193 274.598 341.65 274.598H340.683C340.478 274.598 340.285 274.658 340.128 274.767Z" fill="#313334"/>
<g opacity="0.1" clip-path="url(#clip5_6536_31695)">
<path d="M302.323 308.897C304.074 308.897 305.493 308.259 305.493 307.471C305.493 306.684 304.074 306.046 302.323 306.046C300.572 306.046 299.152 306.684 299.152 307.471C299.152 308.259 300.572 308.897 302.323 308.897Z" stroke="black" stroke-width="0.521884" stroke-linecap="round" stroke-linejoin="round"/>
<path d="M299.152 307.471V309.055C299.152 309.842 300.572 310.481 302.323 310.481C304.073 310.481 305.493 309.842 305.493 309.055V307.471" stroke="black" stroke-width="0.521884" stroke-linecap="round" stroke-linejoin="round"/>
<path d="M301.055 308.777V310.361" stroke="black" stroke-width="0.521884" stroke-linecap="round" stroke-linejoin="round"/>
<path d="M305.49 307.974C306.937 308.106 308.026 308.681 308.026 309.371C308.026 310.158 306.607 310.797 304.856 310.797C304.079 310.797 303.368 310.671 302.816 310.463" stroke="black" stroke-width="0.521884" stroke-linecap="round" stroke-linejoin="round"/>
<path d="M301.688 310.452V310.956C301.688 311.743 303.107 312.381 304.858 312.381C306.609 312.381 308.028 311.743 308.028 310.956V309.372" stroke="black" stroke-width="0.521884" stroke-linecap="round" stroke-linejoin="round"/>
<path d="M306.129 310.679V312.263" stroke="black" stroke-width="0.521884" stroke-linecap="round" stroke-linejoin="round"/>
<path d="M303.59 308.778V312.263" stroke="black" stroke-width="0.521884" stroke-linecap="round" stroke-linejoin="round"/>
</g>
<rect x="77.7114" y="96.6274" width="44.296" height="44.296" rx="10.912" fill="#92A6B0"/>
<rect x="77.7114" y="96.6274" width="44.296" height="44.296" rx="10.912" stroke="#B1C5CE" stroke-width="0.704"/>
<rect x="80.1758" y="99.0635" width="39.424" height="39.424" rx="8.448" fill="#ABFDBE"/>
<g clip-path="url(#clip6_6536_31695)">
<path d="M106.394 120.899H92.6133" stroke="#252829" stroke-width="1.06008" stroke-linecap="round" stroke-linejoin="round"/>
<path d="M92.6133 120.899L94.1034 114.94C94.132 114.826 94.1982 114.724 94.2913 114.651C94.3845 114.578 94.4993 114.539 94.6175 114.539H104.39C104.508 114.539 104.623 114.578 104.716 114.651C104.809 114.724 104.876 114.826 104.904 114.94L106.394 120.899V123.019C106.394 123.16 106.338 123.295 106.239 123.394C106.14 123.494 106.005 123.549 105.864 123.549H93.1433C93.0027 123.549 92.8679 123.494 92.7685 123.394C92.6691 123.295 92.6133 123.16 92.6133 123.019V120.899Z" stroke="#252829" stroke-width="1.06008" stroke-linecap="round" stroke-linejoin="round"/>
<path d="M95.7969 116.66H96.857" stroke="#252829" stroke-width="1.06008" stroke-linecap="round" stroke-linejoin="round"/>
<path d="M98.9727 116.66H100.033" stroke="#252829" stroke-width="1.06008" stroke-linecap="round" stroke-linejoin="round"/>
<path d="M102.16 116.66H103.22" stroke="#252829" stroke-width="1.06008" stroke-linecap="round" stroke-linejoin="round"/>
<path d="M95.7969 118.779H96.857" stroke="#252829" stroke-width="1.06008" stroke-linecap="round" stroke-linejoin="round"/>
<path d="M98.9727 118.779H100.033" stroke="#252829" stroke-width="1.06008" stroke-linecap="round" stroke-linejoin="round"/>
<path d="M102.16 118.779H103.22" stroke="#252829" stroke-width="1.06008" stroke-linecap="round" stroke-linejoin="round"/>
<path d="M95.7969 114.539V112.948C95.7969 112.808 95.8527 112.673 95.9521 112.574C96.0515 112.474 96.1863 112.418 96.3269 112.418H98.9771C99.1177 112.418 99.2525 112.474 99.3519 112.574C99.4513 112.673 99.5071 112.808 99.5071 112.948V114.539" stroke="#252829" stroke-width="1.06008" stroke-linecap="round" stroke-linejoin="round"/>
</g>
</g>
<defs>
<clipPath id="clip0_6536_31695">
<rect width="350" height="350" fill="white"/>
</clipPath>
<clipPath id="clip1_6536_31695">
<rect width="18.2333" height="18.2333" fill="white" transform="translate(25.5977 194.569)"/>
</clipPath>
<clipPath id="clip2_6536_31695">
<rect width="18.2333" height="18.2333" fill="white" transform="translate(305.254 71.5813)"/>
</clipPath>
<clipPath id="clip3_6536_31695">
<rect width="15.0302" height="15.0302" fill="white" transform="translate(95.0977 267.361)"/>
</clipPath>
<clipPath id="clip4_6536_31695">
<rect width="11.7452" height="11.7366" fill="white" transform="translate(305.52 245.69)"/>
</clipPath>
<clipPath id="clip5_6536_31695">
<rect width="10.145" height="10.1376" fill="white" transform="translate(298.52 304.146)"/>
</clipPath>
<clipPath id="clip6_6536_31695">
<rect width="16.9612" height="16.9612" fill="white" transform="translate(91.0195 110.3)"/>
</clipPath>
</defs>
</svg>
