<svg width="541" height="440" viewBox="0 0 541 440" fill="none" xmlns="http://www.w3.org/2000/svg">
<g clip-path="url(#clip0_6536_8263)">
<path fill-rule="evenodd" clip-rule="evenodd" d="M222.084 13C222.084 7.47715 226.561 3 232.084 3H367.459C372.982 3 377.459 7.47715 377.459 13V104.648C377.459 110.171 372.982 114.648 367.459 114.648H242.752C237.229 114.648 232.752 119.125 232.752 124.648V200.027C232.752 205.55 237.229 210.027 242.752 210.027H427.551C433.074 210.027 437.551 214.505 437.551 220.027V571.727C437.551 577.25 433.074 581.727 427.551 581.727H232.219C226.696 581.727 222.219 577.25 222.219 571.727V309.268C222.219 303.745 217.742 299.268 212.219 299.268H55.666C50.1432 299.268 45.666 294.79 45.666 289.268V112.711C45.666 107.188 50.1432 102.711 55.666 102.711H212.084C217.607 102.711 222.084 98.2338 222.084 92.7109V13Z" fill="#E4EDF1"/>
<rect opacity="0.2" x="264.738" y="263.965" width="124.406" height="125.958" rx="62.2031" fill="#B6F38F"/>
<rect x="305.729" y="305.458" width="42.4411" height="42.9706" rx="21.2206" fill="#B6F38F"/>
<path d="M330.201 317.664C331.549 318.02 332.779 318.729 333.765 319.718C334.75 320.707 335.457 321.941 335.812 323.294" stroke="black" stroke-width="1.6" stroke-linecap="round" stroke-linejoin="round"/>
<path d="M329.402 320.881C331.057 321.325 332.165 322.437 332.608 324.098" stroke="black" stroke-width="1.6" stroke-linecap="round" stroke-linejoin="round"/>
<path d="M330.642 328.255C330.753 328.181 330.88 328.136 331.013 328.124C331.146 328.111 331.28 328.133 331.402 328.186L336.127 330.31C336.286 330.378 336.419 330.497 336.506 330.647C336.592 330.797 336.628 330.972 336.608 331.144C336.452 332.312 335.879 333.383 334.996 334.158C334.112 334.933 332.979 335.36 331.805 335.359C328.191 335.359 324.726 333.919 322.17 331.354C319.615 328.79 318.18 325.312 318.18 321.686C318.179 320.508 318.604 319.37 319.377 318.484C320.149 317.597 321.216 317.022 322.379 316.866C322.551 316.845 322.725 316.881 322.875 316.968C323.025 317.055 323.143 317.189 323.211 317.349L325.328 322.094C325.38 322.216 325.401 322.349 325.39 322.481C325.378 322.613 325.334 322.74 325.262 322.851L323.121 325.406C323.045 325.521 323 325.654 322.991 325.791C322.981 325.929 323.007 326.067 323.067 326.191C323.895 327.893 325.649 329.631 327.35 330.455C327.474 330.514 327.612 330.54 327.75 330.53C327.887 330.519 328.02 330.473 328.134 330.395L330.642 328.255Z" stroke="black" stroke-width="1.6" stroke-linecap="round" stroke-linejoin="round"/>
<path d="M250.761 383.478H252.971V381.268H254.671V383.478H256.881V385.178H254.671V387.388H252.971V385.178H250.761V383.478ZM266.395 387.167V388.867H258.915V387.167H261.805V378.939L258.915 380.639V378.667L261.805 376.967H263.505V387.167H266.395ZM281.002 390.584C279.319 390.584 277.942 389.19 277.942 387.507V378.327C277.942 376.627 279.319 375.267 281.002 375.267H282.702V376.967H281.002C280.237 376.967 279.642 377.579 279.642 378.327V387.507C279.642 388.255 280.254 388.867 281.002 388.867H282.702V390.584H281.002ZM289.495 377.987H291.195V382.237H292.895V383.937H291.195V388.867H289.495V383.937H285.415V376.967H287.115V382.237H289.495V377.987ZM301.728 387.167V388.867H294.248V387.167H297.138V378.939L294.248 380.639V378.667L297.138 376.967H298.838V387.167H301.728ZM303.082 383.818V376.967H309.542V378.667H304.782V381.761L306.193 380.809H307.502C309.185 380.809 310.562 382.169 310.562 383.869V385.807C310.562 387.507 309.202 388.867 307.502 388.867H306.142C304.459 388.867 303.082 387.507 303.082 385.807V385.637H304.782V385.807C304.782 386.555 305.394 387.167 306.142 387.167H307.502C308.267 387.167 308.862 386.572 308.862 385.807V383.869C308.862 383.121 308.25 382.509 307.502 382.509H306.72L304.782 383.818H303.082ZM314.975 390.584H313.275V388.867H314.975C315.723 388.867 316.335 388.255 316.335 387.507V378.327C316.335 377.579 315.74 376.967 314.975 376.967H313.275V375.267H314.975C316.658 375.267 318.035 376.627 318.035 378.327V387.507C318.035 389.19 316.658 390.584 314.975 390.584ZM331.282 385.807C331.282 386.555 331.894 387.167 332.642 387.167H334.002C334.767 387.167 335.362 386.572 335.362 385.807V384.379C335.362 383.631 334.75 383.019 334.002 383.019H333.22L331.282 384.328V385.807ZM329.582 385.807V380.027C329.582 378.327 330.942 376.967 332.642 376.967H334.002C335.702 376.967 337.062 378.327 337.062 380.027V380.537H335.362V380.027C335.362 379.262 334.767 378.667 334.002 378.667H332.642C331.877 378.667 331.282 379.262 331.282 380.027V382.271L332.693 381.319H334.002C335.685 381.319 337.062 382.679 337.062 384.379V385.807C337.062 387.507 335.702 388.867 334.002 388.867H332.642C330.959 388.867 329.582 387.507 329.582 385.807ZM340.795 388.867H339.095V385.552L344.195 380.282V378.667H340.115V380.537H338.415V376.967H345.895V380.962L340.795 386.232V388.867ZM351.668 387.167C352.416 387.167 353.028 386.555 353.028 385.79V384.957C353.028 384.192 352.433 383.597 351.668 383.597H350.308C349.543 383.597 348.948 384.209 348.948 384.957V385.79C348.948 386.555 349.56 387.184 350.308 387.167H351.668ZM347.248 385.79V384.957C347.248 384.039 347.656 383.223 348.285 382.662C347.758 382.101 347.418 381.353 347.418 380.52V380.027C347.418 378.327 348.795 376.967 350.478 376.967H351.498C353.198 376.967 354.558 378.327 354.558 380.027V380.52C354.558 381.353 354.235 382.101 353.691 382.662C354.337 383.223 354.728 384.039 354.728 384.957V385.79C354.728 387.473 353.368 388.867 351.668 388.867H350.308C348.625 388.867 347.248 387.473 347.248 385.79ZM349.118 380.52C349.118 381.268 349.696 381.88 350.427 381.897H351.498C352.246 381.897 352.858 381.285 352.858 380.52V380.027C352.858 379.262 352.263 378.667 351.498 378.667H350.478C349.713 378.667 349.118 379.279 349.118 380.027V380.52ZM356.762 383.478H362.882V385.178H356.762V383.478ZM372.395 387.167V388.867H364.915V384.94L370.695 381.693V380.027C370.695 379.262 370.1 378.667 369.335 378.667H367.975C367.227 378.667 366.615 379.279 366.615 380.027V380.622H364.915V380.027C364.915 378.327 366.292 376.967 367.975 376.967H369.335C371.035 376.967 372.395 378.327 372.395 380.027V382.696L366.615 385.943V387.167H372.395ZM381.228 380.707C381.228 381.574 380.871 382.356 380.293 382.917C380.871 383.478 381.228 384.26 381.228 385.127V385.807C381.228 387.507 379.868 388.867 378.168 388.867H376.808C375.125 388.867 373.748 387.507 373.748 385.807V385.212H375.448V385.807C375.448 386.555 376.06 387.167 376.808 387.167H378.168C378.933 387.167 379.528 386.572 379.528 385.807V385.127C379.528 384.362 378.933 383.767 378.168 383.767H376.978V382.067H378.168C378.933 382.067 379.528 381.472 379.528 380.707V380.027C379.528 379.262 378.933 378.667 378.168 378.667H376.808C376.06 378.667 375.448 379.279 375.448 380.027V380.622H373.748V380.027C373.748 378.327 375.125 376.967 376.808 376.967H378.168C379.868 376.967 381.228 378.327 381.228 380.027V380.707ZM386.662 377.987H388.362V382.237H390.062V383.937H388.362V388.867H386.662V383.937H382.582V376.967H384.282V382.237H386.662V377.987ZM391.415 383.818V376.967H397.875V378.667H393.115V381.761L394.526 380.809H395.835C397.518 380.809 398.895 382.169 398.895 383.869V385.807C398.895 387.507 397.535 388.867 395.835 388.867H394.475C392.792 388.867 391.415 387.507 391.415 385.807V385.637H393.115V385.807C393.115 386.555 393.727 387.167 394.475 387.167H395.835C396.6 387.167 397.195 386.572 397.195 385.807V383.869C397.195 383.121 396.583 382.509 395.835 382.509H395.053L393.115 383.818H391.415Z" fill="#252829"/>
<path d="M310.203 404.194C310.203 403.459 310.345 402.814 310.629 402.26C310.92 401.698 311.329 401.265 311.856 400.96C312.39 400.648 313.011 400.492 313.718 400.492C314.266 400.492 314.758 400.596 315.195 400.804C315.638 401.012 315.999 401.31 316.276 401.698C316.554 402.079 316.73 402.523 316.807 403.029H315.611C315.493 402.565 315.264 402.201 314.924 401.937C314.585 401.674 314.165 401.542 313.666 401.542C313.215 401.542 312.82 401.656 312.48 401.885C312.141 402.107 311.881 402.419 311.7 402.821C311.52 403.216 311.43 403.674 311.43 404.194C311.43 404.707 311.52 405.165 311.7 405.567C311.881 405.969 312.141 406.284 312.48 406.513C312.82 406.735 313.215 406.846 313.666 406.846C314.165 406.846 314.581 406.714 314.914 406.451C315.254 406.187 315.482 405.823 315.6 405.359H316.796C316.72 405.872 316.543 406.319 316.266 406.7C315.996 407.082 315.642 407.376 315.205 407.584C314.768 407.792 314.273 407.896 313.718 407.896C313.011 407.896 312.39 407.744 311.856 407.439C311.329 407.134 310.92 406.704 310.629 406.149C310.345 405.588 310.203 404.936 310.203 404.194ZM322.704 406.856V407.834H322.111C321.765 407.834 321.515 407.761 321.362 407.616C321.21 407.47 321.134 407.259 321.134 406.981C320.732 407.591 320.146 407.896 319.376 407.896C318.78 407.896 318.301 407.758 317.941 407.48C317.58 407.203 317.4 406.822 317.4 406.336C317.4 405.789 317.594 405.369 317.982 405.078C318.371 404.78 318.936 404.631 319.678 404.631H321.019V404.308C321.019 404.01 320.915 403.778 320.707 403.612C320.499 403.438 320.212 403.352 319.844 403.352C319.518 403.352 319.248 403.424 319.033 403.57C318.825 403.709 318.7 403.896 318.658 404.132H317.556C317.612 403.598 317.847 403.185 318.263 402.894C318.679 402.596 319.224 402.447 319.896 402.447C320.61 402.447 321.161 402.613 321.55 402.946C321.938 403.279 322.132 403.757 322.132 404.381V406.482C322.132 406.732 322.25 406.856 322.486 406.856H322.704ZM321.019 405.463H319.626C319.279 405.463 319.012 405.532 318.825 405.671C318.638 405.803 318.544 406 318.544 406.264C318.544 406.492 318.631 406.676 318.804 406.815C318.984 406.953 319.227 407.023 319.532 407.023C319.997 407.023 320.357 406.898 320.614 406.648C320.877 406.399 321.012 406.066 321.019 405.65V405.463ZM323.212 400.554H324.335V407.834H323.212V400.554ZM325.332 400.554H326.455V407.834H325.332V400.554ZM328.014 400.377C328.208 400.377 328.371 400.443 328.503 400.575C328.634 400.7 328.7 400.859 328.7 401.053C328.7 401.247 328.634 401.41 328.503 401.542C328.371 401.667 328.208 401.729 328.014 401.729C327.82 401.729 327.657 401.667 327.525 401.542C327.393 401.41 327.328 401.247 327.328 401.053C327.328 400.859 327.393 400.7 327.525 400.575C327.657 400.443 327.82 400.377 328.014 400.377ZM327.452 402.509H328.576V407.834H327.452V402.509ZM332.381 402.447C333.011 402.447 333.525 402.641 333.92 403.029C334.322 403.417 334.523 404.041 334.523 404.901V407.834H333.389V404.964C333.389 404.457 333.282 404.073 333.067 403.809C332.852 403.546 332.537 403.414 332.121 403.414C331.677 403.414 331.327 403.57 331.07 403.882C330.821 404.187 330.696 404.61 330.696 405.151V407.834H329.573V402.509H330.55L330.675 403.206C331.077 402.7 331.646 402.447 332.381 402.447ZM340.609 402.509V407.616C340.609 408.364 340.387 408.943 339.944 409.352C339.5 409.768 338.813 409.976 337.884 409.976C337.163 409.976 336.577 409.813 336.127 409.488C335.676 409.169 335.427 408.715 335.378 408.125H336.522C336.591 408.423 336.751 408.652 337 408.812C337.25 408.978 337.572 409.061 337.968 409.061C338.987 409.061 339.496 408.565 339.496 407.574V406.981C339.108 407.564 338.529 407.855 337.76 407.855C337.274 407.855 336.841 407.747 336.46 407.532C336.078 407.311 335.78 406.999 335.565 406.596C335.35 406.187 335.243 405.705 335.243 405.151C335.243 404.617 335.35 404.145 335.565 403.736C335.787 403.327 336.089 403.012 336.47 402.79C336.851 402.561 337.281 402.447 337.76 402.447C338.162 402.447 338.508 402.527 338.8 402.686C339.091 402.845 339.327 403.064 339.507 403.341L339.632 402.509H340.609ZM337.947 406.908C338.411 406.908 338.786 406.749 339.07 406.43C339.354 406.104 339.496 405.685 339.496 405.172C339.496 404.645 339.354 404.218 339.07 403.892C338.786 403.56 338.411 403.393 337.947 403.393C337.482 403.393 337.108 403.556 336.824 403.882C336.539 404.208 336.397 404.631 336.397 405.151C336.397 405.671 336.539 406.094 336.824 406.42C337.108 406.745 337.482 406.908 337.947 406.908Z" fill="#92A6B0"/>
<path d="M253.617 237.836C252.214 237.836 251.215 238.81 251.215 240.143V240.152C251.215 241.399 252.084 242.318 253.325 242.318C254.213 242.318 254.777 241.858 255.015 241.34H255.104C255.104 241.39 255.1 241.44 255.1 241.49C255.051 242.746 254.616 243.765 253.59 243.765C253.021 243.765 252.622 243.465 252.452 243.005L252.438 242.96H251.3L251.309 243.01C251.515 244.015 252.402 244.73 253.59 244.73C255.216 244.73 256.198 243.419 256.198 241.208V241.199C256.198 238.832 254.997 237.836 253.617 237.836ZM253.612 241.417C252.877 241.417 252.344 240.871 252.344 240.111V240.102C252.344 239.369 252.913 238.791 253.626 238.791C254.343 238.791 254.903 239.378 254.903 240.129V240.138C254.903 240.88 254.343 241.417 253.612 241.417Z" fill="#3B4144"/>
<path d="M258.232 240.311C258.644 240.311 258.944 239.993 258.944 239.592C258.944 239.187 258.644 238.873 258.232 238.873C257.824 238.873 257.52 239.187 257.52 239.592C257.52 239.993 257.824 240.311 258.232 240.311ZM258.232 243.688C258.644 243.688 258.944 243.374 258.944 242.969C258.944 242.564 258.644 242.25 258.232 242.25C257.824 242.25 257.52 242.564 257.52 242.969C257.52 243.374 257.824 243.688 258.232 243.688Z" fill="#3B4144"/>
<path d="M263.403 244.566H264.51V243.305H265.379V242.336H264.51V238H262.874C261.996 239.356 261.077 240.866 260.239 242.345V243.305H263.403V244.566ZM261.315 242.363V242.295C261.942 241.18 262.691 239.965 263.354 238.937H263.421V242.363H261.315Z" fill="#3B4144"/>
<path d="M268.059 244.566H269.215V238H268.063L266.374 239.205V240.311L267.983 239.155H268.059V244.566Z" fill="#3B4144"/>
<g opacity="0.35">
<path fill-rule="evenodd" clip-rule="evenodd" d="M389.863 239.559C389.863 238.607 390.626 237.836 391.566 237.836H400.323C401.263 237.836 402.025 238.607 402.025 239.559V243.006C402.025 243.958 401.263 244.73 400.323 244.73H391.566C390.626 244.73 389.863 243.958 389.863 243.006V239.559ZM391.566 238.328H400.323C400.994 238.328 401.539 238.879 401.539 239.559V243.006C401.539 243.686 400.994 244.237 400.323 244.237H391.566C390.894 244.237 390.35 243.686 390.35 243.006V239.559C390.35 238.879 390.894 238.328 391.566 238.328Z" fill="#3B4144"/>
<path d="M403.485 241.283C403.485 240.495 402.512 240.298 402.512 240.298V242.268C402.512 242.268 403.485 242.071 403.485 241.283Z" fill="#3B4144"/>
</g>
<rect x="390.836" y="238.821" width="10.2162" height="4.92435" rx="0.972972" fill="#3B4144"/>
<path fill-rule="evenodd" clip-rule="evenodd" d="M381.836 242.268C382.501 242.268 383.103 242.543 383.539 242.989L381.836 244.73L380.134 242.989C380.569 242.543 381.171 242.268 381.836 242.268ZM381.836 239.805C383.166 239.805 384.37 240.357 385.242 241.248L384.22 242.292C383.61 241.669 382.767 241.283 381.836 241.283C380.905 241.283 380.063 241.669 379.453 242.292L378.431 241.248C379.303 240.357 380.507 239.805 381.836 239.805ZM381.658 237.345L381.836 237.343L382.055 237.347L382.247 237.355L382.412 237.366L382.622 237.386L382.797 237.408L382.987 237.436L383.183 237.471L383.378 237.512L383.547 237.552L383.745 237.604L383.947 237.664L384.086 237.708L384.237 237.761L384.401 237.822L384.582 237.895L384.76 237.973L384.925 238.051L385.086 238.131L385.245 238.215L385.398 238.302L385.546 238.39L385.704 238.49L385.86 238.594L386.005 238.696L386.136 238.794L386.31 238.93L386.438 239.036L386.567 239.147L386.711 239.279L386.863 239.425L386.945 239.507L385.923 240.551C384.877 239.482 383.432 238.821 381.836 238.821C380.241 238.821 378.796 239.482 377.75 240.551L376.729 239.507L376.74 239.495C376.783 239.451 376.827 239.408 376.871 239.365C376.958 239.281 377.047 239.199 377.138 239.119L377.239 239.032L377.363 238.93L377.473 238.843L377.595 238.75L377.719 238.66L377.79 238.61L377.989 238.477L378.139 238.383L378.274 238.302L378.474 238.191L378.634 238.107L378.796 238.027L378.948 237.957L379.126 237.881L379.307 237.809L379.467 237.75L379.673 237.68L379.815 237.636L380.001 237.584L380.185 237.537L380.344 237.501L380.529 237.464L380.715 237.432L380.894 237.406L381.08 237.383L381.271 237.366L381.481 237.352L381.658 237.345Z" fill="#3B4144"/>
<path d="M373.567 237.836C373.164 237.836 372.837 238.166 372.837 238.574V243.499C372.837 243.907 373.164 244.237 373.567 244.237H374.053C374.456 244.237 374.783 243.907 374.783 243.499V238.574C374.783 238.166 374.456 237.836 374.053 237.836H373.567Z" fill="#3B4144"/>
<path d="M369.918 240.052C369.918 239.644 370.245 239.313 370.648 239.313H371.134C371.537 239.313 371.864 239.644 371.864 240.052V243.499C371.864 243.907 371.537 244.237 371.134 244.237H370.648C370.245 244.237 369.918 243.907 369.918 243.499V240.052Z" fill="#3B4144"/>
<path d="M367.729 240.79C367.326 240.79 366.999 241.121 366.999 241.529V243.499C366.999 243.907 367.326 244.237 367.729 244.237H368.215C368.618 244.237 368.945 243.907 368.945 243.499V241.529C368.945 241.121 368.618 240.79 368.215 240.79H367.729Z" fill="#3B4144"/>
<path d="M364.81 241.775C364.407 241.775 364.08 242.106 364.08 242.514V243.499C364.08 243.907 364.407 244.237 364.81 244.237H365.296C365.699 244.237 366.026 243.907 366.026 243.499V242.514C366.026 242.106 365.699 241.775 365.296 241.775H364.81Z" fill="#3B4144"/>
<path opacity="0.7" d="M68.7441 123.92H73.3201V124.96H71.5521V131.2H70.5121V124.96H68.7441V123.92ZM79.348 131.2H78.204L76.8832 128.288H75.812V131.2H74.772V123.92H77.476C78.516 123.92 79.348 124.752 79.348 125.792V126.416C79.348 127.279 78.776 127.997 77.9856 128.215L79.348 131.2ZM75.812 127.248H77.476C77.944 127.248 78.308 126.884 78.308 126.416V125.792C78.308 125.324 77.944 124.96 77.476 124.96H75.812V127.248ZM81.84 131.2H80.8V128.808L82.568 123.92H83.608L85.376 128.808V131.2H84.336V129.515H81.84V131.2ZM82.0272 128.475H84.1488L83.0984 125.563H83.0776L82.0272 128.475ZM91.4039 123.92V124.96H87.8679V127.175H90.9879V128.215H87.8679V131.2H86.8279V123.92H91.4039ZM97.4319 123.92V124.96H93.8959V127.175H97.0159V128.215H93.8959V131.2H92.8559V123.92H97.4319ZM98.8838 123.92H103.46V124.96H101.692V130.16H103.46V131.2H98.8838V130.16H100.652V124.96H98.8838V123.92ZM108.448 125.792C108.448 125.324 108.084 124.96 107.616 124.96H106.784C106.316 124.96 105.952 125.334 105.952 125.792V129.318C105.952 129.775 106.326 130.15 106.784 130.15H107.616C108.073 130.15 108.448 129.775 108.448 129.318V128.746H109.488V129.318C109.488 130.347 108.656 131.2 107.616 131.2H106.784C105.754 131.2 104.912 130.347 104.912 129.318V125.792C104.912 124.752 105.754 123.92 106.784 123.92H107.616C108.656 123.92 109.488 124.752 109.488 125.792V126.364H108.448V125.792ZM116.968 123.92H121.544V124.96H119.776V131.2H118.736V124.96H116.968V123.92ZM124.764 131.2V128.61L122.996 126.416V123.92H124.036V126.042L125.263 127.57H125.284L126.532 125.938V123.92H127.572V126.291L125.804 128.61V131.2H124.764ZM133.599 126.416C133.599 127.456 132.767 128.288 131.727 128.288H130.063V131.2H129.023V123.92H131.727C132.767 123.92 133.599 124.752 133.599 125.792V126.416ZM130.063 127.248H131.727C132.195 127.248 132.559 126.884 132.559 126.416V125.792C132.559 125.324 132.195 124.96 131.727 124.96H130.063V127.248ZM139.627 123.92V124.96H136.091V126.863H139.211V127.903H136.091V130.16H139.627V131.2H135.051V123.92H139.627Z" fill="#252829"/>
<rect x="63.752" y="150.4" width="148" height="41.5283" rx="10" fill="#D5E1E7"/>
<path d="M84.0172 171.844C85.1647 171.844 86.0949 170.866 86.0949 169.659C86.0949 168.453 85.1647 167.475 84.0172 167.475C82.8697 167.475 81.9395 168.453 81.9395 169.659C81.9395 170.866 82.8697 171.844 84.0172 171.844Z" stroke="black" stroke-width="1.1" stroke-linecap="round" stroke-linejoin="round"/>
<path d="M89.2109 169.659C89.2109 174.574 84.0166 178.397 84.0166 178.397C84.0166 178.397 78.8223 174.574 78.8223 169.659C78.8223 168.21 79.3695 166.821 80.3437 165.797C81.3178 164.773 82.639 164.198 84.0166 164.198C85.3942 164.198 86.7154 164.773 87.6896 165.797C88.6637 166.821 89.2109 168.21 89.2109 169.659Z" stroke="black" stroke-width="1.1" stroke-linecap="round" stroke-linejoin="round"/>
<path d="M110.179 172.992C110.179 174.18 109.207 175.164 108.019 175.164H107.059C105.859 175.164 104.899 174.18 104.899 172.992V166.764H106.099V172.992C106.099 173.52 106.531 173.952 107.059 173.952H108.019C108.547 173.952 108.979 173.52 108.979 172.992V166.764H110.179V172.992ZM111.134 172.452H112.334V172.932C112.334 173.496 112.802 173.964 113.366 173.964H114.17C114.782 173.964 115.214 173.58 115.214 173.052C115.214 171.396 111.254 171.036 111.254 168.756C111.254 167.58 112.178 166.764 113.486 166.764H114.05C115.286 166.764 116.294 167.76 116.294 168.996V169.356H115.094V168.996C115.094 168.42 114.626 167.964 114.05 167.964H113.486C112.838 167.964 112.454 168.264 112.454 168.756C112.454 170.028 116.414 170.52 116.414 173.052C116.414 174.252 115.442 175.164 114.17 175.164H113.366C112.13 175.164 111.134 174.168 111.134 172.932V172.452ZM118.569 175.164H117.369V172.404L119.409 166.764H120.609L122.649 172.404V175.164H121.449V173.22H118.569V175.164ZM118.785 172.02H121.233L120.021 168.66H119.997L118.785 172.02Z" fill="#252829"/>
<rect x="63.752" y="195.928" width="148" height="41.5283" rx="10" fill="#D5E1E7"/>
<g clip-path="url(#clip1_6536_8263)">
<path d="M86.123 212.02H88.873V214.77" stroke="black" stroke-width="1.1" stroke-linecap="round" stroke-linejoin="round"/>
<path d="M85.5723 215.32L88.8723 212.02" stroke="black" stroke-width="1.1" stroke-linecap="round" stroke-linejoin="round"/>
<path d="M85.8741 218.712C85.9502 218.661 86.0379 218.63 86.129 218.622C86.2201 218.614 86.3118 218.628 86.3959 218.664L89.6381 220.117C89.7474 220.164 89.8386 220.245 89.8981 220.347C89.9576 220.45 89.9822 220.57 89.9681 220.688C89.8613 221.486 89.4682 222.218 88.862 222.748C88.2558 223.278 87.4776 223.57 86.6723 223.57C84.1925 223.57 81.8143 222.585 80.0608 220.831C78.3074 219.078 77.3223 216.699 77.3223 214.22C77.3217 213.414 77.6135 212.636 78.1437 212.03C78.6738 211.424 79.406 211.031 80.2043 210.924C80.3223 210.91 80.4416 210.934 80.5445 210.994C80.6474 211.053 80.7282 211.144 80.7749 211.254L82.2276 214.499C82.2633 214.582 82.2778 214.673 82.2699 214.763C82.262 214.854 82.2319 214.941 82.1822 215.016L80.713 216.763C80.6609 216.842 80.6301 216.933 80.6236 217.027C80.6171 217.121 80.6351 217.215 80.6759 217.3C81.2445 218.464 82.4476 219.653 83.615 220.216C83.7005 220.257 83.7951 220.274 83.8895 220.267C83.9839 220.26 84.0748 220.228 84.1533 220.175L85.8741 218.712Z" stroke="black" stroke-width="1.1" stroke-linecap="round" stroke-linejoin="round"/>
</g>
<path d="M107.93 219.48C108.458 219.48 108.89 219.048 108.89 218.52V214.452C108.89 213.912 108.47 213.492 107.93 213.492H106.97C106.43 213.492 106.01 213.924 106.01 214.452V218.52C106.01 219.048 106.442 219.48 106.97 219.48H107.93ZM104.81 218.52V214.452C104.81 213.252 105.782 212.292 106.97 212.292H107.93C109.13 212.292 110.09 213.252 110.09 214.452V218.52C110.09 219.708 109.13 220.692 107.93 220.692H106.97C105.782 220.692 104.81 219.708 104.81 218.52ZM116.326 218.52C116.326 219.708 115.354 220.692 114.166 220.692H113.206C112.006 220.692 111.046 219.708 111.046 218.52V212.292H112.246V218.52C112.246 219.048 112.678 219.48 113.206 219.48H114.166C114.694 219.48 115.126 219.048 115.126 218.52V212.292H116.326V218.52ZM117.281 212.292H122.561V213.492H120.521V220.692H119.321V213.492H117.281V212.292ZM125.796 216.168H128.796V218.52C128.796 219.708 127.836 220.692 126.636 220.692H125.676C124.488 220.692 123.516 219.708 123.516 218.52V214.452C123.516 213.252 124.488 212.292 125.676 212.292H126.636C127.836 212.292 128.796 213.252 128.796 214.452V215.112H127.596V214.452C127.596 213.912 127.176 213.492 126.636 213.492H125.676C125.136 213.492 124.716 213.924 124.716 214.452V218.52C124.716 219.048 125.148 219.48 125.676 219.48H126.636C127.164 219.48 127.596 219.048 127.596 218.52V217.368H125.796V216.168ZM132.871 219.48C133.399 219.48 133.831 219.048 133.831 218.52V214.452C133.831 213.912 133.411 213.492 132.871 213.492H131.911C131.371 213.492 130.951 213.924 130.951 214.452V218.52C130.951 219.048 131.383 219.48 131.911 219.48H132.871ZM129.751 218.52V214.452C129.751 213.252 130.723 212.292 131.911 212.292H132.871C134.071 212.292 135.031 213.252 135.031 214.452V218.52C135.031 219.708 134.071 220.692 132.871 220.692H131.911C130.723 220.692 129.751 219.708 129.751 218.52ZM135.987 212.292H141.267V213.492H139.227V219.492H141.267V220.692H135.987V219.492H138.027V213.492H135.987V212.292ZM146.302 212.292H147.502V220.692H145.762L143.422 214.308V220.692H142.222V212.292H143.962L146.302 218.676V212.292ZM150.737 216.168H153.737V218.52C153.737 219.708 152.777 220.692 151.577 220.692H150.617C149.429 220.692 148.457 219.708 148.457 218.52V214.452C148.457 213.252 149.429 212.292 150.617 212.292H151.577C152.777 212.292 153.737 213.252 153.737 214.452V215.112H152.537V214.452C152.537 213.912 152.117 213.492 151.577 213.492H150.617C150.077 213.492 149.657 213.924 149.657 214.452V218.52C149.657 219.048 150.089 219.48 150.617 219.48H151.577C152.105 219.48 152.537 219.048 152.537 218.52V217.368H150.737V216.168Z" fill="#252829"/>
<rect x="63.752" y="241.457" width="148" height="41.5283" rx="10" fill="#D5E1E7"/>
<path d="M106.393 257.821V261.181H109.273V257.821H110.473V266.221H109.273V262.381H106.393V266.221H105.193V257.821H106.393ZM114.548 265.009C115.076 265.009 115.508 264.577 115.508 264.049V259.981C115.508 259.441 115.088 259.021 114.548 259.021H113.588C113.048 259.021 112.628 259.453 112.628 259.981V264.049C112.628 264.577 113.06 265.009 113.588 265.009H114.548ZM111.428 264.049V259.981C111.428 258.781 112.4 257.821 113.588 257.821H114.548C115.748 257.821 116.708 258.781 116.708 259.981V264.049C116.708 265.237 115.748 266.221 114.548 266.221H113.588C112.4 266.221 111.428 265.237 111.428 264.049ZM119.979 262.837L118.863 260.461V266.221H117.663V257.821H118.863L120.303 260.953L121.743 257.821H122.943V266.221H121.743V260.461L120.627 262.837H119.979ZM129.179 257.821V259.021H125.099V261.217H128.699V262.417H125.099V265.021H129.179V266.221H123.899V257.821H129.179ZM136.369 257.821H141.649V259.021L137.797 265.021H141.649V266.221H136.369V265.021L140.233 259.021H136.369V257.821ZM145.724 265.009C146.252 265.009 146.684 264.577 146.684 264.049V259.981C146.684 259.441 146.264 259.021 145.724 259.021H144.764C144.224 259.021 143.804 259.453 143.804 259.981V264.049C143.804 264.577 144.236 265.009 144.764 265.009H145.724ZM142.604 264.049V259.981C142.604 258.781 143.576 257.821 144.764 257.821H145.724C146.924 257.821 147.884 258.781 147.884 259.981V264.049C147.884 265.237 146.924 266.221 145.724 266.221H144.764C143.576 266.221 142.604 265.237 142.604 264.049ZM152.92 257.821H154.12V266.221H152.38L150.04 259.837V266.221H148.84V257.821H150.58L152.92 264.205V257.821ZM160.355 257.821V259.021H156.275V261.217H159.875V262.417H156.275V265.021H160.355V266.221H155.075V257.821H160.355Z" fill="#252829"/>
<g clip-path="url(#clip2_6536_8263)">
<path d="M83.9219 269.671V267.471" stroke="black" stroke-width="1.1" stroke-linecap="round" stroke-linejoin="round"/>
<path d="M83.9219 267.471C86.9594 267.471 89.4219 265.009 89.4219 261.971C89.4219 258.933 86.9594 256.471 83.9219 256.471C80.8843 256.471 78.4219 258.933 78.4219 261.971C78.4219 265.009 80.8843 267.471 83.9219 267.471Z" stroke="black" stroke-width="1.1" stroke-linecap="round" stroke-linejoin="round"/>
<path d="M83.9219 254.271V256.471" stroke="black" stroke-width="1.1" stroke-linecap="round" stroke-linejoin="round"/>
<path d="M76.2227 261.971H78.4227" stroke="black" stroke-width="1.1" stroke-linecap="round" stroke-linejoin="round"/>
<path d="M91.6219 261.971H89.4219" stroke="black" stroke-width="1.1" stroke-linecap="round" stroke-linejoin="round"/>
<path d="M83.9227 264.171C85.1377 264.171 86.1227 263.186 86.1227 261.971C86.1227 260.756 85.1377 259.771 83.9227 259.771C82.7076 259.771 81.7227 260.756 81.7227 261.971C81.7227 263.186 82.7076 264.171 83.9227 264.171Z" stroke="black" stroke-width="1.1" stroke-linecap="round" stroke-linejoin="round"/>
</g>
<rect x="127.168" y="230.214" width="18.9502" height="18.9549" rx="9.4751" fill="#E4EDF1"/>
<path d="M133.688 239.97H139.301" stroke="#252829"/>
<path d="M136.492 242.923L136.492 237.018" stroke="#252829"/>
<rect x="127.168" y="184.214" width="18.9502" height="18.9549" rx="9.4751" fill="#E4EDF1"/>
<path d="M133.688 193.826H139.301" stroke="#252829"/>
<path d="M136.492 196.779L136.492 190.874" stroke="#252829"/>
<path d="M259.974 67.957C259.974 66.247 258.644 64.917 256.934 64.917H256.174C254.464 64.917 253.134 66.285 253.134 67.957V71.149H258.264V74.949H253.134V76.469H258.264V80.269H253.134V80.839C253.134 82.511 254.502 83.879 256.174 83.879H256.934C258.606 83.879 259.974 82.511 259.974 80.839V80.459H263.774V80.839C263.774 84.601 260.734 87.717 256.934 87.717H256.174C252.412 87.717 249.334 84.601 249.334 80.839V80.269H247.054V76.469H249.334V74.949H247.054V71.149H249.334V67.957C249.334 64.157 252.412 61.117 256.174 61.117H256.934C260.734 61.117 263.774 64.157 263.774 67.957V68.337H259.974V67.957ZM276.679 83.879C277.325 83.879 277.895 83.689 278.389 83.347L270.599 70.655V80.839C270.599 82.511 271.967 83.879 273.639 83.879H276.679ZM266.799 80.839V67.957C266.799 64.157 269.877 61.117 273.639 61.117H276.679C280.479 61.117 283.519 64.157 283.519 67.957V80.839C283.519 84.601 280.479 87.717 276.679 87.717H273.639C269.877 87.717 266.799 84.601 266.799 80.839ZM271.891 65.449L279.719 78.179V67.957C279.719 66.247 278.389 64.917 276.679 64.917H273.639C272.993 64.917 272.385 65.107 271.891 65.449ZM288.634 83.917H292.814V87.717H288.634V83.917ZM314.649 83.917V87.717H297.929V78.939L310.849 71.681V67.957C310.849 66.247 309.519 64.917 307.809 64.917H304.769C303.097 64.917 301.729 66.285 301.729 67.957V69.287H297.929V67.957C297.929 64.157 301.007 61.117 304.769 61.117H307.809C311.609 61.117 314.649 64.157 314.649 67.957V73.923L301.729 81.181V83.917H314.649ZM334.394 69.477C334.394 71.415 333.596 73.163 332.304 74.417C333.596 75.671 334.394 77.419 334.394 79.357V80.877C334.394 84.677 331.354 87.717 327.554 87.717H324.514C320.752 87.717 317.674 84.677 317.674 80.877V79.547H321.474V80.877C321.474 82.549 322.842 83.917 324.514 83.917H327.554C329.264 83.917 330.594 82.587 330.594 80.877V79.357C330.594 77.647 329.264 76.317 327.554 76.317H324.894V72.517H327.554C329.264 72.517 330.594 71.187 330.594 69.477V67.957C330.594 66.247 329.264 64.917 327.554 64.917H324.514C322.842 64.917 321.474 66.285 321.474 67.957V69.287H317.674V67.957C317.674 64.157 320.752 61.117 324.514 61.117H327.554C331.354 61.117 334.394 64.157 334.394 67.957V69.477Z" fill="#252829"/>
<path d="M337.118 89.797L340.165 80.437H341.236L338.189 89.797H337.118ZM350.044 82.3298C350.627 82.3298 351.102 82.5205 351.469 82.9018C351.837 83.2762 352.02 83.8794 352.02 84.7114V87.717H350.897V84.7218C350.897 84.2573 350.803 83.9037 350.616 83.661C350.429 83.4184 350.152 83.297 349.784 83.297C349.396 83.297 349.087 83.4357 348.859 83.713C348.637 83.9834 348.526 84.3578 348.526 84.8362V87.717H347.392V84.7218C347.392 84.2504 347.295 83.8968 347.101 83.661C346.914 83.4184 346.637 83.297 346.269 83.297C345.888 83.297 345.583 83.4392 345.354 83.7234C345.132 84.0077 345.021 84.389 345.021 84.8674V87.717H343.898V82.3922H344.875L345 83.089C345.382 82.5898 345.902 82.3368 346.56 82.3298C346.935 82.3298 347.264 82.4096 347.548 82.569C347.833 82.7285 348.051 82.9712 348.203 83.297C348.391 82.992 348.637 82.7562 348.942 82.5898C349.247 82.4165 349.614 82.3298 350.044 82.3298ZM353.496 80.2602C353.69 80.2602 353.853 80.3261 353.985 80.4578C354.117 80.5826 354.183 80.7421 354.183 80.9362C354.183 81.1304 354.117 81.2933 353.985 81.425C353.853 81.5498 353.69 81.6122 353.496 81.6122C353.302 81.6122 353.139 81.5498 353.007 81.425C352.876 81.2933 352.81 81.1304 352.81 80.9362C352.81 80.7421 352.876 80.5826 353.007 80.4578C353.139 80.3261 353.302 80.2602 353.496 80.2602ZM352.935 82.3922H354.058V87.717H352.935V82.3922ZM357.863 82.3298C358.494 82.3298 359.007 82.524 359.402 82.9122C359.804 83.3005 360.005 83.9245 360.005 84.7842V87.717H358.872V84.8466C358.872 84.3405 358.764 83.9557 358.549 83.6922C358.334 83.4288 358.019 83.297 357.603 83.297C357.159 83.297 356.809 83.453 356.552 83.765C356.303 84.0701 356.178 84.493 356.178 85.0338V87.717H355.055V82.3922H356.032L356.157 83.089C356.559 82.5829 357.128 82.3298 357.863 82.3298Z" fill="#92A6B0"/>
<rect x="244.014" y="17.4866" width="51.32" height="17.4" rx="4.16" fill="#D5E1E7"/>
<path opacity="0.7" d="M253.582 24.9025C253.582 25.9425 252.75 26.7745 251.71 26.7745H250.046V29.6865H249.006V22.4065H251.71C252.75 22.4065 253.582 23.2385 253.582 24.2785V24.9025ZM250.046 25.7345H251.71C252.178 25.7345 252.542 25.3705 252.542 24.9025V24.2785C252.542 23.8105 252.178 23.4465 251.71 23.4465H250.046V25.7345ZM259.61 29.6865H258.466L257.145 26.7745H256.074V29.6865H255.034V22.4065H257.738C258.778 22.4065 259.61 23.2385 259.61 24.2785V24.9025C259.61 25.7657 259.038 26.4833 258.247 26.7017L259.61 29.6865ZM256.074 25.7345H257.738C258.206 25.7345 258.57 25.3705 258.57 24.9025V24.2785C258.57 23.8105 258.206 23.4465 257.738 23.4465H256.074V25.7345ZM265.638 22.4065V23.4465H262.102V25.3497H265.222V26.3897H262.102V28.6465H265.638V29.6865H261.062V22.4065H265.638ZM271.666 24.9025C271.666 25.9425 270.834 26.7745 269.794 26.7745H268.13V29.6865H267.09V22.4065H269.794C270.834 22.4065 271.666 23.2385 271.666 24.2785V24.9025ZM268.13 25.7345H269.794C270.262 25.7345 270.626 25.3705 270.626 24.9025V24.2785C270.626 23.8105 270.262 23.4465 269.794 23.4465H268.13V25.7345ZM274.158 29.6865H273.118V27.2945L274.886 22.4065H275.926L277.694 27.2945V29.6865H276.654V28.0017H274.158V29.6865ZM274.345 26.9617H276.466L275.416 24.0497H275.395L274.345 26.9617ZM279.146 22.4065H283.722V23.4465H281.954V28.6465H283.722V29.6865H279.146V28.6465H280.914V23.4465H279.146V22.4065ZM287.877 22.4065C288.907 22.4065 289.749 23.2385 289.749 24.2785V27.8041C289.749 28.8337 288.907 29.6865 287.877 29.6865H285.173V22.4065H287.877ZM286.213 28.6361H287.877C288.335 28.6361 288.709 28.2617 288.709 27.8041V24.2785C288.709 23.8209 288.345 23.4465 287.877 23.4465H286.213V28.6361Z" fill="#252829"/>
<rect x="295.334" y="17.4866" width="17.5043" height="17.5043" rx="8.75215" fill="#66E8FA"/>
<path fill-rule="evenodd" clip-rule="evenodd" d="M305.128 26.0842L302.465 28.7468L301.506 27.7879L304.169 25.1254L301.541 25.1254L301.541 23.7693L305.399 23.7693C305.998 23.7693 306.484 24.255 306.484 24.8541L306.484 28.7468L305.128 28.7468L305.128 26.0842Z" fill="#313334"/>
</g>
<defs>
<clipPath id="clip0_6536_8263">
<rect x="0.648438" width="540" height="440" rx="13" fill="white"/>
</clipPath>
<clipPath id="clip1_6536_8263">
<rect width="17.6" height="17.6" fill="white" transform="translate(75.1211 208.168)"/>
</clipPath>
<clipPath id="clip2_6536_8263">
<rect width="17.6" height="17.6" fill="white" transform="translate(75.1211 253.169)"/>
</clipPath>
</defs>
</svg>
