<svg width="401" height="402" viewBox="0 0 401 402" fill="none" xmlns="http://www.w3.org/2000/svg">
<rect x="204.371" y="218.717" width="132.877" height="114.92" rx="15.3" fill="#92A6B0"/>
<path d="M223.358 314.578C223.794 314.578 224.15 314.222 224.15 313.786V310.43C224.15 309.984 223.804 309.638 223.358 309.638H222.566C222.121 309.638 221.774 309.994 221.774 310.43V313.786C221.774 314.222 222.131 314.578 222.566 314.578H223.358ZM220.784 313.786V310.43C220.784 309.44 221.586 308.648 222.566 308.648H223.358C224.348 308.648 225.14 309.44 225.14 310.43V313.786C225.14 314.766 224.348 315.578 223.358 315.578H222.566C221.586 315.578 220.784 314.766 220.784 313.786ZM229.393 308.648H230.383V315.578H228.948L227.017 310.311V315.578H226.027V308.648H227.463L229.393 313.915V308.648ZM233.151 311.846H235.626V313.786C235.626 314.766 234.834 315.578 233.844 315.578H233.052C232.072 315.578 231.27 314.766 231.27 313.786V310.43C231.27 309.44 232.072 308.648 233.052 308.648H233.844C234.834 308.648 235.626 309.44 235.626 310.43V310.974H234.636V310.43C234.636 309.984 234.29 309.638 233.844 309.638H233.052C232.607 309.638 232.26 309.994 232.26 310.43V313.786C232.26 314.222 232.617 314.578 233.052 314.578H233.844C234.28 314.578 234.636 314.222 234.636 313.786V312.836H233.151V311.846ZM239.088 314.578C239.523 314.578 239.88 314.222 239.88 313.786V310.43C239.88 309.984 239.533 309.638 239.088 309.638H238.296C237.85 309.638 237.504 309.994 237.504 310.43V313.786C237.504 314.222 237.86 314.578 238.296 314.578H239.088ZM236.514 313.786V310.43C236.514 309.44 237.315 308.648 238.296 308.648H239.088C240.078 308.648 240.87 309.44 240.87 310.43V313.786C240.87 314.766 240.078 315.578 239.088 315.578H238.296C237.315 315.578 236.514 314.766 236.514 313.786ZM241.757 308.648H246.113V309.638H244.43V314.588H246.113V315.578H241.757V314.588H243.44V309.638H241.757V308.648ZM250.366 308.648H251.356V315.578H249.92L247.99 310.311V315.578H247V308.648H248.435L250.366 313.915V308.648ZM254.124 311.846H256.599V313.786C256.599 314.766 255.807 315.578 254.817 315.578H254.025C253.045 315.578 252.243 314.766 252.243 313.786V310.43C252.243 309.44 253.045 308.648 254.025 308.648H254.817C255.807 308.648 256.599 309.44 256.599 310.43V310.974H255.609V310.43C255.609 309.984 255.262 309.638 254.817 309.638H254.025C253.579 309.638 253.233 309.994 253.233 310.43V313.786C253.233 314.222 253.589 314.578 254.025 314.578H254.817C255.253 314.578 255.609 314.222 255.609 313.786V312.836H254.124V311.846ZM266.887 310.826C266.887 311.281 266.719 311.707 266.432 312.014C266.828 312.341 267.085 312.836 267.085 313.4V313.796C267.085 314.786 266.293 315.578 265.303 315.578H262.729V308.648H265.105C266.095 308.648 266.887 309.44 266.887 310.43V310.826ZM263.719 314.588H265.303C265.749 314.588 266.095 314.241 266.095 313.796V313.4C266.095 312.954 265.749 312.608 265.303 312.608H263.719V314.588ZM263.719 311.618H265.105C265.551 311.618 265.897 311.271 265.897 310.826V310.43C265.897 309.984 265.551 309.638 265.105 309.638H263.719V311.618ZM267.972 308.648H272.328V309.638H270.645V314.588H272.328V315.578H267.972V314.588H269.655V309.638H267.972V308.648ZM274.206 308.648V314.588H277.572V315.578H273.216V308.648H274.206ZM279.449 308.648V314.588H282.815V315.578H278.459V308.648H279.449ZM283.702 308.648H288.058V309.638H286.375V314.588H288.058V315.578H283.702V314.588H285.385V309.638H283.702V308.648ZM292.311 308.648H293.301V315.578H291.865L289.935 310.311V315.578H288.945V308.648H290.38L292.311 313.915V308.648ZM296.069 311.846H298.544V313.786C298.544 314.766 297.752 315.578 296.762 315.578H295.97C294.99 315.578 294.188 314.766 294.188 313.786V310.43C294.188 309.44 294.99 308.648 295.97 308.648H296.762C297.752 308.648 298.544 309.44 298.544 310.43V310.974H297.554V310.43C297.554 309.984 297.208 309.638 296.762 309.638H295.97C295.525 309.638 295.178 309.994 295.178 310.43V313.786C295.178 314.222 295.534 314.578 295.97 314.578H296.762C297.198 314.578 297.554 314.222 297.554 313.786V312.836H296.069V311.846Z" fill="#5F6F77"/>
<g clip-path="url(#clip0_6542_18419)">
<path d="M226.552 249.806H224.392C224.248 249.806 224.111 249.749 224.01 249.647C223.908 249.546 223.852 249.409 223.852 249.266V246.566C223.852 246.422 223.908 246.285 224.01 246.184C224.111 246.083 224.248 246.026 224.392 246.026H226.552" stroke="black" stroke-width="1.08" stroke-linecap="round" stroke-linejoin="round"/>
<path d="M230.871 246.566H233.031L237.553 245.526C237.72 245.48 237.894 245.473 238.063 245.506C238.233 245.539 238.392 245.611 238.529 245.715C238.666 245.82 238.777 245.954 238.854 246.109C238.931 246.263 238.971 246.433 238.971 246.606C238.971 246.814 238.913 247.018 238.803 247.195C238.694 247.372 238.537 247.515 238.351 247.608L235.731 248.726L231.411 249.806H226.551V246.026L228.238 244.338C228.389 244.188 228.568 244.069 228.765 243.988C228.962 243.907 229.173 243.865 229.386 243.866H232.761C233.119 243.866 233.462 244.008 233.715 244.261C233.969 244.514 234.111 244.858 234.111 245.216C234.111 245.574 233.969 245.917 233.715 246.17C233.462 246.423 233.119 246.566 232.761 246.566H230.871Z" stroke="black" stroke-width="1.08" stroke-linecap="round" stroke-linejoin="round"/>
<g opacity="0.2">
<path d="M237.081 243.326C238.125 243.326 238.971 242.479 238.971 241.436C238.971 240.392 238.125 239.546 237.081 239.546C236.038 239.546 235.191 240.392 235.191 241.436C235.191 242.479 236.038 243.326 237.081 243.326Z" stroke="black" stroke-width="1.08" stroke-linecap="round" stroke-linejoin="round"/>
<path d="M235.19 241.524C234.823 241.697 234.411 241.748 234.013 241.669C233.615 241.589 233.253 241.384 232.981 241.083C232.708 240.782 232.54 240.402 232.501 239.998C232.462 239.594 232.554 239.188 232.763 238.84C232.972 238.493 233.288 238.222 233.663 238.067C234.038 237.913 234.453 237.883 234.847 237.983C235.24 238.083 235.591 238.306 235.847 238.621C236.104 238.935 236.252 239.324 236.27 239.729" stroke="black" stroke-width="1.08" stroke-linecap="round" stroke-linejoin="round"/>
</g>
</g>
<path d="M231.162 294.992V297.152H221.658V294.992H225.33V284.537L221.658 286.697V284.192L225.33 282.032H227.49V294.992H231.162ZM242.385 294.992V297.152H232.881V294.992H236.553V284.537L232.881 286.697V284.192L236.553 282.032H238.713V294.992H242.385ZM253.609 294.992V297.152H244.105V292.162L251.449 288.036V285.92C251.449 284.948 250.693 284.192 249.721 284.192H247.993C247.042 284.192 246.265 284.969 246.265 285.92V286.676H244.105V285.92C244.105 283.76 245.854 282.032 247.993 282.032H249.721C251.881 282.032 253.609 283.76 253.609 285.92V289.311L246.265 293.436V294.992H253.609ZM276.056 286.784C276.056 287.885 275.602 288.879 274.868 289.592C275.602 290.304 276.056 291.298 276.056 292.4V293.264C276.056 295.424 274.328 297.152 272.168 297.152H270.44C268.302 297.152 266.552 295.424 266.552 293.264V292.508H268.712V293.264C268.712 294.214 269.49 294.992 270.44 294.992H272.168C273.14 294.992 273.896 294.236 273.896 293.264V292.4C273.896 291.428 273.14 290.672 272.168 290.672H270.656V288.512H272.168C273.14 288.512 273.896 287.756 273.896 286.784V285.92C273.896 284.948 273.14 284.192 272.168 284.192H270.44C269.49 284.192 268.712 284.969 268.712 285.92V286.676H266.552V285.92C266.552 283.76 268.302 282.032 270.44 282.032H272.168C274.328 282.032 276.056 283.76 276.056 285.92V286.784ZM277.775 290.736V282.032H285.983V284.192H279.935V288.123L281.728 286.913H283.391C285.53 286.913 287.279 288.641 287.279 290.801V293.264C287.279 295.424 285.551 297.152 283.391 297.152H281.663C279.525 297.152 277.775 295.424 277.775 293.264V293.048H279.935V293.264C279.935 294.214 280.713 294.992 281.663 294.992H283.391C284.363 294.992 285.119 294.236 285.119 293.264V290.801C285.119 289.851 284.342 289.073 283.391 289.073H282.398L279.935 290.736H277.775ZM288.999 290.736V282.032H297.207V284.192H291.159V288.123L292.952 286.913H294.615C296.753 286.913 298.503 288.641 298.503 290.801V293.264C298.503 295.424 296.775 297.152 294.615 297.152H292.887C290.749 297.152 288.999 295.424 288.999 293.264V293.048H291.159V293.264C291.159 294.214 291.937 294.992 292.887 294.992H294.615C295.587 294.992 296.343 294.236 296.343 293.264V290.801C296.343 289.851 295.565 289.073 294.615 289.073H293.621L291.159 290.736H288.999Z" fill="#313334"/>
<rect x="204.371" y="101.786" width="132.877" height="115.131" rx="15.3" fill="#92A6B0"/>
<path d="M224.25 132.24L231.675 136.375L239.1 132.24" stroke="#92A6B0" stroke-width="1.35" stroke-linecap="round" stroke-linejoin="round"/>
<path d="M224.25 128.697L231.675 132.831L239.1 128.697" stroke="#5F6F77" stroke-width="1.35" stroke-linecap="round" stroke-linejoin="round"/>
<path d="M224.25 125.153L231.675 129.287L239.1 125.153L231.675 121.018L224.25 125.153Z" stroke="#3B4144" stroke-width="1.35" stroke-linecap="round" stroke-linejoin="round"/>
<path d="M233.923 179.461V181.621H224.419V176.631L231.763 172.506V170.389C231.763 169.417 231.007 168.661 230.035 168.661H228.307C227.357 168.661 226.579 169.439 226.579 170.389V171.145H224.419V170.389C224.419 168.229 226.169 166.501 228.307 166.501H230.035C232.195 166.501 233.923 168.229 233.923 170.389V173.78L226.579 177.906V179.461H233.923ZM245.147 179.461V181.621H235.643V179.461H239.315V169.007L235.643 171.167V168.661L239.315 166.501H241.475V179.461H245.147ZM249.027 177.733C249.027 178.683 249.804 179.461 250.755 179.461H252.483C253.455 179.461 254.211 178.705 254.211 177.733V175.919C254.211 174.968 253.433 174.191 252.483 174.191H251.489L249.027 175.854V177.733ZM246.867 177.733V170.389C246.867 168.229 248.595 166.501 250.755 166.501H252.483C254.643 166.501 256.371 168.229 256.371 170.389V171.037H254.211V170.389C254.211 169.417 253.455 168.661 252.483 168.661H250.755C249.783 168.661 249.027 169.417 249.027 170.389V173.24L250.819 172.031H252.483C254.621 172.031 256.371 173.759 256.371 175.919V177.733C256.371 179.893 254.643 181.621 252.483 181.621H250.755C248.616 181.621 246.867 179.893 246.867 177.733Z" fill="#313334"/>
<path d="M223.483 195.684H224.473V196.08C224.473 196.545 224.86 196.931 225.325 196.931H225.988C226.493 196.931 226.849 196.614 226.849 196.179C226.849 194.813 223.582 194.516 223.582 192.635C223.582 191.664 224.345 190.991 225.424 190.991H225.889C226.909 190.991 227.74 191.813 227.74 192.833V193.13H226.75V192.833C226.75 192.357 226.364 191.981 225.889 191.981H225.424C224.889 191.981 224.572 192.229 224.572 192.635C224.572 193.684 227.839 194.09 227.839 196.179C227.839 197.169 227.038 197.921 225.988 197.921H225.325C224.305 197.921 223.483 197.099 223.483 196.08V195.684ZM233.083 196.129C233.083 197.109 232.281 197.921 231.301 197.921H230.509C229.519 197.921 228.727 197.109 228.727 196.129V190.991H229.717V196.129C229.717 196.565 230.073 196.921 230.509 196.921H231.301C231.736 196.921 232.093 196.565 232.093 196.129V190.991H233.083V196.129ZM238.128 193.169C238.128 193.625 237.959 194.05 237.672 194.357C238.068 194.684 238.326 195.179 238.326 195.743V196.139C238.326 197.129 237.534 197.921 236.544 197.921H233.97V190.991H236.346C237.336 190.991 238.128 191.783 238.128 192.773V193.169ZM234.96 196.931H236.544C236.989 196.931 237.336 196.585 237.336 196.139V195.743C237.336 195.298 236.989 194.951 236.544 194.951H234.96V196.931ZM234.96 193.961H236.346C236.791 193.961 237.138 193.615 237.138 193.169V192.773C237.138 192.328 236.791 191.981 236.346 191.981H234.96V193.961ZM239.213 195.684H240.203V196.08C240.203 196.545 240.589 196.931 241.054 196.931H241.718C242.222 196.931 242.579 196.614 242.579 196.179C242.579 194.813 239.312 194.516 239.312 192.635C239.312 191.664 240.074 190.991 241.153 190.991H241.619C242.638 190.991 243.47 191.813 243.47 192.833V193.13H242.48V192.833C242.48 192.357 242.094 191.981 241.619 191.981H241.153C240.619 191.981 240.302 192.229 240.302 192.635C240.302 193.684 243.569 194.09 243.569 196.179C243.569 197.169 242.767 197.921 241.718 197.921H241.054C240.035 197.921 239.213 197.099 239.213 196.08V195.684ZM247.822 192.773C247.822 192.328 247.475 191.981 247.03 191.981H246.238C245.792 191.981 245.446 192.338 245.446 192.773V196.129C245.446 196.565 245.802 196.921 246.238 196.921H247.03C247.466 196.921 247.822 196.565 247.822 196.129V195.585H248.812V196.129C248.812 197.109 248.02 197.921 247.03 197.921H246.238C245.258 197.921 244.456 197.109 244.456 196.129V192.773C244.456 191.783 245.258 190.991 246.238 190.991H247.03C248.02 190.991 248.812 191.783 248.812 192.773V193.318H247.822V192.773ZM254.055 197.921H252.966L251.709 195.149H250.689V197.921H249.699V190.991H252.273C253.263 190.991 254.055 191.783 254.055 192.773V193.367C254.055 194.189 253.511 194.872 252.758 195.08L254.055 197.921ZM250.689 194.159H252.273C252.719 194.159 253.065 193.813 253.065 193.367V192.773C253.065 192.328 252.719 191.981 252.273 191.981H250.689V194.159ZM254.942 190.991H259.298V191.981H257.615V196.931H259.298V197.921H254.942V196.931H256.625V191.981H254.942V190.991ZM264.541 193.367C264.541 194.357 263.749 195.149 262.759 195.149H261.175V197.921H260.185V190.991H262.759C263.749 190.991 264.541 191.783 264.541 192.773V193.367ZM261.175 194.159H262.759C263.205 194.159 263.551 193.813 263.551 193.367V192.773C263.551 192.328 263.205 191.981 262.759 191.981H261.175V194.159ZM265.428 190.991H269.784V191.981H268.101V197.921H267.111V191.981H265.428V190.991ZM270.672 190.991H275.028V191.981H273.345V196.931H275.028V197.921H270.672V196.931H272.355V191.981H270.672V190.991ZM278.489 196.921C278.924 196.921 279.281 196.565 279.281 196.129V192.773C279.281 192.328 278.934 191.981 278.489 191.981H277.697C277.251 191.981 276.905 192.338 276.905 192.773V196.129C276.905 196.565 277.261 196.921 277.697 196.921H278.489ZM275.915 196.129V192.773C275.915 191.783 276.717 190.991 277.697 190.991H278.489C279.479 190.991 280.271 191.783 280.271 192.773V196.129C280.271 197.109 279.479 197.921 278.489 197.921H277.697C276.717 197.921 275.915 197.109 275.915 196.129ZM284.524 190.991H285.514V197.921H284.078L282.148 192.654V197.921H281.158V190.991H282.593L284.524 196.258V190.991ZM296 193.367C296 194.357 295.208 195.149 294.218 195.149H292.634V197.921H291.644V190.991H294.218C295.208 190.991 296 191.783 296 192.773V193.367ZM292.634 194.159H294.218C294.664 194.159 295.01 193.813 295.01 193.367V192.773C295.01 192.328 294.664 191.981 294.218 191.981H292.634V194.159ZM297.877 190.991V196.931H301.243V197.921H296.887V190.991H297.877ZM303.12 197.921H302.13V195.644L303.813 190.991H304.803L306.486 195.644V197.921H305.496V196.317H303.12V197.921ZM303.299 195.327H305.318L304.318 192.555H304.298L303.299 195.327ZM310.74 190.991H311.73V197.921H310.294L308.364 192.654V197.921H307.374V190.991H308.809L310.74 196.258V190.991ZM312.617 195.684H313.607V196.08C313.607 196.545 313.993 196.931 314.458 196.931H315.121C315.626 196.931 315.983 196.614 315.983 196.179C315.983 194.813 312.716 194.516 312.716 192.635C312.716 191.664 313.478 190.991 314.557 190.991H315.022C316.042 190.991 316.874 191.813 316.874 192.833V193.13H315.884V192.833C315.884 192.357 315.498 191.981 315.022 191.981H314.557C314.022 191.981 313.706 192.229 313.706 192.635C313.706 193.684 316.973 194.09 316.973 196.179C316.973 197.169 316.171 197.921 315.121 197.921H314.458C313.438 197.921 312.617 197.099 312.617 196.08V195.684Z" fill="#5F6F77"/>
<rect x="69.5078" y="67.4561" width="133.063" height="188.777" rx="15.3" fill="#92A6B0"/>
<g clip-path="url(#clip1_6542_18419)">
<path opacity="0.3" d="M184.035 155.297L206.293 170.585C206.782 170.921 207.074 171.476 207.074 172.069V248.488C207.074 249.483 206.267 250.289 205.272 250.288L59.7127 250.124C58.7194 250.123 57.9147 249.317 57.9147 248.324V153.552C57.9147 153.159 58.0434 152.776 58.281 152.463L66.1719 142.068C66.5545 141.564 67.172 141.298 67.8016 141.362C72.6846 141.857 80.8825 142.402 81.25 141.255C81.6132 140.122 90.2738 133.857 95.5772 130.15C96.3139 129.635 97.3143 129.749 97.9221 130.412L105.583 138.756C105.791 138.982 106.053 139.152 106.346 139.248L122.421 144.542C123.154 144.784 123.96 144.531 124.423 143.913L130.797 135.424C131.504 134.483 132.909 134.462 133.643 135.383L148.961 154.593C149.066 154.725 149.189 154.842 149.327 154.939L159.224 161.957C159.69 162.288 160.286 162.378 160.829 162.199L182.453 155.071C182.987 154.895 183.572 154.979 184.035 155.297Z" fill="url(#paint0_linear_6542_18419)"/>
<path d="M206.891 171.533L183.66 155.784C183.429 155.627 183.138 155.587 182.873 155.674L160.391 163.085C160.119 163.174 159.822 163.129 159.588 162.964L149.217 155.609C149.148 155.56 149.086 155.502 149.034 155.436L132.912 135.217C132.545 134.757 131.842 134.767 131.489 135.238L124.029 145.174C123.798 145.482 123.395 145.609 123.028 145.488L106.116 139.918C105.97 139.87 105.839 139.785 105.735 139.672L97.3856 130.578C97.0817 130.247 96.5829 130.188 96.214 130.445C91.0017 134.071 81.622 140.818 81.2437 141.999C80.8631 143.186 72.0863 142.559 67.2883 142.053C66.9736 142.02 66.6653 142.153 66.474 142.405L57.9084 153.69" stroke="#B5FDD0" stroke-width="1.22569" stroke-linecap="round"/>
</g>
<path d="M96.3883 212.235V214.395H86.8843V212.235H90.5562V201.78L86.8843 203.94V201.435L90.5562 199.275H92.7162V212.235H96.3883ZM107.612 212.235V214.395H98.1078V209.405L105.452 205.279V203.163C105.452 202.191 104.696 201.435 103.724 201.435H101.996C101.045 201.435 100.268 202.212 100.268 203.163V203.919H98.1078V203.163C98.1078 201.003 99.8574 199.275 101.996 199.275H103.724C105.884 199.275 107.612 201.003 107.612 203.163V206.554L100.268 210.679V212.235H107.612ZM114.947 212.213C115.315 212.213 115.639 212.105 115.919 211.911L111.491 204.696V210.485C111.491 211.435 112.269 212.213 113.219 212.213H114.947ZM109.331 210.485V203.163C109.331 201.003 111.081 199.275 113.219 199.275H114.947C117.107 199.275 118.835 201.003 118.835 203.163V210.485C118.835 212.623 117.107 214.395 114.947 214.395H113.219C111.081 214.395 109.331 212.623 109.331 210.485ZM112.226 201.737L116.675 208.973V203.163C116.675 202.191 115.919 201.435 114.947 201.435H113.219C112.852 201.435 112.507 201.543 112.226 201.737ZM131.778 207.979V199.275H139.986V201.435H133.938V205.366L135.731 204.156H137.394C139.533 204.156 141.282 205.884 141.282 208.044V210.507C141.282 212.667 139.554 214.395 137.394 214.395H135.666C133.528 214.395 131.778 212.667 131.778 210.507V210.291H133.938V210.507C133.938 211.457 134.716 212.235 135.666 212.235H137.394C138.366 212.235 139.122 211.479 139.122 210.507V208.044C139.122 207.094 138.345 206.316 137.394 206.316H136.401L133.938 207.979H131.778ZM148.186 200.571H150.346V205.971H152.506V208.131H150.346V214.395H148.186V208.131H143.002V199.275H145.162V205.971H148.186V200.571ZM157.25 214.395H155.09V210.183L161.57 203.487V201.435H156.386V203.811H154.226V199.275H163.73V204.351L157.25 211.047V214.395Z" fill="#313334"/>
<path d="M85.9483 224.664H90.3043V225.654H88.6213V231.594H87.6312V225.654H85.9483V224.664ZM93.7654 230.595C94.201 230.595 94.5574 230.238 94.5574 229.803V226.446C94.5574 226.001 94.2109 225.654 93.7654 225.654H92.9734C92.5279 225.654 92.1814 226.011 92.1814 226.446V229.803C92.1814 230.238 92.5378 230.595 92.9734 230.595H93.7654ZM91.1914 229.803V226.446C91.1914 225.456 91.9933 224.664 92.9734 224.664H93.7654C94.7554 224.664 95.5474 225.456 95.5474 226.446V229.803C95.5474 230.783 94.7554 231.594 93.7654 231.594H92.9734C91.9933 231.594 91.1914 230.783 91.1914 229.803ZM96.4345 224.664H100.791V225.654H99.1075V231.594H98.1175V225.654H96.4345V224.664ZM102.668 231.594H101.678V229.317L103.361 224.664H104.351L106.034 229.317V231.594H105.044V229.991H102.668V231.594ZM102.846 229.001H104.865L103.866 226.229H103.846L102.846 229.001ZM107.911 224.664V230.604H111.277V231.594H106.921V224.664H107.911ZM121.763 229.803C121.763 230.783 120.961 231.594 119.981 231.594H119.189C118.199 231.594 117.407 230.783 117.407 229.803V224.664H118.397V229.803C118.397 230.238 118.753 230.595 119.189 230.595H119.981C120.417 230.595 120.773 230.238 120.773 229.803V224.664H121.763V229.803ZM122.65 229.357H123.64V229.753C123.64 230.218 124.026 230.604 124.492 230.604H125.155C125.66 230.604 126.016 230.288 126.016 229.852C126.016 228.486 122.749 228.189 122.749 226.308C122.749 225.338 123.511 224.664 124.591 224.664H125.056C126.076 224.664 126.907 225.486 126.907 226.506V226.803H125.917V226.506C125.917 226.031 125.531 225.654 125.056 225.654H124.591C124.056 225.654 123.739 225.902 123.739 226.308C123.739 227.357 127.006 227.763 127.006 229.852C127.006 230.842 126.204 231.594 125.155 231.594H124.492C123.472 231.594 122.65 230.773 122.65 229.753V229.357ZM132.249 224.664V225.654H128.883V227.466H131.853V228.456H128.883V230.604H132.249V231.594H127.893V224.664H132.249ZM137.492 231.594H136.403L135.146 228.822H134.126V231.594H133.136V224.664H135.71C136.7 224.664 137.492 225.456 137.492 226.446V227.04C137.492 227.862 136.948 228.545 136.196 228.753L137.492 231.594ZM134.126 227.832H135.71C136.156 227.832 136.502 227.486 136.502 227.04V226.446C136.502 226.001 136.156 225.654 135.71 225.654H134.126V227.832ZM138.38 229.357H139.37V229.753C139.37 230.218 139.756 230.604 140.221 230.604H140.884C141.389 230.604 141.746 230.288 141.746 229.852C141.746 228.486 138.479 228.189 138.479 226.308C138.479 225.338 139.241 224.664 140.32 224.664H140.785C141.805 224.664 142.637 225.486 142.637 226.506V226.803H141.647V226.506C141.647 226.031 141.26 225.654 140.785 225.654H140.32C139.785 225.654 139.469 225.902 139.469 226.308C139.469 227.357 142.736 227.763 142.736 229.852C142.736 230.842 141.934 231.594 140.884 231.594H140.221C139.201 231.594 138.38 230.773 138.38 229.753V229.357Z" fill="#5F6F77"/>
<rect x="142.766" y="87.2119" width="43.148" height="13.41" rx="6.705" fill="#B5FDD0"/>
<path d="M151.19 96.1027V91.7307M151.19 91.7307L148.98 93.9405M151.19 91.7307L153.4 93.9405" stroke="#252829" stroke-width="0.72"/>
<path d="M166.189 92.7103C166.189 93.2104 165.983 93.6615 165.649 93.9851C165.983 94.3086 166.189 94.7597 166.189 95.2598V95.652C166.189 96.6325 165.404 97.417 164.424 97.417H163.639C162.669 97.417 161.874 96.6325 161.874 95.652V95.3088H162.855V95.652C162.855 96.0834 163.208 96.4364 163.639 96.4364H164.424C164.865 96.4364 165.208 96.0932 165.208 95.652V95.2598C165.208 94.8185 164.865 94.4753 164.424 94.4753H163.737V93.4948H164.424C164.865 93.4948 165.208 93.1516 165.208 92.7103V92.3181C165.208 91.8769 164.865 91.5337 164.424 91.5337H163.639C163.208 91.5337 162.855 91.8867 162.855 92.3181V92.6613H161.874V92.3181C161.874 91.3376 162.669 90.5531 163.639 90.5531H164.424C165.404 90.5531 166.189 91.3376 166.189 92.3181V92.7103ZM167.214 96.4364H168.293V97.417H167.214V96.4364ZM173.633 96.4364V97.417H169.319V95.1519L172.653 93.2791V92.3181C172.653 91.8769 172.31 91.5337 171.868 91.5337H171.084C170.652 91.5337 170.299 91.8867 170.299 92.3181V92.6613H169.319V92.3181C169.319 91.3376 170.113 90.5531 171.084 90.5531H171.868C172.849 90.5531 173.633 91.3376 173.633 92.3181V93.8576L170.299 95.7304V96.4364H173.633Z" fill="#252829"/>
<path d="M176.855 97.417H175.874V95.8481L179.208 91.769V90.5531H180.189V92.122L176.855 96.2011V97.417ZM175.286 91.8573C175.286 91.1316 175.864 90.5531 176.59 90.5531C177.306 90.5531 177.884 91.1316 177.884 91.8573C177.884 92.5829 177.306 93.1614 176.59 93.1614C175.864 93.1614 175.286 92.5829 175.286 91.8573ZM176.267 91.8573C176.267 92.0338 176.414 92.1808 176.59 92.1808C176.767 92.1808 176.904 92.0338 176.904 91.8573C176.904 91.6808 176.767 91.5337 176.59 91.5337C176.414 91.5337 176.267 91.6808 176.267 91.8573ZM178.179 96.1129C178.179 95.3872 178.757 94.8087 179.483 94.8087C180.199 94.8087 180.777 95.3872 180.777 96.1129C180.777 96.8385 180.199 97.417 179.483 97.417C178.757 97.417 178.179 96.8385 178.179 96.1129ZM179.159 96.1129C179.159 96.2894 179.306 96.4364 179.483 96.4364C179.659 96.4364 179.797 96.2894 179.797 96.1129C179.797 95.9364 179.659 95.7893 179.483 95.7893C179.306 95.7893 179.159 95.9364 179.159 96.1129Z" fill="#252829"/>
<path d="M94.3809 95.9541C96.3969 95.9541 98.0313 94.3198 98.0313 92.3037C98.0313 90.2877 96.3969 88.6533 94.3809 88.6533C92.3648 88.6533 90.7305 90.2877 90.7305 92.3037C90.7305 94.3198 92.3648 95.9541 94.3809 95.9541Z" stroke="#3B4144" stroke-width="1.35" stroke-linecap="round" stroke-linejoin="round"/>
<path d="M89.2031 98.7648C89.7641 97.9023 90.5316 97.1936 91.436 96.7029C92.3403 96.2123 93.3529 95.9553 94.3818 95.9553C95.4107 95.9553 96.4232 96.2123 97.3276 96.7029C98.232 97.1936 98.9995 97.9023 99.5604 98.7648" stroke="#3B4144" stroke-width="1.35" stroke-linecap="round" stroke-linejoin="round"/>
<path d="M100.562 95.9553C101.591 95.9547 102.604 96.2113 103.508 96.7017C104.413 97.1921 105.18 97.9008 105.741 98.7633" stroke="#5F6F77" stroke-width="1.35" stroke-linecap="round" stroke-linejoin="round"/>
<path d="M99.2031 88.9131C99.7025 88.7139 100.24 88.6275 100.776 88.66C101.313 88.6925 101.836 88.8432 102.307 89.1011C102.779 89.3591 103.188 89.7181 103.505 90.1524C103.821 90.5868 104.038 91.0857 104.14 91.6136C104.242 92.1415 104.225 92.6853 104.093 93.2063C103.96 93.7272 103.713 94.2123 103.371 94.6269C103.029 95.0416 102.6 95.3756 102.113 95.605C101.627 95.8344 101.096 95.9536 100.559 95.9541" stroke="#5F6F77" stroke-width="1.35" stroke-linecap="round" stroke-linejoin="round"/>
<circle cx="82.0849" cy="243.699" r="8.19822" fill="#252829"/>
<path d="M66.5042 252.146L77.7351 245.601C78.9046 244.919 80.3091 245.993 79.9634 247.305L76.5772 260.152C76.3107 261.163 74.959 261.348 74.4373 260.444L71.9352 256.11L66.7003 254.265C65.7604 253.934 65.6416 252.649 66.5042 252.146Z" fill="#66E8FA" stroke="white" stroke-width="1.35"/>
<defs>
<linearGradient id="paint0_linear_6542_18419" x1="127.683" y1="138.444" x2="127.683" y2="182.775" gradientUnits="userSpaceOnUse">
<stop stop-color="#B5FDD0"/>
<stop offset="1" stop-color="#B5FDD0" stop-opacity="0"/>
</linearGradient>
<clipPath id="clip0_6542_18419">
<rect width="17.28" height="17.28" fill="white" transform="translate(223.309 235.766)"/>
</clipPath>
<clipPath id="clip1_6542_18419">
<rect width="133.254" height="63.8505" fill="white" transform="matrix(-1 0 0 1 202.574 129.256)"/>
</clipPath>
</defs>
</svg>
