<svg width="351" height="350" viewBox="0 0 351 350" fill="none" xmlns="http://www.w3.org/2000/svg">
<rect x="31.3633" y="92.6794" width="137.557" height="175.312" rx="11.8605" fill="#D5E1E7"/>
<rect x="170.312" y="203.53" width="149.907" height="93.9045" rx="11.8605" fill="#B1C5CE"/>
<path d="M191.075 269.49H193.029V274.373H194.982V276.327H193.029V281.992H191.075V276.327H186.387V268.317H188.341V274.373H191.075V269.49ZM199.761 280.038H201.91V281.992H199.761V280.038ZM215.284 280.038V281.992H206.688V277.479L213.33 273.748V271.834C213.33 270.955 212.646 270.271 211.767 270.271H210.204C209.345 270.271 208.642 270.974 208.642 271.834V272.517H206.688V271.834C206.688 269.88 208.27 268.317 210.204 268.317H211.767C213.721 268.317 215.284 269.88 215.284 271.834V274.901L208.642 278.632V280.038H215.284ZM220.609 276.483L218.792 272.615V281.992H216.839V268.317H218.792L221.136 273.416L223.481 268.317H225.434V281.992H223.481V272.615L221.664 276.483H220.609Z" fill="#313334"/>
<rect x="170.312" y="132.836" width="149.907" height="69.1816" rx="11.8605" fill="#B1C5CE"/>
<path d="M186.766 189.198L303.946 189.197" stroke="#92A6B0" stroke-width="1.39536" stroke-linecap="round"/>
<path d="M186.766 189.198L256.994 189.198" stroke="#E4EDF1" stroke-width="1.39536" stroke-linecap="round"/>
<path d="M275.376 158.155C275.376 159.014 276.079 159.717 276.938 159.717H278.501C279.38 159.717 280.064 159.034 280.064 158.155V156.514C280.064 155.654 279.361 154.951 278.501 154.951H277.603L275.376 156.455V158.155ZM273.422 158.155V151.513C273.422 149.559 274.985 147.996 276.938 147.996H278.501C280.455 147.996 282.018 149.559 282.018 151.513V152.099H280.064V151.513C280.064 150.634 279.38 149.95 278.501 149.95H276.938C276.059 149.95 275.376 150.634 275.376 151.513V154.091L276.997 152.997H278.501C280.435 152.997 282.018 154.56 282.018 156.514V158.155C282.018 160.108 280.455 161.671 278.501 161.671H276.938C275.005 161.671 273.422 160.108 273.422 158.155ZM292.168 152.294C292.168 153.29 291.758 154.189 291.094 154.834C291.758 155.478 292.168 156.377 292.168 157.373V158.155C292.168 160.108 290.605 161.671 288.652 161.671H287.089C285.155 161.671 283.573 160.108 283.573 158.155V157.471H285.526V158.155C285.526 159.014 286.23 159.717 287.089 159.717H288.652C289.531 159.717 290.215 159.034 290.215 158.155V157.373C290.215 156.494 289.531 155.81 288.652 155.81H287.284V153.857H288.652C289.531 153.857 290.215 153.173 290.215 152.294V151.513C290.215 150.634 289.531 149.95 288.652 149.95H287.089C286.23 149.95 285.526 150.653 285.526 151.513V152.196H283.573V151.513C283.573 149.559 285.155 147.996 287.089 147.996H288.652C290.605 147.996 292.168 149.559 292.168 151.513V152.294ZM295.677 161.671H293.723V158.545L300.365 150.419V147.996H302.319V151.122L295.677 159.249V161.671ZM292.551 150.595C292.551 149.149 293.704 147.996 295.149 147.996C296.575 147.996 297.728 149.149 297.728 150.595C297.728 152.04 296.575 153.193 295.149 153.193C293.704 153.193 292.551 152.04 292.551 150.595ZM294.505 150.595C294.505 150.946 294.798 151.239 295.149 151.239C295.501 151.239 295.774 150.946 295.774 150.595C295.774 150.243 295.501 149.95 295.149 149.95C294.798 149.95 294.505 150.243 294.505 150.595ZM298.314 159.073C298.314 157.627 299.467 156.475 300.912 156.475C302.338 156.475 303.491 157.627 303.491 159.073C303.491 160.518 302.338 161.671 300.912 161.671C299.467 161.671 298.314 160.518 298.314 159.073ZM300.268 159.073C300.268 159.424 300.561 159.717 300.912 159.717C301.264 159.717 301.537 159.424 301.537 159.073C301.537 158.721 301.264 158.428 300.912 158.428C300.561 158.428 300.268 158.721 300.268 159.073Z" fill="#313334"/>
<path d="M51.9111 112.308C51.9111 111.81 51.5237 111.422 51.0255 111.422H50.1399C49.6418 111.422 49.2543 111.821 49.2543 112.308V116.061C49.2543 116.548 49.6528 116.946 50.1399 116.946H51.0255C51.5126 116.946 51.9111 116.548 51.9111 116.061V115.452H53.0181V116.061C53.0181 117.156 52.1325 118.064 51.0255 118.064H50.1399C49.044 118.064 48.1473 117.156 48.1473 116.061V112.308C48.1473 111.201 49.044 110.315 50.1399 110.315H51.0255C52.1325 110.315 53.0181 111.201 53.0181 112.308V112.917H51.9111V112.308ZM56.7776 116.946C57.2647 116.946 57.6632 116.548 57.6632 116.061V112.308C57.6632 111.81 57.2757 111.422 56.7776 111.422H55.892C55.3938 111.422 55.0064 111.821 55.0064 112.308V116.061C55.0064 116.548 55.4049 116.946 55.892 116.946H56.7776ZM53.8994 116.061V112.308C53.8994 111.201 54.7961 110.315 55.892 110.315H56.7776C57.8846 110.315 58.7702 111.201 58.7702 112.308V116.061C58.7702 117.156 57.8846 118.064 56.7776 118.064H55.892C54.7961 118.064 53.8994 117.156 53.8994 116.061ZM60.7585 110.315V116.957H64.5223V118.064H59.6515V110.315H60.7585ZM66.5105 110.315V116.957H70.2743V118.064H65.4035V110.315H66.5105ZM76.0264 110.315V111.422H72.2626V113.448H75.5836V114.555H72.2626V116.957H76.0264V118.064H71.1556V110.315H76.0264ZM80.6715 112.308C80.6715 111.81 80.284 111.422 79.7859 111.422H78.9003C78.4021 111.422 78.0147 111.821 78.0147 112.308V116.061C78.0147 116.548 78.4132 116.946 78.9003 116.946H79.7859C80.273 116.946 80.6715 116.548 80.6715 116.061V115.452H81.7785V116.061C81.7785 117.156 80.8929 118.064 79.7859 118.064H78.9003C77.8044 118.064 76.9077 117.156 76.9077 116.061V112.308C76.9077 111.201 77.8044 110.315 78.9003 110.315H79.7859C80.8929 110.315 81.7785 111.201 81.7785 112.308V112.917H80.6715V112.308ZM82.6598 110.315H87.5306V111.422H85.6487V118.064H84.5417V111.422H82.6598V110.315ZM93.2826 110.315V111.422H89.5188V113.448H92.8398V114.555H89.5188V116.957H93.2826V118.064H88.4118V110.315H93.2826ZM97.0421 110.315C98.1381 110.315 99.0347 111.201 99.0347 112.308V116.061C99.0347 117.156 98.1381 118.064 97.0421 118.064H94.1639V110.315H97.0421ZM95.2709 116.946H97.0421C97.5292 116.946 97.9277 116.548 97.9277 116.061V112.308C97.9277 111.821 97.5403 111.422 97.0421 111.422H95.2709V116.946ZM53.0181 125.972C53.0181 127.079 52.1325 127.965 51.0255 127.965H49.2543V131.064H48.1473V123.315H51.0255C52.1325 123.315 53.0181 124.201 53.0181 125.308V125.972ZM49.2543 126.858H51.0255C51.5237 126.858 51.9111 126.47 51.9111 125.972V125.308C51.9111 124.81 51.5237 124.422 51.0255 124.422H49.2543V126.858ZM55.0064 131.064H53.8994V128.518L55.7813 123.315H56.8883L58.7702 128.518V131.064H57.6632V129.271H55.0064V131.064ZM55.2057 128.164H57.4639L56.3459 125.064H56.3237L55.2057 128.164ZM61.5334 131.064V128.308L59.6515 125.972V123.315H60.7585V125.573L62.0647 127.201H62.0869L63.4153 125.463V123.315H64.5223V125.839L62.6404 128.308V131.064H61.5334ZM67.5401 127.942L66.5105 125.751V131.064H65.4035V123.315H66.5105L67.8389 126.204L69.1673 123.315H70.2743V131.064H69.1673V125.751L68.1378 127.942H67.5401ZM76.0264 123.315V124.422H72.2626V126.448H75.5836V127.555H72.2626V129.957H76.0264V131.064H71.1556V123.315H76.0264ZM80.6715 123.315H81.7785V131.064H80.1733L78.0147 125.175V131.064H76.9077V123.315H78.5128L80.6715 129.204V123.315ZM82.6598 123.315H87.5306V124.422H85.6487V131.064H84.5417V124.422H82.6598V123.315ZM88.4118 128.562H89.5188V129.005C89.5188 129.525 89.9506 129.957 90.4709 129.957H91.2126C91.7771 129.957 92.1756 129.603 92.1756 129.116C92.1756 127.588 88.5225 127.256 88.5225 125.153C88.5225 124.068 89.3749 123.315 90.5816 123.315H91.1019C92.2421 123.315 93.1719 124.234 93.1719 125.374V125.706H92.0649V125.374C92.0649 124.843 91.6332 124.422 91.1019 124.422H90.5816C89.9838 124.422 89.6295 124.699 89.6295 125.153C89.6295 126.326 93.2826 126.78 93.2826 129.116C93.2826 130.223 92.386 131.064 91.2126 131.064H90.4709C89.3307 131.064 88.4118 130.145 88.4118 129.005V128.562Z" fill="#5F6F77"/>
<path d="M189.474 220.363H190.581V228.112H188.975L186.817 222.223V228.112H185.71V220.363H187.315L189.474 226.253V220.363ZM196.333 220.363V221.47H192.569V223.496H195.89V224.603H192.569V227.005H196.333V228.112H191.462V220.363H196.333ZM197.214 220.363H202.085V221.47H200.203V228.112H199.096V221.47H197.214V220.363ZM190.581 241.112H189.363L187.957 238.013H186.817V241.112H185.71V233.363H188.588C189.695 233.363 190.581 234.249 190.581 235.356V236.02C190.581 236.939 189.972 237.703 189.13 237.935L190.581 241.112ZM186.817 236.906H188.588C189.086 236.906 189.474 236.518 189.474 236.02V235.356C189.474 234.858 189.086 234.47 188.588 234.47H186.817V236.906ZM196.333 233.363V234.47H192.569V236.496H195.89V237.603H192.569V240.005H196.333V241.112H191.462V233.363H196.333ZM200.978 233.363H202.085V235.909L200.203 241.112H199.096L197.214 235.909V233.363H198.321V235.71L199.638 239.363H199.66L200.978 235.71V233.363ZM207.837 233.363V234.47H204.073V236.496H207.394V237.603H204.073V240.005H207.837V241.112H202.966V233.363H207.837ZM212.482 233.363H213.589V241.112H211.984L209.825 235.223V241.112H208.718V233.363H210.323L212.482 239.253V233.363ZM219.341 239.109C219.341 240.205 218.444 241.112 217.348 241.112H216.463C215.356 241.112 214.47 240.205 214.47 239.109V233.363H215.577V239.109C215.577 239.596 215.976 239.994 216.463 239.994H217.348C217.835 239.994 218.234 239.596 218.234 239.109V233.363H219.341V239.109ZM225.093 233.363V234.47H221.329V236.496H224.65V237.603H221.329V240.005H225.093V241.112H220.222V233.363H225.093Z" fill="#5F6F77"/>
<path d="M186.817 147.922V151.021H189.474V147.922H190.581V155.671H189.474V152.128H186.817V155.671H185.71V147.922H186.817ZM196.333 147.922V149.029H192.569V151.055H195.89V152.162H192.569V154.564H196.333V155.671H191.462V147.922H196.333ZM198.321 155.671H197.214V153.125L199.096 147.922H200.203L202.085 153.125V155.671H200.978V153.878H198.321V155.671ZM198.52 152.771H200.779L199.66 149.671H199.638L198.52 152.771ZM207.837 150.579C207.837 151.686 206.951 152.571 205.844 152.571H204.073V155.671H202.966V147.922H205.844C206.951 147.922 207.837 148.807 207.837 149.914V150.579ZM204.073 151.464H205.844C206.342 151.464 206.73 151.077 206.73 150.579V149.914C206.73 149.416 206.342 149.029 205.844 149.029H204.073V151.464ZM187.846 165.549L186.817 163.357V168.671H185.71V160.922H186.817L188.145 163.811L189.474 160.922H190.581V168.671H189.474V163.357L188.444 165.549H187.846ZM196.333 160.922V162.029H192.569V164.055H195.89V165.162H192.569V167.564H196.333V168.671H191.462V160.922H196.333ZM199.35 165.549L198.321 163.357V168.671H197.214V160.922H198.321L199.649 163.811L200.978 160.922H202.085V168.671H200.978V163.357L199.948 165.549H199.35ZM205.844 167.553C206.331 167.553 206.73 167.154 206.73 166.667V162.914C206.73 162.416 206.342 162.029 205.844 162.029H204.959C204.46 162.029 204.073 162.427 204.073 162.914V166.667C204.073 167.154 204.472 167.553 204.959 167.553H205.844ZM202.966 166.667V162.914C202.966 161.807 203.863 160.922 204.959 160.922H205.844C206.951 160.922 207.837 161.807 207.837 162.914V166.667C207.837 167.763 206.951 168.671 205.844 168.671H204.959C203.863 168.671 202.966 167.763 202.966 166.667ZM213.589 168.671H212.371L210.965 165.571H209.825V168.671H208.718V160.922H211.596C212.703 160.922 213.589 161.807 213.589 162.914V163.579C213.589 164.498 212.98 165.261 212.139 165.494L213.589 168.671ZM209.825 164.464H211.596C212.094 164.464 212.482 164.077 212.482 163.579V162.914C212.482 162.416 212.094 162.029 211.596 162.029H209.825V164.464ZM216.352 168.671V165.914L214.47 163.579V160.922H215.577V163.18L216.883 164.807H216.906L218.234 163.069V160.922H219.341V163.446L217.459 165.914V168.671H216.352Z" fill="#5F6F77"/>
<path d="M88.8273 200.478C89.7482 200.478 90.5017 199.724 90.5017 198.782V197.757C90.5017 196.815 89.7691 196.082 88.8273 196.082H87.1528C86.211 196.082 85.4784 196.836 85.4784 197.757V198.782C85.4784 199.724 86.2319 200.498 87.1528 200.478H88.8273ZM83.3854 198.782V197.757C83.3854 196.626 83.8877 195.622 84.6621 194.931C84.0133 194.24 83.5947 193.319 83.5947 192.294V191.687C83.5947 189.594 85.29 187.919 87.3621 187.919H88.618C90.711 187.919 92.3854 189.594 92.3854 191.687V192.294C92.3854 193.319 91.9877 194.24 91.318 194.931C92.1133 195.622 92.5947 196.626 92.5947 197.757V198.782C92.5947 200.854 90.9203 202.571 88.8273 202.571H87.1528C85.0807 202.571 83.3854 200.854 83.3854 198.782ZM85.6877 192.294C85.6877 193.215 86.3993 193.968 87.2993 193.989H88.618C89.5389 193.989 90.2924 193.236 90.2924 192.294V191.687C90.2924 190.745 89.5598 190.012 88.618 190.012H87.3621C86.4203 190.012 85.6877 190.766 85.6877 191.687V192.294ZM99.2843 189.175H101.377V194.408H103.47V196.501H101.377V202.571H99.2843V196.501H94.261V187.919H96.354V194.408H99.2843V189.175ZM107.23 202.571H105.137V199.222L112.253 190.515V187.919H114.346V191.268L107.23 199.975V202.571ZM103.881 190.703C103.881 189.154 105.116 187.919 106.665 187.919C108.192 187.919 109.427 189.154 109.427 190.703C109.427 192.252 108.192 193.487 106.665 193.487C105.116 193.487 103.881 192.252 103.881 190.703ZM105.974 190.703C105.974 191.08 106.288 191.394 106.665 191.394C107.041 191.394 107.334 191.08 107.334 190.703C107.334 190.326 107.041 190.012 106.665 190.012C106.288 190.012 105.974 190.326 105.974 190.703ZM110.055 199.787C110.055 198.238 111.29 197.003 112.839 197.003C114.367 197.003 115.602 198.238 115.602 199.787C115.602 201.336 114.367 202.571 112.839 202.571C111.29 202.571 110.055 201.336 110.055 199.787ZM112.148 199.787C112.148 200.164 112.462 200.478 112.839 200.478C113.216 200.478 113.509 200.164 113.509 199.787C113.509 199.41 113.216 199.096 112.839 199.096C112.462 199.096 112.148 199.41 112.148 199.787Z" fill="#313334"/>
<path opacity="0.3" d="M144.028 194.896C144.028 219.678 123.938 239.769 99.1548 239.769C74.3718 239.769 54.2812 219.678 54.2812 194.896C54.2812 170.113 74.3718 150.022 99.1548 150.022C123.938 150.022 144.028 170.113 144.028 194.896ZM55.439 194.896C55.439 219.039 75.0112 238.611 99.1548 238.611C123.298 238.611 142.871 219.039 142.871 194.896C142.871 170.752 123.298 151.18 99.1548 151.18C75.0112 151.18 55.439 170.752 55.439 194.896Z" fill="#81939C"/>
<path d="M98.9223 150.023C108.881 149.972 118.574 153.234 126.474 159.297C134.374 165.36 140.033 173.879 142.56 183.512C145.086 193.145 144.336 203.345 140.429 212.505C136.521 221.664 129.677 229.264 120.975 234.107C112.273 238.95 102.207 240.76 92.3634 239.253C82.5194 237.746 73.4564 233.007 66.6018 225.783C59.7472 218.559 55.4905 209.259 54.5021 199.35C53.5137 189.44 55.8498 179.484 61.1424 171.048L62.1231 171.663C56.967 179.881 54.6913 189.581 55.6542 199.235C56.6171 208.889 60.7639 217.948 67.4417 224.986C74.1194 232.024 82.9486 236.64 92.5386 238.108C102.129 239.577 111.935 237.813 120.412 233.095C128.889 228.378 135.557 220.974 139.364 212.05C143.171 203.127 143.901 193.19 141.44 183.806C138.979 174.421 133.466 166.122 125.769 160.216C118.073 154.309 108.63 151.131 98.9283 151.181L98.9223 150.023Z" fill="#252829"/>
<rect x="82.1836" y="209.377" width="33.9443" height="10.3954" rx="5.19771" fill="#9BF7FF"/>
<path d="M88.713 216.269V212.88M88.713 212.88L87 214.593M88.713 212.88L90.4261 214.593" stroke="#252829" stroke-width="0.558143"/>
<path d="M100.339 216.315V217.075H96.9948V216.315H98.287V212.636L96.9948 213.396V212.514L98.287 211.754H99.0472V216.315H100.339ZM101.135 216.315H101.971V217.075H101.135V216.315ZM106.11 213.426C106.11 213.814 105.951 214.163 105.692 214.414C105.951 214.665 106.11 215.015 106.11 215.402V215.706C106.11 216.467 105.502 217.075 104.742 217.075H104.134C103.382 217.075 102.766 216.467 102.766 215.706V215.44H103.526V215.706C103.526 216.041 103.8 216.315 104.134 216.315H104.742C105.084 216.315 105.35 216.049 105.35 215.706V215.402C105.35 215.06 105.084 214.794 104.742 214.794H104.21V214.034H104.742C105.084 214.034 105.35 213.768 105.35 213.426V213.122C105.35 212.78 105.084 212.514 104.742 212.514H104.134C103.8 212.514 103.526 212.788 103.526 213.122V213.388H102.766V213.122C102.766 212.362 103.382 211.754 104.134 211.754H104.742C105.502 211.754 106.11 212.362 106.11 213.122V213.426Z" fill="#252829"/>
<path d="M108.755 217.075H107.995V215.859L110.579 212.696V211.754H111.339V212.97L108.755 216.132V217.075ZM107.539 212.765C107.539 212.202 107.987 211.754 108.55 211.754C109.105 211.754 109.553 212.202 109.553 212.765C109.553 213.327 109.105 213.776 108.55 213.776C107.987 213.776 107.539 213.327 107.539 212.765ZM108.299 212.765C108.299 212.902 108.413 213.016 108.55 213.016C108.687 213.016 108.793 212.902 108.793 212.765C108.793 212.628 108.687 212.514 108.55 212.514C108.413 212.514 108.299 212.628 108.299 212.765ZM109.781 216.064C109.781 215.501 110.23 215.053 110.792 215.053C111.347 215.053 111.795 215.501 111.795 216.064C111.795 216.626 111.347 217.075 110.792 217.075C110.23 217.075 109.781 216.626 109.781 216.064ZM110.541 216.064C110.541 216.201 110.655 216.315 110.792 216.315C110.929 216.315 111.035 216.201 111.035 216.064C111.035 215.927 110.929 215.813 110.792 215.813C110.655 215.813 110.541 215.927 110.541 216.064Z" fill="#252829"/>
<rect x="275.445" y="272.178" width="33.9443" height="10.3954" rx="5.19771" fill="#ABFDBE"/>
<path d="M281.975 279.071V275.681M281.975 275.681L280.262 277.394M281.975 275.681L283.688 277.394" stroke="#252829" stroke-width="0.558143"/>
<path d="M290.257 277.618V274.555H293.145V275.315H291.017V276.699L291.648 276.273H292.233C292.985 276.273 293.601 276.881 293.601 277.641V278.508C293.601 279.268 292.993 279.876 292.233 279.876H291.625C290.872 279.876 290.257 279.268 290.257 278.508V278.432H291.017V278.508C291.017 278.842 291.29 279.116 291.625 279.116H292.233C292.575 279.116 292.841 278.85 292.841 278.508V277.641C292.841 277.307 292.567 277.033 292.233 277.033H291.883L291.017 277.618H290.257ZM294.396 279.116H295.232V279.876H294.396V279.116ZM297.092 279.876H296.332V278.394L298.612 276.037V275.315H296.788V276.151H296.028V274.555H299.372V276.341L297.092 278.698V279.876Z" fill="#252829"/>
<path d="M302.017 279.876H301.257V278.66L303.841 275.498V274.555H304.601V275.771L302.017 278.933V279.876ZM300.8 275.566C300.8 275.004 301.249 274.555 301.811 274.555C302.366 274.555 302.815 275.004 302.815 275.566C302.815 276.129 302.366 276.577 301.811 276.577C301.249 276.577 300.8 276.129 300.8 275.566ZM301.561 275.566C301.561 275.703 301.675 275.817 301.811 275.817C301.948 275.817 302.055 275.703 302.055 275.566C302.055 275.429 301.948 275.315 301.811 275.315C301.675 275.315 301.561 275.429 301.561 275.566ZM303.043 278.865C303.043 278.303 303.491 277.854 304.054 277.854C304.609 277.854 305.057 278.303 305.057 278.865C305.057 279.428 304.609 279.876 304.054 279.876C303.491 279.876 303.043 279.428 303.043 278.865ZM303.803 278.865C303.803 279.002 303.917 279.116 304.054 279.116C304.191 279.116 304.297 279.002 304.297 278.865C304.297 278.728 304.191 278.614 304.054 278.614C303.917 278.614 303.803 278.728 303.803 278.865Z" fill="#252829"/>
<path opacity="0.3" d="M252.859 232.043L243.473 239.222C243.128 239.486 242.926 239.896 242.926 240.33V245.885C242.926 246.657 243.552 247.282 244.323 247.281L307.673 247.201C308.443 247.2 309.066 246.575 309.066 245.805V231.096C309.066 230.816 308.982 230.542 308.824 230.31L305.61 225.596C305.316 225.164 304.806 224.934 304.287 224.989C302.102 225.219 298.872 225.426 298.719 224.893C298.569 224.371 295.219 221.646 292.861 219.797C292.269 219.332 291.416 219.429 290.938 220.01L288.029 223.538C287.872 223.729 287.666 223.875 287.433 223.96L280.945 226.34C280.342 226.561 279.667 226.342 279.308 225.81L277.252 222.76C276.708 221.954 275.527 221.937 274.961 222.728L268.739 231.417C268.663 231.524 268.572 231.619 268.469 231.7L264.427 234.891C264.047 235.192 263.537 235.273 263.082 235.106L254.187 231.842C253.739 231.677 253.238 231.753 252.859 232.043Z" fill="url(#paint0_linear_6536_30091)"/>
<path d="M243.004 239.843L252.86 232.402C253.239 232.116 253.736 232.042 254.182 232.206L263.081 235.472C263.537 235.64 264.046 235.558 264.427 235.258L268.469 232.066C268.572 231.985 268.662 231.89 268.739 231.783L274.96 223.094C275.526 222.303 276.708 222.32 277.252 223.127L279.307 226.176C279.666 226.708 280.342 226.927 280.945 226.706L287.433 224.326C287.665 224.241 287.871 224.095 288.029 223.904L290.937 220.376C291.416 219.796 292.268 219.698 292.861 220.163C295.219 222.013 298.568 224.738 298.718 225.259C298.872 225.793 302.102 225.585 304.286 225.355C304.806 225.301 305.316 225.531 305.61 225.962L309.066 231.032" stroke="#ABFDBE" stroke-width="0.950154" stroke-linecap="round"/>
<defs>
<linearGradient id="paint0_linear_6536_30091" x1="278.13" y1="223.505" x2="278.13" y2="245.395" gradientUnits="userSpaceOnUse">
<stop stop-color="#ABFDBE"/>
<stop offset="1" stop-color="#ABFDBE" stop-opacity="0"/>
</linearGradient>
</defs>
</svg>
