<svg width="350" height="350" viewBox="0 0 350 350" fill="none" xmlns="http://www.w3.org/2000/svg">
<g clip-path="url(#clip0_6536_29938)">
<rect x="32.0332" y="138.573" width="241.784" height="156.432" rx="13.7713" fill="#D5E1E7"/>
<path d="M46.6972 167.755H48.1253V168.326C48.1253 168.997 48.6823 169.554 49.3535 169.554H50.3104C51.0387 169.554 51.5529 169.097 51.5529 168.469C51.5529 166.498 46.84 166.07 46.84 163.356C46.84 161.957 47.9397 160.985 49.4964 160.985H50.1676C51.6386 160.985 52.8382 162.171 52.8382 163.642V164.07H51.4101V163.642C51.4101 162.956 50.8531 162.414 50.1676 162.414H49.4964C48.7252 162.414 48.2682 162.771 48.2682 163.356C48.2682 164.87 52.981 165.456 52.981 168.469C52.981 169.897 51.8242 170.982 50.3104 170.982H49.3535C47.8826 170.982 46.6972 169.797 46.6972 168.326V167.755ZM54.1179 160.985H60.4018V162.414H57.9739V170.982H56.5458V162.414H54.1179V160.985ZM67.8225 170.982H66.2516L64.4378 166.984H62.9668V170.982H61.5387V160.985H65.2519C66.68 160.985 67.8225 162.128 67.8225 163.556V164.413C67.8225 165.598 67.037 166.584 65.9517 166.884L67.8225 170.982ZM62.9668 165.555H65.2519C65.8945 165.555 66.3944 165.056 66.3944 164.413V163.556C66.3944 162.913 65.8945 162.414 65.2519 162.414H62.9668V165.555ZM75.2433 160.985V162.414H70.3876V165.027H74.672V166.455H70.3876V169.554H75.2433V170.982H68.9594V160.985H75.2433ZM77.8083 170.982H76.3802V167.698L78.808 160.985H80.2362L82.664 167.698V170.982H81.2359V168.669H77.8083V170.982ZM78.0654 167.241H80.9788L79.5364 163.242H79.5078L78.0654 167.241ZM86.5573 166.955L85.2291 164.127V170.982H83.8009V160.985H85.2291L86.9429 164.713L88.6566 160.985H90.0848V170.982H88.6566V164.127L87.3284 166.955H86.5573ZM103.869 166.698V166.555H105.298V166.698C105.298 167.583 105.041 168.412 104.584 169.112C105.012 169.769 105.298 170.411 105.298 170.982H103.869C103.869 170.754 103.769 170.483 103.598 170.168C102.927 170.683 102.099 170.982 101.213 170.982C99.3137 170.982 98.2711 169.626 98.2711 167.583L100.128 165.841C99.5993 165.084 99.228 164.356 99.228 163.699C99.228 162.128 100.256 160.985 101.684 160.985C103.212 160.985 104.269 162.285 104.127 164.027L102.041 165.984C102.541 166.584 103.113 167.212 103.641 167.841C103.784 167.498 103.869 167.098 103.869 166.698ZM99.6993 168.198C99.785 169.083 100.313 169.554 101.213 169.554C101.784 169.554 102.313 169.354 102.755 169.012C102.227 168.383 101.584 167.683 100.999 166.969L99.6993 168.198ZM100.656 163.699C100.656 164.013 100.856 164.413 101.156 164.87L102.698 163.413C102.598 162.785 102.227 162.414 101.684 162.414C101.07 162.414 100.656 162.899 100.656 163.699ZM46.6972 181.755H48.1253V182.326C48.1253 182.997 48.6823 183.554 49.3535 183.554H50.3104C51.0387 183.554 51.5529 183.097 51.5529 182.469C51.5529 180.498 46.84 180.07 46.84 177.356C46.84 175.957 47.9397 174.985 49.4964 174.985H50.1676C51.6386 174.985 52.8382 176.171 52.8382 177.642V178.07H51.4101V177.642C51.4101 176.956 50.8531 176.414 50.1676 176.414H49.4964C48.7252 176.414 48.2682 176.771 48.2682 177.356C48.2682 178.87 52.981 179.456 52.981 182.469C52.981 183.897 51.8242 184.982 50.3104 184.982H49.3535C47.8826 184.982 46.6972 183.797 46.6972 182.326V181.755ZM60.4018 182.397C60.4018 183.811 59.245 184.982 57.8311 184.982H56.6886C55.2605 184.982 54.1179 183.811 54.1179 182.397V174.985H55.5461V182.397C55.5461 183.026 56.0602 183.54 56.6886 183.54H57.8311C58.4595 183.54 58.9736 183.026 58.9736 182.397V174.985H60.4018V182.397ZM67.8225 184.982H66.2516L64.4378 180.984H62.9668V184.982H61.5387V174.985H65.2519C66.68 174.985 67.8225 176.128 67.8225 177.556V178.413C67.8225 179.598 67.037 180.584 65.9517 180.884L67.8225 184.982ZM62.9668 179.555H65.2519C65.8945 179.555 66.3944 179.056 66.3944 178.413V177.556C66.3944 176.913 65.8945 176.414 65.2519 176.414H62.9668V179.555ZM75.2433 174.985V176.414H70.3876V179.456H74.672V180.884H70.3876V184.982H68.9594V174.985H75.2433Z" fill="#92A6B0"/>
<rect x="123.043" y="92.7756" width="150.771" height="43.9604" rx="11.9352" fill="#66E8FA"/>
<rect x="275.619" y="92.7756" width="44.0204" height="43.9604" rx="11.9352" fill="#66E8FA"/>
<path d="M141.296 110.08V118.012H145.791V119.334H139.974V110.08H141.296ZM148.562 119.334H147.24V116.294L149.487 110.08H150.809L153.057 116.294V119.334H151.735V117.193H148.562V119.334ZM148.8 115.87H151.497L150.161 112.169H150.135L148.8 115.87ZM160.323 116.941C160.323 118.25 159.252 119.334 157.943 119.334H156.886C155.564 119.334 154.506 118.25 154.506 116.941V110.08H155.828V116.941C155.828 117.523 156.304 117.999 156.886 117.999H157.943C158.525 117.999 159.001 117.523 159.001 116.941V110.08H160.323V116.941ZM166.267 110.08H167.589V119.334H165.672L163.094 112.301V119.334H161.772V110.08H163.689L166.267 117.113V110.08ZM173.533 112.46C173.533 111.865 173.07 111.402 172.475 111.402H171.418C170.823 111.402 170.36 111.878 170.36 112.46V116.941C170.36 117.523 170.836 117.999 171.418 117.999H172.475C173.057 117.999 173.533 117.523 173.533 116.941V116.214H174.855V116.941C174.855 118.25 173.797 119.334 172.475 119.334H171.418C170.109 119.334 169.038 118.25 169.038 116.941V112.46C169.038 111.138 170.109 110.08 171.418 110.08H172.475C173.797 110.08 174.855 111.138 174.855 112.46V113.187H173.533V112.46ZM177.626 110.08V113.782H180.799V110.08H182.121V119.334H180.799V115.104H177.626V119.334H176.304V110.08H177.626ZM193.084 119.334V116.042L190.836 113.253V110.08H192.158V112.777L193.718 114.72H193.745L195.331 112.645V110.08H196.653V113.094L194.406 116.042V119.334H193.084ZM201.54 117.999C202.122 117.999 202.597 117.523 202.597 116.941V112.46C202.597 111.865 202.135 111.402 201.54 111.402H200.482C199.887 111.402 199.425 111.878 199.425 112.46V116.941C199.425 117.523 199.901 117.999 200.482 117.999H201.54ZM198.103 116.941V112.46C198.103 111.138 199.173 110.08 200.482 110.08H201.54C202.862 110.08 203.92 111.138 203.92 112.46V116.941C203.92 118.25 202.862 119.334 201.54 119.334H200.482C199.173 119.334 198.103 118.25 198.103 116.941ZM211.186 116.941C211.186 118.25 210.115 119.334 208.806 119.334H207.748C206.426 119.334 205.369 118.25 205.369 116.941V110.08H206.691V116.941C206.691 117.523 207.167 117.999 207.748 117.999H208.806C209.388 117.999 209.864 117.523 209.864 116.941V110.08H211.186V116.941ZM218.452 119.334H216.997L215.318 115.632H213.957V119.334H212.635V110.08H216.072C217.394 110.08 218.452 111.138 218.452 112.46V113.253C218.452 114.35 217.725 115.262 216.72 115.54L218.452 119.334ZM213.957 114.31H216.072C216.667 114.31 217.13 113.848 217.13 113.253V112.46C217.13 111.865 216.667 111.402 216.072 111.402H213.957V114.31ZM229.719 115.606L228.489 112.988V119.334H227.167V110.08H228.489L230.075 113.53L231.662 110.08H232.984V119.334H231.662V112.988L230.432 115.606H229.719ZM238.928 110.08H240.25V113.121L238.003 119.334H236.681L234.433 113.121V110.08H235.755V112.883L237.328 117.245H237.355L238.928 112.883V110.08ZM246.194 110.08H247.516V119.334H245.599L243.021 112.301V119.334H241.699V110.08H243.616L246.194 117.113V110.08ZM252.403 117.999C252.984 117.999 253.46 117.523 253.46 116.941V112.46C253.46 111.865 252.998 111.402 252.403 111.402H251.345C250.75 111.402 250.287 111.878 250.287 112.46V116.941C250.287 117.523 250.763 117.999 251.345 117.999H252.403ZM248.965 116.941V112.46C248.965 111.138 250.036 110.08 251.345 110.08H252.403C253.725 110.08 254.782 111.138 254.782 112.46V116.941C254.782 118.25 253.725 119.334 252.403 119.334H251.345C250.036 119.334 248.965 118.25 248.965 116.941Z" fill="#252829"/>
<path d="M302.152 114.025C303.823 112.359 303.927 110.376 303.875 109.492C303.866 109.358 303.809 109.231 303.713 109.135C303.617 109.04 303.49 108.982 303.355 108.974C302.469 108.922 300.483 109.024 298.811 110.692L294.418 115.074L297.759 118.407L302.152 114.025Z" stroke="black" stroke-width="1.3129" stroke-linecap="round" stroke-linejoin="round"/>
<path d="M298.316 111.185H294.025C293.878 111.185 293.736 111.244 293.632 111.348L291.241 113.732C291.168 113.805 291.117 113.897 291.093 113.998C291.069 114.098 291.074 114.203 291.107 114.301C291.14 114.398 291.199 114.485 291.278 114.551C291.358 114.617 291.454 114.66 291.556 114.675L294.418 115.073" stroke="black" stroke-width="1.3129" stroke-linecap="round" stroke-linejoin="round"/>
<path d="M301.658 114.519V118.799C301.658 118.946 301.599 119.087 301.495 119.191L299.104 121.576C299.031 121.649 298.939 121.7 298.838 121.724C298.737 121.747 298.632 121.742 298.534 121.71C298.436 121.677 298.349 121.618 298.283 121.539C298.217 121.46 298.174 121.364 298.159 121.262L297.76 118.407" stroke="black" stroke-width="1.3129" stroke-linecap="round" stroke-linejoin="round"/>
<path d="M295.433 119.228C295.163 119.818 294.255 121.185 291.635 121.185C291.635 118.571 293.005 117.665 293.596 117.396" stroke="black" stroke-width="1.3129" stroke-linecap="round" stroke-linejoin="round"/>
<rect opacity="0.3" x="275.619" y="138.573" width="241.784" height="156.432" rx="13.7713" fill="#B1C5CE"/>
<path d="M69.0543 254.036C69.0543 252.669 67.9907 251.605 66.6232 251.605H66.0154C64.6479 251.605 63.5843 252.699 63.5843 254.036V256.589H67.6868V259.628H63.5843V260.844H67.6868V263.882H63.5843V264.338C63.5843 265.675 64.6783 266.769 66.0154 266.769H66.6232C67.9603 266.769 69.0543 265.675 69.0543 264.338V264.034H72.0932V264.338C72.0932 267.347 69.6621 269.839 66.6232 269.839H66.0154C63.0069 269.839 60.5454 267.347 60.5454 264.338V263.882H58.7221V260.844H60.5454V259.628H58.7221V256.589H60.5454V254.036C60.5454 250.998 63.0069 248.566 66.0154 248.566H66.6232C69.6621 248.566 72.0932 250.998 72.0932 254.036V254.34H69.0543V254.036ZM101.85 266.8V269.839H88.4794V266.8H93.6455V252.092L88.4794 255.13V251.605L93.6455 248.566H96.6843V266.8H101.85ZM110.651 250.39H113.69V257.987H116.729V261.026H113.69V269.839H110.651V261.026H103.358V248.566H106.397V257.987H110.651V250.39ZM123.251 266.8H126.594V269.839H123.251V266.8ZM133.115 260.813V248.566H144.663V251.605H136.154V257.136L138.676 255.434H141.016C144.025 255.434 146.486 257.865 146.486 260.904V264.369C146.486 267.408 144.055 269.839 141.016 269.839H138.585C135.577 269.839 133.115 267.408 133.115 264.369V264.065H136.154V264.369C136.154 265.706 137.248 266.8 138.585 266.8H141.016C142.384 266.8 143.447 265.736 143.447 264.369V260.904C143.447 259.567 142.353 258.473 141.016 258.473H139.618L136.154 260.813H133.115ZM155.895 266.769C156.412 266.769 156.867 266.617 157.262 266.344L151.033 256.194V264.338C151.033 265.675 152.127 266.769 153.464 266.769H155.895ZM147.994 264.338V254.036C147.994 250.998 150.455 248.566 153.464 248.566H155.895C158.934 248.566 161.365 250.998 161.365 254.036V264.338C161.365 267.347 158.934 269.839 155.895 269.839H153.464C150.455 269.839 147.994 267.347 147.994 264.338ZM152.066 252.031L158.326 262.211V254.036C158.326 252.669 157.262 251.605 155.895 251.605H153.464C152.947 251.605 152.461 251.757 152.066 252.031Z" fill="#252829"/>
<path d="M170.205 273.381L173.519 263.201H174.684L171.37 273.381H170.205ZM184.264 265.259C184.897 265.259 185.414 265.467 185.813 265.881C186.213 266.289 186.413 266.945 186.413 267.85V271.118H185.191V267.861C185.191 267.356 185.089 266.971 184.886 266.707C184.682 266.443 184.38 266.311 183.981 266.311C183.559 266.311 183.223 266.462 182.974 266.764C182.733 267.058 182.612 267.465 182.612 267.985V271.118H181.379V267.861C181.379 267.348 181.274 266.964 181.063 266.707C180.859 266.443 180.557 266.311 180.158 266.311C179.743 266.311 179.411 266.466 179.162 266.775C178.921 267.084 178.8 267.499 178.8 268.019V271.118H177.579V265.327H178.642L178.778 266.085C179.193 265.542 179.758 265.267 180.474 265.259C180.882 265.259 181.24 265.346 181.549 265.52C181.858 265.693 182.096 265.957 182.262 266.311C182.465 265.98 182.733 265.723 183.065 265.542C183.396 265.354 183.796 265.259 184.264 265.259ZM190.144 271.186C189.564 271.186 189.047 271.066 188.595 270.824C188.15 270.575 187.803 270.229 187.554 269.784C187.313 269.331 187.192 268.811 187.192 268.223C187.192 267.642 187.313 267.129 187.554 266.685C187.803 266.232 188.15 265.881 188.595 265.633C189.047 265.384 189.564 265.259 190.144 265.259C190.725 265.259 191.238 265.384 191.682 265.633C192.135 265.881 192.482 266.232 192.723 266.685C192.972 267.129 193.096 267.642 193.096 268.223C193.096 268.811 192.972 269.331 192.723 269.784C192.482 270.229 192.135 270.575 191.682 270.824C191.238 271.066 190.725 271.186 190.144 271.186ZM190.144 270.146C190.657 270.146 191.068 269.968 191.377 269.614C191.694 269.252 191.852 268.788 191.852 268.223C191.852 267.657 191.694 267.197 191.377 266.843C191.068 266.481 190.657 266.3 190.144 266.3C189.631 266.3 189.22 266.481 188.911 266.843C188.602 267.197 188.448 267.657 188.448 268.223C188.448 268.788 188.602 269.252 188.911 269.614C189.22 269.968 189.631 270.146 190.144 270.146ZM197.019 265.259C197.706 265.259 198.264 265.471 198.693 265.893C199.131 266.315 199.349 266.994 199.349 267.929V271.118H198.117V267.997C198.117 267.446 198 267.028 197.766 266.741C197.532 266.455 197.189 266.311 196.737 266.311C196.254 266.311 195.873 266.481 195.594 266.82C195.323 267.152 195.187 267.612 195.187 268.2V271.118H193.965V265.327H195.029L195.164 266.085C195.602 265.535 196.22 265.259 197.019 265.259ZM200.721 266.402H199.714V265.327H200.721V263.71H201.953V265.327H203.345V266.402H201.953V269.422C201.953 269.648 201.999 269.81 202.089 269.908C202.18 269.999 202.334 270.044 202.553 270.044H203.48V271.118H202.304C201.754 271.118 201.35 270.99 201.094 270.734C200.845 270.477 200.721 270.082 200.721 269.546V266.402ZM207.065 265.259C207.759 265.259 208.321 265.471 208.751 265.893C209.188 266.315 209.407 266.994 209.407 267.929V271.118H208.185V267.997C208.185 267.446 208.065 267.028 207.823 266.741C207.59 266.455 207.246 266.311 206.794 266.311C206.311 266.311 205.931 266.481 205.652 266.82C205.38 267.152 205.244 267.608 205.244 268.189V271.118H204.023V263.201H205.244V266.164C205.682 265.561 206.289 265.259 207.065 265.259Z" fill="#5F6F77"/>
<rect opacity="0.2" x="-211.588" y="138.573" width="241.784" height="156.432" rx="13.7713" fill="#B1C5CE"/>
<rect opacity="0.65" x="215.434" y="169.161" width="26.7724" height="21.2123" rx="3.67236" fill="#5F6F77"/>
<g opacity="0.4">
<path d="M230.837 192.593L230.837 188.187C230.837 187.061 231.75 186.149 232.876 186.149V186.149C234.001 186.149 234.914 185.236 234.914 184.11L234.914 175.991C234.914 174.865 234.001 173.953 232.876 173.953V173.953C231.75 173.953 230.837 173.04 230.837 171.914L230.837 165.224" stroke="#D5E1E7" stroke-width="0.734472"/>
<path d="M234.613 182.444L242.945 182.444" stroke="#D5E1E7" stroke-width="0.734472"/>
<path d="M234.914 177.284L242.944 177.273" stroke="#D5E1E7" stroke-width="0.734472"/>
</g>
<g opacity="0.4">
<path d="M227.215 192.594L227.215 188.257C227.215 187.093 226.271 186.149 225.108 186.149V186.149C223.944 186.149 223 185.206 223 184.042L223 176.06C223 174.896 223.944 173.953 225.108 173.953V173.953C226.271 173.953 227.215 173.009 227.215 171.845L227.215 165.225" stroke="#D5E1E7" stroke-width="0.734472"/>
<path d="M223.312 182.444L214.699 182.444" stroke="#D5E1E7" stroke-width="0.734472"/>
<path d="M223 177.284L214.697 177.273" stroke="#D5E1E7" stroke-width="0.734472"/>
</g>
<path opacity="0.5" d="M200.053 178.513V171.168C200.053 170.252 200.433 169.376 201.103 168.751L207.119 163.138C207.731 162.567 208.537 162.249 209.374 162.249H214.896M200.053 186.023V193.856C200.053 195.681 201.532 197.161 203.358 197.161H215.241M223.464 197.161H243.988C245.813 197.161 247.293 195.681 247.293 193.856V193.353M247.293 166.017V165.554C247.293 163.729 245.813 162.249 243.988 162.249H222.972" stroke="#92A6B0" stroke-width="1.76273" stroke-linecap="round"/>
</g>
<defs>
<clipPath id="clip0_6536_29938">
<rect width="350" height="350" fill="white"/>
</clipPath>
</defs>
</svg>
