<svg width="350" height="350" viewBox="0 0 350 350" fill="none" xmlns="http://www.w3.org/2000/svg">
<g clip-path="url(#clip0_6536_29207)">
<g opacity="0.2">
<path d="M31.4375 78.813V311.542" stroke="#B1C5CE" stroke-width="1.17"/>
<path d="M125.037 78.8132V311.542" stroke="#B1C5CE" stroke-width="1.17"/>
<path d="M218.637 78.8132V311.542" stroke="#B1C5CE" stroke-width="1.17"/>
<path d="M312.238 78.8132V311.542" stroke="#B1C5CE" stroke-width="1.17"/>
</g>
<rect x="39" y="103" width="166" height="32.4" rx="16.2" fill="#B1C5CE"/>
<path d="M59.1772 116.01C60.3355 116.01 61.2832 116.946 61.2832 118.116V122.082C61.2832 123.241 60.3355 124.2 59.1772 124.2H56.1352V116.01H59.1772ZM57.3052 123.018H59.1772C59.692 123.018 60.1132 122.597 60.1132 122.082V118.116C60.1132 117.601 59.7037 117.18 59.1772 117.18H57.3052V123.018ZM62.6826 116.01H67.8306V117.18H65.8416V123.03H67.8306V124.2H62.6826V123.03H64.6716V117.18H62.6826V116.01ZM69.2301 121.556H70.4001V122.024C70.4001 122.574 70.8564 123.03 71.4063 123.03H72.1902C72.7869 123.03 73.2081 122.656 73.2081 122.141C73.2081 120.526 69.3471 120.175 69.3471 117.952C69.3471 116.806 70.248 116.01 71.5233 116.01H72.0732C73.2783 116.01 74.2611 116.981 74.2611 118.186V118.537H73.0911V118.186C73.0911 117.625 72.6348 117.18 72.0732 117.18H71.5233C70.8915 117.18 70.5171 117.472 70.5171 117.952C70.5171 119.192 74.3781 119.672 74.3781 122.141C74.3781 123.311 73.4304 124.2 72.1902 124.2H71.4063C70.2012 124.2 69.2301 123.229 69.2301 122.024V121.556ZM79.7555 118.116C79.7555 117.589 79.346 117.18 78.8195 117.18H77.8835C77.357 117.18 76.9475 117.601 76.9475 118.116V122.082C76.9475 122.597 77.3687 123.018 77.8835 123.018H78.8195C79.3343 123.018 79.7555 122.597 79.7555 122.082V121.439H80.9255V122.082C80.9255 123.241 79.9895 124.2 78.8195 124.2H77.8835C76.7252 124.2 75.7775 123.241 75.7775 122.082V118.116C75.7775 116.946 76.7252 116.01 77.8835 116.01H78.8195C79.9895 116.01 80.9255 116.946 80.9255 118.116V118.759H79.7555V118.116ZM85.3669 123.018C85.8817 123.018 86.3029 122.597 86.3029 122.082V118.116C86.3029 117.589 85.8934 117.18 85.3669 117.18H84.4309C83.9044 117.18 83.4949 117.601 83.4949 118.116V122.082C83.4949 122.597 83.9161 123.018 84.4309 123.018H85.3669ZM82.3249 122.082V118.116C82.3249 116.946 83.2726 116.01 84.4309 116.01H85.3669C86.5369 116.01 87.4729 116.946 87.4729 118.116V122.082C87.4729 123.241 86.5369 124.2 85.3669 124.2H84.4309C83.2726 124.2 82.3249 123.241 82.3249 122.082ZM92.8504 116.01H94.0204V118.701L92.0314 124.2H90.8614L88.8724 118.701V116.01H90.0424V118.49L91.4347 122.351H91.4581L92.8504 118.49V116.01ZM100.568 116.01V117.18H96.5898V119.321H100.1V120.491H96.5898V123.03H100.568V124.2H95.4198V116.01H100.568ZM107.115 124.2H105.828L104.342 120.924H103.137V124.2H101.967V116.01H105.009C106.179 116.01 107.115 116.946 107.115 118.116V118.818C107.115 119.789 106.472 120.596 105.583 120.842L107.115 124.2ZM103.137 119.754H105.009C105.536 119.754 105.945 119.344 105.945 118.818V118.116C105.945 117.589 105.536 117.18 105.009 117.18H103.137V119.754ZM110.504 124.2V121.287L108.515 118.818V116.01H109.685V118.397L111.065 120.117H111.089L112.493 118.28V116.01H113.663V118.678L111.674 121.287V124.2H110.504Z" fill="#5F6F77"/>
<g opacity="0.34">
<path d="M44.2274 87.6205C44.4416 87.6205 44.6306 87.5575 44.7944 87.4441L42.2114 83.2357V86.6125C42.2114 87.1669 42.665 87.6205 43.2194 87.6205H44.2274ZM40.9514 86.6125V82.3411C40.9514 81.0811 41.972 80.0731 43.2194 80.0731H44.2274C45.4874 80.0731 46.4954 81.0811 46.4954 82.3411V86.6125C46.4954 87.8599 45.4874 88.8931 44.2274 88.8931H43.2194C41.972 88.8931 40.9514 87.8599 40.9514 86.6125ZM42.6398 81.5095L45.2354 85.7305V82.3411C45.2354 81.7741 44.7944 81.3331 44.2274 81.3331H43.2194C43.0052 81.3331 42.8036 81.3961 42.6398 81.5095ZM53.7984 87.6331V88.8931H48.2544V87.6331H50.3964V81.5347L48.2544 82.7947V81.3331L50.3964 80.0731H51.6564V87.6331H53.7984Z" fill="#F5FCFF"/>
</g>
<rect x="211" y="206" width="165" height="32.4" rx="16.2" fill="#92A6B0"/>
<rect x="211.45" y="206.45" width="164.1" height="31.5" rx="15.75" stroke="#B1C5CE" stroke-opacity="0.5" stroke-width="0.9"/>
<path d="M229.305 227.2H228.135V224.509L230.124 219.01H231.294L233.283 224.509V227.2H232.113V225.305H229.305V227.2ZM229.516 224.135H231.903L230.721 220.859H230.698L229.516 224.135ZM238.661 221.116C238.661 220.589 238.251 220.18 237.725 220.18H236.789C236.262 220.18 235.853 220.601 235.853 221.116V225.082C235.853 225.597 236.274 226.018 236.789 226.018H237.725C238.239 226.018 238.661 225.597 238.661 225.082V224.439H239.831V225.082C239.831 226.241 238.895 227.2 237.725 227.2H236.789C235.63 227.2 234.683 226.241 234.683 225.082V221.116C234.683 219.946 235.63 219.01 236.789 219.01H237.725C238.895 219.01 239.831 219.946 239.831 221.116V221.759H238.661V221.116ZM241.23 219.01H246.378V220.18H244.389V227.2H243.219V220.18H241.23V219.01ZM247.778 219.01H252.926V220.18H250.937V226.03H252.926V227.2H247.778V226.03H249.767V220.18H247.778V219.01ZM258.303 219.01H259.473V221.701L257.484 227.2H256.314L254.325 221.701V219.01H255.495V221.49L256.887 225.351H256.911L258.303 221.49V219.01ZM262.042 227.2H260.872V224.509L262.861 219.01H264.031L266.02 224.509V227.2H264.85V225.305H262.042V227.2ZM262.253 224.135H264.64L263.458 220.859H263.435L262.253 224.135ZM267.42 219.01H272.568V220.18H270.579V227.2H269.409V220.18H267.42V219.01ZM273.967 219.01H279.115V220.18H277.126V226.03H279.115V227.2H273.967V226.03H275.956V220.18H273.967V219.01ZM283.557 226.018C284.071 226.018 284.493 225.597 284.493 225.082V221.116C284.493 220.589 284.083 220.18 283.557 220.18H282.621C282.094 220.18 281.685 220.601 281.685 221.116V225.082C281.685 225.597 282.106 226.018 282.621 226.018H283.557ZM280.515 225.082V221.116C280.515 219.946 281.462 219.01 282.621 219.01H283.557C284.727 219.01 285.663 219.946 285.663 221.116V225.082C285.663 226.241 284.727 227.2 283.557 227.2H282.621C281.462 227.2 280.515 226.241 280.515 225.082ZM291.04 219.01H292.21V227.2H290.514L288.232 220.976V227.2H287.062V219.01H288.759L291.04 225.234V219.01Z" fill="#D5E1E7"/>
<rect x="268" y="241" width="164" height="32.4" rx="16.2" fill="#92A6B0"/>
<rect x="268.45" y="241.45" width="163.1" height="31.5" rx="15.75" stroke="#B1C5CE" stroke-opacity="0.5" stroke-width="0.9"/>
<path d="M285.135 254.01H290.283V255.18H288.294V262.2H287.124V255.18H285.135V254.01ZM296.831 254.01V255.18H292.853V257.321H296.363V258.491H292.853V261.03H296.831V262.2H291.683V254.01H296.831ZM298.23 259.556H299.4V260.024C299.4 260.574 299.856 261.03 300.406 261.03H301.19C301.787 261.03 302.208 260.656 302.208 260.141C302.208 258.526 298.347 258.175 298.347 255.952C298.347 254.806 299.248 254.01 300.523 254.01H301.073C302.278 254.01 303.261 254.981 303.261 256.186V256.537H302.091V256.186C302.091 255.625 301.635 255.18 301.073 255.18H300.523C299.891 255.18 299.517 255.472 299.517 255.952C299.517 257.192 303.378 257.672 303.378 260.141C303.378 261.311 302.43 262.2 301.19 262.2H300.406C299.201 262.2 298.23 261.229 298.23 260.024V259.556ZM304.778 254.01H309.926V255.18H307.937V262.2H306.767V255.18H304.778V254.01ZM311.325 254.01H316.473V255.18H314.484V261.03H316.473V262.2H311.325V261.03H313.314V255.18H311.325V254.01ZM321.85 254.01H323.02V262.2H321.324L319.042 255.976V262.2H317.872V254.01H319.569L321.85 260.234V254.01ZM326.643 257.789H329.568V260.082C329.568 261.241 328.632 262.2 327.462 262.2H326.526C325.367 262.2 324.42 261.241 324.42 260.082V256.116C324.42 254.946 325.367 254.01 326.526 254.01H327.462C328.632 254.01 329.568 254.946 329.568 256.116V256.759H328.398V256.116C328.398 255.589 327.988 255.18 327.462 255.18H326.526C325.999 255.18 325.59 255.601 325.59 256.116V260.082C325.59 260.597 326.011 261.018 326.526 261.018H327.462C327.977 261.018 328.398 260.597 328.398 260.082V258.959H326.643V257.789Z" fill="#D5E1E7"/>
<rect x="326" y="276" width="164" height="31" rx="15.5" fill="#92A6B0"/>
<rect x="326.45" y="276.45" width="163.1" height="30.1" rx="15.05" stroke="#B1C5CE" stroke-opacity="0.5" stroke-width="0.9"/>
<path d="M346.177 295.318C346.692 295.318 347.113 294.897 347.113 294.382V290.416C347.113 289.89 346.704 289.48 346.177 289.48H345.241C344.715 289.48 344.305 289.901 344.305 290.416V294.382C344.305 294.897 344.726 295.318 345.241 295.318H346.177ZM343.135 294.382V290.416C343.135 289.246 344.083 288.31 345.241 288.31H346.177C347.347 288.31 348.283 289.246 348.283 290.416V294.382C348.283 295.541 347.347 296.5 346.177 296.5H345.241C344.083 296.5 343.135 295.541 343.135 294.382ZM354.831 291.118C354.831 292.288 353.895 293.224 352.725 293.224H350.853V296.5H349.683V288.31H352.725C353.895 288.31 354.831 289.246 354.831 290.416V291.118ZM350.853 292.054H352.725C353.251 292.054 353.661 291.644 353.661 291.118V290.416C353.661 289.89 353.251 289.48 352.725 289.48H350.853V292.054ZM356.23 288.31H361.378V289.48H359.389V296.5H358.219V289.48H356.23V288.31ZM362.778 288.31H367.926V289.48H365.937V295.33H367.926V296.5H362.778V295.33H364.767V289.48H362.778V288.31ZM371.583 293.201L370.495 290.884V296.5H369.325V288.31H370.495L371.899 291.364L373.303 288.31H374.473V296.5H373.303V290.884L372.215 293.201H371.583ZM375.872 288.31H381.02V289.48H379.031V295.33H381.02V296.5H375.872V295.33H377.861V289.48H375.872V288.31ZM382.42 293.856H383.59V294.324C383.59 294.874 384.046 295.33 384.596 295.33H385.38C385.977 295.33 386.398 294.956 386.398 294.441C386.398 292.826 382.537 292.475 382.537 290.252C382.537 289.106 383.438 288.31 384.713 288.31H385.263C386.468 288.31 387.451 289.281 387.451 290.486V290.837H386.281V290.486C386.281 289.925 385.824 289.48 385.263 289.48H384.713C384.081 289.48 383.707 289.772 383.707 290.252C383.707 291.492 387.568 291.972 387.568 294.441C387.568 295.611 386.62 296.5 385.38 296.5H384.596C383.391 296.5 382.42 295.529 382.42 294.324V293.856ZM390.137 296.5H388.967V293.809L390.956 288.31H392.126L394.115 293.809V296.5H392.945V294.605H390.137V296.5ZM390.348 293.435H392.735L391.553 290.159H391.53L390.348 293.435ZM395.515 288.31H400.663V289.48H398.674V296.5H397.504V289.48H395.515V288.31ZM402.062 288.31H407.21V289.48H405.221V295.33H407.21V296.5H402.062V295.33H404.051V289.48H402.062V288.31ZM411.652 295.318C412.166 295.318 412.588 294.897 412.588 294.382V290.416C412.588 289.89 412.178 289.48 411.652 289.48H410.716C410.189 289.48 409.78 289.901 409.78 290.416V294.382C409.78 294.897 410.201 295.318 410.716 295.318H411.652ZM408.61 294.382V290.416C408.61 289.246 409.557 288.31 410.716 288.31H411.652C412.822 288.31 413.758 289.246 413.758 290.416V294.382C413.758 295.541 412.822 296.5 411.652 296.5H410.716C409.557 296.5 408.61 295.541 408.61 294.382ZM419.135 288.31H420.305V296.5H418.608L416.327 290.276V296.5H415.157V288.31H416.853L419.135 294.534V288.31Z" fill="#D5E1E7"/>
<path opacity="0.4" d="M43.7458 299.992L44.4388 303.961L44.7412 300.244V297.724H46.0012V300.622L45.2452 306.544H44.2372L43.2292 302.776L42.2212 306.544H41.2132L40.4572 300.622V297.724H41.7172V300.244L42.0196 303.961L42.7126 299.992H43.7458ZM53.3043 297.724V298.984H49.0203V301.29H52.8003V302.55H49.0203V305.284H53.3043V306.544H47.7603V297.724H53.3043ZM60.6074 297.724V298.984H56.3234V301.29H60.1034V302.55H56.3234V305.284H60.6074V306.544H55.0634V297.724H60.6074ZM63.6265 306.544H62.3665V297.724H63.6265V301.504H64.1053L66.4237 297.724H67.9105L65.2015 302.134L67.9105 306.544H66.4237L64.1053 302.764H63.6265V306.544Z" fill="#F5FCFF"/>
<rect opacity="0.8" x="25.0625" y="61.1956" width="89.6914" height="253.386" fill="#92A6B0"/>
<path fill-rule="evenodd" clip-rule="evenodd" d="M114.637 311.094C114.637 311.342 114.838 311.544 115.087 311.544C115.335 311.544 115.537 311.342 115.537 311.094L115.537 94.4133C115.537 92.4843 117.162 90.9731 118.793 89.942C120.69 88.7419 121.953 86.6116 121.953 84.211C121.953 81.8104 120.69 79.6801 118.793 78.48C117.162 77.4489 115.537 75.9377 115.537 74.0088L115.537 68.1436C115.537 67.8951 115.335 67.6936 115.087 67.6936C114.838 67.6936 114.637 67.8951 114.637 68.1436L114.637 74.2015C114.637 76.0605 113.123 77.5378 111.577 78.5697C109.756 79.7844 108.555 81.8691 108.555 84.211C108.555 86.5529 109.756 88.6376 111.577 89.8523C113.123 90.8842 114.637 92.3615 114.637 94.2206L114.637 311.094Z" fill="#ABFDBE"/>
<rect x="154" y="171" width="165" height="32.4" rx="16.2" fill="#92A6B0"/>
<rect x="154.45" y="171.45" width="164.1" height="31.5" rx="15.75" stroke="#B1C5CE" stroke-opacity="0.5" stroke-width="0.9"/>
<path d="M171.135 189.556H172.305V190.024C172.305 190.574 172.762 191.03 173.311 191.03H174.095C174.692 191.03 175.113 190.656 175.113 190.141C175.113 188.526 171.252 188.175 171.252 185.952C171.252 184.806 172.153 184.01 173.428 184.01H173.978C175.183 184.01 176.166 184.981 176.166 186.186V186.537H174.996V186.186C174.996 185.625 174.54 185.18 173.978 185.18H173.428C172.797 185.18 172.422 185.472 172.422 185.952C172.422 187.192 176.283 187.672 176.283 190.141C176.283 191.311 175.336 192.2 174.095 192.2H173.311C172.106 192.2 171.135 191.229 171.135 190.024V189.556ZM177.683 184.01H182.831V185.18H180.842V192.2H179.672V185.18H177.683V184.01ZM189.378 192.2H188.091L186.605 188.924H185.4V192.2H184.23V184.01H187.272C188.442 184.01 189.378 184.946 189.378 186.116V186.818C189.378 187.789 188.735 188.596 187.845 188.842L189.378 192.2ZM185.4 187.754H187.272C187.799 187.754 188.208 187.344 188.208 186.818V186.116C188.208 185.589 187.799 185.18 187.272 185.18H185.4V187.754ZM191.948 192.2H190.778V189.509L192.767 184.01H193.937L195.926 189.509V192.2H194.756V190.305H191.948V192.2ZM192.158 189.135H194.545L193.363 185.859H193.34L192.158 189.135ZM197.325 184.01H202.473V185.18H200.484V192.2H199.314V185.18H197.325V184.01ZM209.02 184.01V185.18H205.042V187.321H208.552V188.491H205.042V191.03H209.02V192.2H203.872V184.01H209.02ZM212.643 187.789H215.568V190.082C215.568 191.241 214.632 192.2 213.462 192.2H212.526C211.367 192.2 210.42 191.241 210.42 190.082V186.116C210.42 184.946 211.367 184.01 212.526 184.01H213.462C214.632 184.01 215.568 184.946 215.568 186.116V186.759H214.398V186.116C214.398 185.589 213.988 185.18 213.462 185.18H212.526C211.999 185.18 211.59 185.601 211.59 186.116V190.082C211.59 190.597 212.011 191.018 212.526 191.018H213.462C213.977 191.018 214.398 190.597 214.398 190.082V188.959H212.643V187.789ZM218.956 192.2V189.287L216.967 186.818V184.01H218.137V186.397L219.518 188.117H219.541L220.945 186.28V184.01H222.115V186.678L220.126 189.287V192.2H218.956Z" fill="#D5E1E7"/>
<rect x="97" y="137" width="165" height="32.4" rx="16.2" fill="#D5E1E7"/>
<path d="M116.393 154.901L115.305 152.584V158.2H114.135V150.01H115.305L116.709 153.064L118.113 150.01H119.283V158.2H118.113V152.584L117.025 154.901H116.393ZM121.853 158.2H120.683V155.509L122.672 150.01H123.842L125.831 155.509V158.2H124.661V156.305H121.853V158.2ZM122.063 155.135H124.45L123.268 151.859H123.245L122.063 155.135ZM132.378 152.818C132.378 153.988 131.442 154.924 130.272 154.924H128.4V158.2H127.23V150.01H130.272C131.442 150.01 132.378 150.946 132.378 152.116V152.818ZM128.4 153.754H130.272C130.799 153.754 131.208 153.344 131.208 152.818V152.116C131.208 151.589 130.799 151.18 130.272 151.18H128.4V153.754ZM138.926 152.818C138.926 153.988 137.99 154.924 136.82 154.924H134.948V158.2H133.778V150.01H136.82C137.99 150.01 138.926 150.946 138.926 152.116V152.818ZM134.948 153.754H136.82C137.346 153.754 137.756 153.344 137.756 152.818V152.116C137.756 151.589 137.346 151.18 136.82 151.18H134.948V153.754ZM140.325 150.01H145.473V151.18H143.484V157.03H145.473V158.2H140.325V157.03H142.314V151.18H140.325V150.01ZM150.85 150.01H152.02V158.2H150.324L148.042 151.976V158.2H146.872V150.01H148.569L150.85 156.234V150.01ZM155.643 153.789H158.568V156.082C158.568 157.241 157.632 158.2 156.462 158.2H155.526C154.367 158.2 153.42 157.241 153.42 156.082V152.116C153.42 150.946 154.367 150.01 155.526 150.01H156.462C157.632 150.01 158.568 150.946 158.568 152.116V152.759H157.398V152.116C157.398 151.589 156.988 151.18 156.462 151.18H155.526C154.999 151.18 154.59 151.601 154.59 152.116V156.082C154.59 156.597 155.011 157.018 155.526 157.018H156.462C156.977 157.018 157.398 156.597 157.398 156.082V154.959H155.643V153.789Z" fill="#5F6F77"/>
<mask id="path-25-inside-1_6536_29207" fill="white">
<path d="M251.3 148.062C252.447 149.511 253.076 151.301 253.087 153.149C253.099 154.996 252.492 156.795 251.363 158.257C250.234 159.72 248.649 160.763 246.859 161.221C245.069 161.678 243.177 161.524 241.485 160.782C239.793 160.04 238.398 158.754 237.521 157.127C236.645 155.501 236.337 153.628 236.648 151.807C236.959 149.986 237.87 148.321 239.237 147.077C240.603 145.834 242.346 145.083 244.188 144.945L244.319 146.69C242.867 146.799 241.492 147.391 240.415 148.372C239.337 149.352 238.619 150.665 238.374 152.101C238.128 153.538 238.371 155.015 239.062 156.297C239.753 157.58 240.853 158.594 242.188 159.179C243.522 159.764 245.014 159.886 246.425 159.525C247.837 159.164 249.087 158.342 249.977 157.188C250.867 156.035 251.346 154.617 251.337 153.16C251.328 151.703 250.832 150.291 249.928 149.148L251.3 148.062Z"/>
</mask>
<path d="M251.3 148.062C252.447 149.511 253.076 151.301 253.087 153.149C253.099 154.996 252.492 156.795 251.363 158.257C250.234 159.72 248.649 160.763 246.859 161.221C245.069 161.678 243.177 161.524 241.485 160.782C239.793 160.04 238.398 158.754 237.521 157.127C236.645 155.501 236.337 153.628 236.648 151.807C236.959 149.986 237.87 148.321 239.237 147.077C240.603 145.834 242.346 145.083 244.188 144.945L244.319 146.69C242.867 146.799 241.492 147.391 240.415 148.372C239.337 149.352 238.619 150.665 238.374 152.101C238.128 153.538 238.371 155.015 239.062 156.297C239.753 157.58 240.853 158.594 242.188 159.179C243.522 159.764 245.014 159.886 246.425 159.525C247.837 159.164 249.087 158.342 249.977 157.188C250.867 156.035 251.346 154.617 251.337 153.16C251.328 151.703 250.832 150.291 249.928 149.148L251.3 148.062Z" stroke="#3CCADD" stroke-width="1.8" mask="url(#path-25-inside-1_6536_29207)"/>
<rect opacity="0.3" x="240.855" y="149.248" width="7.90364" height="7.90364" rx="3.95182" fill="#92A6B0"/>
<path opacity="0.2" d="M43.7458 299.99L44.4388 303.959L44.7412 300.242V297.722H46.0012V300.62L45.2452 306.542H44.2372L43.2292 302.775L42.2212 306.542H41.2132L40.4572 300.62V297.722H41.7172V300.242L42.0196 303.959L42.7126 299.99H43.7458ZM53.3043 297.722V298.982H49.0203V301.288H52.8003V302.548H49.0203V305.282H53.3043V306.542H47.7603V297.722H53.3043ZM60.6074 297.722V298.982H56.3234V301.288H60.1034V302.548H56.3234V305.282H60.6074V306.542H55.0634V297.722H60.6074ZM63.6265 306.542H62.3665V297.722H63.6265V301.502H64.1053L66.4237 297.722H67.9105L65.2015 302.132L67.9105 306.542H66.4237L64.1053 302.762H63.6265V306.542Z" fill="#F5FCFF"/>
<path opacity="0.2" d="M44.2274 87.6205C44.4416 87.6205 44.6306 87.5575 44.7944 87.4441L42.2114 83.2357V86.6125C42.2114 87.1669 42.665 87.6205 43.2194 87.6205H44.2274ZM40.9514 86.6125V82.3411C40.9514 81.0811 41.972 80.0731 43.2194 80.0731H44.2274C45.4874 80.0731 46.4954 81.0811 46.4954 82.3411V86.6125C46.4954 87.8599 45.4874 88.8931 44.2274 88.8931H43.2194C41.972 88.8931 40.9514 87.8599 40.9514 86.6125ZM42.6398 81.5095L45.2354 85.7305V82.3411C45.2354 81.7741 44.7944 81.3331 44.2274 81.3331H43.2194C43.0052 81.3331 42.8036 81.3961 42.6398 81.5095ZM53.7984 87.6331V88.8931H48.2544V87.6331H50.3964V81.5347L48.2544 82.7947V81.3331L50.3964 80.0731H51.6564V87.6331H53.7984Z" fill="#F5FCFF"/>
<path opacity="0.2" d="M137.944 87.6205C138.158 87.6205 138.347 87.5575 138.511 87.4441L135.928 83.2357V86.6125C135.928 87.1669 136.382 87.6205 136.936 87.6205H137.944ZM134.668 86.6125V82.3411C134.668 81.0811 135.689 80.0731 136.936 80.0731H137.944C139.204 80.0731 140.212 81.0811 140.212 82.3411V86.6125C140.212 87.8599 139.204 88.8931 137.944 88.8931H136.936C135.689 88.8931 134.668 87.8599 134.668 86.6125ZM136.357 81.5095L138.952 85.7305V82.3411C138.952 81.7741 138.511 81.3331 137.944 81.3331H136.936C136.722 81.3331 136.52 81.3961 136.357 81.5095ZM147.515 87.6331V88.8931H141.971V85.9825L146.255 83.5759V82.3411C146.255 81.7741 145.814 81.3331 145.247 81.3331H144.239C143.685 81.3331 143.231 81.7867 143.231 82.3411V82.7821H141.971V82.3411C141.971 81.0811 142.992 80.0731 144.239 80.0731H145.247C146.507 80.0731 147.515 81.0811 147.515 82.3411V84.3193L143.231 86.7259V87.6331H147.515Z" fill="#F5FCFF"/>
<path opacity="0.2" d="M233.093 87.6205C233.307 87.6205 233.496 87.5575 233.66 87.4441L231.077 83.2357V86.6125C231.077 87.1669 231.53 87.6205 232.085 87.6205H233.093ZM229.817 86.6125V82.3411C229.817 81.0811 230.837 80.0731 232.085 80.0731H233.093C234.353 80.0731 235.361 81.0811 235.361 82.3411V86.6125C235.361 87.8599 234.353 88.8931 233.093 88.8931H232.085C230.837 88.8931 229.817 87.8599 229.817 86.6125ZM231.505 81.5095L234.101 85.7305V82.3411C234.101 81.7741 233.66 81.3331 233.093 81.3331H232.085C231.87 81.3331 231.669 81.3961 231.505 81.5095ZM242.664 82.8451C242.664 83.4877 242.399 84.0673 241.971 84.4831C242.399 84.8989 242.664 85.4785 242.664 86.1211V86.6251C242.664 87.8851 241.656 88.8931 240.396 88.8931H239.388C238.14 88.8931 237.12 87.8851 237.12 86.6251V86.1841H238.38V86.6251C238.38 87.1795 238.833 87.6331 239.388 87.6331H240.396C240.963 87.6331 241.404 87.1921 241.404 86.6251V86.1211C241.404 85.5541 240.963 85.1131 240.396 85.1131H239.514V83.8531H240.396C240.963 83.8531 241.404 83.4121 241.404 82.8451V82.3411C241.404 81.7741 240.963 81.3331 240.396 81.3331H239.388C238.833 81.3331 238.38 81.7867 238.38 82.3411V82.7821H237.12V82.3411C237.12 81.0811 238.14 80.0731 239.388 80.0731H240.396C241.656 80.0731 242.664 81.0811 242.664 82.3411V82.8451Z" fill="#F5FCFF"/>
</g>
<defs>
<clipPath id="clip0_6536_29207">
<rect width="350" height="350" fill="white"/>
</clipPath>
</defs>
</svg>
