<svg width="401" height="402" viewBox="0 0 401 402" fill="none" xmlns="http://www.w3.org/2000/svg">
<g clip-path="url(#clip0_6542_19103)">
<rect x="81.4648" y="229.038" width="342.769" height="284.405" rx="8.1" fill="#92A6B0"/>
<rect x="46.2852" y="196.573" width="376.754" height="30.665" rx="8.1" fill="#92A6B0"/>
<path d="M88.9508 215.525H83.5454V206.926H88.9508V208.494H84.7154L85.2419 208.002V210.436H88.5413V211.922H85.2419V214.437L84.7154 213.958H88.9508V215.525ZM91.5793 215.525H89.9764V209.71H91.474L91.6495 210.728L91.474 210.553C91.591 210.295 91.8016 210.061 92.1058 209.851C92.4178 209.64 92.8117 209.535 93.2875 209.535C93.8023 209.535 94.2196 209.668 94.5394 209.933C94.8592 210.19 95.0854 210.529 95.218 210.951H94.9606C95.0464 210.529 95.2687 210.19 95.6275 209.933C95.9863 209.668 96.4153 209.535 96.9145 209.535C97.6477 209.535 98.2015 209.734 98.5759 210.132C98.9503 210.522 99.1375 211.052 99.1375 211.723V215.525H97.5229V212.156C97.5229 211.774 97.4293 211.485 97.2421 211.29C97.0549 211.087 96.8014 210.986 96.4816 210.986C96.2866 210.986 96.1033 211.029 95.9317 211.114C95.7601 211.2 95.6197 211.341 95.5105 211.536C95.4091 211.731 95.3584 211.992 95.3584 212.32V215.525H93.7555V212.156C93.7555 211.766 93.6619 211.477 93.4747 211.29C93.2875 211.095 93.034 210.997 92.7142 210.997C92.5192 210.997 92.3359 211.04 92.1643 211.126C91.9927 211.212 91.8523 211.352 91.7431 211.547C91.6339 211.742 91.5793 212 91.5793 212.32V215.525ZM99.6471 213.724H101.168C101.184 213.95 101.273 214.129 101.437 214.262C101.601 214.394 101.831 214.461 102.127 214.461C102.439 214.461 102.67 214.406 102.818 214.297C102.974 214.188 103.052 214.043 103.052 213.864C103.052 213.747 103.013 213.642 102.935 213.548C102.857 213.454 102.697 213.38 102.455 213.326L101.402 213.092C100.872 212.967 100.474 212.776 100.209 212.518C99.9513 212.261 99.8226 211.887 99.8226 211.395C99.8226 211.005 99.924 210.674 100.127 210.401C100.337 210.12 100.618 209.905 100.969 209.757C101.328 209.609 101.737 209.535 102.198 209.535C102.642 209.535 103.032 209.613 103.368 209.769C103.703 209.925 103.964 210.147 104.152 210.436C104.347 210.724 104.444 211.064 104.444 211.454H102.911C102.911 211.228 102.841 211.048 102.701 210.916C102.568 210.783 102.377 210.717 102.127 210.717C101.886 210.717 101.695 210.771 101.554 210.88C101.422 210.99 101.355 211.138 101.355 211.325C101.355 211.614 101.581 211.809 102.034 211.91L103.099 212.144C103.59 212.253 103.96 212.433 104.21 212.682C104.46 212.924 104.584 213.271 104.584 213.724C104.584 214.121 104.475 214.468 104.257 214.765C104.046 215.061 103.754 215.287 103.379 215.443C103.005 215.599 102.568 215.677 102.069 215.677C101.328 215.677 100.739 215.498 100.302 215.139C99.8655 214.78 99.6471 214.309 99.6471 213.724Z" fill="#252829"/>
<rect x="363.887" y="204.826" width="14.2523" height="14.2523" rx="7.12616" stroke="#5F6F77" stroke-width="0.475078" stroke-linecap="round" stroke-dasharray="1.43 1.43"/>
<path d="M368.84 211.951H373.182" stroke="#5F6F77" stroke-width="0.570093" stroke-linecap="round"/>
<path d="M371.016 214.122L371.016 209.779" stroke="#5F6F77" stroke-width="0.570093" stroke-linecap="round"/>
<ellipse cx="387.93" cy="209.378" rx="0.593846" ry="0.593848" fill="#5F6F77"/>
<ellipse cx="387.93" cy="211.838" rx="0.593846" ry="0.593848" fill="#5F6F77"/>
<ellipse cx="387.93" cy="214.299" rx="0.593846" ry="0.593848" fill="#5F6F77"/>
<rect x="50.1758" y="200.075" width="23.6609" height="23.6609" rx="5.184" fill="#252829"/>
<path d="M62.5691 205.199C61.6866 205.199 60.9712 205.914 60.9712 206.797V211.277C60.9712 212.264 60.1604 213.065 59.1609 213.065L57.1199 213.065C56.5316 213.065 56.0547 213.542 56.0547 214.13V216.916C56.0547 217.505 56.5316 217.981 57.1199 217.981H59.9059C60.4942 217.981 60.9711 217.505 60.9711 216.916V214.763C61.0215 213.819 61.8128 213.065 62.7815 213.065H67.2397C68.1221 213.065 68.8375 212.35 68.8375 211.467V206.797C68.8375 205.914 68.1221 205.199 67.2397 205.199H62.5691Z" fill="#66E8FA"/>
<rect x="47.1016" y="229.038" width="32.5648" height="282.605" rx="8.1" fill="#92A6B0"/>
<path d="M50.6016 322.721C50.6016 320.297 52.694 318.333 55.2751 318.333H71.2212C73.8023 318.333 75.8947 320.297 75.8947 322.721V338.332C75.8947 340.755 73.8023 342.72 71.2212 342.72H55.2751C52.694 342.72 50.6016 340.755 50.6016 338.332V322.721Z" fill="#252829"/>
<path d="M62.0892 250.654H60.9399C60.5597 250.653 60.1839 250.575 59.8375 250.425C59.4912 250.275 59.1821 250.055 58.9308 249.782C58.6795 249.508 58.4918 249.186 58.3801 248.838C58.2684 248.489 58.2352 248.122 58.2828 247.76C58.3305 247.398 58.4578 247.05 58.6563 246.739C58.8548 246.428 59.1201 246.161 59.4344 245.956C59.7487 245.751 60.1049 245.612 60.4794 245.549C60.8539 245.486 61.2381 245.5 61.6065 245.59" stroke="#252829" stroke-width="0.867982" stroke-linecap="round" stroke-linejoin="round"/>
<path d="M61.3281 246.982C61.3281 246.4 61.4724 245.826 61.749 245.307C62.0256 244.789 62.4266 244.342 62.919 244.001C63.4114 243.661 63.9811 243.437 64.5812 243.35C65.1812 243.262 65.7944 243.312 66.3703 243.496C66.9461 243.68 67.4681 243.993 67.8932 244.408C68.3183 244.824 68.6344 245.331 68.8154 245.886C68.9964 246.442 69.0371 247.031 68.9342 247.605C68.8313 248.178 68.5877 248.72 68.2235 249.186" stroke="#252829" stroke-width="0.867982" stroke-linecap="round" stroke-linejoin="round"/>
<path d="M63.2383 249.186L64.7706 250.655L66.3029 249.186" stroke="#252829" stroke-width="0.867982" stroke-linecap="round" stroke-linejoin="round"/>
<path d="M64.7695 246.98V250.654" stroke="#252829" stroke-width="0.867982" stroke-linecap="round" stroke-linejoin="round"/>
<path d="M63.6215 277.932C63.9388 277.932 64.1961 277.675 64.1961 277.358C64.1961 277.041 63.9388 276.784 63.6215 276.784C63.3041 276.784 63.0469 277.041 63.0469 277.358C63.0469 277.675 63.3041 277.932 63.6215 277.932Z" fill="#252829"/>
<path d="M63.6221 275.636V275.254C64.4683 275.254 65.1545 274.654 65.1545 273.914C65.1545 273.175 64.4683 272.575 63.6221 272.575C62.776 272.575 62.0898 273.175 62.0898 273.914V274.105" stroke="#252829" stroke-width="0.867982" stroke-linecap="round" stroke-linejoin="round"/>
<path d="M63.6203 279.465C66.1592 279.465 68.2173 277.409 68.2173 274.873C68.2173 272.337 66.1592 270.281 63.6203 270.281C61.0815 270.281 59.0234 272.337 59.0234 274.873C59.0234 277.409 61.0815 279.465 63.6203 279.465Z" stroke="#252829" stroke-width="0.867982" stroke-linecap="round" stroke-linejoin="round"/>
<path d="M62.0898 306.456C62.0898 306.879 62.2513 307.285 62.5386 307.584C62.826 307.883 63.2158 308.052 63.6221 308.052C64.0285 308.052 64.4183 307.883 64.7056 307.584C64.993 307.285 65.1545 306.879 65.1545 306.456" stroke="#252829" stroke-width="0.867982" stroke-linecap="round" stroke-linejoin="round"/>
<path d="M60.174 302.071C60.174 301.119 60.5372 300.206 61.1838 299.532C61.8304 298.859 62.7073 298.481 63.6217 298.481C64.5361 298.481 65.413 298.859 66.0596 299.532C66.7061 300.206 67.0694 301.119 67.0694 302.071C67.0694 303.857 67.4668 305.292 67.7828 305.86C67.8164 305.921 67.8341 305.989 67.8342 306.059C67.8342 306.129 67.8166 306.198 67.7832 306.258C67.7497 306.319 67.7016 306.369 67.6435 306.405C67.5855 306.44 67.5196 306.458 67.4524 306.459H59.7909C59.7239 306.458 59.6581 306.439 59.6002 306.404C59.5423 306.369 59.4943 306.319 59.4609 306.258C59.4276 306.197 59.4101 306.129 59.4102 306.059C59.4103 305.989 59.428 305.921 59.4615 305.86C59.777 305.292 60.174 303.856 60.174 302.071Z" stroke="#252829" stroke-width="0.867982" stroke-linecap="round" stroke-linejoin="round"/>
<path opacity="0.2" d="M58.4766 333.313L63.0152 335.84C63.3925 336.05 63.8516 336.05 64.2289 335.84L68.7676 333.313" stroke="#E3FFD1" stroke-width="0.93555" stroke-linecap="round" stroke-linejoin="round"/>
<path opacity="0.5" d="M58.4766 330.859L63.0152 333.386C63.3925 333.596 63.8516 333.596 64.2289 333.386L68.7676 330.859" stroke="#E3FFD1" stroke-width="0.93555" stroke-linecap="round" stroke-linejoin="round"/>
<path d="M58.9659 328.129C58.7524 328.248 58.7524 328.555 58.9659 328.674L62.7118 330.76C63.2778 331.075 63.9664 331.075 64.5324 330.76L68.2783 328.674C68.4918 328.555 68.4918 328.248 68.2783 328.129L64.5324 326.043C63.9664 325.728 63.2778 325.728 62.7118 326.043L58.9659 328.129Z" stroke="#E3FFD1" stroke-width="0.93555" stroke-linecap="round" stroke-linejoin="round"/>
<path d="M62.0892 361.62H60.9399C60.5597 361.619 60.1839 361.541 59.8375 361.391C59.4912 361.241 59.1821 361.021 58.9308 360.748C58.6795 360.474 58.4918 360.152 58.3801 359.804C58.2684 359.455 58.2352 359.088 58.2828 358.726C58.3305 358.364 58.4578 358.016 58.6563 357.705C58.8548 357.394 59.1201 357.127 59.4344 356.922C59.7487 356.717 60.1049 356.578 60.4794 356.515C60.8539 356.452 61.2381 356.466 61.6065 356.556" stroke="#252829" stroke-width="0.867982" stroke-linecap="round" stroke-linejoin="round"/>
<path d="M61.3281 357.948C61.3281 357.365 61.4724 356.792 61.749 356.273C62.0256 355.755 62.4266 355.307 62.919 354.967C63.4114 354.627 63.9811 354.403 64.5812 354.315C65.1812 354.228 65.7944 354.278 66.3703 354.462C66.9461 354.646 67.4681 354.959 67.8932 355.374C68.3183 355.79 68.6344 356.296 68.8154 356.852C68.9964 357.408 69.0371 357.997 68.9342 358.57C68.8313 359.144 68.5877 359.686 68.2235 360.152" stroke="#252829" stroke-width="0.867982" stroke-linecap="round" stroke-linejoin="round"/>
<path d="M63.2383 360.152L64.7706 361.621L66.3029 360.152" stroke="#252829" stroke-width="0.867982" stroke-linecap="round" stroke-linejoin="round"/>
<path d="M64.7695 357.946V361.62" stroke="#252829" stroke-width="0.867982" stroke-linecap="round" stroke-linejoin="round"/>
<path d="M62.0898 389.287C62.0898 389.71 62.2513 390.116 62.5386 390.415C62.826 390.714 63.2158 390.882 63.6221 390.882C64.0285 390.882 64.4183 390.714 64.7056 390.415C64.993 390.116 65.1545 389.71 65.1545 389.287" stroke="#252829" stroke-width="0.867982" stroke-linecap="round" stroke-linejoin="round"/>
<path d="M60.174 384.901C60.174 383.949 60.5372 383.036 61.1838 382.363C61.8304 381.69 62.7073 381.312 63.6217 381.312C64.5361 381.312 65.413 381.69 66.0596 382.363C66.7061 383.036 67.0694 383.949 67.0694 384.901C67.0694 386.687 67.4668 388.122 67.7828 388.691C67.8164 388.751 67.8341 388.82 67.8342 388.89C67.8342 388.96 67.8166 389.028 67.7832 389.089C67.7497 389.15 67.7016 389.2 67.6435 389.235C67.5855 389.27 67.5196 389.289 67.4524 389.289H59.7909C59.7239 389.289 59.6581 389.27 59.6002 389.235C59.5423 389.2 59.4943 389.149 59.4609 389.089C59.4276 389.028 59.4101 388.959 59.4102 388.89C59.4103 388.82 59.428 388.751 59.4615 388.691C59.777 388.122 60.174 386.687 60.174 384.901Z" stroke="#252829" stroke-width="0.867982" stroke-linecap="round" stroke-linejoin="round"/>
<rect x="-22.0664" y="50.6406" width="164.1" height="40.5" rx="10.8" fill="#303437"/>
<g clip-path="url(#clip1_6542_19103)">
<path d="M4.36094 74.7407H-2.29613C-2.55373 74.7407 -2.80315 74.6502 -3.00091 74.4852C-3.19866 74.3201 -3.3322 74.0908 -3.37825 73.8373L-5.21388 63.7407H-6.91406" stroke="#E3FFD1" stroke-width="1.1" stroke-linecap="round" stroke-linejoin="round"/>
<path d="M4.35938 77.4907C5.11877 77.4907 5.73438 76.8751 5.73438 76.1157C5.73438 75.3563 5.11877 74.7407 4.35938 74.7407C3.59998 74.7407 2.98438 75.3563 2.98438 76.1157C2.98438 76.8751 3.59998 77.4907 4.35938 77.4907Z" stroke="#E3FFD1" stroke-width="1.1" stroke-linecap="round" stroke-linejoin="round"/>
<path d="M-3.71453 71.9907H4.91703C5.17464 71.9907 5.42406 71.9002 5.62181 71.7351C5.81957 71.5701 5.95311 71.3408 5.99916 71.0873L6.83516 66.4907H-4.71484" stroke="#E3FFD1" stroke-width="1.1" stroke-linecap="round" stroke-linejoin="round"/>
</g>
<path d="M25.9168 74.118C26.4712 74.118 26.9248 73.6644 26.9248 73.11V68.8386C26.9248 68.2716 26.4838 67.8306 25.9168 67.8306H24.9088C24.3418 67.8306 23.9008 68.2842 23.9008 68.8386V73.11C23.9008 73.6644 24.3544 74.118 24.9088 74.118H25.9168ZM22.6408 73.11V68.8386C22.6408 67.5786 23.6614 66.5706 24.9088 66.5706H25.9168C27.1768 66.5706 28.1848 67.5786 28.1848 68.8386V73.11C28.1848 74.3574 27.1768 75.3906 25.9168 75.3906H24.9088C23.6614 75.3906 22.6408 74.3574 22.6408 73.11ZM34.7319 75.3906H33.3459L31.7457 71.8626H30.4479V75.3906H29.1879V66.5706H32.4639C33.7239 66.5706 34.7319 67.5786 34.7319 68.8386V69.5946C34.7319 70.6404 34.0389 71.5098 33.0813 71.7744L34.7319 75.3906ZM30.4479 70.6026H32.4639C33.0309 70.6026 33.4719 70.1616 33.4719 69.5946V68.8386C33.4719 68.2716 33.0309 67.8306 32.4639 67.8306H30.4479V70.6026ZM39.011 66.5706C40.2584 66.5706 41.279 67.5786 41.279 68.8386V73.11C41.279 74.3574 40.2584 75.3906 39.011 75.3906H35.735V66.5706H39.011ZM36.995 74.118H39.011C39.5654 74.118 40.019 73.6644 40.019 73.11V68.8386C40.019 68.2842 39.578 67.8306 39.011 67.8306H36.995V74.118ZM47.826 66.5706V67.8306H43.542V70.1364H47.322V71.3964H43.542V74.1306H47.826V75.3906H42.282V66.5706H47.826ZM54.3731 75.3906H52.9871L51.3869 71.8626H50.0891V75.3906H48.8291V66.5706H52.1051C53.3651 66.5706 54.3731 67.5786 54.3731 68.8386V69.5946C54.3731 70.6404 53.6801 71.5098 52.7225 71.7744L54.3731 75.3906ZM50.0891 70.6026H52.1051C52.6721 70.6026 53.1131 70.1616 53.1131 69.5946V68.8386C53.1131 68.2716 52.6721 67.8306 52.1051 67.8306H50.0891V70.6026ZM64.3551 71.8374L63.1833 69.3426V75.3906H61.9233V66.5706H63.1833L64.6953 69.8592L66.2073 66.5706H67.4673V75.3906H66.2073V69.3426L65.0355 71.8374H64.3551ZM69.7304 75.3906H68.4704V72.4926L70.6124 66.5706H71.8724L74.0144 72.4926V75.3906H72.7544V73.3494H69.7304V75.3906ZM69.9572 72.0894H72.5276L71.255 68.5614H71.2298L69.9572 72.0894ZM79.3014 66.5706H80.5614V75.3906H78.7344L76.2774 68.6874V75.3906H75.0174V66.5706H76.8444L79.3014 73.2738V66.5706ZM82.8245 75.3906H81.5645V72.4926L83.7065 66.5706H84.9665L87.1085 72.4926V75.3906H85.8485V73.3494H82.8245V75.3906ZM83.0513 72.0894H85.6217L84.3491 68.5614H84.3239L83.0513 72.0894ZM90.5056 70.6404H93.6556V73.11C93.6556 74.3574 92.6476 75.3906 91.3876 75.3906H90.3796C89.1322 75.3906 88.1116 74.3574 88.1116 73.11V68.8386C88.1116 67.5786 89.1322 66.5706 90.3796 66.5706H91.3876C92.6476 66.5706 93.6556 67.5786 93.6556 68.8386V69.5316H92.3956V68.8386C92.3956 68.2716 91.9546 67.8306 91.3876 67.8306H90.3796C89.8126 67.8306 89.3716 68.2842 89.3716 68.8386V73.11C89.3716 73.6644 89.8252 74.118 90.3796 74.118H91.3876C91.942 74.118 92.3956 73.6644 92.3956 73.11V71.9004H90.5056V70.6404ZM100.203 66.5706V67.8306H95.9187V70.1364H99.6987V71.3964H95.9187V74.1306H100.203V75.3906H94.6587V66.5706H100.203ZM103.638 71.8374L102.466 69.3426V75.3906H101.206V66.5706H102.466L103.978 69.8592L105.49 66.5706H106.75V75.3906H105.49V69.3426L104.318 71.8374H103.638ZM113.297 66.5706V67.8306H109.013V70.1364H112.793V71.3964H109.013V74.1306H113.297V75.3906H107.753V66.5706H113.297ZM118.584 66.5706H119.844V75.3906H118.017L115.56 68.6874V75.3906H114.3V66.5706H116.127L118.584 73.2738V66.5706ZM120.847 66.5706H126.391V67.8306H124.249V75.3906H122.989V67.8306H120.847V66.5706Z" fill="#E4EDF1"/>
<rect x="143.832" y="50.6406" width="112.1" height="40.5" rx="10.8" fill="#303437"/>
<g clip-path="url(#clip2_6542_19103)">
<path d="M166.682 76.9406V64.2906C166.682 64.1911 166.655 64.0934 166.604 64.0081C166.553 63.9227 166.479 63.8528 166.391 63.8059C166.304 63.759 166.205 63.7368 166.105 63.7416C166.006 63.7465 165.91 63.7782 165.827 63.8334L160.327 67.4999C160.251 67.5502 160.19 67.6184 160.147 67.6984C160.104 67.7784 160.082 67.8678 160.082 67.9584V76.9406" stroke="#9BF7FF" stroke-width="1.1" stroke-linecap="round" stroke-linejoin="round"/>
<path d="M166.684 68.1406H171.634C171.779 68.1406 171.919 68.1986 172.023 68.3017C172.126 68.4049 172.184 68.5448 172.184 68.6906V76.9406" stroke="#9BF7FF" stroke-width="1.1" stroke-linecap="round" stroke-linejoin="round"/>
<path d="M158.434 76.9407H173.834" stroke="#9BF7FF" stroke-width="1.1" stroke-linecap="round" stroke-linejoin="round"/>
<path d="M164.484 69.7905V70.8905" stroke="#9BF7FF" stroke-width="1.1" stroke-linecap="round" stroke-linejoin="round"/>
<path d="M162.281 69.7905V70.8905" stroke="#9BF7FF" stroke-width="1.1" stroke-linecap="round" stroke-linejoin="round"/>
<path d="M162.281 73.6406V74.7406" stroke="#9BF7FF" stroke-width="1.1" stroke-linecap="round" stroke-linejoin="round"/>
<path d="M164.484 73.6406V74.7406" stroke="#9BF7FF" stroke-width="1.1" stroke-linecap="round" stroke-linejoin="round"/>
</g>
<path d="M194.083 66.5706V67.8306H189.799V70.5144H193.579V71.7744H189.799V75.3906H188.539V66.5706H194.083ZM196.346 75.3906H195.086V72.4926L197.228 66.5706H198.488L200.63 72.4926V75.3906H199.37V73.3494H196.346V75.3906ZM196.573 72.0894H199.144L197.871 68.5614H197.846L196.573 72.0894ZM205.917 68.8386C205.917 68.2716 205.476 67.8306 204.909 67.8306H203.901C203.334 67.8306 202.893 68.2842 202.893 68.8386V73.11C202.893 73.6644 203.347 74.118 203.901 74.118H204.909C205.464 74.118 205.917 73.6644 205.917 73.11V72.417H207.177V73.11C207.177 74.3574 206.169 75.3906 204.909 75.3906H203.901C202.654 75.3906 201.633 74.3574 201.633 73.11V68.8386C201.633 67.5786 202.654 66.5706 203.901 66.5706H204.909C206.169 66.5706 207.177 67.5786 207.177 68.8386V69.5316H205.917V68.8386ZM208.18 66.5706H213.724V67.8306H211.582V74.1306H213.724V75.3906H208.18V74.1306H210.322V67.8306H208.18V66.5706ZM215.988 66.5706V74.1306H220.272V75.3906H214.728V66.5706H215.988ZM221.275 66.5706H226.819V67.8306H224.677V74.1306H226.819V75.3906H221.275V74.1306H223.417V67.8306H221.275V66.5706ZM227.822 66.5706H233.366V67.8306H231.224V75.3906H229.964V67.8306H227.822V66.5706ZM236.511 75.3906V72.2532L234.369 69.5946V66.5706H235.629V69.141L237.116 70.9932H237.141L238.653 69.015V66.5706H239.913V69.4434L237.771 72.2532V75.3906H236.511Z" fill="#E4EDF1"/>
<rect x="257.734" y="50.6406" width="77.1235" height="40.5" rx="10.8" fill="#303437"/>
<path d="M276.129 73.0123C278.034 73.0123 279.579 71.4678 279.579 69.5627C279.579 67.6575 278.034 66.113 276.129 66.113C274.224 66.113 272.68 67.6575 272.68 69.5627C272.68 71.4678 274.224 73.0123 276.129 73.0123Z" stroke="#E4EDF1" stroke-width="1.27575" stroke-linecap="round" stroke-linejoin="round"/>
<path d="M271.234 75.6684C271.764 74.8533 272.49 74.1836 273.344 73.7199C274.199 73.2563 275.156 73.0134 276.128 73.0134C277.1 73.0134 278.057 73.2563 278.912 73.7199C279.767 74.1836 280.492 74.8533 281.022 75.6684" stroke="#E4EDF1" stroke-width="1.27575" stroke-linecap="round" stroke-linejoin="round"/>
<path d="M281.965 73.0134C282.937 73.0129 283.894 73.2553 284.749 73.7187C285.603 74.1822 286.329 74.8519 286.859 75.667" stroke="#E4EDF1" stroke-width="1.27575" stroke-linecap="round" stroke-linejoin="round"/>
<path d="M280.688 66.3585C281.159 66.1703 281.667 66.0886 282.174 66.1194C282.681 66.1501 283.175 66.2924 283.621 66.5362C284.067 66.78 284.453 67.1193 284.752 67.5297C285.052 67.9401 285.257 68.4116 285.353 68.9105C285.449 69.4094 285.434 69.9233 285.308 70.4156C285.182 70.9078 284.95 71.3662 284.626 71.7581C284.303 72.15 283.897 72.4656 283.438 72.6824C282.978 72.8992 282.477 73.0118 281.969 73.0123" stroke="#E4EDF1" stroke-width="1.27575" stroke-linecap="round" stroke-linejoin="round"/>
<path d="M304.749 68.8386C304.749 68.2716 304.308 67.8306 303.741 67.8306H302.733C302.166 67.8306 301.725 68.2842 301.725 68.8386V73.11C301.725 73.6644 302.179 74.118 302.733 74.118H303.741C304.295 74.118 304.749 73.6644 304.749 73.11V72.417H306.009V73.11C306.009 74.3574 305.001 75.3906 303.741 75.3906H302.733C301.486 75.3906 300.465 74.3574 300.465 73.11V68.8386C300.465 67.5786 301.486 66.5706 302.733 66.5706H303.741C305.001 66.5706 306.009 67.5786 306.009 68.8386V69.5316H304.749V68.8386ZM312.556 75.3906H311.17L309.57 71.8626H308.272V75.3906H307.012V66.5706H310.288C311.548 66.5706 312.556 67.5786 312.556 68.8386V69.5946C312.556 70.6404 311.863 71.5098 310.906 71.7744L312.556 75.3906ZM308.272 70.6026H310.288C310.855 70.6026 311.296 70.1616 311.296 69.5946V68.8386C311.296 68.2716 310.855 67.8306 310.288 67.8306H308.272V70.6026ZM315.991 71.8374L314.819 69.3426V75.3906H313.559V66.5706H314.819L316.331 69.8592L317.843 66.5706H319.103V75.3906H317.843V69.3426L316.671 71.8374H315.991Z" fill="#E4EDF1"/>
<rect x="336.656" y="50.6406" width="79.1" height="40.5" rx="10.8" fill="#303437"/>
<g clip-path="url(#clip3_6542_19103)">
<path d="M366.109 73.0906H351.809" stroke="#E4EDF1" stroke-width="1.1" stroke-linecap="round" stroke-linejoin="round"/>
<path d="M351.809 73.0907L353.355 66.9073C353.385 66.7884 353.453 66.6827 353.55 66.6072C353.647 66.5318 353.766 66.4907 353.888 66.4907H364.029C364.152 66.4907 364.271 66.5318 364.367 66.6072C364.464 66.6827 364.533 66.7884 364.562 66.9073L366.109 73.0907V75.2907C366.109 75.4366 366.051 75.5765 365.948 75.6796C365.844 75.7828 365.704 75.8407 365.559 75.8407H352.359C352.213 75.8407 352.073 75.7828 351.97 75.6796C351.867 75.5765 351.809 75.4366 351.809 75.2907V73.0907Z" stroke="#E4EDF1" stroke-width="1.1" stroke-linecap="round" stroke-linejoin="round"/>
<path d="M355.105 68.6907H356.205" stroke="#E4EDF1" stroke-width="1.1" stroke-linecap="round" stroke-linejoin="round"/>
<path d="M358.406 68.6907H359.506" stroke="#E4EDF1" stroke-width="1.1" stroke-linecap="round" stroke-linejoin="round"/>
<path d="M361.707 68.6907H362.807" stroke="#E4EDF1" stroke-width="1.1" stroke-linecap="round" stroke-linejoin="round"/>
<path d="M355.105 70.8906H356.205" stroke="#E4EDF1" stroke-width="1.1" stroke-linecap="round" stroke-linejoin="round"/>
<path d="M358.406 70.8906H359.506" stroke="#E4EDF1" stroke-width="1.1" stroke-linecap="round" stroke-linejoin="round"/>
<path d="M361.707 70.8906H362.807" stroke="#E4EDF1" stroke-width="1.1" stroke-linecap="round" stroke-linejoin="round"/>
<path d="M355.105 66.4905V64.8405C355.105 64.6947 355.163 64.5548 355.267 64.4516C355.37 64.3485 355.51 64.2905 355.655 64.2905H358.405C358.551 64.2905 358.691 64.3485 358.794 64.4516C358.898 64.5548 358.955 64.6947 358.955 64.8405V66.4905" stroke="#E4EDF1" stroke-width="1.1" stroke-linecap="round" stroke-linejoin="round"/>
</g>
<path d="M386.907 69.5946C386.907 70.8546 385.899 71.8626 384.639 71.8626H382.623V75.3906H381.363V66.5706H384.639C385.899 66.5706 386.907 67.5786 386.907 68.8386V69.5946ZM382.623 70.6026H384.639C385.206 70.6026 385.647 70.1616 385.647 69.5946V68.8386C385.647 68.2716 385.206 67.8306 384.639 67.8306H382.623V70.6026ZM391.187 74.118C391.741 74.118 392.195 73.6644 392.195 73.11V68.8386C392.195 68.2716 391.754 67.8306 391.187 67.8306H390.179C389.612 67.8306 389.171 68.2842 389.171 68.8386V73.11C389.171 73.6644 389.624 74.118 390.179 74.118H391.187ZM387.911 73.11V68.8386C387.911 67.5786 388.931 66.5706 390.179 66.5706H391.187C392.447 66.5706 393.455 67.5786 393.455 68.8386V73.11C393.455 74.3574 392.447 75.3906 391.187 75.3906H390.179C388.931 75.3906 387.911 74.3574 387.911 73.11ZM394.458 72.543H395.718V73.047C395.718 73.6392 396.209 74.1306 396.801 74.1306H397.645C398.288 74.1306 398.742 73.7274 398.742 73.173C398.742 71.4342 394.584 71.0562 394.584 68.6622C394.584 67.4274 395.554 66.5706 396.927 66.5706H397.519C398.817 66.5706 399.876 67.6164 399.876 68.9142V69.2922H398.616V68.9142C398.616 68.3094 398.124 67.8306 397.519 67.8306H396.927C396.247 67.8306 395.844 68.1456 395.844 68.6622C395.844 69.9978 400.002 70.5144 400.002 73.173C400.002 74.433 398.981 75.3906 397.645 75.3906H396.801C395.503 75.3906 394.458 74.3448 394.458 73.047V72.543Z" fill="#E4EDF1"/>
<rect x="-35.7656" y="92.9407" width="91.6867" height="40.5" rx="10.8" fill="#303437"/>
<path d="M14.0715 115.41C14.0715 116.657 13.0509 117.691 11.8035 117.691H10.7955C9.53553 117.691 8.52753 116.657 8.52753 115.41V108.871H9.78753V115.41C9.78753 115.964 10.2411 116.418 10.7955 116.418H11.8035C12.3579 116.418 12.8115 115.964 12.8115 115.41V108.871H14.0715V115.41ZM15.0746 114.843H16.3346V115.347C16.3346 115.939 16.826 116.431 17.4182 116.431H18.2624C18.905 116.431 19.3586 116.027 19.3586 115.473C19.3586 113.734 15.2006 113.356 15.2006 110.962C15.2006 109.727 16.1708 108.871 17.5442 108.871H18.1364C19.4342 108.871 20.4926 109.916 20.4926 111.214V111.592H19.2326V111.214C19.2326 110.609 18.7412 110.131 18.1364 110.131H17.5442C16.8638 110.131 16.4606 110.446 16.4606 110.962C16.4606 112.298 20.6186 112.814 20.6186 115.473C20.6186 116.733 19.598 117.691 18.2624 117.691H17.4182C16.1204 117.691 15.0746 116.645 15.0746 115.347V114.843ZM27.1657 108.871V110.131H22.8817V112.436H26.6617V113.696H22.8817V116.431H27.1657V117.691H21.6217V108.871H27.1657ZM33.7128 117.691H32.3268L30.7266 114.163H29.4288V117.691H28.1688V108.871H31.4448C32.7048 108.871 33.7128 109.879 33.7128 111.139V111.895C33.7128 112.94 33.0198 113.81 32.0622 114.074L33.7128 117.691ZM29.4288 112.903H31.4448C32.0118 112.903 32.4528 112.462 32.4528 111.895V111.139C32.4528 110.572 32.0118 110.131 31.4448 110.131H29.4288V112.903ZM34.7158 114.843H35.9758V115.347C35.9758 115.939 36.4672 116.431 37.0594 116.431H37.9036C38.5462 116.431 38.9998 116.027 38.9998 115.473C38.9998 113.734 34.8418 113.356 34.8418 110.962C34.8418 109.727 35.812 108.871 37.1854 108.871H37.7776C39.0754 108.871 40.1338 109.916 40.1338 111.214V111.592H38.8738V111.214C38.8738 110.609 38.3824 110.131 37.7776 110.131H37.1854C36.505 110.131 36.1018 110.446 36.1018 110.962C36.1018 112.298 40.2598 112.814 40.2598 115.473C40.2598 116.733 39.2392 117.691 37.9036 117.691H37.0594C35.7616 117.691 34.7158 116.645 34.7158 115.347V114.843Z" fill="#E4EDF1"/>
<rect x="57.7188" y="92.9407" width="139.7" height="40.5" rx="10.8" fill="#303437"/>
<g clip-path="url(#clip4_6542_19103)">
<path d="M82.0187 114.391L80.2188 116.191" stroke="#FEE09F" stroke-width="1.2" stroke-linecap="round" stroke-linejoin="round"/>
<path d="M79.6203 111.991L77.8203 113.791" stroke="#FEE09F" stroke-width="1.2" stroke-linecap="round" stroke-linejoin="round"/>
<path d="M76.0195 111.991L82.0195 117.991" stroke="#FEE09F" stroke-width="1.2" stroke-linecap="round" stroke-linejoin="round"/>
<path d="M75.574 118.436L73.0195 120.991" stroke="#FEE09F" stroke-width="1.2" stroke-linecap="round" stroke-linejoin="round"/>
<path d="M81.1198 117.091L78.9448 119.266C78.6072 119.603 78.1494 119.793 77.672 119.793C77.1947 119.793 76.7369 119.603 76.3993 119.266L74.7448 117.609C74.4079 117.271 74.2188 116.814 74.2188 116.337C74.2188 115.86 74.4079 115.403 74.7448 115.066L76.9198 112.891" stroke="#FEE09F" stroke-width="1.2" stroke-linecap="round" stroke-linejoin="round"/>
<path d="M79.6211 108.391L85.6211 114.391" stroke="#FEE09F" stroke-width="1.2" stroke-linecap="round" stroke-linejoin="round"/>
<path d="M86.0664 107.945L88.6209 105.391" stroke="#FEE09F" stroke-width="1.2" stroke-linecap="round" stroke-linejoin="round"/>
<path d="M84.7195 113.491L86.8945 111.316C87.2321 110.978 87.4217 110.52 87.4217 110.043C87.4217 109.566 87.2321 109.108 86.8945 108.77L85.2378 107.116C84.9003 106.779 84.443 106.59 83.9662 106.59C83.4893 106.59 83.032 106.779 82.6945 107.116L80.5195 109.291" stroke="#FEE09F" stroke-width="1.2" stroke-linecap="round" stroke-linejoin="round"/>
</g>
<path d="M104.028 108.871H109.572V110.131H107.43V116.431H109.572V117.691H104.028V116.431H106.17V110.131H104.028V108.871ZM114.859 108.871H116.119V117.691H114.292L111.835 110.987V117.691H110.575V108.871H112.402L114.859 115.574V108.871ZM117.122 108.871H122.666V110.131H120.524V117.691H119.264V110.131H117.122V108.871ZM129.213 108.871V110.131H124.929V112.436H128.709V113.696H124.929V116.431H129.213V117.691H123.669V108.871H129.213ZM132.61 112.94H135.76V115.41C135.76 116.657 134.752 117.691 133.492 117.691H132.484C131.236 117.691 130.216 116.657 130.216 115.41V111.139C130.216 109.879 131.236 108.871 132.484 108.871H133.492C134.752 108.871 135.76 109.879 135.76 111.139V111.832H134.5V111.139C134.5 110.572 134.059 110.131 133.492 110.131H132.484C131.917 110.131 131.476 110.584 131.476 111.139V115.41C131.476 115.964 131.929 116.418 132.484 116.418H133.492C134.046 116.418 134.5 115.964 134.5 115.41V114.2H132.61V112.94ZM142.307 117.691H140.921L139.321 114.163H138.023V117.691H136.763V108.871H140.039C141.299 108.871 142.307 109.879 142.307 111.139V111.895C142.307 112.94 141.614 113.81 140.656 114.074L142.307 117.691ZM138.023 112.903H140.039C140.606 112.903 141.047 112.462 141.047 111.895V111.139C141.047 110.572 140.606 110.131 140.039 110.131H138.023V112.903ZM144.57 117.691H143.31V114.793L145.452 108.871H146.712L148.854 114.793V117.691H147.594V115.649H144.57V117.691ZM144.797 114.389H147.367L146.095 110.861H146.069L144.797 114.389ZM149.857 108.871H155.401V110.131H153.259V117.691H151.999V110.131H149.857V108.871ZM156.404 108.871H161.948V110.131H159.806V116.431H161.948V117.691H156.404V116.431H158.546V110.131H156.404V108.871ZM166.227 116.418C166.782 116.418 167.235 115.964 167.235 115.41V111.139C167.235 110.572 166.794 110.131 166.227 110.131H165.219C164.652 110.131 164.211 110.584 164.211 111.139V115.41C164.211 115.964 164.665 116.418 165.219 116.418H166.227ZM162.951 115.41V111.139C162.951 109.879 163.972 108.871 165.219 108.871H166.227C167.487 108.871 168.495 109.879 168.495 111.139V115.41C168.495 116.657 167.487 117.691 166.227 117.691H165.219C163.972 117.691 162.951 116.657 162.951 115.41ZM173.782 108.871H175.042V117.691H173.215L170.758 110.987V117.691H169.498V108.871H171.325L173.782 115.574V108.871ZM176.045 114.843H177.305V115.347C177.305 115.939 177.797 116.431 178.389 116.431H179.233C179.876 116.431 180.329 116.027 180.329 115.473C180.329 113.734 176.171 113.356 176.171 110.962C176.171 109.727 177.142 108.871 178.515 108.871H179.107C180.405 108.871 181.463 109.916 181.463 111.214V111.592H180.203V111.214C180.203 110.609 179.712 110.131 179.107 110.131H178.515C177.835 110.131 177.431 110.446 177.431 110.962C177.431 112.298 181.589 112.814 181.589 115.473C181.589 116.733 180.569 117.691 179.233 117.691H178.389C177.091 117.691 176.045 116.645 176.045 115.347V114.843Z" fill="#E4EDF1"/>
<rect x="199.219" y="92.9407" width="109.35" height="40.5" rx="10.8" fill="#92A6B0"/>
<path opacity="0.2" d="M212.719 116.734L219.268 120.381C219.813 120.684 220.475 120.684 221.019 120.381L227.569 116.734" stroke="#252829" stroke-width="1.35" stroke-linecap="round" stroke-linejoin="round"/>
<path opacity="0.5" d="M212.719 113.191L219.268 116.837C219.813 117.141 220.475 117.141 221.019 116.837L227.569 113.191" stroke="#252829" stroke-width="1.35" stroke-linecap="round" stroke-linejoin="round"/>
<path d="M213.425 109.254C213.117 109.425 213.117 109.868 213.425 110.04L218.83 113.05C219.647 113.505 220.641 113.505 221.457 113.05L226.863 110.04C227.171 109.868 227.171 109.425 226.863 109.254L221.457 106.244C220.641 105.789 219.647 105.789 218.83 106.244L213.425 109.254Z" stroke="#252829" stroke-width="1.35" stroke-linecap="round" stroke-linejoin="round"/>
<path d="M246.72 111.895C246.72 113.155 245.712 114.163 244.452 114.163H242.436V117.691H241.176V108.871H244.452C245.712 108.871 246.72 109.879 246.72 111.139V111.895ZM242.436 112.903H244.452C245.019 112.903 245.46 112.462 245.46 111.895V111.139C245.46 110.572 245.019 110.131 244.452 110.131H242.436V112.903ZM253.267 117.691H251.881L250.281 114.163H248.983V117.691H247.723V108.871H250.999C252.259 108.871 253.267 109.879 253.267 111.139V111.895C253.267 112.94 252.574 113.81 251.616 114.074L253.267 117.691ZM248.983 112.903H250.999C251.566 112.903 252.007 112.462 252.007 111.895V111.139C252.007 110.572 251.566 110.131 250.999 110.131H248.983V112.903ZM257.546 116.418C258.101 116.418 258.554 115.964 258.554 115.41V111.139C258.554 110.572 258.113 110.131 257.546 110.131H256.538C255.971 110.131 255.53 110.584 255.53 111.139V115.41C255.53 115.964 255.984 116.418 256.538 116.418H257.546ZM254.27 115.41V111.139C254.27 109.879 255.291 108.871 256.538 108.871H257.546C258.806 108.871 259.814 109.879 259.814 111.139V115.41C259.814 116.657 258.806 117.691 257.546 117.691H256.538C255.291 117.691 254.27 116.657 254.27 115.41ZM264.093 108.871C265.341 108.871 266.361 109.879 266.361 111.139V115.41C266.361 116.657 265.341 117.691 264.093 117.691H260.817V108.871H264.093ZM262.077 116.418H264.093C264.648 116.418 265.101 115.964 265.101 115.41V111.139C265.101 110.584 264.66 110.131 264.093 110.131H262.077V116.418ZM272.908 115.41C272.908 116.657 271.888 117.691 270.64 117.691H269.632C268.372 117.691 267.364 116.657 267.364 115.41V108.871H268.624V115.41C268.624 115.964 269.078 116.418 269.632 116.418H270.64C271.195 116.418 271.648 115.964 271.648 115.41V108.871H272.908V115.41ZM278.195 111.139C278.195 110.572 277.754 110.131 277.187 110.131H276.179C275.612 110.131 275.171 110.584 275.171 111.139V115.41C275.171 115.964 275.625 116.418 276.179 116.418H277.187C277.742 116.418 278.195 115.964 278.195 115.41V114.717H279.455V115.41C279.455 116.657 278.447 117.691 277.187 117.691H276.179C274.932 117.691 273.911 116.657 273.911 115.41V111.139C273.911 109.879 274.932 108.871 276.179 108.871H277.187C278.447 108.871 279.455 109.879 279.455 111.139V111.832H278.195V111.139ZM280.458 108.871H286.002V110.131H283.86V117.691H282.6V110.131H280.458V108.871ZM287.006 114.843H288.266V115.347C288.266 115.939 288.757 116.431 289.349 116.431H290.193C290.836 116.431 291.29 116.027 291.29 115.473C291.29 113.734 287.132 113.356 287.132 110.962C287.132 109.727 288.102 108.871 289.475 108.871H290.067C291.365 108.871 292.424 109.916 292.424 111.214V111.592H291.164V111.214C291.164 110.609 290.672 110.131 290.067 110.131H289.475C288.795 110.131 288.392 110.446 288.392 110.962C288.392 112.298 292.55 112.814 292.55 115.473C292.55 116.733 291.529 117.691 290.193 117.691H289.349C288.051 117.691 287.006 116.645 287.006 115.347V114.843Z" fill="#252829"/>
<rect x="310.371" y="92.9407" width="99.1" height="40.5" rx="10.8" fill="#303437"/>
<path fill-rule="evenodd" clip-rule="evenodd" d="M327.658 110.483C328.259 111.82 329.389 113.42 330.916 114.947C332.443 116.474 334.043 117.604 335.38 118.205C336.05 118.507 336.626 118.663 337.078 118.687C337.53 118.712 337.792 118.604 337.938 118.457C338.085 118.31 338.193 118.048 338.169 117.596C338.144 117.145 337.988 116.569 337.686 115.898C337.085 114.562 335.955 112.961 334.429 111.434C332.902 109.907 331.301 108.778 329.965 108.177C329.294 107.875 328.718 107.719 328.267 107.694C327.815 107.67 327.553 107.778 327.406 107.924C327.259 108.071 327.151 108.333 327.175 108.785C327.2 109.237 327.356 109.813 327.658 110.483ZM326.077 108.845C326.043 108.211 326.182 107.592 326.628 107.147C327.074 106.701 327.692 106.561 328.326 106.596C328.96 106.63 329.675 106.84 330.416 107.173C331.902 107.842 333.61 109.06 335.206 110.657C336.803 112.253 338.021 113.96 338.689 115.447C339.023 116.188 339.233 116.902 339.267 117.537C339.302 118.171 339.162 118.789 338.716 119.235C338.271 119.681 337.652 119.82 337.018 119.786C336.384 119.751 335.67 119.542 334.928 119.208C333.442 118.539 331.734 117.321 330.138 115.725C328.542 114.129 327.324 112.421 326.655 110.935C326.321 110.193 326.112 109.479 326.077 108.845Z" fill="#FBCDCD"/>
<path fill-rule="evenodd" clip-rule="evenodd" d="M327.175 117.596C327.151 118.048 327.259 118.31 327.406 118.457C327.553 118.604 327.815 118.712 328.267 118.687C328.718 118.663 329.294 118.506 329.965 118.205C331.301 117.603 332.902 116.474 334.429 114.947C335.955 113.42 337.085 111.82 337.686 110.483C337.988 109.813 338.144 109.236 338.169 108.785C338.193 108.333 338.085 108.071 337.938 107.924C337.792 107.777 337.53 107.669 337.078 107.694C336.626 107.718 336.05 107.875 335.38 108.176C334.043 108.778 332.443 109.907 330.916 111.434C329.389 112.961 328.259 114.561 327.658 115.898C327.356 116.568 327.2 117.145 327.175 117.596ZM326.655 115.447C327.324 113.96 328.542 112.253 330.138 110.656C331.734 109.06 333.442 107.842 334.928 107.173C335.67 106.84 336.384 106.63 337.018 106.595C337.652 106.561 338.271 106.701 338.716 107.146C339.162 107.592 339.302 108.211 339.267 108.845C339.233 109.479 339.023 110.193 338.689 110.934C338.021 112.421 336.803 114.128 335.206 115.725C333.61 117.321 331.902 118.539 330.416 119.208C329.675 119.542 328.96 119.751 328.326 119.786C327.692 119.82 327.074 119.68 326.628 119.235C326.182 118.789 326.043 118.17 326.077 117.536C326.112 116.902 326.321 116.188 326.655 115.447Z" fill="#FBCDCD"/>
<path d="M332.673 114.016C333.128 114.016 333.498 113.646 333.498 113.191C333.498 112.735 333.128 112.366 332.673 112.366C332.217 112.366 331.848 112.735 331.848 113.191C331.848 113.646 332.217 114.016 332.673 114.016Z" fill="#FBCDCD"/>
<path d="M360.622 108.871V110.131H356.338V112.436H360.118V113.696H356.338V116.431H360.622V117.691H355.078V108.871H360.622ZM365.909 108.871H367.169V111.769L365.027 117.691H363.767L361.625 111.769V108.871H362.885V111.542L364.385 115.7H364.41L365.909 111.542V108.871ZM373.716 108.871V110.131H369.432V112.436H373.212V113.696H369.432V116.431H373.716V117.691H368.172V108.871H373.716ZM379.004 108.871H380.264V117.691H378.437L375.98 110.987V117.691H374.72V108.871H376.547L379.004 115.574V108.871ZM381.267 108.871H386.811V110.131H384.669V117.691H383.409V110.131H381.267V108.871ZM387.814 114.843H389.074V115.347C389.074 115.939 389.565 116.431 390.157 116.431H391.002C391.644 116.431 392.098 116.027 392.098 115.473C392.098 113.734 387.94 113.356 387.94 110.962C387.94 109.727 388.91 108.871 390.283 108.871H390.876C392.173 108.871 393.232 109.916 393.232 111.214V111.592H391.972V111.214C391.972 110.609 391.48 110.131 390.876 110.131H390.283C389.603 110.131 389.2 110.446 389.2 110.962C389.2 112.298 393.358 112.814 393.358 115.473C393.358 116.733 392.337 117.691 391.002 117.691H390.157C388.86 117.691 387.814 116.645 387.814 115.347V114.843Z" fill="#E4EDF1"/>
<rect x="327.369" y="251.022" width="60.7531" height="18.1531" rx="5.2" stroke="#5F6F77" stroke-opacity="0.3" stroke-width="0.8"/>
<path d="M337.242 257.021V263.175" stroke="#252829" stroke-width="0.8"/>
<path d="M334.168 260.098L340.321 260.098" stroke="#252829" stroke-width="0.8"/>
<path d="M347.506 263.098H346.626V261.074L348.122 256.938H349.002L350.498 261.074V263.098H349.618V261.673H347.506V263.098ZM347.664 260.793H349.459L348.571 258.329H348.553L347.664 260.793ZM353.39 256.938C354.262 256.938 354.974 257.642 354.974 258.522V261.505C354.974 262.377 354.262 263.098 353.39 263.098H351.102V256.938H353.39ZM351.982 262.209H353.39C353.778 262.209 354.094 261.893 354.094 261.505V258.522C354.094 258.135 353.786 257.818 353.39 257.818H351.982V262.209ZM357.867 256.938C358.738 256.938 359.451 257.642 359.451 258.522V261.505C359.451 262.377 358.738 263.098 357.867 263.098H355.579V256.938H357.867ZM356.459 262.209H357.867C358.254 262.209 358.571 261.893 358.571 261.505V258.522C358.571 258.135 358.263 257.818 357.867 257.818H356.459V262.209ZM367.524 256.938H368.404V263.098H367.128L365.412 258.417V263.098H364.532V256.938H365.808L367.524 261.62V256.938ZM372.881 256.938V257.818H369.889V259.429H372.529V260.309H369.889V262.218H372.881V263.098H369.009V256.938H372.881ZM375.782 258.522L376.266 261.294L376.477 258.698V256.938H377.357V258.962L376.829 263.098H376.125L375.421 260.467L374.717 263.098H374.013L373.485 258.962V256.938H374.365V258.698L374.576 261.294L375.06 258.522H375.782Z" fill="#252829"/>
<path d="M107.472 255.022V263.622H105.776V255.022H107.472ZM109.227 260.708H107.051V259.199H108.853C109.344 259.199 109.711 259.086 109.953 258.86C110.202 258.626 110.327 258.29 110.327 257.853C110.327 257.417 110.202 257.085 109.953 256.859C109.711 256.633 109.348 256.52 108.865 256.52H106.993V255.022H109.227C109.805 255.022 110.308 255.139 110.737 255.373C111.173 255.607 111.513 255.939 111.755 256.368C111.996 256.797 112.117 257.292 112.117 257.853C112.117 258.423 111.996 258.922 111.755 259.351C111.513 259.772 111.173 260.104 110.737 260.346C110.308 260.587 109.805 260.708 109.227 260.708ZM116.592 257.795V259.304H116.042C115.528 259.304 115.122 259.437 114.826 259.702C114.529 259.967 114.381 260.385 114.381 260.954V263.622H112.778V257.818H114.287L114.416 259.047H114.276C114.354 258.657 114.533 258.337 114.814 258.087C115.095 257.838 115.469 257.713 115.937 257.713C116.046 257.713 116.152 257.721 116.253 257.736C116.362 257.744 116.475 257.764 116.592 257.795ZM116.67 260.708C116.67 260.1 116.806 259.566 117.079 259.105C117.352 258.637 117.726 258.275 118.202 258.017C118.678 257.76 119.224 257.631 119.84 257.631C120.449 257.631 120.987 257.76 121.455 258.017C121.931 258.275 122.305 258.637 122.578 259.105C122.851 259.566 122.988 260.1 122.988 260.708C122.988 261.317 122.851 261.851 122.578 262.311C122.305 262.764 121.931 263.118 121.455 263.376C120.987 263.633 120.449 263.762 119.84 263.762C119.224 263.762 118.678 263.633 118.202 263.376C117.726 263.118 117.352 262.764 117.079 262.311C116.806 261.851 116.67 261.317 116.67 260.708ZM118.296 260.697C118.296 261.016 118.362 261.301 118.495 261.551C118.627 261.792 118.807 261.98 119.033 262.112C119.267 262.245 119.536 262.311 119.84 262.311C120.144 262.311 120.41 262.245 120.636 262.112C120.862 261.98 121.038 261.792 121.162 261.551C121.295 261.301 121.361 261.016 121.361 260.697C121.361 260.369 121.295 260.084 121.162 259.842C121.038 259.601 120.862 259.413 120.636 259.281C120.41 259.148 120.144 259.082 119.84 259.082C119.536 259.082 119.267 259.148 119.033 259.281C118.807 259.413 118.627 259.601 118.495 259.842C118.362 260.084 118.296 260.369 118.296 260.697ZM126.129 263.774C125.568 263.774 125.08 263.649 124.667 263.399C124.261 263.142 123.945 262.787 123.719 262.335C123.493 261.882 123.38 261.352 123.38 260.743C123.38 260.127 123.493 259.585 123.719 259.117C123.953 258.649 124.281 258.286 124.702 258.029C125.131 257.764 125.638 257.631 126.223 257.631C126.613 257.631 126.968 257.705 127.288 257.853C127.615 257.994 127.869 258.193 128.048 258.45V254.858H129.663V263.622H128.153L128.06 262.791C127.896 263.087 127.639 263.325 127.288 263.505C126.944 263.684 126.558 263.774 126.129 263.774ZM126.504 262.299C126.808 262.299 127.073 262.233 127.299 262.101C127.533 261.96 127.713 261.769 127.837 261.527C127.97 261.285 128.036 261.005 128.036 260.685C128.036 260.357 127.97 260.076 127.837 259.842C127.713 259.601 127.533 259.413 127.299 259.281C127.073 259.14 126.808 259.07 126.504 259.07C126.199 259.07 125.934 259.14 125.708 259.281C125.482 259.421 125.306 259.612 125.182 259.854C125.065 260.088 125.006 260.365 125.006 260.685C125.006 261.005 125.065 261.285 125.182 261.527C125.306 261.761 125.482 261.948 125.708 262.089C125.934 262.229 126.199 262.299 126.504 262.299ZM134.622 257.807H136.237V263.622H134.728L134.611 262.908C134.439 263.165 134.182 263.376 133.838 263.54C133.503 263.696 133.152 263.774 132.785 263.774C132.122 263.774 131.6 263.567 131.218 263.154C130.843 262.732 130.656 262.163 130.656 261.445V257.807H132.271V260.872C132.271 261.387 132.364 261.761 132.551 261.995C132.746 262.221 133.035 262.335 133.417 262.335C133.838 262.335 134.143 262.214 134.33 261.972C134.525 261.73 134.622 261.352 134.622 260.837V257.807ZM136.857 260.697C136.857 260.096 136.982 259.566 137.231 259.105C137.489 258.645 137.836 258.286 138.273 258.029C138.717 257.764 139.228 257.631 139.805 257.631C140.632 257.631 141.307 257.846 141.83 258.275C142.352 258.696 142.645 259.273 142.707 260.006H141.081C141.011 259.686 140.87 259.452 140.66 259.304C140.457 259.148 140.192 259.07 139.864 259.07C139.591 259.07 139.349 259.137 139.139 259.269C138.928 259.402 138.764 259.589 138.647 259.831C138.538 260.073 138.483 260.361 138.483 260.697C138.483 261.032 138.538 261.324 138.647 261.574C138.756 261.816 138.912 262.003 139.115 262.136C139.318 262.26 139.56 262.323 139.841 262.323C140.176 262.323 140.449 262.245 140.66 262.089C140.878 261.933 141.022 261.703 141.092 261.399H142.707C142.66 261.867 142.508 262.28 142.251 262.639C141.993 262.99 141.658 263.267 141.245 263.469C140.831 263.672 140.363 263.774 139.841 263.774C139.24 263.774 138.713 263.645 138.261 263.388C137.816 263.13 137.469 262.771 137.22 262.311C136.978 261.851 136.857 261.313 136.857 260.697ZM142.819 257.807H146.668V259.152H142.819V257.807ZM145.545 263.622H143.942V255.993H145.545V263.622ZM146.733 261.82H148.254C148.27 262.046 148.359 262.225 148.523 262.358C148.687 262.491 148.917 262.557 149.214 262.557C149.526 262.557 149.756 262.502 149.904 262.393C150.06 262.284 150.138 262.14 150.138 261.96C150.138 261.843 150.099 261.738 150.021 261.644C149.943 261.551 149.783 261.477 149.541 261.422L148.488 261.188C147.958 261.063 147.56 260.872 147.295 260.615C147.037 260.357 146.909 259.983 146.909 259.491C146.909 259.101 147.01 258.77 147.213 258.497C147.423 258.216 147.704 258.002 148.055 257.853C148.414 257.705 148.824 257.631 149.284 257.631C149.728 257.631 150.118 257.709 150.454 257.865C150.789 258.021 151.05 258.243 151.238 258.532C151.433 258.821 151.53 259.16 151.53 259.55H149.997C149.997 259.324 149.927 259.144 149.787 259.012C149.654 258.879 149.463 258.813 149.214 258.813C148.972 258.813 148.781 258.867 148.64 258.977C148.508 259.086 148.441 259.234 148.441 259.421C148.441 259.71 148.668 259.905 149.12 260.006L150.185 260.24C150.676 260.349 151.047 260.529 151.296 260.778C151.546 261.02 151.671 261.367 151.671 261.82C151.671 262.218 151.561 262.565 151.343 262.861C151.132 263.157 150.84 263.384 150.465 263.54C150.091 263.696 149.654 263.774 149.155 263.774C148.414 263.774 147.825 263.594 147.388 263.235C146.952 262.877 146.733 262.405 146.733 261.82Z" fill="#252829"/>
<path d="M106.176 291.271C106.176 287.096 109.561 283.711 113.736 283.711H221.453C225.628 283.711 229.013 287.096 229.013 291.271V376.506C229.013 380.681 225.628 384.066 221.453 384.066H113.736C109.561 384.066 106.176 380.681 106.176 376.506V291.271Z" fill="#A2B5BE"/>
<path d="M125.41 332.033C125.41 333.423 124.273 334.574 122.883 334.574H121.76C120.356 334.574 119.233 333.423 119.233 332.033V324.746H120.637V332.033C120.637 332.651 121.142 333.156 121.76 333.156H122.883C123.501 333.156 124.006 332.651 124.006 332.033V324.746H125.41V332.033ZM131.301 324.746H132.705V334.574H130.67L127.932 327.105V334.574H126.528V324.746H128.564L131.301 332.215V324.746ZM135.227 324.746V333.17H140.001V334.574H133.823V324.746H135.227ZM141.119 324.746H147.296V326.15H144.909V333.17H147.296V334.574H141.119V333.17H143.505V326.15H141.119V324.746ZM151.124 330.615L149.818 327.835V334.574H148.414V324.746H149.818L151.503 328.411L153.187 324.746H154.591V334.574H153.187V327.835L151.882 330.615H151.124ZM155.709 324.746H161.887V326.15H159.5V333.17H161.887V334.574H155.709V333.17H158.096V326.15H155.709V324.746ZM163.004 324.746H169.182V326.15H166.795V334.574H165.391V326.15H163.004V324.746ZM176.477 324.746V326.15H171.704V328.72H175.916V330.124H171.704V333.17H176.477V334.574H170.3V324.746H176.477ZM181.245 324.746C182.635 324.746 183.773 325.869 183.773 327.273V332.033C183.773 333.423 182.635 334.574 181.245 334.574H177.595V324.746H181.245ZM178.999 333.156H181.245C181.863 333.156 182.369 332.651 182.369 332.033V327.273C182.369 326.656 181.877 326.15 181.245 326.15H178.999V333.156Z" fill="#313334" fill-opacity="0.3"/>
<path d="M125.41 349.033C125.41 350.423 124.273 351.574 122.883 351.574H121.76C120.356 351.574 119.233 350.423 119.233 349.033V341.746H120.637V349.033C120.637 349.651 121.142 350.156 121.76 350.156H122.883C123.501 350.156 124.006 349.651 124.006 349.033V341.746H125.41V349.033ZM127.932 341.746V350.17H132.705V351.574H126.528V341.746H127.932ZM133.823 341.746H140.001V343.15H137.614V351.574H136.21V343.15H133.823V341.746ZM147.296 351.574H145.752L143.969 347.643H142.523V351.574H141.119V341.746H144.769C146.173 341.746 147.296 342.869 147.296 344.273V345.116C147.296 346.281 146.524 347.25 145.457 347.545L147.296 351.574ZM142.523 346.239H144.769C145.401 346.239 145.892 345.748 145.892 345.116V344.273C145.892 343.642 145.401 343.15 144.769 343.15H142.523V346.239ZM149.818 351.574H148.414V348.345L150.801 341.746H152.205L154.591 348.345V351.574H153.187V349.3H149.818V351.574ZM150.071 347.896H152.935L151.517 343.965H151.489L150.071 347.896Z" fill="#313334"/>
<g opacity="0.4">
<rect x="117.039" y="294.988" width="56.0116" height="10.3094" rx="5.15471" fill="#D5E1E7"/>
</g>
<rect x="188.285" y="305.383" width="10.4807" height="10.4807" rx="5.24036" transform="rotate(-90 188.285 305.383)" fill="#C8F3AD"/>
<path fill-rule="evenodd" clip-rule="evenodd" d="M194.11 300.081L192.516 301.676L191.942 301.101L193.536 299.507L191.962 299.507L191.962 298.695L194.272 298.695C194.631 298.695 194.922 298.986 194.922 299.345L194.922 301.676L194.11 301.676L194.11 300.081Z" fill="#313334"/>
<path d="M356.172 291.271C356.172 287.096 359.557 283.711 363.732 283.711H471.449C475.624 283.711 479.009 287.096 479.009 291.271V376.506C479.009 380.681 475.624 384.066 471.449 384.066H363.732C359.557 384.066 356.172 380.681 356.172 376.506V291.271Z" fill="#A2B5BE"/>
<rect x="231.172" y="283.71" width="122.837" height="100.355" rx="7.56" fill="#A2B5BE"/>
<path d="M250.406 332.033C250.406 333.423 249.269 334.574 247.879 334.574H246.756C245.352 334.574 244.229 333.423 244.229 332.033V324.746H245.633V332.033C245.633 332.65 246.138 333.156 246.756 333.156H247.879C248.497 333.156 249.002 332.65 249.002 332.033V324.746H250.406V332.033ZM256.298 324.746H257.702V334.574H255.666L252.928 327.105V334.574H251.524V324.746H253.56L256.298 332.215V324.746ZM260.223 324.746V333.17H264.997V334.574H258.819V324.746H260.223ZM266.115 324.746H272.292V326.15H269.905V333.17H272.292V334.574H266.115V333.17H268.501V326.15H266.115V324.746ZM276.12 330.615L274.814 327.835V334.574H273.41V324.746H274.814L276.499 328.41L278.184 324.746H279.588V334.574H278.184V327.835L276.878 330.615H276.12ZM280.705 324.746H286.883V326.15H284.496V333.17H286.883V334.574H280.705V333.17H283.092V326.15H280.705V324.746ZM288.001 324.746H294.178V326.15H291.791V334.574H290.387V326.15H288.001V324.746ZM301.473 324.746V326.15H296.7V328.719H300.912V330.123H296.7V333.17H301.473V334.574H295.296V324.746H301.473ZM306.242 324.746C307.632 324.746 308.769 325.869 308.769 327.273V332.033C308.769 333.423 307.632 334.574 306.242 334.574H302.591V324.746H306.242ZM303.995 333.156H306.242C306.859 333.156 307.365 332.65 307.365 332.033V327.273C307.365 326.655 306.873 326.15 306.242 326.15H303.995V333.156Z" fill="#313334" fill-opacity="0.3"/>
<path d="M246.938 347.615L245.633 344.835V351.574H244.229V341.746H245.633L247.317 345.41L249.002 341.746H250.406V351.574H249.002V344.835L247.697 347.615H246.938ZM257.702 341.746V343.15H252.928V345.719H257.14V347.123H252.928V350.17H257.702V351.574H251.524V341.746H257.702ZM262.47 341.746C263.86 341.746 264.997 342.869 264.997 344.273V349.033C264.997 350.423 263.86 351.574 262.47 351.574H258.819V341.746H262.47ZM260.223 350.156H262.47C263.087 350.156 263.593 349.65 263.593 349.033V344.273C263.593 343.655 263.101 343.15 262.47 343.15H260.223V350.156ZM266.115 341.746H272.292V343.15H269.905V350.17H272.292V351.574H266.115V350.17H268.501V343.15H266.115V341.746ZM279.588 349.033C279.588 350.423 278.45 351.574 277.06 351.574H275.937C274.533 351.574 273.41 350.423 273.41 349.033V341.746H274.814V349.033C274.814 349.65 275.319 350.156 275.937 350.156H277.06C277.678 350.156 278.184 349.65 278.184 349.033V341.746H279.588V349.033ZM283.415 347.615L282.109 344.835V351.574H280.705V341.746H282.109L283.794 345.41L285.479 341.746H286.883V351.574H285.479V344.835L284.173 347.615H283.415Z" fill="#313334"/>
<g opacity="0.4">
<rect x="242.133" y="294.911" width="42.12" height="10.8" rx="5.4" fill="#D5E1E7"/>
</g>
<rect x="283.02" y="300.142" width="10.4807" height="10.4807" rx="5.24036" transform="rotate(-45 283.02 300.142)" fill="#9BF7FF"/>
<path fill-rule="evenodd" clip-rule="evenodd" d="M290.883 300.511L288.629 300.511L288.629 299.699L290.883 299.699L289.771 298.586L290.345 298.012L291.978 299.646C292.232 299.899 292.232 300.311 291.978 300.564L290.33 302.212L289.756 301.638L290.883 300.511Z" fill="#313334"/>
<path d="M375.406 332.032C375.406 333.422 374.269 334.573 372.879 334.573H371.756C370.352 334.573 369.229 333.422 369.229 332.032V324.745H370.633V332.032C370.633 332.65 371.138 333.155 371.756 333.155H372.879C373.497 333.155 374.002 332.65 374.002 332.032V324.745H375.406V332.032ZM381.298 324.745H382.702V334.573H380.666L377.928 327.104V334.573H376.524V324.745H378.56L381.298 332.215V324.745ZM385.223 324.745V333.169H389.997V334.573H383.819V324.745H385.223ZM391.115 324.745H397.292V326.149H394.905V333.169H397.292V334.573H391.115V333.169H393.501V326.149H391.115V324.745ZM401.12 330.614L399.814 327.834V334.573H398.41V324.745H399.814L401.499 328.41L403.184 324.745H404.588V334.573H403.184V327.834L401.878 330.614H401.12ZM405.705 324.745H411.883V326.149H409.496V333.169H411.883V334.573H405.705V333.169H408.092V326.149H405.705V324.745ZM413.001 324.745H419.178V326.149H416.791V334.573H415.387V326.149H413.001V324.745ZM426.473 324.745V326.149H421.7V328.719H425.912V330.123H421.7V333.169H426.473V334.573H420.296V324.745H426.473ZM431.242 324.745C432.632 324.745 433.769 325.868 433.769 327.272V332.032C433.769 333.422 432.632 334.573 431.242 334.573H427.591V324.745H431.242ZM428.995 333.155H431.242C431.859 333.155 432.365 332.65 432.365 332.032V327.272C432.365 326.655 431.873 326.149 431.242 326.149H428.995V333.155Z" fill="#313334" fill-opacity="0.3"/>
<path d="M370.633 341.745V350.169H375.406V351.573H369.229V341.745H370.633ZM376.524 341.745H382.702V343.149H380.315V350.169H382.702V351.573H376.524V350.169H378.911V343.149H376.524V341.745ZM386.487 346.28H389.997V349.032C389.997 350.422 388.874 351.573 387.47 351.573H386.346C384.957 351.573 383.819 350.422 383.819 349.032V344.272C383.819 342.868 384.957 341.745 386.346 341.745H387.47C388.874 341.745 389.997 342.868 389.997 344.272V345.045H388.593V344.272C388.593 343.641 388.101 343.149 387.47 343.149H386.346C385.715 343.149 385.223 343.655 385.223 344.272V349.032C385.223 349.65 385.729 350.155 386.346 350.155H387.47C388.087 350.155 388.593 349.65 388.593 349.032V347.684H386.487V346.28ZM392.519 341.745V345.676H395.888V341.745H397.292V351.573H395.888V347.08H392.519V351.573H391.115V341.745H392.519ZM398.41 341.745H404.588V343.149H402.201V351.573H400.797V343.149H398.41V341.745Z" fill="#313334"/>
<g opacity="0.45">
<rect x="367.039" y="294.988" width="56.0116" height="10.3094" rx="5.15471" fill="#D5E1E7"/>
</g>
</g>
<defs>
<clipPath id="clip0_6542_19103">
<rect width="400" height="401" fill="white" transform="translate(0.800781 0.046875)"/>
</clipPath>
<clipPath id="clip1_6542_19103">
<rect width="17.6" height="17.6" fill="white" transform="translate(-8.56641 62.0906)"/>
</clipPath>
<clipPath id="clip2_6542_19103">
<rect width="17.6" height="17.6" fill="white" transform="translate(157.332 62.0906)"/>
</clipPath>
<clipPath id="clip3_6542_19103">
<rect width="17.6" height="17.6" fill="white" transform="translate(350.156 62.0906)"/>
</clipPath>
<clipPath id="clip4_6542_19103">
<rect width="19.2" height="19.2" fill="white" transform="translate(71.2188 103.591)"/>
</clipPath>
</defs>
</svg>
