<svg width="541" height="440" viewBox="0 0 541 440" fill="none" xmlns="http://www.w3.org/2000/svg">
<g clip-path="url(#clip0_6536_8754)">
<path fill-rule="evenodd" clip-rule="evenodd" d="M46.1426 15.9784C46.1426 8.20227 52.4464 1.89844 60.2226 1.89844H187.578C195.354 1.89844 201.658 8.20227 201.658 15.9784V73.6084C201.658 82.445 208.822 89.6084 217.658 89.6084H421.138C427.942 89.6084 433.458 95.1243 433.458 101.928V258.798C433.458 267.634 440.622 274.798 449.458 274.798H468.518C476.294 274.798 482.598 281.102 482.598 288.878V351.844C482.598 359.62 476.294 365.924 468.518 365.924H449.458C440.622 365.924 433.458 373.087 433.458 381.924V568.634C433.458 575.438 427.942 580.954 421.138 580.954H197.266C190.462 580.954 184.946 575.438 184.946 568.634V194.143C184.946 185.306 177.783 178.143 168.946 178.143H60.2226C52.4464 178.143 46.1426 171.839 46.1426 164.063V15.9784Z" fill="#E4EDF1"/>
<rect x="209.977" y="110.614" width="90.0538" height="17.0672" rx="4.02688" fill="#D5E1E7"/>
<path opacity="0.7" d="M216.752 119.809L215.816 117.815V122.648H214.809V115.601H215.816L217.024 118.228L218.232 115.601H219.239V122.648H218.232V117.815L217.296 119.809H216.752ZM223.262 121.631C223.705 121.631 224.067 121.268 224.067 120.826V117.413C224.067 116.96 223.715 116.607 223.262 116.607H222.456C222.003 116.607 221.651 116.97 221.651 117.413V120.826C221.651 121.268 222.013 121.631 222.456 121.631H223.262ZM220.644 120.826V117.413C220.644 116.406 221.46 115.601 222.456 115.601H223.262C224.269 115.601 225.074 116.406 225.074 117.413V120.826C225.074 121.822 224.269 122.648 223.262 122.648H222.456C221.46 122.648 220.644 121.822 220.644 120.826ZM230.708 117.815C230.708 118.279 230.536 118.711 230.245 119.024C230.647 119.356 230.909 119.859 230.909 120.433V120.836C230.909 121.842 230.104 122.648 229.097 122.648H226.479V115.601H228.895C229.902 115.601 230.708 116.406 230.708 117.413V117.815ZM227.486 121.641H229.097C229.55 121.641 229.902 121.289 229.902 120.836V120.433C229.902 119.98 229.55 119.628 229.097 119.628H227.486V121.641ZM227.486 118.621H228.895C229.349 118.621 229.701 118.268 229.701 117.815V117.413C229.701 116.96 229.349 116.607 228.895 116.607H227.486V118.621ZM232.314 115.601H236.744V116.607H235.033V121.641H236.744V122.648H232.314V121.641H234.026V116.607H232.314V115.601ZM239.156 115.601V121.641H242.579V122.648H238.149V115.601H239.156ZM248.414 115.601V116.607H244.991V118.45H248.011V119.456H244.991V121.641H248.414V122.648H243.984V115.601H248.414ZM250.826 122.648H249.82V120.332L251.531 115.601H252.538L254.249 120.332V122.648H253.242V121.017H250.826V122.648ZM251.007 120.01H253.061L252.044 117.191H252.024L251.007 120.01ZM260.084 118.017C260.084 119.024 259.279 119.829 258.272 119.829H256.661V122.648H255.655V115.601H258.272C259.279 115.601 260.084 116.406 260.084 117.413V118.017ZM256.661 118.822H258.272C258.725 118.822 259.077 118.47 259.077 118.017V117.413C259.077 116.96 258.725 116.607 258.272 116.607H256.661V118.822ZM265.919 118.017C265.919 119.024 265.114 119.829 264.107 119.829H262.496V122.648H261.49V115.601H264.107C265.114 115.601 265.919 116.406 265.919 117.413V118.017ZM262.496 118.822H264.107C264.56 118.822 264.912 118.47 264.912 118.017V117.413C264.912 116.96 264.56 116.607 264.107 116.607H262.496V118.822ZM275.777 121.631C276.22 121.631 276.583 121.268 276.583 120.826V117.413C276.583 116.96 276.23 116.607 275.777 116.607H274.972C274.519 116.607 274.166 116.97 274.166 117.413V120.826C274.166 121.268 274.529 121.631 274.972 121.631H275.777ZM273.16 120.826V117.413C273.16 116.406 273.975 115.601 274.972 115.601H275.777C276.784 115.601 277.589 116.406 277.589 117.413V120.826C277.589 121.822 276.784 122.648 275.777 122.648H274.972C273.975 122.648 273.16 121.822 273.16 120.826ZM282.418 115.601H283.424V122.648H281.965L280.001 117.292V122.648H278.995V115.601H280.454L282.418 120.956V115.601ZM285.837 115.601V121.641H289.259V122.648H284.83V115.601H285.837ZM292.376 122.648V120.141L290.665 118.017V115.601H291.672V117.654L292.859 119.134H292.88L294.088 117.554V115.601H295.094V117.896L293.383 120.141V122.648H292.376Z" fill="#252829"/>
<rect x="301.967" y="127.62" width="16.9442" height="16.9441" rx="8.47207" transform="rotate(-90 301.967 127.62)" fill="#C8F3AD"/>
<path fill-rule="evenodd" clip-rule="evenodd" d="M311.382 119.047L308.805 121.624L307.877 120.696L310.454 118.119L307.91 118.119L307.91 116.806L311.645 116.806C312.225 116.806 312.695 117.276 312.695 117.856L312.695 121.624L311.382 121.624L311.382 119.047Z" fill="#313334"/>
<rect x="68.2227" y="19.8665" width="55.3538" height="16.6672" rx="4.02688" fill="#D5E1E7"/>
<path opacity="0.7" d="M73.6085 28.5086H74.9172V27.1999H75.9239V28.5086H77.2326V29.5154H75.9239V30.8241H74.9172V29.5154H73.6085V28.5086ZM85.8826 31.7H84.8759V29.3845L86.5873 24.6529H87.594L89.3054 29.3845V31.7H88.2987V30.0691H85.8826V31.7ZM86.0638 29.0623H88.1175L87.1007 26.2435H87.0806L86.0638 29.0623ZM93.3284 24.6529C94.325 24.6529 95.1405 25.4583 95.1405 26.465V29.8778C95.1405 30.8744 94.325 31.7 93.3284 31.7H90.7109V24.6529H93.3284ZM91.7176 30.6832H93.3284C93.7713 30.6832 94.1337 30.3207 94.1337 29.8778V26.465C94.1337 26.0221 93.7814 25.6596 93.3284 25.6596H91.7176V30.6832ZM99.1634 24.6529C100.16 24.6529 100.976 25.4583 100.976 26.465V29.8778C100.976 30.8744 100.16 31.7 99.1634 31.7H96.5459V24.6529H99.1634ZM97.5527 30.6832H99.1634C99.6064 30.6832 99.9688 30.3207 99.9688 29.8778V26.465C99.9688 26.0221 99.6164 25.6596 99.1634 25.6596H97.5527V30.6832ZM104.998 30.6832C105.441 30.6832 105.804 30.3207 105.804 29.8778V26.465C105.804 26.012 105.451 25.6596 104.998 25.6596H104.193C103.74 25.6596 103.388 26.0221 103.388 26.465V29.8778C103.388 30.3207 103.75 30.6832 104.193 30.6832H104.998ZM102.381 29.8778V26.465C102.381 25.4583 103.196 24.6529 104.193 24.6529H104.998C106.005 24.6529 106.811 25.4583 106.811 26.465V29.8778C106.811 30.8744 106.005 31.7 104.998 31.7H104.193C103.196 31.7 102.381 30.8744 102.381 29.8778ZM111.639 24.6529H112.646V31.7H111.186L109.223 26.3442V31.7H108.216V24.6529H109.676L111.639 30.0087V24.6529ZM114.051 29.4248H115.058V29.8275C115.058 30.3006 115.45 30.6932 115.924 30.6932H116.598C117.111 30.6932 117.474 30.3711 117.474 29.9281C117.474 28.5389 114.152 28.2368 114.152 26.3241C114.152 25.3375 114.927 24.6529 116.024 24.6529H116.497C117.534 24.6529 118.38 25.4885 118.38 26.5254V26.8274H117.373V26.5254C117.373 26.0422 116.981 25.6596 116.497 25.6596H116.024C115.481 25.6596 115.158 25.9113 115.158 26.3241C115.158 27.3912 118.481 27.8039 118.481 29.9281C118.481 30.9348 117.665 31.7 116.598 31.7H115.924C114.887 31.7 114.051 30.8644 114.051 29.8275V29.4248Z" fill="#252829"/>
<rect x="67.4863" y="50.2715" width="51.5135" height="51.3368" rx="7.128" fill="black"/>
<g clip-path="url(#clip1_6536_8754)">
<path d="M86.9727 63.9724L87.0542 88.0642C88.7826 87.7255 90.1418 87.7625 91.6758 87.6216V64.0001L86.9727 63.9724Z" fill="url(#paint0_linear_6536_8754)"/>
<path d="M95.3455 64H100.049L100.103 88.0088L95.3184 87.2066L95.3455 64Z" fill="url(#paint1_linear_6536_8754)"/>
<path d="M87.0273 64C87.1361 64.2766 95.1831 87.5662 95.1831 87.5662C96.5054 87.5566 98.2784 87.7763 100.022 87.9811L91.6489 64H87.0273Z" fill="#E50914"/>
</g>
<g opacity="0.2">
<rect x="106.182" y="52.4961" width="10.5299" height="10.5299" rx="5.26494" fill="#D5E1E7"/>
</g>
<path d="M109.678 57.7288H113.219" stroke="white" stroke-width="0.792"/>
<rect x="122.52" y="50.2715" width="51.5135" height="51.3368" rx="7.128" fill="white"/>
<g clip-path="url(#clip2_6536_8754)">
<path d="M158.3 70.8634C158.143 70.9804 155.376 72.4806 155.376 75.8164C155.376 79.6748 158.897 81.0398 159.003 81.0736C158.986 81.1568 158.443 82.943 157.146 84.763C155.989 86.3646 154.781 87.9636 152.943 87.9636C151.105 87.9636 150.632 86.9366 148.511 86.9366C146.443 86.9366 145.708 87.9974 144.027 87.9974C142.346 87.9974 141.173 86.5154 139.824 84.6954C138.262 82.5582 137 79.238 137 76.0868C137 71.0324 140.416 68.3518 143.778 68.3518C145.565 68.3518 147.054 69.4802 148.176 69.4802C149.243 69.4802 150.908 68.2842 152.941 68.2842C153.711 68.2842 156.478 68.3518 158.3 70.8634ZM151.976 66.1444C152.816 65.185 153.411 63.8538 153.411 62.5226C153.411 62.338 153.395 62.1508 153.359 62C151.992 62.0494 150.365 62.8762 149.384 63.9708C148.614 64.8132 147.895 66.1444 147.895 67.4938C147.895 67.6966 147.93 67.8994 147.946 67.9644C148.032 67.98 148.173 67.9982 148.314 67.9982C149.541 67.9982 151.084 67.2078 151.976 66.1444Z" fill="black"/>
</g>
<g opacity="0.2">
<rect x="161" y="52.4963" width="10.5299" height="10.5299" rx="5.26494" fill="#92A6B0"/>
</g>
<path d="M164.496 57.7288H168.037" stroke="black" stroke-width="0.792"/>
<rect x="67.4863" y="105.128" width="51.5135" height="51.3368" rx="7.128" fill="white"/>
<rect x="67.4863" y="105.128" width="51.5135" height="51.3368" rx="7.128" fill="#1ED760"/>
<g opacity="0.2">
<rect x="106.182" y="108.231" width="10.5299" height="10.5299" rx="5.26494" fill="white"/>
</g>
<path d="M109.678 113.467H113.219" stroke="black" stroke-width="0.792"/>
<g clip-path="url(#clip3_6536_8754)">
<path d="M92.5 118.422C85.0478 118.422 79 124.281 79 131.5C79 138.719 85.0478 144.578 92.5 144.578C99.9522 144.578 106 138.719 106 131.5C106 124.281 99.9522 118.422 92.5 118.422Z" fill="black"/>
<path d="M101.134 130.187C100.851 130.187 100.676 130.118 100.431 129.981C96.5556 127.74 89.626 127.202 85.1405 128.415C84.9445 128.468 84.6996 128.552 84.4383 128.552C83.7197 128.552 83.1699 128.009 83.1699 127.308C83.1699 126.59 83.6272 126.184 84.1171 126.047C86.0332 125.504 88.178 125.246 90.5133 125.246C94.4871 125.246 98.6514 126.047 101.694 127.766C102.119 128.004 102.397 128.331 102.397 128.958C102.397 129.675 101.798 130.187 101.134 130.187ZM99.4461 134.205C99.1631 134.205 98.9725 134.084 98.7766 133.984C95.3744 132.033 90.301 131.247 85.7883 132.433C85.527 132.502 85.3854 132.57 85.1405 132.57C84.558 132.57 84.0844 132.112 84.0844 131.547C84.0844 130.983 84.3675 130.609 84.9282 130.456C86.4415 130.044 87.9875 129.739 90.252 129.739C93.7848 129.739 97.1979 130.588 99.8871 132.138C100.328 132.391 100.502 132.718 100.502 133.177C100.497 133.746 100.039 134.205 99.4461 134.205ZM97.9818 137.665C97.7532 137.665 97.6117 137.596 97.3994 137.475C94.0026 135.492 90.0506 135.408 86.1475 136.183C85.9352 136.235 85.6576 136.32 85.4998 136.32C84.9717 136.32 84.6397 135.914 84.6397 135.487C84.6397 134.943 84.9717 134.685 85.38 134.601C89.8383 133.646 94.3945 133.731 98.2812 135.982C98.6133 136.188 98.8092 136.373 98.8092 136.852C98.8092 137.332 98.4227 137.665 97.9818 137.665Z" fill="#1ED760"/>
</g>
<rect opacity="0.56" x="122.52" y="105.128" width="51.5137" height="51.3369" rx="8.1" stroke="#92A6B0" stroke-width="0.9" stroke-linecap="round" stroke-dasharray="2.7 4.5"/>
<path d="M143.035 130.798H153.521" stroke="#252829" stroke-width="0.9"/>
<path d="M148.266 136.042L148.266 125.555" stroke="#252829" stroke-width="0.9"/>
<path d="M212.072 147.373H222.632V149.773H218.552V164.173H216.152V149.773H212.072V147.373ZM230.783 161.749C231.839 161.749 232.703 160.885 232.703 159.829V151.693C232.703 150.613 231.863 149.773 230.783 149.773H228.863C227.783 149.773 226.943 150.637 226.943 151.693V159.829C226.943 160.885 227.807 161.749 228.863 161.749H230.783ZM224.543 159.829V151.693C224.543 149.293 226.487 147.373 228.863 147.373H230.783C233.183 147.373 235.103 149.293 235.103 151.693V159.829C235.103 162.205 233.183 164.173 230.783 164.173H228.863C226.487 164.173 224.543 162.205 224.543 159.829ZM237.014 147.373H247.574V149.773H243.494V164.173H241.094V149.773H237.014V147.373ZM251.884 164.173H249.484V158.653L253.564 147.373H255.964L260.044 158.653V164.173H257.644V160.285H251.884V164.173ZM252.316 157.885H257.212L254.788 151.165H254.74L252.316 157.885ZM264.355 147.373V161.773H272.515V164.173H261.955V147.373H264.355ZM222.632 182.829C222.632 185.205 220.688 187.173 218.312 187.173H216.392C213.992 187.173 212.072 185.205 212.072 182.829V170.373H214.472V182.829C214.472 183.885 215.336 184.749 216.392 184.749H218.312C219.368 184.749 220.232 183.885 220.232 182.829V170.373H222.632V182.829ZM232.703 170.373H235.103V187.173H231.623L226.943 174.405V187.173H224.543V170.373H228.023L232.703 183.141V170.373ZM239.414 170.373V184.773H247.574V187.173H237.014V170.373H239.414ZM249.484 170.373H260.044V172.773H255.964V184.773H260.044V187.173H249.484V184.773H253.564V172.773H249.484V170.373ZM266.587 180.405L264.355 175.653V187.173H261.955V170.373H264.355L267.235 176.637L270.115 170.373H272.515V187.173H270.115V175.653L267.883 180.405H266.587ZM274.425 170.373H284.985V172.773H280.905V184.773H284.985V187.173H274.425V184.773H278.505V172.773H274.425V170.373ZM286.896 170.373H297.456V172.773H293.376V187.173H290.976V172.773H286.896V170.373ZM309.927 170.373V172.773H301.767V177.165H308.967V179.565H301.767V184.773H309.927V187.173H299.367V170.373H309.927ZM318.077 170.373C320.453 170.373 322.397 172.293 322.397 174.693V182.829C322.397 185.205 320.453 187.173 318.077 187.173H311.837V170.373H318.077ZM314.237 184.749H318.077C319.133 184.749 319.997 183.885 319.997 182.829V174.693C319.997 173.637 319.157 172.773 318.077 172.773H314.237V184.749Z" fill="#252829"/>
<path fill-rule="evenodd" clip-rule="evenodd" d="M225.805 215.005L220.796 220.014L217.191 216.409L218.784 214.816L220.796 216.828L224.212 213.412L225.805 215.005Z" fill="#B1C5CE"/>
<path d="M237.345 212.589V217.591C237.345 219.398 238.08 220.301 239.55 220.301C241.037 220.301 241.78 219.398 241.78 217.591V212.589H242.852V217.529C242.852 218.761 242.568 219.698 242.002 220.338C241.443 220.971 240.626 221.287 239.55 221.287C238.474 221.287 237.657 220.971 237.098 220.338C236.548 219.698 236.273 218.761 236.273 217.529V212.589H237.345ZM247.288 214.856C248.052 214.856 248.664 215.086 249.124 215.546C249.592 216.006 249.826 216.728 249.826 217.714V221.213H248.816V217.776C248.816 217.127 248.668 216.634 248.372 216.297C248.085 215.952 247.666 215.78 247.116 215.78C246.524 215.78 246.06 215.985 245.724 216.396C245.387 216.806 245.219 217.365 245.219 218.071V221.213H244.208V214.93H245.083L245.219 215.78C245.695 215.164 246.385 214.856 247.288 214.856ZM250.991 212.589H252.001V221.213H250.991V212.589ZM253.767 212.503C253.956 212.503 254.112 212.564 254.235 212.687C254.359 212.811 254.42 212.967 254.42 213.156C254.42 213.345 254.359 213.501 254.235 213.624C254.112 213.747 253.956 213.809 253.767 213.809C253.578 213.809 253.422 213.747 253.299 213.624C253.176 213.501 253.114 213.345 253.114 213.156C253.114 212.967 253.176 212.811 253.299 212.687C253.422 212.564 253.578 212.503 253.767 212.503ZM253.262 214.93H254.272V221.213H253.262V214.93ZM262.543 214.856C263.249 214.856 263.82 215.078 264.256 215.521C264.699 215.965 264.921 216.654 264.921 217.591V221.213H263.911V217.652C263.911 217.045 263.779 216.581 263.516 216.26C263.262 215.94 262.896 215.78 262.42 215.78C261.894 215.78 261.48 215.965 261.176 216.334C260.88 216.704 260.732 217.209 260.732 217.85V221.213H259.722V217.652C259.722 217.045 259.59 216.581 259.328 216.26C259.065 215.94 258.691 215.78 258.206 215.78C257.697 215.78 257.291 215.977 256.987 216.371C256.691 216.757 256.543 217.266 256.543 217.899V221.213H255.533V214.93H256.408L256.543 215.792C256.995 215.168 257.607 214.856 258.379 214.856C258.831 214.856 259.229 214.958 259.574 215.164C259.927 215.361 260.19 215.657 260.362 216.051C260.814 215.254 261.541 214.856 262.543 214.856ZM266.599 212.503C266.788 212.503 266.944 212.564 267.067 212.687C267.19 212.811 267.252 212.967 267.252 213.156C267.252 213.345 267.19 213.501 267.067 213.624C266.944 213.747 266.788 213.809 266.599 213.809C266.41 213.809 266.254 213.747 266.131 213.624C266.007 213.501 265.946 213.345 265.946 213.156C265.946 212.967 266.007 212.811 266.131 212.687C266.254 212.564 266.41 212.503 266.599 212.503ZM266.094 214.93H267.104V221.213H266.094V214.93ZM268.783 215.854H267.65V214.93H268.783V213.168H269.794V214.93H271.383V215.854H269.794V219.562C269.794 219.825 269.843 220.014 269.942 220.129C270.048 220.236 270.229 220.289 270.484 220.289H271.58V221.213H270.422C269.831 221.213 269.408 221.081 269.153 220.819C268.907 220.556 268.783 220.141 268.783 219.574V215.854ZM271.797 218.071C271.797 217.431 271.921 216.868 272.167 216.383C272.422 215.899 272.775 215.525 273.227 215.262C273.678 214.991 274.196 214.856 274.779 214.856C275.354 214.856 275.863 214.975 276.307 215.213C276.75 215.451 277.099 215.796 277.354 216.248C277.608 216.7 277.744 217.229 277.76 217.837C277.76 217.928 277.752 218.071 277.736 218.268H272.857V218.355C272.873 218.971 273.062 219.463 273.424 219.833C273.785 220.203 274.257 220.387 274.841 220.387C275.292 220.387 275.674 220.277 275.986 220.055C276.307 219.825 276.52 219.509 276.627 219.106H277.649C277.526 219.747 277.218 220.272 276.725 220.683C276.233 221.086 275.629 221.287 274.914 221.287C274.29 221.287 273.744 221.155 273.276 220.893C272.808 220.622 272.442 220.244 272.179 219.759C271.925 219.266 271.797 218.704 271.797 218.071ZM276.713 217.431C276.664 216.897 276.463 216.482 276.109 216.186C275.765 215.891 275.325 215.743 274.791 215.743C274.315 215.743 273.896 215.899 273.535 216.211C273.173 216.523 272.968 216.93 272.919 217.431H276.713ZM284.753 212.589V221.213H283.878L283.743 220.203C283.217 220.925 282.498 221.287 281.587 221.287C281.003 221.287 280.482 221.16 280.022 220.905C279.57 220.65 279.213 220.281 278.95 219.796C278.695 219.312 278.568 218.737 278.568 218.071C278.568 217.439 278.695 216.88 278.95 216.396C279.213 215.911 279.574 215.533 280.034 215.262C280.494 214.991 281.012 214.856 281.587 214.856C282.096 214.856 282.531 214.95 282.892 215.139C283.254 215.32 283.537 215.57 283.743 215.891V212.589H284.753ZM281.685 220.387C282.088 220.387 282.445 220.293 282.757 220.104C283.077 219.907 283.324 219.636 283.496 219.291C283.669 218.938 283.755 218.539 283.755 218.096C283.755 217.644 283.669 217.242 283.496 216.889C283.324 216.527 283.077 216.248 282.757 216.051C282.445 215.854 282.088 215.755 281.685 215.755C281.061 215.755 280.556 215.973 280.17 216.408C279.792 216.835 279.603 217.39 279.603 218.071C279.603 218.753 279.792 219.312 280.17 219.747C280.556 220.174 281.061 220.387 281.685 220.387ZM296.117 214.856C296.823 214.856 297.394 215.078 297.83 215.521C298.273 215.965 298.495 216.654 298.495 217.591V221.213H297.485V217.652C297.485 217.045 297.353 216.581 297.09 216.26C296.836 215.94 296.47 215.78 295.994 215.78C295.468 215.78 295.053 215.965 294.75 216.334C294.454 216.704 294.306 217.209 294.306 217.85V221.213H293.296V217.652C293.296 217.045 293.164 216.581 292.902 216.26C292.639 215.94 292.265 215.78 291.78 215.78C291.271 215.78 290.865 215.977 290.561 216.371C290.265 216.757 290.117 217.266 290.117 217.899V221.213H289.107V214.93H289.982L290.117 215.792C290.569 215.168 291.181 214.856 291.953 214.856C292.405 214.856 292.803 214.958 293.148 215.164C293.501 215.361 293.764 215.657 293.936 216.051C294.388 215.254 295.115 214.856 296.117 214.856ZM300.173 212.503C300.362 212.503 300.518 212.564 300.641 212.687C300.764 212.811 300.826 212.967 300.826 213.156C300.826 213.345 300.764 213.501 300.641 213.624C300.518 213.747 300.362 213.809 300.173 213.809C299.984 213.809 299.828 213.747 299.704 213.624C299.581 213.501 299.52 213.345 299.52 213.156C299.52 212.967 299.581 212.811 299.704 212.687C299.828 212.564 299.984 212.503 300.173 212.503ZM299.668 214.93H300.678V221.213H299.668V214.93ZM305.019 214.856C305.782 214.856 306.394 215.086 306.854 215.546C307.322 216.006 307.556 216.728 307.556 217.714V221.213H306.546V217.776C306.546 217.127 306.398 216.634 306.103 216.297C305.815 215.952 305.396 215.78 304.846 215.78C304.255 215.78 303.791 215.985 303.454 216.396C303.117 216.806 302.949 217.365 302.949 218.071V221.213H301.939V214.93H302.813L302.949 215.78C303.425 215.164 304.115 214.856 305.019 214.856ZM314.13 214.93V221.213H313.255L313.12 220.375C312.643 220.983 311.974 221.287 311.111 221.287C310.364 221.287 309.764 221.057 309.313 220.597C308.861 220.137 308.635 219.414 308.635 218.429V214.93H309.645V218.367C309.645 219.016 309.785 219.513 310.064 219.858C310.352 220.194 310.758 220.363 311.284 220.363C311.859 220.363 312.306 220.157 312.627 219.747C312.955 219.336 313.12 218.778 313.12 218.071V214.93H314.13ZM315.827 215.854H314.693V214.93H315.827V213.168H316.837V214.93H318.426V215.854H316.837V219.562C316.837 219.825 316.886 220.014 316.985 220.129C317.091 220.236 317.272 220.289 317.527 220.289H318.623V221.213H317.465C316.874 221.213 316.451 221.081 316.196 220.819C315.95 220.556 315.827 220.141 315.827 219.574V215.854ZM318.841 218.071C318.841 217.431 318.964 216.868 319.21 216.383C319.465 215.899 319.818 215.525 320.27 215.262C320.721 214.991 321.239 214.856 321.822 214.856C322.397 214.856 322.906 214.975 323.35 215.213C323.793 215.451 324.142 215.796 324.397 216.248C324.652 216.7 324.787 217.229 324.803 217.837C324.803 217.928 324.795 218.071 324.779 218.268H319.9V218.355C319.917 218.971 320.105 219.463 320.467 219.833C320.828 220.203 321.301 220.387 321.884 220.387C322.335 220.387 322.717 220.277 323.029 220.055C323.35 219.825 323.563 219.509 323.67 219.106H324.693C324.569 219.747 324.261 220.272 323.769 220.683C323.276 221.086 322.672 221.287 321.958 221.287C321.333 221.287 320.787 221.155 320.319 220.893C319.851 220.622 319.485 220.244 319.223 219.759C318.968 219.266 318.841 218.704 318.841 218.071ZM323.756 217.431C323.707 216.897 323.506 216.482 323.153 216.186C322.808 215.891 322.368 215.743 321.834 215.743C321.358 215.743 320.939 215.899 320.578 216.211C320.216 216.523 320.011 216.93 319.962 217.431H323.756ZM326.597 219.143C326.614 219.521 326.778 219.829 327.09 220.067C327.411 220.305 327.821 220.424 328.322 220.424C328.766 220.424 329.123 220.338 329.394 220.166C329.673 219.985 329.813 219.751 329.813 219.463C329.813 219.217 329.747 219.028 329.616 218.897C329.484 218.765 329.312 218.675 329.098 218.626C328.893 218.576 328.597 218.527 328.211 218.478C327.669 218.412 327.226 218.326 326.881 218.219C326.536 218.112 326.257 217.944 326.043 217.714C325.83 217.476 325.723 217.151 325.723 216.741C325.723 216.371 325.825 216.043 326.031 215.755C326.244 215.468 326.532 215.246 326.893 215.09C327.255 214.926 327.661 214.843 328.113 214.843C328.852 214.843 329.452 215.016 329.912 215.361C330.38 215.706 330.638 216.199 330.688 216.839H329.677C329.636 216.511 329.476 216.24 329.197 216.026C328.918 215.813 328.569 215.706 328.15 215.706C327.723 215.706 327.378 215.796 327.115 215.977C326.852 216.149 326.721 216.379 326.721 216.667C326.721 216.88 326.782 217.045 326.905 217.16C327.029 217.275 327.185 217.353 327.374 217.394C327.571 217.435 327.866 217.48 328.261 217.529C328.811 217.595 329.263 217.685 329.616 217.8C329.977 217.915 330.265 218.1 330.478 218.355C330.7 218.609 330.811 218.954 330.811 219.39C330.811 219.767 330.7 220.1 330.478 220.387C330.257 220.675 329.957 220.897 329.579 221.053C329.201 221.209 328.782 221.287 328.322 221.287C327.501 221.287 326.84 221.098 326.339 220.72C325.846 220.342 325.595 219.817 325.587 219.143H326.597Z" fill="#5F6F77"/>
<path fill-rule="evenodd" clip-rule="evenodd" d="M225.805 242.765L220.796 247.774L217.191 244.169L218.784 242.576L220.796 244.588L224.212 241.172L225.805 242.765Z" fill="#B1C5CE"/>
<path d="M237.345 240.349V245.351C237.345 247.158 238.08 248.061 239.55 248.061C241.037 248.061 241.78 247.158 241.78 245.351V240.349H242.852V245.289C242.852 246.521 242.568 247.458 242.002 248.098C241.443 248.731 240.626 249.047 239.55 249.047C238.474 249.047 237.657 248.731 237.098 248.098C236.548 247.458 236.273 246.521 236.273 245.289V240.349H237.345ZM247.288 242.616C248.052 242.616 248.664 242.846 249.124 243.306C249.592 243.766 249.826 244.488 249.826 245.474V248.973H248.816V245.536C248.816 244.887 248.668 244.394 248.372 244.057C248.085 243.712 247.666 243.54 247.116 243.54C246.524 243.54 246.06 243.745 245.724 244.156C245.387 244.566 245.219 245.125 245.219 245.831V248.973H244.208V242.69H245.083L245.219 243.54C245.695 242.924 246.385 242.616 247.288 242.616ZM250.991 240.349H252.001V248.973H250.991V240.349ZM253.767 240.263C253.956 240.263 254.112 240.324 254.235 240.447C254.359 240.571 254.42 240.727 254.42 240.916C254.42 241.105 254.359 241.261 254.235 241.384C254.112 241.507 253.956 241.569 253.767 241.569C253.578 241.569 253.422 241.507 253.299 241.384C253.176 241.261 253.114 241.105 253.114 240.916C253.114 240.727 253.176 240.571 253.299 240.447C253.422 240.324 253.578 240.263 253.767 240.263ZM253.262 242.69H254.272V248.973H253.262V242.69ZM262.543 242.616C263.249 242.616 263.82 242.838 264.256 243.281C264.699 243.725 264.921 244.415 264.921 245.351V248.973H263.911V245.412C263.911 244.805 263.779 244.341 263.516 244.02C263.262 243.7 262.896 243.54 262.42 243.54C261.894 243.54 261.48 243.725 261.176 244.094C260.88 244.464 260.732 244.969 260.732 245.61V248.973H259.722V245.412C259.722 244.805 259.59 244.341 259.328 244.02C259.065 243.7 258.691 243.54 258.206 243.54C257.697 243.54 257.291 243.737 256.987 244.131C256.691 244.517 256.543 245.026 256.543 245.659V248.973H255.533V242.69H256.408L256.543 243.552C256.995 242.928 257.607 242.616 258.379 242.616C258.831 242.616 259.229 242.718 259.574 242.924C259.927 243.121 260.19 243.417 260.362 243.811C260.814 243.014 261.541 242.616 262.543 242.616ZM266.599 240.263C266.788 240.263 266.944 240.324 267.067 240.447C267.19 240.571 267.252 240.727 267.252 240.916C267.252 241.105 267.19 241.261 267.067 241.384C266.944 241.507 266.788 241.569 266.599 241.569C266.41 241.569 266.254 241.507 266.131 241.384C266.007 241.261 265.946 241.105 265.946 240.916C265.946 240.727 266.007 240.571 266.131 240.447C266.254 240.324 266.41 240.263 266.599 240.263ZM266.094 242.69H267.104V248.973H266.094V242.69ZM268.783 243.614H267.65V242.69H268.783V240.928H269.794V242.69H271.383V243.614H269.794V247.322C269.794 247.585 269.843 247.774 269.942 247.889C270.048 247.996 270.229 248.049 270.484 248.049H271.58V248.973H270.422C269.831 248.973 269.408 248.841 269.153 248.579C268.907 248.316 268.783 247.901 268.783 247.334V243.614ZM271.797 245.831C271.797 245.191 271.921 244.628 272.167 244.143C272.422 243.659 272.775 243.285 273.227 243.022C273.678 242.751 274.196 242.616 274.779 242.616C275.354 242.616 275.863 242.735 276.307 242.973C276.75 243.211 277.099 243.556 277.354 244.008C277.608 244.46 277.744 244.989 277.76 245.597C277.76 245.688 277.752 245.831 277.736 246.028H272.857V246.115C272.873 246.731 273.062 247.223 273.424 247.593C273.785 247.963 274.257 248.147 274.841 248.147C275.292 248.147 275.674 248.037 275.986 247.815C276.307 247.585 276.52 247.269 276.627 246.866H277.649C277.526 247.507 277.218 248.032 276.725 248.443C276.233 248.846 275.629 249.047 274.914 249.047C274.29 249.047 273.744 248.915 273.276 248.653C272.808 248.382 272.442 248.004 272.179 247.519C271.925 247.026 271.797 246.464 271.797 245.831ZM276.713 245.191C276.664 244.657 276.463 244.242 276.109 243.946C275.765 243.651 275.325 243.503 274.791 243.503C274.315 243.503 273.896 243.659 273.535 243.971C273.173 244.283 272.968 244.69 272.919 245.191H276.713ZM284.753 240.349V248.973H283.878L283.743 247.963C283.217 248.685 282.498 249.047 281.587 249.047C281.003 249.047 280.482 248.92 280.022 248.665C279.57 248.41 279.213 248.041 278.95 247.556C278.695 247.072 278.568 246.497 278.568 245.831C278.568 245.199 278.695 244.64 278.95 244.156C279.213 243.671 279.574 243.293 280.034 243.022C280.494 242.751 281.012 242.616 281.587 242.616C282.096 242.616 282.531 242.71 282.892 242.899C283.254 243.08 283.537 243.33 283.743 243.651V240.349H284.753ZM281.685 248.147C282.088 248.147 282.445 248.053 282.757 247.864C283.077 247.667 283.324 247.396 283.496 247.051C283.669 246.698 283.755 246.299 283.755 245.856C283.755 245.404 283.669 245.002 283.496 244.649C283.324 244.287 283.077 244.008 282.757 243.811C282.445 243.614 282.088 243.515 281.685 243.515C281.061 243.515 280.556 243.733 280.17 244.168C279.792 244.595 279.603 245.15 279.603 245.831C279.603 246.513 279.792 247.072 280.17 247.507C280.556 247.934 281.061 248.147 281.685 248.147ZM289.895 246.903C289.912 247.281 290.076 247.589 290.388 247.827C290.709 248.065 291.119 248.184 291.62 248.184C292.064 248.184 292.421 248.098 292.692 247.926C292.971 247.745 293.111 247.511 293.111 247.223C293.111 246.977 293.045 246.788 292.914 246.657C292.782 246.525 292.61 246.435 292.396 246.386C292.191 246.336 291.895 246.287 291.509 246.238C290.967 246.172 290.524 246.086 290.179 245.979C289.834 245.872 289.555 245.704 289.341 245.474C289.128 245.236 289.021 244.911 289.021 244.501C289.021 244.131 289.123 243.803 289.329 243.515C289.542 243.228 289.83 243.006 290.191 242.85C290.553 242.686 290.959 242.603 291.411 242.603C292.15 242.603 292.75 242.776 293.21 243.121C293.678 243.466 293.936 243.959 293.986 244.599H292.975C292.934 244.271 292.774 244 292.495 243.786C292.216 243.573 291.867 243.466 291.448 243.466C291.021 243.466 290.676 243.556 290.413 243.737C290.15 243.909 290.019 244.139 290.019 244.427C290.019 244.64 290.08 244.805 290.203 244.92C290.327 245.035 290.483 245.113 290.672 245.154C290.869 245.195 291.164 245.24 291.559 245.289C292.109 245.355 292.561 245.445 292.914 245.56C293.275 245.675 293.563 245.86 293.776 246.115C293.998 246.369 294.109 246.714 294.109 247.15C294.109 247.527 293.998 247.86 293.776 248.147C293.554 248.435 293.255 248.657 292.877 248.813C292.499 248.969 292.08 249.047 291.62 249.047C290.799 249.047 290.138 248.858 289.637 248.48C289.144 248.102 288.893 247.577 288.885 246.903H289.895ZM302.142 242.616C302.848 242.616 303.419 242.838 303.854 243.281C304.298 243.725 304.52 244.415 304.52 245.351V248.973H303.509V245.412C303.509 244.805 303.378 244.341 303.115 244.02C302.86 243.7 302.495 243.54 302.019 243.54C301.493 243.54 301.078 243.725 300.774 244.094C300.479 244.464 300.331 244.969 300.331 245.61V248.973H299.321V245.412C299.321 244.805 299.189 244.341 298.926 244.02C298.663 243.7 298.29 243.54 297.805 243.54C297.296 243.54 296.889 243.737 296.585 244.131C296.29 244.517 296.142 245.026 296.142 245.659V248.973H295.132V242.69H296.006L296.142 243.552C296.594 242.928 297.206 242.616 297.978 242.616C298.429 242.616 298.828 242.718 299.173 242.924C299.526 243.121 299.789 243.417 299.961 243.811C300.413 243.014 301.14 242.616 302.142 242.616ZM306.481 246.903C306.497 247.281 306.661 247.589 306.974 247.827C307.294 248.065 307.705 248.184 308.206 248.184C308.649 248.184 309.006 248.098 309.277 247.926C309.557 247.745 309.696 247.511 309.696 247.223C309.696 246.977 309.631 246.788 309.499 246.657C309.368 246.525 309.195 246.435 308.982 246.386C308.776 246.336 308.481 246.287 308.095 246.238C307.553 246.172 307.109 246.086 306.764 245.979C306.419 245.872 306.14 245.704 305.926 245.474C305.713 245.236 305.606 244.911 305.606 244.501C305.606 244.131 305.709 243.803 305.914 243.515C306.128 243.228 306.415 243.006 306.776 242.85C307.138 242.686 307.544 242.603 307.996 242.603C308.735 242.603 309.335 242.776 309.795 243.121C310.263 243.466 310.522 243.959 310.571 244.599H309.561C309.52 244.271 309.36 244 309.08 243.786C308.801 243.573 308.452 243.466 308.033 243.466C307.606 243.466 307.261 243.556 306.998 243.737C306.735 243.909 306.604 244.139 306.604 244.427C306.604 244.64 306.666 244.805 306.789 244.92C306.912 245.035 307.068 245.113 307.257 245.154C307.454 245.195 307.75 245.24 308.144 245.289C308.694 245.355 309.146 245.445 309.499 245.56C309.861 245.675 310.148 245.86 310.362 246.115C310.583 246.369 310.694 246.714 310.694 247.15C310.694 247.527 310.583 247.86 310.362 248.147C310.14 248.435 309.84 248.657 309.462 248.813C309.084 248.969 308.666 249.047 308.206 249.047C307.384 249.047 306.723 248.858 306.222 248.48C305.729 248.102 305.479 247.577 305.471 246.903H306.481Z" fill="#5F6F77"/>
<path fill-rule="evenodd" clip-rule="evenodd" d="M225.805 270.525L220.796 275.534L217.191 271.929L218.784 270.336L220.796 272.348L224.212 268.932L225.805 270.525Z" fill="#B1C5CE"/>
<path d="M235.768 273.702L240.092 268.109H241.324V273.678H242.716V274.626H241.324V276.733H240.289V274.626H235.768V273.702ZM236.877 273.678H240.289V269.267L236.877 273.678ZM243.46 272.224C243.46 271.411 243.595 270.688 243.866 270.055C244.146 269.423 244.532 268.93 245.024 268.577C245.525 268.216 246.096 268.035 246.737 268.035C247.369 268.035 247.932 268.216 248.425 268.577C248.926 268.93 249.312 269.423 249.583 270.055C249.862 270.688 250.002 271.411 250.002 272.224V272.618C250.002 273.464 249.862 274.203 249.583 274.836C249.312 275.468 248.93 275.957 248.437 276.302C247.944 276.638 247.378 276.807 246.737 276.807C246.088 276.807 245.517 276.638 245.024 276.302C244.532 275.957 244.146 275.468 243.866 274.836C243.595 274.203 243.46 273.464 243.46 272.618V272.224ZM248.954 272.261C248.954 271.587 248.86 271.004 248.671 270.511C248.49 270.019 248.232 269.641 247.895 269.378C247.566 269.115 247.18 268.984 246.737 268.984C246.293 268.984 245.903 269.115 245.566 269.378C245.23 269.641 244.967 270.019 244.778 270.511C244.597 271.004 244.507 271.587 244.507 272.261V272.581C244.507 273.255 244.597 273.838 244.778 274.331C244.967 274.823 245.23 275.201 245.566 275.464C245.903 275.727 246.293 275.858 246.737 275.858C247.18 275.858 247.566 275.727 247.895 275.464C248.232 275.201 248.49 274.823 248.671 274.331C248.86 273.838 248.954 273.255 248.954 272.581V272.261ZM257.11 270.45V276.425C257.11 278.322 256.071 279.271 253.993 279.271C253.18 279.271 252.515 279.086 251.998 278.716C251.488 278.347 251.193 277.821 251.11 277.139H252.145C252.227 277.534 252.437 277.838 252.774 278.051C253.11 278.265 253.542 278.371 254.067 278.371C255.422 278.371 256.1 277.71 256.1 276.388V275.649C255.648 276.421 254.93 276.807 253.944 276.807C253.361 276.807 252.839 276.68 252.379 276.425C251.928 276.17 251.57 275.801 251.308 275.316C251.053 274.832 250.926 274.257 250.926 273.591C250.926 272.959 251.053 272.4 251.308 271.916C251.57 271.431 251.932 271.053 252.392 270.782C252.852 270.511 253.369 270.376 253.944 270.376C254.453 270.376 254.889 270.478 255.25 270.684C255.611 270.881 255.895 271.164 256.1 271.534L256.236 270.45H257.11ZM254.043 275.907C254.445 275.907 254.802 275.813 255.114 275.624C255.435 275.427 255.681 275.156 255.854 274.811C256.026 274.458 256.112 274.059 256.112 273.616C256.112 273.164 256.026 272.762 255.854 272.409C255.681 272.047 255.435 271.768 255.114 271.571C254.802 271.374 254.445 271.275 254.043 271.275C253.418 271.275 252.913 271.493 252.527 271.928C252.149 272.355 251.961 272.91 251.961 273.591C251.961 274.273 252.149 274.832 252.527 275.267C252.913 275.694 253.418 275.907 254.043 275.907ZM261.53 270.376C262.113 270.376 262.63 270.503 263.082 270.758C263.542 271.012 263.899 271.382 264.154 271.867C264.417 272.351 264.548 272.926 264.548 273.591C264.548 274.224 264.417 274.782 264.154 275.267C263.899 275.751 263.542 276.129 263.082 276.4C262.622 276.671 262.104 276.807 261.53 276.807C261.02 276.807 260.585 276.716 260.224 276.536C259.862 276.347 259.579 276.092 259.374 275.772L259.238 276.733H258.363V268.109H259.374V271.46C259.899 270.737 260.618 270.376 261.53 270.376ZM261.431 275.907C262.055 275.907 262.556 275.694 262.934 275.267C263.32 274.832 263.513 274.273 263.513 273.591C263.513 272.91 263.32 272.355 262.934 271.928C262.556 271.493 262.055 271.275 261.431 271.275C261.029 271.275 260.667 271.374 260.347 271.571C260.035 271.76 259.792 272.031 259.62 272.384C259.447 272.729 259.361 273.123 259.361 273.567C259.361 274.018 259.447 274.425 259.62 274.786C259.792 275.14 260.035 275.415 260.347 275.612C260.667 275.809 261.029 275.907 261.431 275.907ZM271.576 276.807C270.968 276.807 270.426 276.671 269.949 276.4C269.481 276.129 269.116 275.751 268.853 275.267C268.59 274.782 268.459 274.224 268.459 273.591C268.459 272.959 268.59 272.4 268.853 271.916C269.116 271.431 269.481 271.053 269.949 270.782C270.426 270.511 270.968 270.376 271.576 270.376C272.183 270.376 272.721 270.511 273.189 270.782C273.666 271.053 274.035 271.431 274.298 271.916C274.561 272.4 274.692 272.959 274.692 273.591C274.692 274.224 274.561 274.782 274.298 275.267C274.035 275.751 273.666 276.129 273.189 276.4C272.721 276.671 272.183 276.807 271.576 276.807ZM271.576 275.907C271.986 275.907 272.348 275.809 272.66 275.612C272.98 275.415 273.226 275.14 273.399 274.786C273.571 274.433 273.658 274.035 273.658 273.591C273.658 273.148 273.571 272.749 273.399 272.396C273.226 272.043 272.98 271.768 272.66 271.571C272.348 271.374 271.986 271.275 271.576 271.275C271.165 271.275 270.799 271.374 270.479 271.571C270.167 271.768 269.925 272.043 269.752 272.396C269.58 272.749 269.493 273.148 269.493 273.591C269.493 274.035 269.58 274.433 269.752 274.786C269.925 275.14 270.167 275.415 270.479 275.612C270.799 275.809 271.165 275.907 271.576 275.907ZM276.074 270.45V269.747C276.074 269.189 276.202 268.778 276.456 268.515C276.719 268.244 277.138 268.109 277.713 268.109H278.871V269.033H277.775C277.528 269.033 277.352 269.086 277.245 269.193C277.138 269.3 277.085 269.476 277.085 269.723V270.45H278.859V271.374H277.085V276.733H276.074V271.374H274.941V270.45H276.074ZM288.482 268.109V276.733H287.608L287.472 275.723C286.947 276.445 286.228 276.807 285.316 276.807C284.733 276.807 284.212 276.68 283.752 276.425C283.3 276.17 282.943 275.801 282.68 275.316C282.425 274.832 282.298 274.257 282.298 273.591C282.298 272.959 282.425 272.4 282.68 271.916C282.943 271.431 283.304 271.053 283.764 270.782C284.224 270.511 284.741 270.376 285.316 270.376C285.825 270.376 286.261 270.47 286.622 270.659C286.984 270.84 287.267 271.09 287.472 271.411V268.109H288.482ZM285.415 275.907C285.817 275.907 286.175 275.813 286.487 275.624C286.807 275.427 287.053 275.156 287.226 274.811C287.398 274.458 287.485 274.059 287.485 273.616C287.485 273.164 287.398 272.762 287.226 272.409C287.053 272.047 286.807 271.768 286.487 271.571C286.175 271.374 285.817 271.275 285.415 271.275C284.791 271.275 284.285 271.493 283.899 271.928C283.522 272.355 283.333 272.91 283.333 273.591C283.333 274.273 283.522 274.832 283.899 275.267C284.285 275.694 284.791 275.907 285.415 275.907ZM295.612 275.809V276.733H295.058C294.655 276.733 294.368 276.651 294.195 276.487C294.023 276.322 293.932 276.08 293.924 275.76C293.44 276.458 292.737 276.807 291.818 276.807C291.119 276.807 290.557 276.643 290.13 276.314C289.711 275.985 289.501 275.538 289.501 274.971C289.501 274.339 289.715 273.854 290.142 273.517C290.577 273.181 291.206 273.012 292.027 273.012H293.875V272.581C293.875 272.17 293.735 271.85 293.456 271.62C293.185 271.39 292.803 271.275 292.31 271.275C291.875 271.275 291.514 271.374 291.226 271.571C290.947 271.76 290.774 272.014 290.709 272.335H289.699C289.772 271.719 290.043 271.238 290.512 270.893C290.988 270.548 291.604 270.376 292.36 270.376C293.165 270.376 293.785 270.573 294.22 270.967C294.663 271.353 294.885 271.912 294.885 272.643V275.353C294.885 275.657 295.025 275.809 295.304 275.809H295.612ZM293.875 273.862H291.928C290.992 273.862 290.524 274.211 290.524 274.91C290.524 275.222 290.647 275.472 290.894 275.661C291.14 275.85 291.473 275.944 291.891 275.944C292.507 275.944 292.992 275.784 293.345 275.464C293.698 275.135 293.875 274.704 293.875 274.17V273.862ZM296.684 271.374H295.551V270.45H296.684V268.688H297.695V270.45H299.284V271.374H297.695V275.082C297.695 275.345 297.744 275.534 297.843 275.649C297.949 275.756 298.13 275.809 298.385 275.809H299.481V276.733H298.323C297.732 276.733 297.309 276.601 297.054 276.339C296.808 276.076 296.684 275.661 296.684 275.094V271.374ZM305.857 275.809V276.733H305.303C304.9 276.733 304.613 276.651 304.44 276.487C304.268 276.322 304.177 276.08 304.169 275.76C303.685 276.458 302.982 276.807 302.062 276.807C301.364 276.807 300.802 276.643 300.375 276.314C299.956 275.985 299.746 275.538 299.746 274.971C299.746 274.339 299.96 273.854 300.387 273.517C300.822 273.181 301.451 273.012 302.272 273.012H304.12V272.581C304.12 272.17 303.98 271.85 303.701 271.62C303.43 271.39 303.048 271.275 302.555 271.275C302.12 271.275 301.759 271.374 301.471 271.571C301.192 271.76 301.019 272.014 300.954 272.335H299.943C300.017 271.719 300.288 271.238 300.756 270.893C301.233 270.548 301.849 270.376 302.604 270.376C303.409 270.376 304.03 270.573 304.465 270.967C304.908 271.353 305.13 271.912 305.13 272.643V275.353C305.13 275.657 305.27 275.809 305.549 275.809H305.857ZM304.12 273.862H302.173C301.237 273.862 300.769 274.211 300.769 274.91C300.769 275.222 300.892 275.472 301.138 275.661C301.385 275.85 301.717 275.944 302.136 275.944C302.752 275.944 303.237 275.784 303.59 275.464C303.943 275.135 304.12 274.704 304.12 274.17V273.862Z" fill="#5F6F77"/>
<path fill-rule="evenodd" clip-rule="evenodd" d="M225.805 298.285L220.796 303.294L217.191 299.689L218.784 298.096L220.796 300.108L224.212 296.692L225.805 298.285Z" fill="#B1C5CE"/>
<path d="M238.564 295.869V304.493H237.529V298.407C237.415 298.514 237.217 298.567 236.938 298.567H235.546V297.643H236.95C237.148 297.643 237.295 297.577 237.394 297.446C237.501 297.306 237.554 297.126 237.554 296.904V295.869H238.564ZM243.566 299.134H242.432V298.21H243.566V296.448H244.576V298.21H246.165V299.134H244.576V302.842C244.576 303.105 244.625 303.294 244.724 303.409C244.83 303.516 245.011 303.569 245.266 303.569H246.362V304.493H245.204C244.613 304.493 244.19 304.362 243.935 304.099C243.689 303.836 243.566 303.421 243.566 302.854V299.134ZM250.149 298.21V299.195H249.643C249.044 299.195 248.613 299.397 248.35 299.799C248.095 300.201 247.968 300.698 247.968 301.29V304.493H246.958V298.21H247.832L247.968 299.158C248.149 298.871 248.383 298.641 248.67 298.468C248.958 298.296 249.356 298.21 249.865 298.21H250.149ZM250.366 301.351C250.366 300.711 250.49 300.148 250.736 299.663C250.991 299.179 251.344 298.805 251.796 298.542C252.247 298.271 252.765 298.136 253.348 298.136C253.923 298.136 254.432 298.255 254.876 298.493C255.319 298.731 255.668 299.076 255.923 299.528C256.177 299.98 256.313 300.509 256.329 301.117C256.329 301.208 256.321 301.351 256.305 301.548H251.426V301.635C251.442 302.251 251.631 302.743 251.993 303.113C252.354 303.483 252.826 303.667 253.409 303.667C253.861 303.667 254.243 303.557 254.555 303.335C254.876 303.105 255.089 302.789 255.196 302.386H256.218C256.095 303.027 255.787 303.552 255.294 303.963C254.802 304.366 254.198 304.567 253.483 304.567C252.859 304.567 252.313 304.435 251.845 304.173C251.377 303.902 251.011 303.524 250.748 303.039C250.494 302.546 250.366 301.984 250.366 301.351ZM255.282 300.711C255.233 300.177 255.032 299.762 254.678 299.466C254.333 299.171 253.894 299.023 253.36 299.023C252.884 299.023 252.465 299.179 252.104 299.491C251.742 299.803 251.537 300.21 251.488 300.711H255.282ZM257.137 301.351C257.137 300.711 257.26 300.148 257.507 299.663C257.761 299.179 258.115 298.805 258.566 298.542C259.018 298.271 259.535 298.136 260.119 298.136C260.694 298.136 261.203 298.255 261.646 298.493C262.09 298.731 262.439 299.076 262.693 299.528C262.948 299.98 263.084 300.509 263.1 301.117C263.1 301.208 263.092 301.351 263.075 301.548H258.197V301.635C258.213 302.251 258.402 302.743 258.763 303.113C259.125 303.483 259.597 303.667 260.18 303.667C260.632 303.667 261.014 303.557 261.326 303.335C261.646 303.105 261.86 302.789 261.967 302.386H262.989C262.866 303.027 262.558 303.552 262.065 303.963C261.572 304.366 260.969 304.567 260.254 304.567C259.63 304.567 259.084 304.435 258.616 304.173C258.147 303.902 257.782 303.524 257.519 303.039C257.264 302.546 257.137 301.984 257.137 301.351ZM262.053 300.711C262.004 300.177 261.802 299.762 261.449 299.466C261.104 299.171 260.665 299.023 260.131 299.023C259.655 299.023 259.236 299.179 258.874 299.491C258.513 299.803 258.308 300.21 258.258 300.711H262.053ZM270.397 298.136C270.98 298.136 271.498 298.263 271.949 298.518C272.409 298.772 272.767 299.142 273.021 299.627C273.284 300.111 273.415 300.686 273.415 301.351C273.415 301.984 273.284 302.542 273.021 303.027C272.767 303.511 272.409 303.889 271.949 304.16C271.489 304.431 270.972 304.567 270.397 304.567C269.888 304.567 269.453 304.476 269.091 304.296C268.73 304.107 268.446 303.852 268.241 303.532V306.957H267.231V298.21H268.106L268.241 299.22C268.767 298.497 269.485 298.136 270.397 298.136ZM270.298 303.667C270.923 303.667 271.424 303.454 271.802 303.027C272.188 302.592 272.381 302.033 272.381 301.351C272.381 300.67 272.188 300.115 271.802 299.688C271.424 299.253 270.923 299.035 270.298 299.035C269.896 299.035 269.535 299.134 269.214 299.331C268.902 299.52 268.66 299.791 268.487 300.144C268.315 300.489 268.229 300.883 268.229 301.327C268.229 301.778 268.315 302.185 268.487 302.546C268.66 302.9 268.902 303.175 269.214 303.372C269.535 303.569 269.896 303.667 270.298 303.667ZM274.447 295.869H275.457V304.493H274.447V295.869ZM282.594 303.569V304.493H282.04C281.637 304.493 281.35 304.411 281.178 304.247C281.005 304.082 280.915 303.84 280.906 303.52C280.422 304.218 279.72 304.567 278.8 304.567C278.102 304.567 277.539 304.403 277.112 304.074C276.693 303.746 276.484 303.298 276.484 302.731C276.484 302.099 276.697 301.614 277.124 301.277C277.56 300.941 278.188 300.772 279.009 300.772H280.857V300.341C280.857 299.93 280.718 299.61 280.438 299.38C280.167 299.15 279.785 299.035 279.293 299.035C278.857 299.035 278.496 299.134 278.208 299.331C277.929 299.52 277.757 299.774 277.691 300.095H276.681C276.755 299.479 277.026 298.998 277.494 298.653C277.97 298.308 278.586 298.136 279.342 298.136C280.147 298.136 280.767 298.333 281.202 298.727C281.646 299.113 281.867 299.672 281.867 300.403V303.113C281.867 303.417 282.007 303.569 282.286 303.569H282.594ZM280.857 301.622H278.911C277.974 301.622 277.506 301.971 277.506 302.67C277.506 302.982 277.629 303.232 277.876 303.421C278.122 303.61 278.455 303.704 278.874 303.704C279.49 303.704 279.974 303.544 280.327 303.224C280.681 302.895 280.857 302.464 280.857 301.93V301.622ZM286.328 298.136C287.092 298.136 287.703 298.366 288.163 298.826C288.632 299.286 288.866 300.008 288.866 300.994V304.493H287.855V301.056C287.855 300.407 287.708 299.914 287.412 299.577C287.124 299.232 286.706 299.06 286.155 299.06C285.564 299.06 285.1 299.265 284.763 299.676C284.426 300.086 284.258 300.645 284.258 301.351V304.493H283.248V298.21H284.122L284.258 299.06C284.734 298.444 285.424 298.136 286.328 298.136ZM290.449 299.134H289.316V298.21H290.449V296.448H291.46V298.21H293.049V299.134H291.46V302.842C291.46 303.105 291.509 303.294 291.607 303.409C291.714 303.516 291.895 303.569 292.15 303.569H293.246V304.493H292.088C291.497 304.493 291.074 304.362 290.819 304.099C290.573 303.836 290.449 303.421 290.449 302.854V299.134ZM293.463 301.351C293.463 300.711 293.587 300.148 293.833 299.663C294.088 299.179 294.441 298.805 294.892 298.542C295.344 298.271 295.862 298.136 296.445 298.136C297.02 298.136 297.529 298.255 297.972 298.493C298.416 298.731 298.765 299.076 299.02 299.528C299.274 299.98 299.41 300.509 299.426 301.117C299.426 301.208 299.418 301.351 299.402 301.548H294.523V301.635C294.539 302.251 294.728 302.743 295.09 303.113C295.451 303.483 295.923 303.667 296.506 303.667C296.958 303.667 297.34 303.557 297.652 303.335C297.972 303.105 298.186 302.789 298.293 302.386H299.315C299.192 303.027 298.884 303.552 298.391 303.963C297.899 304.366 297.295 304.567 296.58 304.567C295.956 304.567 295.41 304.435 294.942 304.173C294.474 303.902 294.108 303.524 293.845 303.039C293.591 302.546 293.463 301.984 293.463 301.351ZM298.379 300.711C298.33 300.177 298.129 299.762 297.775 299.466C297.43 299.171 296.991 299.023 296.457 299.023C295.981 299.023 295.562 299.179 295.2 299.491C294.839 299.803 294.634 300.21 294.584 300.711H298.379ZM306.419 295.869V304.493H305.544L305.408 303.483C304.883 304.205 304.164 304.567 303.252 304.567C302.669 304.567 302.148 304.44 301.688 304.185C301.236 303.93 300.879 303.561 300.616 303.076C300.361 302.592 300.234 302.017 300.234 301.351C300.234 300.719 300.361 300.16 300.616 299.676C300.879 299.191 301.24 298.813 301.7 298.542C302.16 298.271 302.678 298.136 303.252 298.136C303.762 298.136 304.197 298.23 304.558 298.419C304.92 298.6 305.203 298.85 305.408 299.171V295.869H306.419ZM303.351 303.667C303.753 303.667 304.111 303.573 304.423 303.384C304.743 303.187 304.99 302.916 305.162 302.571C305.335 302.218 305.421 301.819 305.421 301.376C305.421 300.924 305.335 300.522 305.162 300.169C304.99 299.807 304.743 299.528 304.423 299.331C304.111 299.134 303.753 299.035 303.351 299.035C302.727 299.035 302.222 299.253 301.836 299.688C301.458 300.115 301.269 300.67 301.269 301.351C301.269 302.033 301.458 302.592 301.836 303.027C302.222 303.454 302.727 303.667 303.351 303.667Z" fill="#5F6F77"/>
<path d="M222.793 377.85C222.793 376.495 221.739 375.442 220.385 375.442H219.783C218.429 375.442 217.375 376.525 217.375 377.85V380.378H221.438V383.387H217.375V384.591H221.438V387.601H217.375V388.052C217.375 389.376 218.459 390.46 219.783 390.46H220.385C221.709 390.46 222.793 389.376 222.793 388.052V387.751H225.802V388.052C225.802 391.032 223.395 393.5 220.385 393.5H219.783C216.804 393.5 214.366 391.032 214.366 388.052V387.601H212.56V384.591H214.366V383.387H212.56V380.378H214.366V377.85C214.366 374.84 216.804 372.432 219.783 372.432H220.385C223.395 372.432 225.802 374.84 225.802 377.85V378.151H222.793V377.85ZM255.273 390.49V393.5H242.031V390.49H247.147V375.923L242.031 378.933V375.442L247.147 372.432H250.157V390.49H255.273ZM263.989 374.238H266.999V381.762H270.008V384.772H266.999V393.5H263.989V384.772H256.766V372.432H259.775V381.762H263.989V374.238ZM276.467 390.49H279.778V393.5H276.467V390.49ZM286.236 384.561V372.432H297.673V375.442H289.246V380.919L291.744 379.234H294.061C297.041 379.234 299.479 381.642 299.479 384.651V388.082C299.479 391.092 297.071 393.5 294.061 393.5H291.654C288.674 393.5 286.236 391.092 286.236 388.082V387.781H289.246V388.082C289.246 389.406 290.329 390.49 291.654 390.49H294.061C295.416 390.49 296.469 389.437 296.469 388.082V384.651C296.469 383.327 295.386 382.244 294.061 382.244H292.677L289.246 384.561H286.236ZM308.797 390.46C309.308 390.46 309.76 390.309 310.151 390.038L303.981 379.986V388.052C303.981 389.376 305.065 390.46 306.389 390.46H308.797ZM300.972 388.052V377.85C300.972 374.84 303.409 372.432 306.389 372.432H308.797C311.806 372.432 314.214 374.84 314.214 377.85V388.052C314.214 391.032 311.806 393.5 308.797 393.5H306.389C303.409 393.5 300.972 391.032 300.972 388.052ZM305.005 375.863L311.204 385.945V377.85C311.204 376.495 310.151 375.442 308.797 375.442H306.389C305.877 375.442 305.396 375.592 305.005 375.863Z" fill="#252829"/>
<path d="M316.746 395.563L320.356 384.475H321.625L318.015 395.563H316.746ZM332.059 386.717C332.749 386.717 333.311 386.943 333.747 387.395C334.182 387.838 334.4 388.553 334.4 389.539V393.099H333.069V389.551C333.069 389.001 332.958 388.582 332.736 388.294C332.515 388.007 332.186 387.863 331.751 387.863C331.291 387.863 330.925 388.027 330.654 388.356C330.391 388.676 330.26 389.12 330.26 389.686V393.099H328.917V389.551C328.917 388.992 328.802 388.574 328.572 388.294C328.35 388.007 328.022 387.863 327.587 387.863C327.135 387.863 326.773 388.031 326.502 388.368C326.24 388.705 326.108 389.157 326.108 389.723V393.099H324.778V386.791H325.936L326.084 387.617C326.535 387.025 327.151 386.726 327.932 386.717C328.375 386.717 328.765 386.812 329.102 387.001C329.439 387.19 329.697 387.477 329.878 387.863C330.1 387.502 330.391 387.222 330.753 387.025C331.114 386.82 331.55 386.717 332.059 386.717ZM338.464 393.173C337.832 393.173 337.269 393.042 336.776 392.779C336.292 392.508 335.914 392.13 335.643 391.645C335.38 391.153 335.248 390.586 335.248 389.945C335.248 389.313 335.38 388.754 335.643 388.27C335.914 387.777 336.292 387.395 336.776 387.124C337.269 386.853 337.832 386.717 338.464 386.717C339.096 386.717 339.655 386.853 340.14 387.124C340.632 387.395 341.01 387.777 341.273 388.27C341.544 388.754 341.68 389.313 341.68 389.945C341.68 390.586 341.544 391.153 341.273 391.645C341.01 392.13 340.632 392.508 340.14 392.779C339.655 393.042 339.096 393.173 338.464 393.173ZM338.464 392.04C339.023 392.04 339.47 391.847 339.807 391.461C340.152 391.066 340.324 390.561 340.324 389.945C340.324 389.329 340.152 388.828 339.807 388.442C339.47 388.048 339.023 387.851 338.464 387.851C337.906 387.851 337.458 388.048 337.121 388.442C336.784 388.828 336.616 389.329 336.616 389.945C336.616 390.561 336.784 391.066 337.121 391.461C337.458 391.847 337.906 392.04 338.464 392.04ZM345.953 386.717C346.7 386.717 347.308 386.947 347.776 387.407C348.252 387.867 348.491 388.606 348.491 389.625V393.099H347.148V389.699C347.148 389.099 347.02 388.643 346.766 388.331C346.511 388.019 346.137 387.863 345.645 387.863C345.119 387.863 344.704 388.048 344.4 388.418C344.105 388.779 343.957 389.28 343.957 389.921V393.099H342.626V386.791H343.784L343.932 387.617C344.409 387.017 345.082 386.717 345.953 386.717ZM349.984 387.962H348.888V386.791H349.984V385.03H351.327V386.791H352.842V387.962H351.327V391.251C351.327 391.498 351.376 391.674 351.475 391.781C351.573 391.879 351.742 391.929 351.98 391.929H352.99V393.099H351.709C351.109 393.099 350.67 392.959 350.391 392.68C350.12 392.401 349.984 391.97 349.984 391.387V387.962ZM356.895 386.717C357.651 386.717 358.263 386.947 358.731 387.407C359.207 387.867 359.445 388.606 359.445 389.625V393.099H358.115V389.699C358.115 389.099 357.983 388.643 357.72 388.331C357.466 388.019 357.092 387.863 356.599 387.863C356.074 387.863 355.659 388.048 355.355 388.418C355.059 388.779 354.911 389.276 354.911 389.908V393.099H353.581V384.475H354.911V387.703C355.388 387.046 356.049 386.717 356.895 386.717Z" fill="#92A6B0"/>
<rect x="211.156" y="340.533" width="34.3216" height="15.152" rx="3.6608" fill="#D5E1E7"/>
<path opacity="0.7" d="M215.549 344.702H219.575V345.617H218.02V351.109H217.104V345.617H215.549V344.702ZM223.233 350.184C223.635 350.184 223.965 349.855 223.965 349.452V346.35C223.965 345.938 223.645 345.617 223.233 345.617H222.501C222.089 345.617 221.768 345.947 221.768 346.35V349.452C221.768 349.855 222.098 350.184 222.501 350.184H223.233ZM220.853 349.452V346.35C220.853 345.434 221.594 344.702 222.501 344.702H223.233C224.148 344.702 224.88 345.434 224.88 346.35V349.452C224.88 350.358 224.148 351.109 223.233 351.109H222.501C221.594 351.109 220.853 350.358 220.853 349.452ZM226.158 344.702H230.185V345.617H228.629V351.109H227.714V345.617H226.158V344.702ZM232.378 351.109H231.462V349.004L233.018 344.702H233.933L235.489 349.004V351.109H234.574V349.626H232.378V351.109ZM232.542 348.711H234.409L233.485 346.148H233.467L232.542 348.711ZM237.682 344.702V350.193H240.794V351.109H236.767V344.702H237.682Z" fill="#252829"/>
<path opacity="0.1" d="M434.477 292.547V352.87" stroke="#252829"/>
<path d="M454.71 340.313H466.376C467.021 340.313 467.543 339.791 467.543 339.146V330.98C467.543 330.335 467.021 329.813 466.376 329.813H454.71C454.065 329.813 453.543 330.335 453.543 330.98V339.146C453.543 339.791 454.065 340.313 454.71 340.313Z" stroke="black" stroke-width="1.6" stroke-linecap="round" stroke-linejoin="round"/>
<path d="M462.876 342.646H458.209" stroke="black" stroke-width="1.6" stroke-linecap="round" stroke-linejoin="round"/>
<g clip-path="url(#clip4_6536_8754)">
<path d="M460.292 311.644C460.747 311.644 461.117 311.275 461.117 310.819C461.117 310.364 460.747 309.994 460.292 309.994C459.836 309.994 459.467 310.364 459.467 310.819C459.467 311.275 459.836 311.644 460.292 311.644Z" fill="black"/>
<path d="M467.443 303.201C465.427 301.548 462.9 300.644 460.293 300.644C457.685 300.644 455.159 301.548 453.143 303.201" stroke="black" stroke-width="1.76" stroke-linecap="round" stroke-linejoin="round"/>
<path d="M465.242 305.663C463.833 304.548 462.089 303.941 460.292 303.941C458.495 303.941 456.751 304.548 455.342 305.663" stroke="black" stroke-width="1.76" stroke-linecap="round" stroke-linejoin="round"/>
<path d="M463.043 308.138C462.244 307.557 461.281 307.244 460.293 307.244C459.305 307.244 458.342 307.557 457.543 308.138" stroke="black" stroke-width="1.76" stroke-linecap="round" stroke-linejoin="round"/>
</g>
</g>
<defs>
<linearGradient id="paint0_linear_6536_8754" x1="88.8453" y1="74.1705" x2="92.2451" y2="72.8035" gradientUnits="userSpaceOnUse">
<stop stop-color="#B1060F"/>
<stop offset="0.546072" stop-color="#7B010C"/>
<stop offset="1" stop-color="#E50914" stop-opacity="0"/>
</linearGradient>
<linearGradient id="paint1_linear_6536_8754" x1="97.7645" y1="76.5174" x2="94.2865" y2="77.9608" gradientUnits="userSpaceOnUse">
<stop stop-color="#B1060F"/>
<stop offset="0.625007" stop-color="#7B010C"/>
<stop offset="1" stop-color="#B1060F" stop-opacity="0"/>
</linearGradient>
<clipPath id="clip0_6536_8754">
<rect x="0.648438" width="540" height="440" rx="13" fill="white"/>
</clipPath>
<clipPath id="clip1_6536_8754">
<rect width="13" height="24" fill="white" transform="translate(87 64)"/>
</clipPath>
<clipPath id="clip2_6536_8754">
<rect width="22" height="26" fill="white" transform="translate(137 62)"/>
</clipPath>
<clipPath id="clip3_6536_8754">
<rect width="27" height="27" fill="white" transform="translate(79 118)"/>
</clipPath>
<clipPath id="clip4_6536_8754">
<rect width="17.6" height="17.6" fill="white" transform="translate(451.492 296.794)"/>
</clipPath>
</defs>
</svg>
