<svg width="1201" height="801" viewBox="0 0 1201 801" fill="none" xmlns="http://www.w3.org/2000/svg">
<g clip-path="url(#clip0_4429_5625)">
<rect width="1200" height="800" transform="translate(0.599609 0.323242)" fill="#FBBD43"/>
<g opacity="0.4">
<mask id="path-1-outside-1_4429_5625" maskUnits="userSpaceOnUse" x="-20.5137" y="-87.6533" width="1243" height="976" fill="black">
<rect fill="white" x="-20.5137" y="-87.6533" width="1243" height="976"/>
<path fill-rule="evenodd" clip-rule="evenodd" d="M394.725 366.454C410.734 276.027 489.716 207.347 584.739 207.347C652.817 207.347 712.661 242.598 747.014 295.844C756.558 293.941 766.429 292.944 776.533 292.944C859.474 292.944 926.711 360.181 926.711 443.122C926.711 526.063 859.474 593.3 776.533 593.3L388.007 593.301C325.311 593.301 274.486 542.476 274.486 479.78C274.486 417.084 325.311 366.259 388.007 366.259C390.262 366.259 392.502 366.325 394.725 366.454Z"/>
</mask>
<path fill-rule="evenodd" clip-rule="evenodd" d="M394.725 366.454C410.734 276.027 489.716 207.347 584.739 207.347C652.817 207.347 712.661 242.598 747.014 295.844C756.558 293.941 766.429 292.944 776.533 292.944C859.474 292.944 926.711 360.181 926.711 443.122C926.711 526.063 859.474 593.3 776.533 593.3L388.007 593.301C325.311 593.301 274.486 542.476 274.486 479.78C274.486 417.084 325.311 366.259 388.007 366.259C390.262 366.259 392.502 366.325 394.725 366.454Z" fill="#D9D9D9"/>
<path d="M394.725 366.454L377.538 660.953L639.469 676.24L685.208 417.881L394.725 366.454ZM747.014 295.844L499.128 455.773L607.904 624.374L804.679 585.153L747.014 295.844ZM776.533 593.3L776.533 298.3L776.532 298.3L776.533 593.3ZM388.007 593.301L388.007 888.301L388.008 888.301L388.007 593.301ZM685.208 417.881C676.709 465.888 635.284 502.347 584.739 502.347V-87.6533C344.149 -87.6533 144.76 86.1647 104.242 315.028L685.208 417.881ZM584.739 502.347C548.441 502.347 516.8 483.166 499.128 455.773L994.9 135.914C908.522 2.03109 757.193 -87.6533 584.739 -87.6533V502.347ZM776.533 -2.05644C746.962 -2.05644 717.778 0.868203 689.349 6.53469L804.679 585.153C795.339 587.014 785.896 587.944 776.533 587.944V-2.05644ZM1221.71 443.122C1221.71 197.257 1022.4 -2.05644 776.533 -2.05644V587.944C696.55 587.944 631.711 523.105 631.711 443.122H1221.71ZM776.533 888.3C1022.4 888.3 1221.71 688.987 1221.71 443.122H631.711C631.711 363.139 696.55 298.3 776.533 298.3V888.3ZM388.008 888.301L776.533 888.3L776.532 298.3L388.007 298.301L388.008 888.301ZM-20.5137 479.78C-20.5137 705.4 162.387 888.301 388.007 888.301V298.301C488.235 298.301 569.486 379.551 569.486 479.78H-20.5137ZM388.007 71.259C162.387 71.259 -20.5137 254.16 -20.5137 479.78H569.486C569.486 580.008 488.235 661.259 388.007 661.259V71.259ZM411.913 71.9556C403.97 71.492 395.998 71.259 388.007 71.259V661.259C384.526 661.259 381.035 661.157 377.538 660.953L411.913 71.9556Z" fill="white" mask="url(#path-1-outside-1_4429_5625)"/>
</g>
<mask id="path-3-outside-2_4429_5625" maskUnits="userSpaceOnUse" x="-18.5137" y="-85.6533" width="1239" height="972" fill="black">
<rect fill="white" x="-18.5137" y="-85.6533" width="1239" height="972"/>
<path fill-rule="evenodd" clip-rule="evenodd" d="M394.725 366.454C410.734 276.027 489.716 207.347 584.739 207.347C652.817 207.347 712.661 242.598 747.014 295.844C756.558 293.941 766.429 292.944 776.533 292.944C859.474 292.944 926.711 360.181 926.711 443.122C926.711 526.063 859.474 593.3 776.533 593.3L388.007 593.301C325.311 593.301 274.486 542.476 274.486 479.78C274.486 417.084 325.311 366.259 388.007 366.259C390.262 366.259 392.502 366.325 394.725 366.454Z"/>
</mask>
<path fill-rule="evenodd" clip-rule="evenodd" d="M394.725 366.454C410.734 276.027 489.716 207.347 584.739 207.347C652.817 207.347 712.661 242.598 747.014 295.844C756.558 293.941 766.429 292.944 776.533 292.944C859.474 292.944 926.711 360.181 926.711 443.122C926.711 526.063 859.474 593.3 776.533 593.3L388.007 593.301C325.311 593.301 274.486 542.476 274.486 479.78C274.486 417.084 325.311 366.259 388.007 366.259C390.262 366.259 392.502 366.325 394.725 366.454Z" fill="#D9D9D9"/>
<path d="M394.725 366.454L377.654 658.957L637.81 674.14L683.239 417.532L394.725 366.454ZM747.014 295.844L500.808 454.689L608.847 622.147L804.288 583.191L747.014 295.844ZM776.533 593.3L776.533 300.3L776.532 300.3L776.533 593.3ZM388.007 593.301L388.007 886.301L388.008 886.301L388.007 593.301ZM683.239 417.532C674.906 464.601 634.297 500.347 584.739 500.347V-85.6533C345.136 -85.6533 146.563 87.4519 106.212 315.377L683.239 417.532ZM584.739 500.347C549.148 500.347 518.128 481.535 500.808 454.689L993.219 136.998C907.194 3.66205 756.486 -85.6533 584.739 -85.6533V500.347ZM776.533 -0.0564423C747.094 -0.0564423 718.041 2.85514 689.74 8.49611L804.288 583.191C795.076 585.028 785.764 585.944 776.533 585.944V-0.0564423ZM1219.71 443.122C1219.71 198.361 1021.29 -0.0564423 776.533 -0.0564423V585.944C697.655 585.944 633.711 522 633.711 443.122H1219.71ZM776.533 886.3C1021.29 886.3 1219.71 687.882 1219.71 443.122H633.711C633.711 364.243 697.654 300.3 776.533 300.3V886.3ZM388.008 886.301L776.533 886.3L776.532 300.3L388.007 300.301L388.008 886.301ZM-18.5137 479.78C-18.5137 704.295 163.492 886.301 388.007 886.301V300.301C487.131 300.301 567.486 380.656 567.486 479.78H-18.5137ZM388.007 73.259C163.492 73.259 -18.5137 255.265 -18.5137 479.78H567.486C567.486 578.903 487.131 659.259 388.007 659.259V73.259ZM411.796 73.9522C403.892 73.4909 395.96 73.259 388.007 73.259V659.259C384.565 659.259 381.113 659.159 377.654 658.957L411.796 73.9522Z" fill="#FBBD43" mask="url(#path-3-outside-2_4429_5625)"/>
<g opacity="0.56">
<mask id="path-5-outside-3_4429_5625" maskUnits="userSpaceOnUse" x="99.4863" y="32.3467" width="1003" height="736" fill="black">
<rect fill="white" x="99.4863" y="32.3467" width="1003" height="736"/>
<path fill-rule="evenodd" clip-rule="evenodd" d="M394.725 366.454C410.734 276.027 489.716 207.347 584.739 207.347C652.817 207.347 712.661 242.598 747.014 295.844C756.558 293.941 766.429 292.944 776.533 292.944C859.474 292.944 926.711 360.181 926.711 443.122C926.711 526.063 859.474 593.3 776.533 593.3L388.007 593.301C325.311 593.301 274.486 542.476 274.486 479.78C274.486 417.084 325.311 366.259 388.007 366.259C390.262 366.259 392.502 366.325 394.725 366.454Z"/>
</mask>
<path fill-rule="evenodd" clip-rule="evenodd" d="M394.725 366.454C410.734 276.027 489.716 207.347 584.739 207.347C652.817 207.347 712.661 242.598 747.014 295.844C756.558 293.941 766.429 292.944 776.533 292.944C859.474 292.944 926.711 360.181 926.711 443.122C926.711 526.063 859.474 593.3 776.533 593.3L388.007 593.301C325.311 593.301 274.486 542.476 274.486 479.78C274.486 417.084 325.311 366.259 388.007 366.259C390.262 366.259 392.502 366.325 394.725 366.454Z" fill="#D9D9D9"/>
<path d="M394.725 366.454L384.529 541.157L539.912 550.226L567.046 396.961L394.725 366.454ZM747.014 295.844L599.963 390.717L664.491 490.735L781.222 467.468L747.014 295.844ZM776.533 593.3L776.533 418.3L776.532 418.3L776.533 593.3ZM388.007 593.301L388.007 768.301L388.007 768.301L388.007 593.301ZM567.046 396.961C568.516 388.656 576.07 382.347 584.739 382.347V32.3467C403.363 32.3467 252.953 163.397 222.405 335.948L567.046 396.961ZM584.739 382.347C590.899 382.347 596.473 385.308 599.963 390.717L894.065 200.97C828.85 99.889 714.735 32.3467 584.739 32.3467V382.347ZM776.533 117.944C754.881 117.944 733.553 120.084 712.806 124.22L781.222 467.468C779.564 467.798 777.977 467.944 776.533 467.944V117.944ZM1101.71 443.122C1101.71 263.531 956.124 117.944 776.533 117.944V467.944C762.824 467.944 751.711 456.83 751.711 443.122H1101.71ZM776.533 768.3C956.124 768.3 1101.71 622.713 1101.71 443.122H751.711C751.711 429.413 762.824 418.3 776.533 418.3V768.3ZM388.007 768.301L776.533 768.3L776.532 418.3L388.007 418.301L388.007 768.301ZM99.4863 479.78C99.4863 639.125 228.662 768.301 388.007 768.301V418.301C421.961 418.301 449.486 445.826 449.486 479.78H99.4863ZM388.007 191.259C228.661 191.259 99.4863 320.434 99.4863 479.78H449.486C449.486 513.734 421.961 541.259 388.007 541.259V191.259ZM404.921 191.752C399.305 191.424 393.665 191.259 388.007 191.259V541.259C386.86 541.259 385.7 541.226 384.529 541.157L404.921 191.752Z" fill="white" mask="url(#path-5-outside-3_4429_5625)"/>
</g>
<mask id="path-7-outside-4_4429_5625" maskUnits="userSpaceOnUse" x="102.486" y="35.3467" width="997" height="730" fill="black">
<rect fill="white" x="102.486" y="35.3467" width="997" height="730"/>
<path fill-rule="evenodd" clip-rule="evenodd" d="M394.725 366.454C410.734 276.027 489.716 207.347 584.739 207.347C652.817 207.347 712.661 242.598 747.014 295.844C756.558 293.941 766.429 292.944 776.533 292.944C859.474 292.944 926.711 360.181 926.711 443.122C926.711 526.063 859.474 593.3 776.533 593.3L388.007 593.301C325.311 593.301 274.486 542.476 274.486 479.78C274.486 417.084 325.311 366.259 388.007 366.259C390.262 366.259 392.502 366.325 394.725 366.454Z"/>
</mask>
<path fill-rule="evenodd" clip-rule="evenodd" d="M394.725 366.454C410.734 276.027 489.716 207.347 584.739 207.347C652.817 207.347 712.661 242.598 747.014 295.844C756.558 293.941 766.429 292.944 776.533 292.944C859.474 292.944 926.711 360.181 926.711 443.122C926.711 526.063 859.474 593.3 776.533 593.3L388.007 593.301C325.311 593.301 274.486 542.476 274.486 479.78C274.486 417.084 325.311 366.259 388.007 366.259C390.262 366.259 392.502 366.325 394.725 366.454Z" fill="#D9D9D9"/>
<path d="M394.725 366.454L384.704 538.162L537.423 547.075L564.092 396.438L394.725 366.454ZM747.014 295.844L602.484 389.091L665.906 487.394L780.635 464.526L747.014 295.844ZM776.533 593.3L776.533 421.3L776.532 421.3L776.533 593.3ZM388.007 593.301L388.007 765.301L388.007 765.301L388.007 593.301ZM564.092 396.438C565.811 386.726 574.589 379.347 584.739 379.347V35.3467C404.843 35.3467 255.658 165.327 225.359 336.47L564.092 396.438ZM584.739 379.347C591.96 379.347 598.464 382.861 602.484 389.091L891.544 202.597C826.858 102.335 713.674 35.3467 584.739 35.3467V379.347ZM776.533 120.944C755.079 120.944 733.947 123.065 713.392 127.162L780.635 464.526C779.169 464.818 777.78 464.944 776.533 464.944V120.944ZM1098.71 443.122C1098.71 265.188 954.467 120.944 776.533 120.944V464.944C764.481 464.944 754.711 455.174 754.711 443.122H1098.71ZM776.533 765.3C954.467 765.3 1098.71 621.056 1098.71 443.122H754.711C754.711 431.07 764.481 421.3 776.533 421.3V765.3ZM388.007 765.301L776.533 765.3L776.532 421.3L388.007 421.301L388.007 765.301ZM102.486 479.78C102.486 637.469 230.318 765.301 388.007 765.301V421.301C420.304 421.301 446.486 447.483 446.486 479.78H102.486ZM388.007 194.259C230.318 194.259 102.486 322.091 102.486 479.78H446.486C446.486 512.077 420.304 538.259 388.007 538.259V194.259ZM404.747 194.747C399.189 194.422 393.607 194.259 388.007 194.259V538.259C386.918 538.259 385.816 538.227 384.704 538.162L404.747 194.747Z" fill="#FBBD43" mask="url(#path-7-outside-4_4429_5625)"/>
<mask id="path-9-outside-5_4429_5625" maskUnits="userSpaceOnUse" x="211.486" y="144.347" width="779" height="512" fill="black">
<rect fill="white" x="211.486" y="144.347" width="779" height="512"/>
<path fill-rule="evenodd" clip-rule="evenodd" d="M394.725 366.454C410.734 276.027 489.716 207.347 584.739 207.347C652.817 207.347 712.661 242.598 747.014 295.844C756.558 293.941 766.429 292.944 776.533 292.944C859.474 292.944 926.711 360.181 926.711 443.122C926.711 526.063 859.474 593.3 776.533 593.3L388.007 593.301C325.311 593.301 274.486 542.476 274.486 479.78C274.486 417.084 325.311 366.259 388.007 366.259C390.262 366.259 392.502 366.325 394.725 366.454Z"/>
</mask>
<path fill-rule="evenodd" clip-rule="evenodd" d="M394.725 366.454C410.734 276.027 489.716 207.347 584.739 207.347C652.817 207.347 712.661 242.598 747.014 295.844C756.558 293.941 766.429 292.944 776.533 292.944C859.474 292.944 926.711 360.181 926.711 443.122C926.711 526.063 859.474 593.3 776.533 593.3L388.007 593.301C325.311 593.301 274.486 542.476 274.486 479.78C274.486 417.084 325.311 366.259 388.007 366.259C390.262 366.259 392.502 366.325 394.725 366.454Z" fill="#D9D9D9"/>
<path d="M394.725 366.454L391.055 429.347L446.993 432.612L456.761 377.437L394.725 366.454ZM747.014 295.844L694.075 329.998L717.306 366.004L759.329 357.628L747.014 295.844ZM776.533 593.3L776.533 530.3L776.533 530.3L776.533 593.3ZM388.007 593.301L388.007 656.301L388.007 656.301L388.007 593.301ZM456.761 377.437C467.536 316.573 520.804 270.347 584.739 270.347V144.347C458.629 144.347 353.933 235.48 332.69 355.472L456.761 377.437ZM584.739 270.347C630.527 270.347 670.833 293.974 694.075 329.998L799.952 261.689C754.489 191.223 675.108 144.347 584.739 144.347V270.347ZM776.533 229.944C762.272 229.944 748.276 231.353 734.699 234.059L759.329 357.628C764.84 356.53 770.586 355.944 776.533 355.944V229.944ZM989.711 443.122C989.711 325.387 894.268 229.944 776.533 229.944V355.944C824.68 355.944 863.711 394.975 863.711 443.122H989.711ZM776.533 656.3C894.268 656.3 989.711 560.857 989.711 443.122H863.711C863.711 491.269 824.68 530.3 776.533 530.3V656.3ZM388.007 656.301L776.533 656.3L776.533 530.3L388.007 530.301L388.007 656.301ZM211.486 479.78C211.486 577.27 290.517 656.301 388.007 656.301V530.301C360.105 530.301 337.486 507.682 337.486 479.78H211.486ZM388.007 303.259C290.517 303.259 211.486 382.29 211.486 479.78H337.486C337.486 451.878 360.105 429.259 388.007 429.259V303.259ZM398.396 303.562C394.952 303.36 391.487 303.259 388.007 303.259V429.259C389.038 429.259 390.053 429.289 391.055 429.347L398.396 303.562Z" fill="white" mask="url(#path-9-outside-5_4429_5625)"/>
<mask id="path-11-outside-6_4429_5625" maskUnits="userSpaceOnUse" x="214.486" y="147.347" width="773" height="506" fill="black">
<rect fill="white" x="214.486" y="147.347" width="773" height="506"/>
<path fill-rule="evenodd" clip-rule="evenodd" d="M394.725 366.454C410.734 276.027 489.716 207.347 584.739 207.347C652.817 207.347 712.661 242.598 747.014 295.844C756.558 293.941 766.429 292.944 776.533 292.944C859.474 292.944 926.711 360.181 926.711 443.122C926.711 526.063 859.474 593.3 776.533 593.3L388.007 593.301C325.311 593.301 274.486 542.476 274.486 479.78C274.486 417.084 325.311 366.259 388.007 366.259C390.262 366.259 392.502 366.325 394.725 366.454Z"/>
</mask>
<path fill-rule="evenodd" clip-rule="evenodd" d="M394.725 366.454C410.734 276.027 489.716 207.347 584.739 207.347C652.817 207.347 712.661 242.598 747.014 295.844C756.558 293.941 766.429 292.944 776.533 292.944C859.474 292.944 926.711 360.181 926.711 443.122C926.711 526.063 859.474 593.3 776.533 593.3L388.007 593.301C325.311 593.301 274.486 542.476 274.486 479.78C274.486 417.084 325.311 366.259 388.007 366.259C390.262 366.259 392.502 366.325 394.725 366.454Z" fill="#171818"/>
<path d="M394.725 366.454L391.23 426.353L444.504 429.462L453.807 376.914L394.725 366.454ZM747.014 295.844L696.596 328.372L718.72 362.663L758.742 354.686L747.014 295.844ZM776.533 593.3L776.533 533.3L776.533 533.3L776.533 593.3ZM388.007 593.301L388.007 653.301L388.007 653.301L388.007 593.301ZM453.807 376.914C464.831 314.643 519.323 267.347 584.739 267.347V147.347C460.109 147.347 356.638 237.411 335.644 355.995L453.807 376.914ZM584.739 267.347C631.588 267.347 672.825 291.527 696.596 328.372L797.431 263.316C752.497 193.669 674.046 147.347 584.739 147.347V267.347ZM776.533 232.944C762.47 232.944 748.671 234.333 735.285 237.001L758.742 354.686C764.446 353.549 770.388 352.944 776.533 352.944V232.944ZM986.711 443.122C986.711 327.043 892.611 232.944 776.533 232.944V352.944C826.337 352.944 866.711 393.318 866.711 443.122H986.711ZM776.533 653.3C892.611 653.3 986.711 559.2 986.711 443.122H866.711C866.711 492.926 826.337 533.3 776.533 533.3V653.3ZM388.007 653.301L776.533 653.3L776.533 533.3L388.007 533.301L388.007 653.301ZM214.486 479.78C214.486 575.613 292.174 653.301 388.007 653.301V533.301C358.448 533.301 334.486 509.338 334.486 479.78H214.486ZM388.007 306.259C292.174 306.259 214.486 383.947 214.486 479.78H334.486C334.486 450.221 358.448 426.259 388.007 426.259V306.259ZM398.221 306.556C394.835 306.359 391.429 306.259 388.007 306.259V426.259C389.096 426.259 390.17 426.291 391.23 426.353L398.221 306.556Z" fill="#FBBD43" mask="url(#path-11-outside-6_4429_5625)"/>
<circle cx="387.428" cy="480.07" r="113.23" fill="#171818"/>
<circle opacity="0.34" cx="491.423" cy="474.296" r="112.554" fill="#171818"/>
<circle cx="584.74" cy="400.323" r="192.976" fill="#252829"/>
<g clip-path="url(#clip1_4429_5625)">
<path d="M580.6 402.322C613.679 402.322 640.495 387.696 640.495 369.652C640.495 351.609 613.679 336.982 580.6 336.982C547.521 336.982 520.705 351.609 520.705 369.652C520.705 387.696 547.521 402.322 580.6 402.322Z" stroke="#F5FCFF" stroke-width="10.89" stroke-linecap="round" stroke-linejoin="round"/>
<path d="M520.705 369.653V402.323C520.705 420.367 547.522 434.993 580.6 434.993C613.678 434.993 640.495 420.367 640.495 402.323V369.653" stroke="#F5FCFF" stroke-width="10.89" stroke-linecap="round" stroke-linejoin="round"/>
<path d="M520.705 402.323V434.993C520.705 453.037 547.522 467.663 580.6 467.663C613.678 467.663 640.495 453.037 640.495 434.993V402.323" stroke="#F5FCFF" stroke-width="10.89" stroke-linecap="round" stroke-linejoin="round"/>
</g>
<g filter="url(#filter0_d_4429_5625)">
<circle cx="776.435" cy="442.937" r="150.364" fill="#2E3233"/>
</g>
</g>
<defs>
<filter id="filter0_d_4429_5625" x="577.07" y="292.572" width="349.729" height="300.729" filterUnits="userSpaceOnUse" color-interpolation-filters="sRGB">
<feFlood flood-opacity="0" result="BackgroundImageFix"/>
<feColorMatrix in="SourceAlpha" type="matrix" values="0 0 0 0 0 0 0 0 0 0 0 0 0 0 0 0 0 0 127 0" result="hardAlpha"/>
<feOffset dx="-49"/>
<feComposite in2="hardAlpha" operator="out"/>
<feColorMatrix type="matrix" values="0 0 0 0 0 0 0 0 0 0 0 0 0 0 0 0 0 0 0.15 0"/>
<feBlend mode="normal" in2="BackgroundImageFix" result="effect1_dropShadow_4429_5625"/>
<feBlend mode="normal" in="SourceGraphic" in2="effect1_dropShadow_4429_5625" result="shape"/>
</filter>
<clipPath id="clip0_4429_5625">
<rect width="1200" height="800" fill="white" transform="translate(0.599609 0.323242)"/>
</clipPath>
<clipPath id="clip1_4429_5625">
<rect width="174.24" height="174.24" fill="white" transform="translate(493.48 315.203)"/>
</clipPath>
</defs>
</svg>
