<svg width="1201" height="800" viewBox="0 0 1201 800" fill="none" xmlns="http://www.w3.org/2000/svg">
<g clip-path="url(#clip0_4429_2167)">
<rect width="1200" height="800" transform="translate(0.598633)" fill="#FC9C9C"/>
<rect x="0.598633" width="1200" height="800" fill="#D9D9D9"/>
<rect x="0.598633" width="1200" height="800" fill="#C38BFB"/>
<rect x="451.317" y="250.72" width="298.563" height="298.563" rx="63" fill="#252829"/>
<rect x="331.889" y="131.292" width="537.419" height="537.419" rx="268.709" stroke="#252829" stroke-width="4"/>
<rect opacity="0.4" x="158.424" y="-41.1631" width="882.328" height="882.328" rx="441.164" stroke="#252829" stroke-width="4"/>
<rect opacity="0.1" x="-18.5581" y="-219.155" width="1238.31" height="1238.31" rx="619.157" stroke="#252829" stroke-width="4"/>
<path d="M556.546 443.376C550.659 443.376 545.46 442.191 540.949 439.821C536.514 437.374 533.035 434.01 530.512 429.728C528.065 425.37 526.842 420.362 526.842 414.704H543.242C543.242 418.986 544.466 422.388 546.912 424.911C549.359 427.435 552.723 428.696 557.005 428.696C560.063 428.696 562.663 428.085 564.804 426.861C567.021 425.561 568.741 423.765 569.965 421.471C571.188 419.101 571.8 416.348 571.8 413.213C571.8 410.079 571.226 407.402 570.079 405.185C568.933 402.891 567.289 401.133 565.148 399.91C563.007 398.686 560.369 398.074 557.234 398.074C554.253 398.074 551.462 398.763 548.862 400.139C546.339 401.515 544.428 403.274 543.128 405.415L528.218 402.433L538.655 357.704H583.613V373.073H547.027L551.844 368.37L545.536 392.684L539.917 395.551C541.675 391.958 544.389 389.167 548.059 387.179C551.729 385.191 556.011 384.197 560.904 384.197C566.486 384.197 571.341 385.382 575.47 387.753C579.675 390.046 582.963 393.296 585.333 397.501C587.703 401.706 588.888 406.6 588.888 412.181C588.888 418.374 587.512 423.803 584.76 428.467C582.007 433.131 578.222 436.801 573.405 439.477C568.589 442.076 562.969 443.376 556.546 443.376ZM634.126 371.926C628.774 371.926 624.263 373.111 620.593 375.481C616.923 377.851 614.133 381.177 612.221 385.459C610.31 389.74 609.354 394.787 609.354 400.598C609.354 406.485 610.386 411.493 612.45 415.622C614.591 419.674 617.497 422.732 621.167 424.797C624.913 426.785 629.195 427.779 634.012 427.779C637.758 427.779 641.008 427.282 643.76 426.288C646.589 425.294 648.921 423.918 650.756 422.159C652.591 420.324 653.967 418.183 654.885 415.736C655.802 413.29 656.261 410.652 656.261 407.823V400.827L664.175 408.626H632.291V394.06H671.859V442H657.637L656.261 429.384L658.096 431.219C656.873 433.59 654.961 435.692 652.362 437.527C649.839 439.286 646.819 440.7 643.301 441.771C639.784 442.765 636.038 443.262 632.062 443.262C624.187 443.262 617.229 441.465 611.189 437.871C605.149 434.278 600.408 429.27 596.968 422.847C593.527 416.348 591.807 408.74 591.807 400.024C591.807 391.537 593.565 384.006 597.082 377.431C600.676 370.855 605.646 365.694 611.992 361.948C618.414 358.201 625.907 356.328 634.471 356.328C641.046 356.328 647.01 357.513 652.362 359.883C657.714 362.254 662.072 365.656 665.436 370.091C668.877 374.449 670.941 379.571 671.629 385.459H654.082C652.935 380.795 650.489 377.392 646.742 375.252C643.072 373.034 638.867 371.926 634.126 371.926Z" fill="white"/>
<rect x="104.047" y="317.082" width="104.755" height="104.755" rx="16" fill="white"/>
<g clip-path="url(#clip1_4429_2167)">
<path d="M141.368 391.207L156.424 361.094L171.48 391.207" stroke="#171818" stroke-width="3.3" stroke-linecap="round" stroke-linejoin="round"/>
<path d="M148.193 362.594C147.975 361.389 148.024 360.151 148.337 358.967C148.65 357.783 149.219 356.682 150.004 355.742C150.789 354.802 151.771 354.046 152.88 353.527C153.99 353.008 155.2 352.739 156.424 352.739C157.649 352.739 158.859 353.008 159.968 353.527C161.077 354.046 162.059 354.802 162.844 355.742C163.629 356.682 164.198 357.783 164.511 358.967C164.824 360.151 164.873 361.389 164.655 362.594" stroke="#171818" stroke-width="3.3" stroke-linecap="round" stroke-linejoin="round"/>
<path d="M144.406 370.165C142.719 367.93 141.689 365.269 141.432 362.481C141.174 359.693 141.699 356.889 142.947 354.382C144.196 351.876 146.118 349.768 148.499 348.294C150.88 346.82 153.624 346.039 156.424 346.039C159.224 346.039 161.969 346.82 164.349 348.294C166.73 349.768 168.653 351.876 169.901 354.382C171.149 356.889 171.674 359.693 171.417 362.481C171.159 365.269 170.129 367.93 168.442 370.165" stroke="#171818" stroke-width="3.3" stroke-linecap="round" stroke-linejoin="round"/>
<path d="M144.714 384.516H168.135" stroke="#171818" stroke-width="3.3" stroke-linecap="round" stroke-linejoin="round"/>
<path d="M148.06 377.824H164.789" stroke="#171818" stroke-width="3.3" stroke-linecap="round" stroke-linejoin="round"/>
</g>
<rect x="905.237" y="84.7842" width="103.99" height="103.99" rx="16" fill="white"/>
<path d="M965.652 120.177L957.084 111.608C956.233 110.758 954.855 110.758 954.004 111.608L949.837 115.775C948.987 116.625 948.987 118.004 949.837 118.854L958.406 127.423" stroke="#252829" stroke-width="3.3"/>
<path d="M961.295 143.203L977.134 127.364C977.984 126.513 977.984 125.135 977.134 124.284L970.892 118.042C970.042 117.192 968.663 117.192 967.813 118.042L951.974 133.881" stroke="#252829" stroke-width="3.3"/>
<path d="M974.967 129.492L983.619 138.144C984.469 138.994 984.469 140.372 983.619 141.223L979.451 145.39C978.601 146.24 977.223 146.24 976.372 145.39L967.721 136.738" stroke="#252829" stroke-width="3.3"/>
<path d="M957.678 137.019L958.157 137.498C961.905 141.246 961.905 147.323 958.157 151.071C957.616 151.612 956.738 151.612 956.196 151.071L944.105 138.98C943.564 138.439 943.564 137.561 944.105 137.019C947.853 133.271 953.93 133.271 957.678 137.019Z" stroke="#252829" stroke-width="3.3"/>
<path opacity="0.2" d="M930.977 146.57C930.942 150.976 932.605 155.392 935.967 158.753C939.328 162.114 943.744 163.778 948.149 163.743" stroke="#252829" stroke-width="3.3"/>
<path opacity="0.56" d="M948.311 157.85C945.342 157.982 942.33 156.914 940.063 154.647C937.795 152.38 936.728 149.367 936.86 146.398" stroke="#252829" stroke-width="3.3"/>
<circle cx="946.969" cy="148.112" r="1.91249" fill="#252829"/>
<rect x="903.25" y="604.573" width="103.99" height="103.99" rx="16" fill="white"/>
<g clip-path="url(#clip2_4429_2167)">
<path d="M953.618 663.077L973.145 643.55" stroke="#252829" stroke-width="3.5" stroke-linecap="round" stroke-linejoin="round"/>
<path d="M940.69 663.077C940.63 662.537 940.6 661.993 940.6 661.45C940.602 659.125 941.157 656.835 942.218 654.767C943.28 652.7 944.818 650.914 946.705 649.558C948.593 648.202 950.776 647.314 953.074 646.968C955.373 646.622 957.72 646.827 959.924 647.567" stroke="#252829" stroke-width="3.5" stroke-linecap="round" stroke-linejoin="round"/>
<path d="M974.085 651.817C975.389 654.377 976.161 657.175 976.353 660.042C976.544 662.909 976.152 665.785 975.199 668.496C975.088 668.815 974.88 669.092 974.604 669.288C974.328 669.484 973.998 669.589 973.66 669.588H936.829C936.49 669.587 936.16 669.48 935.884 669.283C935.608 669.086 935.4 668.808 935.289 668.488C934.476 666.174 934.07 663.737 934.091 661.285C934.181 649.652 943.8 640.192 955.449 640.296C958.732 640.322 961.964 641.115 964.887 642.611" stroke="#252829" stroke-width="3.5" stroke-linecap="round" stroke-linejoin="round"/>
</g>
</g>
<defs>
<clipPath id="clip0_4429_2167">
<rect width="1200" height="800" fill="white" transform="translate(0.598633)"/>
</clipPath>
<clipPath id="clip1_4429_2167">
<rect width="53.5338" height="53.5338" fill="white" transform="translate(129.658 342.691)"/>
</clipPath>
<clipPath id="clip2_4429_2167">
<rect width="52.0718" height="52.0718" fill="white" transform="translate(929.209 630.532)"/>
</clipPath>
</defs>
</svg>
