<svg width="70" height="70" viewBox="0 0 70 70" fill="none" xmlns="http://www.w3.org/2000/svg">
<rect width="69.5947" height="69.5947" fill="white"/>
<path d="M52.6939 34.3114C52.6414 34.1929 51.3709 31.3744 48.5464 28.5499C44.7829 24.7864 40.0294 22.7974 34.7974 22.7974C29.5653 22.7974 24.8118 24.7864 21.0483 28.5499C18.2238 31.3744 16.9473 34.1974 16.9008 34.3114C16.8326 34.4648 16.7974 34.6309 16.7974 34.7989C16.7974 34.9668 16.8326 35.1329 16.9008 35.2864C16.9533 35.4049 18.2238 38.2219 21.0483 41.0464C24.8118 44.8084 29.5653 46.7974 34.7974 46.7974C40.0294 46.7974 44.7829 44.8084 48.5464 41.0464C51.3709 38.2219 52.6414 35.4049 52.6939 35.2864C52.7621 35.1329 52.7973 34.9668 52.7973 34.7989C52.7973 34.6309 52.7621 34.4648 52.6939 34.3114ZM34.7974 40.7974C33.6107 40.7974 32.4506 40.4455 31.4639 39.7862C30.4772 39.1269 29.7082 38.1898 29.2541 37.0935C28.7999 35.9971 28.6811 34.7907 28.9126 33.6268C29.1441 32.4629 29.7156 31.3938 30.5547 30.5547C31.3938 29.7156 32.4629 29.1442 33.6268 28.9127C34.7907 28.6811 35.9971 28.8 37.0935 29.2541C38.1898 29.7082 39.1269 30.4772 39.7862 31.4639C40.4455 32.4506 40.7974 33.6107 40.7974 34.7974C40.7974 36.3887 40.1652 37.9148 39.04 39.04C37.9148 40.1652 36.3886 40.7974 34.7974 40.7974Z" fill="black"/>
</svg>
